<?xml version="1.0" encoding="UTF-8"?>
<!DOCTYPE svg PUBLIC "-//W3C//DTD SVG 1.1//EN" "http://www.w3.org/Graphics/SVG/1.1/DTD/svg11.dtd">
<svg version="1.1" xmlns="http://www.w3.org/2000/svg" xmlns:xlink="http://www.w3.org/1999/xlink" x="0" y="0" width="48" height="48" viewBox="0, 0, 48, 48">
  <g id="Image" transform="translate(-1.25, -2)">
    <path d="M5.794,2 L44.706,2 C47.215,2 49.25,4.047 49.25,6.571 L49.25,45.429 C49.25,47.953 47.215,50 44.706,50 L5.794,50 C3.285,50 1.25,47.953 1.25,45.429 L1.25,6.571 C1.25,4.047 3.285,2 5.794,2 z" fill="#977D6D"/>
    <path d="M33.345,50 L33.345,31.667 L39.546,31.667 L40.966,23.714 L33.345,23.714 L33.345,17.333 C33.771,15.762 34.481,15.095 36.374,14.667 L40.966,14.667 L40.966,7.905 C35.522,6.381 30.646,7.747 30.646,7.905 C26.623,9.333 25.487,11.762 24.871,15.333 L24.871,23.714 L17.629,23.714 L17.629,31.667 L24.445,31.667 L24.445,50" fill="#FFFFFF"/>
  </g>
</svg>
