<?xml version="1.0" encoding="UTF-8"?>
<!DOCTYPE svg PUBLIC "-//W3C//DTD SVG 1.1//EN" "http://www.w3.org/Graphics/SVG/1.1/DTD/svg11.dtd">
<svg version="1.1" xmlns="http://www.w3.org/2000/svg" xmlns:xlink="http://www.w3.org/1999/xlink" x="0" y="0" width="91.875" height="120" viewBox="0, 0, 91.875, 120">
  <defs>
    <linearGradient id="Gradient_1" gradientUnits="userSpaceOnUse" x1="66.602" y1="56.533" x2="75.262" y2="81.009">
      <stop offset="0" stop-color="#FA400A"/>
      <stop offset="1" stop-color="#B00803"/>
    </linearGradient>
    <linearGradient id="Gradient_2" gradientUnits="userSpaceOnUse" x1="66.744" y1="57.873" x2="74.305" y2="80.18">
      <stop offset="0" stop-color="#FFFFFF"/>
      <stop offset="1" stop-color="#DCD8D5"/>
    </linearGradient>
    <linearGradient id="Gradient_3" gradientUnits="userSpaceOnUse" x1="127.399" y1="56.533" x2="118.739" y2="81.009">
      <stop offset="0" stop-color="#FA400A"/>
      <stop offset="1" stop-color="#B00803"/>
    </linearGradient>
    <linearGradient id="Gradient_4" gradientUnits="userSpaceOnUse" x1="127.259" y1="57.873" x2="119.697" y2="80.179">
      <stop offset="0" stop-color="#FFFFFF"/>
      <stop offset="1" stop-color="#DCD8D5"/>
    </linearGradient>
    <linearGradient id="Gradient_5" gradientUnits="userSpaceOnUse" x1="69.984" y1="89.461" x2="123.865" y2="143.342">
      <stop offset="0" stop-color="#FFF07A"/>
      <stop offset="0.607" stop-color="#E19F2B"/>
      <stop offset="1" stop-color="#FAE26D"/>
    </linearGradient>
    <linearGradient id="Gradient_6" gradientUnits="userSpaceOnUse" x1="116.093" y1="135.571" x2="77.755" y2="97.232">
      <stop offset="0" stop-color="#F8B641"/>
      <stop offset="0.006" stop-color="#F8B641"/>
      <stop offset="0.281" stop-color="#FFF07A"/>
      <stop offset="0.522" stop-color="#E19F2B"/>
      <stop offset="0.775" stop-color="#B37100"/>
      <stop offset="1" stop-color="#F8B641"/>
    </linearGradient>
    <linearGradient id="Gradient_7" gradientUnits="userSpaceOnUse" x1="61.428" y1="116.391" x2="131.656" y2="116.391">
      <stop offset="0" stop-color="#F8B641"/>
      <stop offset="0.006" stop-color="#F8B641"/>
      <stop offset="0.281" stop-color="#FFF07A"/>
      <stop offset="0.522" stop-color="#E19F2B"/>
      <stop offset="0.775" stop-color="#B37100"/>
      <stop offset="1" stop-color="#F8B641"/>
    </linearGradient>
  </defs>
  <g id="Layer_1" transform="translate(-51.063, -34.5)">
    <path d="M123.366,65.934 L70.392,65.934 L70.642,34.594 L123.453,34.5 z" fill="#C81B00"/>
    <path d="M123.366,55.762 L70.553,55.762 L70.553,45.331 L123.366,45.331 z" fill="#D6D8E1"/>
    <path d="M68.007,93.993 L51.063,57.845 L70.643,34.5 L91.729,82.319 z" fill="url(#Gradient_1)"/>
    <path d="M56.48,50.963 L74.229,90.93 L84.206,86.021 L63.906,42.105 z" fill="url(#Gradient_2)"/>
    <path d="M125.995,93.993 L142.938,57.845 L123.357,34.5 L102.272,82.319 z" fill="url(#Gradient_3)"/>
    <path d="M137.521,50.963 L119.773,90.93 L109.796,86.021 L130.096,42.105 z" fill="url(#Gradient_4)"/>
    <path d="M58.824,116.402 C58.824,137.443 75.881,154.5 96.924,154.5 L96.924,154.5 C117.965,154.5 135.023,137.443 135.023,116.402 L135.023,116.402 C135.023,95.359 117.965,78.302 96.924,78.302 L96.924,78.302 C75.881,78.302 58.824,95.359 58.824,116.402 z" fill="url(#Gradient_5)"/>
    <path d="M69.802,116.402 C69.802,131.357 81.967,143.523 96.924,143.523 L96.924,143.523 C111.878,143.523 124.047,131.357 124.047,116.402 L124.047,116.402 C124.047,101.446 111.878,89.281 96.924,89.281 L96.924,89.281 C81.967,89.281 69.802,101.446 69.802,116.402 z M73.033,116.402 C73.033,103.23 83.751,92.511 96.924,92.511 L96.924,92.511 C110.098,92.511 120.815,103.23 120.815,116.402 L120.815,116.402 C120.815,129.576 110.098,140.294 96.924,140.294 L96.924,140.294 C83.751,140.294 73.033,129.576 73.033,116.402 z" fill="url(#Gradient_6)"/>
    <path d="M61.428,116.394 C61.428,135.752 77.18,151.506 96.543,151.506 L96.543,151.506 C115.907,151.506 131.656,135.752 131.656,116.394 L131.656,116.394 C131.656,97.028 115.907,81.275 96.543,81.275 L96.543,81.275 C77.18,81.275 61.428,97.028 61.428,116.394 z M62.28,116.394 C62.28,97.499 77.652,82.129 96.543,82.129 L96.543,82.129 C115.435,82.129 130.803,97.499 130.803,116.394 L130.803,116.394 C130.803,135.281 115.435,150.651 96.543,150.651 L96.543,150.651 C77.652,150.651 62.28,135.281 62.28,116.394 z M63.626,116.394 C63.626,134.544 78.393,149.306 96.543,149.306 L96.543,149.306 C114.691,149.306 129.458,134.544 129.458,116.394 L129.458,116.394 C129.458,98.239 114.691,83.474 96.543,83.474 L96.543,83.474 C78.393,83.474 63.626,98.239 63.626,116.394 z M64.481,116.394 C64.481,98.711 78.863,84.332 96.543,84.332 L96.543,84.332 C114.222,84.332 128.603,98.711 128.603,116.394 L128.603,116.394 C128.603,134.07 114.222,148.453 96.543,148.453 L96.543,148.453 C78.863,148.453 64.481,134.07 64.481,116.394 z M65.911,116.394 C65.911,133.279 79.65,147.02 96.543,147.02 L96.543,147.02 C113.433,147.02 127.173,133.279 127.173,116.394 L127.173,116.394 C127.173,99.501 113.433,85.759 96.543,85.759 L96.543,85.759 C79.65,85.759 65.911,99.501 65.911,116.394 z M66.768,116.394 C66.768,99.97 80.122,86.614 96.543,86.614 L96.543,86.614 C112.962,86.614 126.318,99.97 126.318,116.394 L126.318,116.394 C126.318,132.81 112.962,146.168 96.543,146.168 L96.543,146.168 C80.122,146.168 66.768,132.81 66.768,116.394 z" fill="url(#Gradient_7)"/>
  </g>
</svg>
