<?xml version="1.0" encoding="UTF-8"?>
<!DOCTYPE svg PUBLIC "-//W3C//DTD SVG 1.1//EN" "http://www.w3.org/Graphics/SVG/1.1/DTD/svg11.dtd">
<svg version="1.1" xmlns="http://www.w3.org/2000/svg" xmlns:xlink="http://www.w3.org/1999/xlink" x="0" y="0" width="150" height="150" viewBox="0, 0, 150, 150">
  <g id="Layer_1" transform="translate(-51.251, -73.249)">
    <g>
      <path d="M167.043,165.05 C166.633,166.046 165.497,166.52 164.501,166.111 C163.505,165.701 163.031,164.561 163.441,163.566 C163.851,162.57 164.99,162.096 165.986,162.506 C166.98,162.915 167.456,164.055 167.043,165.05 z M143.216,188.974 C142.222,189.388 141.082,188.918 140.667,187.925 C140.253,186.932 140.723,185.79 141.717,185.376 C142.711,184.962 143.852,185.431 144.267,186.427 C144.679,187.421 144.21,188.56 143.216,188.974 z M111.994,187.983 C111.584,188.978 110.445,189.453 109.449,189.043 C108.453,188.633 107.979,187.494 108.389,186.498 C108.799,185.502 109.938,185.028 110.934,185.438 C111.929,185.848 112.403,186.987 111.994,187.983 z M88.072,166.262 C87.079,166.676 85.937,166.207 85.523,165.213 C85.111,164.22 85.581,163.079 86.575,162.664 C87.568,162.25 88.707,162.72 89.121,163.714 C89.535,164.708 89.066,165.849 88.072,166.262 z M85.457,131.446 C85.867,130.45 87.006,129.976 88.001,130.386 C88.997,130.796 89.471,131.935 89.061,132.931 C88.651,133.926 87.512,134.401 86.517,133.991 C85.521,133.581 85.047,132.442 85.457,131.446 z M109.286,107.522 C110.279,107.108 111.421,107.578 111.835,108.572 C112.247,109.565 111.777,110.707 110.784,111.121 C109.79,111.535 108.651,111.065 108.237,110.069 C107.823,109.076 108.292,107.937 109.286,107.522 z M140.509,108.514 C140.918,107.518 142.058,107.044 143.052,107.454 C144.048,107.864 144.521,109.003 144.111,109.999 C143.701,110.994 142.564,111.468 141.569,111.058 C140.573,110.649 140.099,109.509 140.509,108.514 z M164.428,130.234 C165.421,129.82 166.563,130.289 166.977,131.283 C167.391,132.276 166.921,133.418 165.928,133.832 C164.935,134.246 163.793,133.776 163.379,132.783 C162.965,131.789 163.434,130.648 164.428,130.234 z M156.35,145.5 C156.35,145.5 154.981,147.197 153.221,146.444 C151.465,145.691 149.729,145.401 148.244,145.5 C146.759,145.401 145.023,145.691 143.266,146.444 C141.507,147.197 140.138,145.5 140.138,145.5 L139.728,145.5 C139.372,143.743 138.681,142.108 137.722,140.664 L138.013,140.372 C138.013,140.372 137.782,138.205 139.559,137.492 C141.335,136.782 142.766,135.761 143.744,134.641 C144.866,133.66 145.887,132.229 146.598,130.453 C147.309,128.676 149.477,128.908 149.477,128.908 L154.129,124.257 C159.123,130.052 162.347,137.417 162.945,145.5 L156.35,145.5 z M154.129,172.24 L149.477,167.589 C149.477,167.589 147.309,167.821 146.598,166.045 C145.887,164.267 144.866,162.836 143.744,161.855 C142.766,160.736 141.335,159.715 139.559,159.004 C137.782,158.292 138.013,156.125 138.013,156.125 L137.722,155.833 C138.681,154.39 139.372,152.754 139.728,150.997 L140.138,150.997 C140.138,150.997 141.507,149.3 143.266,150.053 C145.023,150.806 146.759,151.095 148.244,150.997 C149.729,151.095 151.465,150.806 153.221,150.053 C154.981,149.3 156.35,150.997 156.35,150.997 L162.945,150.997 C162.347,159.08 159.123,166.444 154.129,172.24 z M128.055,175.218 C128.809,173.462 129.098,171.726 129,170.241 C129.098,168.756 128.809,167.02 128.055,165.263 C127.303,163.504 129,162.135 129,162.135 L129,161.726 C130.756,161.369 132.393,160.678 133.836,159.719 L134.128,160.01 C134.128,160.01 136.295,159.779 137.007,161.555 C137.718,163.332 138.739,164.763 139.858,165.741 C140.839,166.863 142.27,167.884 144.048,168.595 C145.824,169.306 145.592,171.474 145.592,171.474 L150.243,176.126 C144.447,181.122 137.082,184.344 129,184.942 L129,178.347 C129,178.347 127.303,176.978 128.055,175.218 z M98.373,124.256 L103.025,128.908 C103.025,128.908 105.194,128.676 105.904,130.453 C106.615,132.229 107.636,133.66 108.758,134.641 C109.736,135.761 111.168,136.782 112.944,137.492 C114.721,138.205 114.489,140.372 114.489,140.372 L114.781,140.664 C113.822,142.108 113.131,143.743 112.775,145.5 L112.365,145.5 C112.365,145.5 110.996,147.197 109.236,146.444 C107.479,145.691 105.743,145.401 104.259,145.5 C102.774,145.401 101.038,145.691 99.281,146.444 C97.522,147.197 96.153,145.5 96.153,145.5 L89.556,145.5 C90.156,137.416 93.378,130.052 98.373,124.256 z M124.447,121.278 C123.694,123.035 123.404,124.771 123.503,126.256 C123.404,127.741 123.694,129.476 124.447,131.234 C125.2,132.993 123.503,134.362 123.503,134.362 L123.503,134.77 C121.745,135.126 120.108,135.819 118.664,136.776 L118.375,136.486 C118.375,136.486 116.208,136.718 115.495,134.941 C114.785,133.165 113.764,131.734 112.644,130.755 C111.663,129.633 110.232,128.612 108.456,127.902 C106.679,127.191 106.911,125.022 106.911,125.022 L102.259,120.37 C108.055,115.376 115.419,112.153 123.503,111.554 L123.503,118.15 C123.503,118.15 125.2,119.519 124.447,121.278 z M136.121,149.75 C135.291,149.75 134.619,149.078 134.619,148.248 C134.619,147.418 135.291,146.746 136.121,146.746 C136.952,146.746 137.622,147.418 137.622,148.248 C137.622,149.078 136.952,149.75 136.121,149.75 z M132.17,156.29 C131.581,155.702 131.581,154.751 132.17,154.167 C132.754,153.578 133.704,153.578 134.293,154.167 C134.879,154.751 134.879,155.702 134.293,156.29 C133.704,156.876 132.754,156.876 132.17,156.29 z M118.209,154.167 C118.797,153.578 119.748,153.578 120.334,154.167 C120.921,154.751 120.921,155.702 120.334,156.29 C119.748,156.876 118.797,156.876 118.209,156.29 C117.624,155.702 117.624,154.751 118.209,154.167 z M116.381,146.746 C117.212,146.746 117.883,147.418 117.883,148.248 C117.883,149.078 117.212,149.75 116.381,149.75 C115.551,149.75 114.879,149.078 114.879,148.248 C114.879,147.418 115.551,146.746 116.381,146.746 z M120.334,140.207 C120.921,140.794 120.921,141.745 120.334,142.331 C119.748,142.919 118.797,142.919 118.209,142.331 C117.624,141.745 117.624,140.794 118.209,140.207 C118.797,139.621 119.748,139.621 120.334,140.207 z M132.248,148.248 C132.248,151.561 129.562,154.247 126.249,154.247 C122.938,154.247 120.252,151.561 120.252,148.248 C120.252,144.936 122.938,142.251 126.249,142.251 C129.562,142.251 132.248,144.936 132.248,148.248 z M124.749,138.378 C124.749,137.548 125.421,136.877 126.251,136.877 C127.081,136.877 127.753,137.548 127.753,138.378 C127.753,139.209 127.081,139.88 126.251,139.88 C125.421,139.88 124.749,139.209 124.749,138.378 z M127.753,158.118 C127.753,158.949 127.081,159.619 126.251,159.619 C125.421,159.619 124.749,158.949 124.749,158.118 C124.749,157.288 125.421,156.616 126.251,156.616 C127.081,156.616 127.753,157.288 127.753,158.118 z M134.293,142.331 C133.704,142.919 132.754,142.919 132.17,142.331 C131.581,141.745 131.581,140.794 132.17,140.207 C132.754,139.621 133.704,139.621 134.293,140.207 C134.879,140.794 134.879,141.745 134.293,142.331 z M150.243,120.371 L145.592,125.022 C145.592,125.022 145.824,127.191 144.048,127.902 C142.27,128.612 140.839,129.633 139.858,130.755 C138.739,131.734 137.718,133.165 137.007,134.941 C136.295,136.718 134.128,136.486 134.128,136.486 L133.836,136.778 C132.393,135.819 130.756,135.128 129,134.77 L129,134.362 C129,134.362 127.303,132.993 128.055,131.234 C128.809,129.476 129.098,127.741 129,126.256 C129.098,124.771 128.809,123.035 128.055,121.278 C127.303,119.519 129,118.15 129,118.15 L129,111.554 C137.082,112.153 144.447,115.376 150.243,120.371 z M89.556,150.997 L96.153,150.997 C96.153,150.997 97.522,149.3 99.281,150.053 C101.038,150.806 102.774,151.095 104.259,150.997 C105.743,151.095 107.479,150.806 109.236,150.053 C110.996,149.3 112.365,150.997 112.365,150.997 L112.775,150.997 C113.131,152.754 113.822,154.39 114.781,155.833 L114.489,156.125 C114.489,156.125 114.721,158.292 112.944,159.004 C111.168,159.715 109.736,160.736 108.758,161.855 C107.636,162.836 106.615,164.267 105.904,166.045 C105.194,167.821 103.025,167.589 103.025,167.589 L98.373,172.24 C93.378,166.445 90.156,159.08 89.556,150.997 z M102.259,176.126 L106.911,171.474 C106.911,171.474 106.679,169.306 108.456,168.595 C110.232,167.884 111.663,166.863 112.644,165.741 C113.764,164.763 114.785,163.332 115.495,161.555 C116.208,159.779 118.375,160.01 118.375,160.01 L118.664,159.72 C120.108,160.678 121.745,161.37 123.503,161.726 L123.503,162.135 C123.503,162.135 125.2,163.504 124.447,165.263 C123.694,167.02 123.404,168.756 123.503,170.241 C123.404,171.726 123.694,173.462 124.447,175.218 C125.2,176.978 123.503,178.347 123.503,178.347 L123.503,184.942 C115.419,184.344 108.055,181.122 102.259,176.126 z M200.684,146.691 C199.561,145.328 197.363,143.616 193.551,143.955 C187.367,144.502 176.933,149.344 176.16,143.498 L173.76,143.498 C172.837,134.109 169.191,125.304 163.203,118.014 L164.9,116.317 C161.312,111.636 172.116,107.681 176.875,103.697 C179.809,101.24 180.153,98.477 179.984,96.717 C179.87,95.535 178.964,94.63 177.783,94.516 C176.023,94.346 173.259,94.69 170.803,97.625 C166.819,102.384 162.864,113.187 158.182,109.6 L156.485,111.296 C149.194,105.309 140.39,101.662 131.002,100.74 L131.002,98.339 C125.155,97.567 129.997,87.133 130.544,80.949 C130.884,77.136 129.172,74.939 127.808,73.815 C126.893,73.06 125.61,73.06 124.694,73.815 C123.331,74.939 121.619,77.136 121.958,80.949 C122.505,87.133 127.347,97.567 121.501,98.339 L121.501,100.74 C112.111,101.662 103.307,105.308 96.016,111.296 L94.32,109.6 C89.638,113.187 85.684,102.384 81.7,97.625 C79.243,94.69 76.479,94.346 74.72,94.516 C73.538,94.63 72.632,95.535 72.519,96.717 C72.349,98.477 72.692,101.24 75.628,103.697 C80.387,107.681 91.19,111.636 87.602,116.317 L89.298,118.013 C83.311,125.304 79.665,134.109 78.743,143.498 L76.342,143.498 C75.57,149.344 65.136,144.502 58.952,143.955 C55.139,143.616 52.942,145.328 51.818,146.691 C51.063,147.607 51.063,148.89 51.818,149.805 C52.942,151.169 55.139,152.881 58.952,152.542 C65.136,151.994 75.57,147.152 76.342,152.999 L78.743,152.999 C79.665,162.387 83.311,171.193 89.298,178.484 L87.602,180.179 C91.19,184.861 80.387,188.816 75.628,192.8 C72.692,195.256 72.349,198.02 72.519,199.78 C72.632,200.961 73.538,201.867 74.72,201.981 C76.479,202.15 79.243,201.806 81.7,198.872 C85.684,194.113 89.638,183.31 94.32,186.897 L96.016,185.201 C103.307,191.189 112.112,194.835 121.501,195.756 L121.501,198.157 C127.347,198.93 122.505,209.363 121.958,215.548 C121.619,219.36 123.331,221.557 124.694,222.682 C125.61,223.437 126.893,223.437 127.808,222.682 C129.172,221.557 130.884,219.36 130.544,215.548 C129.997,209.363 125.155,198.93 131.002,198.157 L131.002,195.756 C140.39,194.835 149.194,191.188 156.485,185.2 L158.182,186.897 C162.864,183.31 166.819,194.113 170.803,198.872 C173.259,201.806 176.023,202.15 177.783,201.981 C178.964,201.867 179.87,200.961 179.984,199.78 C180.153,198.02 179.809,195.256 176.875,192.8 C172.116,188.816 161.312,184.861 164.9,180.179 L163.203,178.482 C169.191,171.193 172.837,162.387 173.76,152.999 L176.16,152.999 C176.933,147.152 187.367,151.994 193.551,152.542 C197.363,152.881 199.561,151.169 200.684,149.805 C201.44,148.89 201.44,147.607 200.684,146.691" fill="#003965"/>
      <path d="M126.252,185.073 C105.914,185.073 89.427,168.586 89.427,148.249 C89.427,127.911 105.914,111.424 126.252,111.424 C146.589,111.424 163.076,127.911 163.076,148.249 C163.076,168.586 146.589,185.073 126.252,185.073 z" fill="#FFFFFF"/>
      <g>
        <path d="M143.623,148.246 C143.623,147.904 143.623,147.55 143.623,148.246" fill="#000000"/>
        <path d="M112.534,137.59 L112.534,137.59 C110.993,139.575 109.87,141.902 109.303,144.437 L109.276,144.544 C109.26,144.63 109.238,144.715 109.222,144.801 L109.201,144.903 C109.185,144.993 109.169,145.084 109.153,145.17 L109.137,145.266 C109.121,145.357 109.105,145.454 109.089,145.545 L109.078,145.625 C109.062,145.726 109.046,145.828 109.035,145.93 L109.025,145.994 C109.014,146.101 108.998,146.208 108.987,146.315 L108.982,146.363 C108.971,146.475 108.96,146.582 108.95,146.695 L108.944,146.737 C108.934,146.85 108.928,146.967 108.918,147.085 L108.918,147.101 C108.912,147.224 108.902,147.347 108.896,147.47 L108.896,147.481 C108.891,147.609 108.885,147.732 108.885,147.861 C108.88,147.989 108.88,148.117 108.88,148.246 L91.929,148.246 L106.254,145.058 C106.858,141.265 108.511,137.82 110.908,135.039 L107.195,129.192 L113.042,132.905 C115.823,130.508 119.268,128.855 123.061,128.251 L122.376,131.31 C119.851,131.888 117.54,133.012 115.567,134.552 L115.492,134.611 C115.438,134.654 115.385,134.696 115.331,134.739 L115.246,134.809 C115.197,134.846 115.149,134.889 115.101,134.926 L115.021,134.996 C114.967,135.039 114.914,135.087 114.866,135.13 L114.796,135.194 C114.743,135.237 114.695,135.28 114.647,135.322 L114.561,135.397 C114.518,135.44 114.47,135.483 114.422,135.531 L114.342,135.606 C114.293,135.649 114.245,135.697 114.197,135.74 L114.122,135.814 C114.074,135.857 114.031,135.905 113.983,135.954 L113.908,136.023 C113.866,136.071 113.817,136.119 113.775,136.162 L113.7,136.242 C113.652,136.29 113.609,136.339 113.566,136.381 L113.502,136.451 C113.454,136.505 113.4,136.558 113.352,136.612 L113.293,136.681 C113.245,136.729 113.202,136.783 113.159,136.831 L113.095,136.906 C113.047,136.959 113.004,137.013 112.956,137.071 L112.897,137.136 C112.855,137.189 112.812,137.243 112.769,137.296 L112.71,137.371 C112.662,137.424 112.619,137.483 112.576,137.537 L112.534,137.59" fill="#0084CC"/>
        <path d="M110.908,161.458 L107.195,167.305 L113.042,163.587 C115.823,165.989 119.268,167.642 123.061,168.241 L126.249,182.571 L126.249,165.62 C126.067,165.62 125.89,165.615 125.714,165.609 C124.569,165.572 123.457,165.427 122.376,165.181 L122.387,165.235 C119.573,164.646 117.326,163.443 115.55,161.993 L115.593,161.966 C115.112,161.592 114.652,161.191 114.213,160.768 C110.389,156.874 109.303,152.065 109.313,152.119 L106.254,151.439 C106.858,155.232 108.511,158.677 110.908,161.458" fill="#005FA6"/>
        <path d="M139.969,158.901 L139.969,158.901 C141.51,156.922 142.633,154.595 143.2,152.06 L143.222,151.953 C143.243,151.867 143.259,151.782 143.281,151.696 L143.297,151.594 C143.318,151.504 143.334,151.412 143.35,151.322 L143.366,151.231 C143.382,151.134 143.398,151.043 143.409,150.947 L143.425,150.867 C143.441,150.765 143.452,150.664 143.468,150.562 L143.473,150.503 C143.489,150.396 143.5,150.289 143.516,150.182 L143.521,150.134 C143.532,150.022 143.543,149.909 143.553,149.797 L143.553,149.76 C143.564,149.642 143.575,149.524 143.58,149.407 L143.585,149.391 C143.591,149.268 143.596,149.145 143.601,149.022 L143.601,149.011 C143.607,148.888 143.612,148.759 143.618,148.636 L143.618,148.631 C143.618,148.503 143.623,148.374 143.623,148.246 L160.574,148.246 L146.244,151.439 C145.645,155.232 143.992,158.677 141.59,161.458 L145.308,167.305 L139.461,163.587 C136.68,165.989 133.235,167.642 129.442,168.241 L130.122,165.181 C132.646,164.609 134.963,163.485 136.937,161.945 L137.011,161.886 C137.065,161.843 137.118,161.801 137.172,161.758 L137.257,161.688 C137.306,161.645 137.354,161.608 137.402,161.565 L137.482,161.501 C137.53,161.453 137.584,161.41 137.637,161.362 L137.707,161.303 C137.755,161.26 137.808,161.217 137.856,161.169 L137.937,161.094 C137.985,161.052 138.033,161.009 138.081,160.966 L138.161,160.891 C138.21,160.843 138.258,160.8 138.301,160.757 L138.375,160.683 C138.424,160.634 138.472,160.592 138.52,160.544 L138.589,160.469 C138.637,160.426 138.68,160.378 138.728,160.33 L138.803,160.255 C138.846,160.207 138.894,160.158 138.937,160.11 L139.001,160.041 C139.049,159.987 139.097,159.934 139.146,159.88 L139.21,159.816 C139.253,159.762 139.301,159.714 139.344,159.661 L139.408,159.591 C139.451,159.533 139.499,159.479 139.547,159.426 L139.6,159.356 C139.643,159.308 139.691,159.254 139.734,159.201 L139.793,159.126 C139.836,159.067 139.884,159.014 139.927,158.955 L139.969,158.901" fill="#0084CC"/>
        <path d="M129.442,128.251 C133.235,128.855 136.68,130.508 139.461,132.905 L145.308,129.192 L141.59,135.039 C143.992,137.82 145.645,141.265 146.244,145.058 L143.184,144.373 C143.211,144.475 142.082,140.265 139.889,137.489 L139.825,137.408 C139.782,137.36 139.739,137.307 139.697,137.253 L139.632,137.173 C139.59,137.125 139.547,137.071 139.504,137.023 L139.429,136.932 C139.386,136.884 139.349,136.836 139.306,136.793 L139.231,136.708 C139.189,136.66 139.146,136.612 139.103,136.563 L139.023,136.478 C138.98,136.435 138.942,136.387 138.9,136.344 L138.819,136.258 C138.771,136.21 138.728,136.167 138.686,136.125 C138.659,136.093 138.627,136.06 138.6,136.034 C138.557,135.991 138.514,135.948 138.466,135.905 L138.386,135.82 C138.338,135.777 138.295,135.729 138.247,135.686 L138.161,135.606 C138.119,135.563 138.076,135.526 138.028,135.483 L137.931,135.392 C137.889,135.354 137.84,135.312 137.798,135.269 L137.712,135.199 C137.664,135.156 137.616,135.114 137.568,135.071 L137.487,135.001 C137.434,134.959 137.38,134.91 137.327,134.868 L137.241,134.798 C137.193,134.761 137.145,134.718 137.092,134.675 L137.011,134.616 C135.021,133.038 132.678,131.894 130.116,131.31 L130.009,131.284 C129.924,131.268 129.833,131.246 129.747,131.23 L129.64,131.209 C129.549,131.193 129.458,131.171 129.367,131.155 L129.271,131.139 C129.175,131.123 129.084,131.107 128.988,131.091 L128.902,131.08 C128.8,131.064 128.699,131.048 128.597,131.038 L128.538,131.027 C128.431,131.011 128.319,131 128.212,130.99 L128.159,130.984 C128.046,130.968 127.934,130.957 127.821,130.947 L127.784,130.947 C127.666,130.936 127.549,130.925 127.426,130.915 L127.41,130.915 C127.287,130.909 127.164,130.899 127.041,130.893 L127.025,130.893 C126.896,130.888 126.773,130.883 126.645,130.883 L126.639,130.883 C126.511,130.877 126.383,130.877 126.249,130.877 L126.249,113.926 L129.442,128.251" fill="#005FA6"/>
        <path d="M126.249,137.071 L119.595,155.574 L126.249,151.241 L132.908,155.574 L126.249,137.071" fill="#0084CC"/>
        <path d="M126.249,151.241 L132.908,155.574 L126.249,137.071 L126.249,151.241" fill="#005FA6"/>
        <path d="M137.263,137.237 C134.444,134.418 130.549,132.674 126.249,132.674 C121.954,132.674 118.059,134.418 115.24,137.237 C112.421,140.056 110.677,143.951 110.677,148.246 C110.677,152.546 112.421,156.441 115.24,159.26 C118.059,162.073 121.954,163.817 126.249,163.817 C130.549,163.817 134.444,162.073 137.263,159.26 C140.076,156.441 141.82,152.546 141.82,148.246 C141.82,143.951 140.076,140.056 137.263,137.237 z M126.249,132.14 C130.699,132.14 134.722,133.942 137.637,136.858 C140.553,139.773 142.355,143.801 142.355,148.246 C142.355,152.696 140.553,156.719 137.637,159.634 C134.722,162.55 130.699,164.352 126.249,164.352 C121.804,164.352 117.776,162.55 114.861,159.634 C111.945,156.719 110.143,152.696 110.143,148.246 C110.143,143.801 111.945,139.773 114.861,136.858 C117.776,133.942 121.804,132.14 126.249,132.14" fill="#797979"/>
      </g>
    </g>
  </g>
</svg>
