<?xml version="1.0" encoding="UTF-8"?>
<!DOCTYPE svg PUBLIC "-//W3C//DTD SVG 1.1//EN" "http://www.w3.org/Graphics/SVG/1.1/DTD/svg11.dtd">
<svg version="1.1" xmlns="http://www.w3.org/2000/svg" xmlns:xlink="http://www.w3.org/1999/xlink" x="0" y="0" width="487.628" height="784.712" viewBox="0, 0, 487.628, 784.712">
  <defs>
    <linearGradient id="Gradient_1" gradientUnits="userSpaceOnUse" x1="207.785" y1="10.849" x2="207.785" y2="-430.553">
      <stop offset="0" stop-color="#FFFCEB"/>
      <stop offset="0.31" stop-color="#F4D982"/>
      <stop offset="0.656" stop-color="#E1707C"/>
      <stop offset="1" stop-color="#D56299"/>
    </linearGradient>
    <linearGradient id="Gradient_2" gradientUnits="userSpaceOnUse" x1="312.136" y1="10.849" x2="312.136" y2="-430.553">
      <stop offset="0" stop-color="#FFFCEB"/>
      <stop offset="0.31" stop-color="#F6E299"/>
      <stop offset="0.656" stop-color="#E99095"/>
      <stop offset="1" stop-color="#E085AC"/>
    </linearGradient>
    <linearGradient id="Gradient_3" gradientUnits="userSpaceOnUse" x1="312.136" y1="10.849" x2="312.136" y2="-430.553">
      <stop offset="0" stop-color="#FFFCEB"/>
      <stop offset="0.31" stop-color="#F8E9AB"/>
      <stop offset="0.656" stop-color="#EEAAA7"/>
      <stop offset="1" stop-color="#E69FBA"/>
    </linearGradient>
    <linearGradient id="Gradient_4" gradientUnits="userSpaceOnUse" x1="196.611" y1="151.013" x2="196.611" y2="32.761">
      <stop offset="0" stop-color="#B4788D"/>
      <stop offset="1" stop-color="#A7688E"/>
    </linearGradient>
    <linearGradient id="Gradient_5" gradientUnits="userSpaceOnUse" x1="178.11" y1="107.918" x2="178.11" y2="-41.089">
      <stop offset="0" stop-color="#A16491"/>
      <stop offset="1" stop-color="#905684"/>
    </linearGradient>
    <linearGradient id="Gradient_6" gradientUnits="userSpaceOnUse" x1="252.855" y1="152.95" x2="252.855" y2="111.703">
      <stop offset="0" stop-color="#A16491"/>
      <stop offset="1" stop-color="#905684"/>
    </linearGradient>
    <linearGradient id="Gradient_7" gradientUnits="userSpaceOnUse" x1="246.181" y1="63.749" x2="248.336" y2="78.081">
      <stop offset="0" stop-color="#A16491"/>
      <stop offset="1" stop-color="#905684"/>
    </linearGradient>
    <linearGradient id="Gradient_8" gradientUnits="userSpaceOnUse" x1="287.792" y1="58.555" x2="287.792" y2="75.431">
      <stop offset="0" stop-color="#A16491"/>
      <stop offset="1" stop-color="#905684"/>
    </linearGradient>
    <linearGradient id="Gradient_9" gradientUnits="userSpaceOnUse" x1="422.997" y1="5.281" x2="422.997" y2="19.173">
      <stop offset="0" stop-color="#A16491"/>
      <stop offset="1" stop-color="#905684"/>
    </linearGradient>
    <linearGradient id="Gradient_10" gradientUnits="userSpaceOnUse" x1="208.586" y1="72.516" x2="209.434" y2="95.196">
      <stop offset="0" stop-color="#7D4D85"/>
      <stop offset="1" stop-color="#6E4273"/>
    </linearGradient>
    <linearGradient id="Gradient_11" gradientUnits="userSpaceOnUse" x1="92.183" y1="18.401" x2="92.183" y2="49.536">
      <stop offset="0" stop-color="#7D4D85"/>
      <stop offset="1" stop-color="#6E4273"/>
    </linearGradient>
    <linearGradient id="Gradient_12" gradientUnits="userSpaceOnUse" x1="192.908" y1="64.28" x2="192.908" y2="79.656">
      <stop offset="0" stop-color="#7D4D85"/>
      <stop offset="1" stop-color="#6E4273"/>
    </linearGradient>
    <linearGradient id="Gradient_13" gradientUnits="userSpaceOnUse" x1="207.785" y1="221.006" x2="207.785" y2="151.513">
      <stop offset="0" stop-color="#7D4D85"/>
      <stop offset="1" stop-color="#6E4273"/>
    </linearGradient>
    <linearGradient id="Gradient_14" gradientUnits="userSpaceOnUse" x1="328.837" y1="45.456" x2="326.718" y2="70.442">
      <stop offset="0" stop-color="#7D4D85"/>
      <stop offset="1" stop-color="#6E4273"/>
    </linearGradient>
    <linearGradient id="Gradient_15" gradientUnits="userSpaceOnUse" x1="374.005" y1="21.358" x2="374.005" y2="63.912">
      <stop offset="0" stop-color="#7D4D85"/>
      <stop offset="1" stop-color="#6E4273"/>
    </linearGradient>
    <linearGradient id="Gradient_16" gradientUnits="userSpaceOnUse" x1="404.318" y1="9.644" x2="403.388" y2="48.522">
      <stop offset="0" stop-color="#7D4D85"/>
      <stop offset="1" stop-color="#6E4273"/>
    </linearGradient>
    <linearGradient id="Gradient_17" gradientUnits="userSpaceOnUse" x1="56.497" y1="31.573" x2="58.404" y2="78.275">
      <stop offset="0" stop-color="#5B426C"/>
      <stop offset="1" stop-color="#4F365C"/>
    </linearGradient>
    <linearGradient id="Gradient_18" gradientUnits="userSpaceOnUse" x1="167.635" y1="51.471" x2="167.635" y2="103.163">
      <stop offset="0" stop-color="#5B426C"/>
      <stop offset="1" stop-color="#4F365C"/>
    </linearGradient>
    <linearGradient id="Gradient_19" gradientUnits="userSpaceOnUse" x1="206.785" y1="365.149" x2="206.785" y2="220.772">
      <stop offset="0" stop-color="#5B426C"/>
      <stop offset="1" stop-color="#4F365C"/>
    </linearGradient>
    <clipPath id="Clip_1">
      <path d="M64.666,-426.448 L350.384,-426.448 L350.384,-371.053 L64.666,-371.053 z M92.999,-418.448 Q91.728,-418.448 90.979,-417.577 Q90.23,-416.705 90.23,-414.962 L90.23,-397.079 L78.52,-414.798 Q78.028,-415.577 77.567,-416.295 Q77.105,-417.013 76.665,-417.464 Q76.224,-417.915 75.639,-418.182 Q75.055,-418.448 74.234,-418.448 Q73.188,-418.448 72.286,-417.864 Q71.384,-417.279 70.994,-416.357 Q70.666,-415.516 70.666,-414.039 L70.666,-390.845 Q70.666,-389.143 71.445,-388.251 Q72.225,-387.359 73.517,-387.359 Q74.768,-387.359 75.567,-388.24 Q76.367,-389.122 76.367,-390.845 L76.367,-408.461 L87.79,-390.947 Q88.282,-390.23 88.774,-389.543 Q89.267,-388.856 89.841,-388.343 Q90.415,-387.83 91.071,-387.594 Q91.728,-387.359 92.548,-387.359 Q95.829,-387.359 95.829,-391.316 L95.829,-414.962 Q95.829,-416.705 95.07,-417.577 Q94.311,-418.448 92.999,-418.448 z M111.846,-406.267 Q114.04,-406.267 115.383,-404.841 Q116.727,-403.416 116.932,-400.545 L106.78,-400.545 Q107.067,-403.375 108.411,-404.821 Q109.754,-406.267 111.846,-406.267 z M112.03,-410.163 Q109.508,-410.163 107.436,-409.353 Q105.365,-408.543 103.95,-407.026 Q102.535,-405.508 101.797,-403.385 Q101.059,-401.263 101.059,-398.781 Q101.059,-393.511 104.053,-390.435 Q107.047,-387.359 112.44,-387.359 Q114.799,-387.359 116.614,-387.974 Q118.429,-388.589 119.628,-389.522 Q120.828,-390.455 121.423,-391.47 Q122.018,-392.486 122.018,-393.244 Q122.018,-394.106 121.484,-394.577 Q120.951,-395.049 120.09,-395.049 Q119.29,-395.049 118.859,-394.68 Q117.813,-393.695 117.157,-393.121 Q116.501,-392.547 115.722,-392.045 Q114.942,-391.542 114.112,-391.306 Q113.281,-391.07 112.276,-391.07 Q110.779,-391.07 109.539,-391.809 Q108.298,-392.547 107.549,-394.003 Q106.801,-395.459 106.78,-397.366 L117.731,-397.366 Q119.926,-397.366 121.136,-397.992 Q122.346,-398.617 122.346,-400.73 Q122.346,-403.006 121.177,-405.2 Q120.008,-407.395 117.66,-408.779 Q115.311,-410.163 112.03,-410.163 z M154.317,-410.122 Q153.312,-410.122 152.779,-409.661 Q152.246,-409.199 152.02,-408.594 Q151.795,-407.989 151.426,-406.636 L147.734,-394.126 L144.412,-405.754 Q143.899,-407.497 143.612,-408.205 Q143.325,-408.912 142.618,-409.517 Q141.91,-410.122 140.659,-410.122 Q139.429,-410.122 138.721,-409.517 Q138.014,-408.912 137.757,-408.246 Q137.501,-407.579 136.968,-405.754 L133.645,-394.126 L129.995,-406.636 Q129.441,-408.543 128.949,-409.333 Q128.457,-410.122 127.062,-410.122 Q126.017,-410.122 125.299,-409.404 Q124.581,-408.687 124.581,-407.784 Q124.581,-407.067 125.258,-405.18 L129.79,-391.768 Q129.975,-391.235 130.303,-390.322 Q130.631,-389.409 131.061,-388.743 Q131.492,-388.076 132.138,-387.717 Q132.784,-387.359 133.707,-387.359 Q135.512,-387.359 136.229,-388.517 Q136.947,-389.676 137.562,-391.952 L140.659,-402.862 L143.858,-391.952 Q144.269,-390.476 144.617,-389.553 Q144.966,-388.63 145.694,-387.994 Q146.422,-387.359 147.693,-387.359 Q148.924,-387.359 149.631,-387.953 Q150.339,-388.548 150.667,-389.307 Q150.995,-390.066 151.59,-391.768 L156.163,-405.18 Q156.799,-406.923 156.799,-407.784 Q156.799,-408.728 156.061,-409.425 Q155.322,-410.122 154.317,-410.122 z M185.981,-418.448 Q182.29,-418.448 179.378,-417.372 Q176.466,-416.295 174.436,-414.265 Q172.405,-412.235 171.359,-409.322 Q170.313,-406.41 170.313,-402.903 Q170.313,-399.335 171.39,-396.444 Q172.467,-393.552 174.477,-391.522 Q176.486,-389.491 179.337,-388.425 Q182.187,-387.359 185.653,-387.359 Q188.627,-387.359 191.149,-388.035 Q193.672,-388.712 196.399,-390.189 Q197.343,-390.701 197.948,-391.255 Q198.553,-391.809 198.778,-392.496 Q199.004,-393.183 199.004,-394.331 L199.004,-400.094 Q199.004,-401.652 198.46,-402.432 Q197.917,-403.211 197.035,-403.437 Q196.153,-403.662 194.882,-403.662 L187.971,-403.662 Q186.72,-403.662 185.992,-403.006 Q185.264,-402.35 185.264,-401.345 Q185.264,-400.114 186.135,-399.602 Q187.007,-399.089 188.709,-399.089 L193.426,-399.089 L193.426,-394.208 Q191.519,-393.183 189.663,-392.629 Q187.807,-392.075 185.694,-392.075 Q181.347,-392.075 178.916,-394.926 Q176.486,-397.777 176.486,-403.068 Q176.486,-405.508 177.112,-407.518 Q177.737,-409.527 178.916,-410.912 Q180.096,-412.296 181.757,-413.024 Q183.418,-413.752 185.53,-413.752 Q187.581,-413.752 188.904,-413.137 Q190.227,-412.522 191.006,-411.619 Q191.785,-410.717 192.913,-408.953 Q193.323,-408.4 193.928,-408.092 Q194.533,-407.784 195.189,-407.784 Q196.379,-407.784 197.23,-408.594 Q198.081,-409.404 198.081,-410.553 Q198.081,-411.619 197.343,-412.993 Q196.604,-414.367 195.148,-415.598 Q193.692,-416.828 191.354,-417.638 Q189.017,-418.448 185.981,-418.448 z M207.186,-418.448 Q205.915,-418.448 205.166,-417.587 Q204.418,-416.726 204.418,-415.044 L204.418,-390.763 Q204.418,-389.122 205.187,-388.24 Q205.956,-387.359 207.186,-387.359 Q208.437,-387.359 209.227,-388.21 Q210.017,-389.061 210.016,-390.763 L210.017,-415.044 Q210.017,-416.746 209.237,-417.597 Q208.458,-418.448 207.186,-418.448 z M229.581,-398.617 L229.581,-397.818 Q229.581,-394.905 228.822,-393.634 Q228.166,-392.486 226.761,-391.757 Q225.356,-391.029 223.695,-391.029 Q222.137,-391.029 221.173,-391.922 Q220.209,-392.814 220.209,-394.085 Q220.209,-395.316 221.029,-396.003 Q221.85,-396.69 222.752,-396.925 Q223.654,-397.161 226.002,-397.664 Q228.351,-398.166 229.581,-398.617 z M225.418,-410.163 Q222.116,-410.163 219.901,-409.261 Q217.686,-408.359 216.641,-406.964 Q215.595,-405.569 215.595,-404.093 Q215.595,-403.15 216.282,-402.545 Q216.969,-401.94 217.912,-401.94 Q218.958,-401.94 219.276,-402.319 Q219.594,-402.698 220.363,-403.888 Q221.132,-405.077 222.208,-405.672 Q223.285,-406.267 225.418,-406.267 Q227.899,-406.267 228.689,-405.231 Q229.478,-404.195 229.581,-401.981 Q227.817,-401.468 226.31,-401.109 Q224.803,-400.75 222.69,-400.319 Q220.578,-399.889 220.045,-399.766 Q217.502,-399.212 216.046,-397.592 Q214.59,-395.972 214.59,-393.675 Q214.59,-391.973 215.472,-390.517 Q216.353,-389.061 217.984,-388.21 Q219.614,-387.359 221.768,-387.359 Q224.126,-387.359 226.023,-388.148 Q227.92,-388.938 229.95,-390.517 Q230.894,-388.979 231.734,-388.169 Q232.575,-387.359 233.436,-387.359 Q234.462,-387.359 235.272,-388.066 Q236.082,-388.774 236.082,-389.635 Q236.082,-390.127 235.559,-391.84 Q235.036,-393.552 235.036,-395.131 Q235.057,-396.813 235.067,-398.187 Q235.077,-399.561 235.077,-401.529 Q235.077,-404.647 234.206,-406.533 Q233.334,-408.42 231.222,-409.292 Q229.109,-410.163 225.418,-410.163 z M248.53,-410.122 Q245.762,-410.122 243.803,-409.23 Q241.845,-408.338 240.84,-406.841 Q239.835,-405.344 239.835,-403.662 Q239.835,-401.776 240.922,-400.484 Q242.009,-399.192 243.824,-398.402 Q245.639,-397.612 248.53,-396.895 Q251.094,-396.279 252.211,-395.603 Q253.329,-394.926 253.329,-393.449 Q253.329,-392.486 252.252,-391.737 Q251.176,-390.988 249.494,-390.988 Q247.423,-390.988 246.223,-391.727 Q245.023,-392.465 244.162,-393.962 Q243.731,-394.741 243.26,-395.172 Q242.788,-395.603 241.906,-395.603 Q240.901,-395.603 240.245,-394.946 Q239.589,-394.29 239.589,-393.367 Q239.589,-391.973 240.614,-390.589 Q241.64,-389.204 243.793,-388.281 Q245.946,-387.359 248.961,-387.359 Q252.119,-387.359 254.324,-388.21 Q256.528,-389.061 257.656,-390.712 Q258.784,-392.362 258.784,-394.68 Q258.784,-396.218 257.933,-397.418 Q257.082,-398.617 255.431,-399.499 Q253.78,-400.381 251.176,-401.017 Q248.981,-401.55 247.73,-401.919 Q246.479,-402.288 245.741,-402.852 Q245.003,-403.416 245.003,-404.298 Q245.003,-405.262 246.008,-405.908 Q247.013,-406.554 248.53,-406.554 Q250.007,-406.554 250.868,-406.062 Q251.729,-405.569 252.365,-404.749 Q253.145,-403.765 253.749,-403.273 Q254.354,-402.78 255.216,-402.78 Q256.405,-402.78 257.051,-403.396 Q257.697,-404.011 257.697,-404.975 Q257.697,-405.857 257.092,-406.779 Q256.487,-407.702 255.329,-408.461 Q254.17,-409.22 252.437,-409.671 Q250.704,-410.122 248.53,-410.122 z M298.508,-405.98 Q301.051,-405.98 302.558,-404.072 Q304.065,-402.165 304.065,-398.74 Q304.065,-395.357 302.558,-393.439 Q301.051,-391.522 298.508,-391.522 Q296.826,-391.522 295.585,-392.393 Q294.345,-393.265 293.678,-394.905 Q293.012,-396.546 293.012,-398.74 Q293.012,-400.955 293.688,-402.616 Q294.365,-404.277 295.616,-405.129 Q296.867,-405.98 298.508,-405.98 z M298.508,-410.122 Q296.006,-410.122 293.935,-409.312 Q291.863,-408.502 290.407,-407.005 Q288.951,-405.508 288.172,-403.396 Q287.393,-401.283 287.393,-398.74 Q287.393,-396.218 288.162,-394.136 Q288.931,-392.055 290.417,-390.527 Q291.904,-388.999 293.935,-388.179 Q295.965,-387.359 298.508,-387.359 Q301.071,-387.359 303.122,-388.169 Q305.173,-388.979 306.649,-390.496 Q308.126,-392.014 308.905,-394.126 Q309.685,-396.238 309.685,-398.74 Q309.685,-401.263 308.915,-403.355 Q308.146,-405.446 306.67,-406.964 Q305.193,-408.482 303.122,-409.302 Q301.051,-410.122 298.508,-410.122 z M341.902,-410.122 Q340.897,-410.122 340.364,-409.661 Q339.831,-409.199 339.605,-408.594 Q339.38,-407.989 339.011,-406.636 L335.319,-394.126 L331.997,-405.754 Q331.484,-407.497 331.197,-408.205 Q330.91,-408.912 330.203,-409.517 Q329.495,-410.122 328.244,-410.122 Q327.014,-410.122 326.306,-409.517 Q325.599,-408.912 325.342,-408.246 Q325.086,-407.579 324.553,-405.754 L321.23,-394.126 L317.58,-406.636 Q317.026,-408.543 316.534,-409.333 Q316.042,-410.122 314.647,-410.122 Q313.602,-410.122 312.884,-409.404 Q312.166,-408.687 312.166,-407.784 Q312.166,-407.067 312.843,-405.18 L317.375,-391.768 Q317.56,-391.235 317.888,-390.322 Q318.216,-389.409 318.646,-388.743 Q319.077,-388.076 319.723,-387.717 Q320.369,-387.359 321.292,-387.359 Q323.097,-387.359 323.814,-388.517 Q324.532,-389.676 325.147,-391.952 L328.244,-402.862 L331.443,-391.952 Q331.853,-390.476 332.202,-389.553 Q332.551,-388.63 333.279,-387.994 Q334.007,-387.359 335.278,-387.359 Q336.509,-387.359 337.216,-387.953 Q337.924,-388.548 338.252,-389.307 Q338.58,-390.066 339.175,-391.768 L343.748,-405.18 Q344.384,-406.923 344.384,-407.784 Q344.384,-408.728 343.645,-409.425 Q342.907,-410.122 341.902,-410.122 z M273.181,-405.939 Q275.642,-405.939 277.149,-404.031 Q278.656,-402.124 278.656,-398.699 Q278.656,-396.546 277.877,-395.039 Q277.098,-393.531 275.857,-392.783 Q274.616,-392.034 273.222,-392.034 Q270.863,-392.034 269.376,-393.777 Q267.89,-395.521 267.89,-398.925 Q267.89,-402.288 269.335,-404.113 Q270.781,-405.939 273.181,-405.939 z M281.425,-410.122 Q280.297,-410.122 279.579,-409.322 Q278.861,-408.523 278.861,-407.066 L278.861,-406.308 Q277.364,-408.256 275.621,-409.169 Q273.878,-410.081 271.499,-410.081 Q269.51,-410.081 267.849,-409.374 Q266.187,-408.666 264.916,-407.272 Q263.645,-405.877 262.957,-403.847 Q262.27,-401.817 262.27,-399.294 Q262.27,-395.91 263.398,-393.326 Q264.526,-390.742 266.628,-389.307 Q268.73,-387.871 271.54,-387.871 Q273.878,-387.871 275.57,-388.815 Q277.262,-389.758 278.554,-391.563 Q278.513,-388.815 278.431,-387.574 Q278.349,-386.333 277.867,-385.246 Q277.385,-384.159 276.185,-383.554 Q274.985,-382.949 272.811,-382.949 Q271.745,-382.949 270.925,-383.144 Q270.104,-383.339 269.52,-383.739 Q268.936,-384.139 268.454,-384.703 Q267.972,-385.267 267.52,-385.82 Q266.598,-386.907 265.367,-386.907 Q264.383,-386.907 263.686,-386.261 Q262.988,-385.615 262.988,-384.59 Q262.988,-383.236 264.219,-381.955 Q265.449,-380.673 267.726,-379.863 Q270.002,-379.053 272.894,-379.053 Q276.052,-379.053 278.174,-379.689 Q280.297,-380.324 281.609,-381.637 Q282.922,-382.949 283.517,-384.959 Q284.111,-386.969 284.111,-389.758 L284.111,-406.021 Q284.111,-408.01 283.578,-409.066 Q283.045,-410.122 281.425,-410.122 z"/>
    </clipPath>
    <filter id="Shadow_2">
      <feGaussianBlur in="SourceAlpha" stdDeviation="2.5"/>
      <feOffset dx="0" dy="2" result="offsetblur"/>
      <feFlood flood-color="#000000"/>
      <feComposite in2="offsetblur" operator="in"/>
    </filter>
    <clipPath id="Clip_3">
      <path d="M140.647,-368.344 L271.3,-368.344 L271.3,-334.578 L140.647,-334.578 z M181.944,-360.051 L172.757,-360.051 Q172.019,-360.051 171.544,-359.834 Q171.069,-359.617 170.847,-359.143 Q170.624,-358.668 170.624,-357.918 L170.624,-345.004 Q170.624,-343.879 171.122,-343.375 Q171.62,-342.871 172.757,-342.871 L182.214,-342.871 Q183.034,-342.871 183.45,-343.252 Q183.866,-343.633 183.866,-344.242 Q183.866,-344.875 183.45,-345.256 Q183.034,-345.637 182.214,-345.637 L174.104,-345.637 L174.104,-350.523 L181.323,-350.524 Q182.132,-350.524 182.519,-350.893 Q182.905,-351.262 182.905,-351.848 Q182.905,-352.434 182.513,-352.791 Q182.12,-353.149 181.323,-353.148 L174.104,-353.148 L174.104,-357.367 L181.944,-357.367 Q182.776,-357.367 183.181,-357.736 Q183.585,-358.106 183.585,-358.715 Q183.585,-359.313 183.181,-359.682 Q182.776,-360.051 181.944,-360.051 z M246.339,-360.051 L237.151,-360.051 Q236.413,-360.051 235.938,-359.834 Q235.464,-359.617 235.241,-359.143 Q235.019,-358.668 235.018,-357.918 L235.019,-345.004 Q235.019,-343.879 235.517,-343.375 Q236.015,-342.871 237.151,-342.871 L246.608,-342.871 Q247.429,-342.871 247.845,-343.252 Q248.261,-343.633 248.261,-344.242 Q248.261,-344.875 247.845,-345.256 Q247.429,-345.637 246.608,-345.637 L238.499,-345.637 L238.499,-350.523 L245.718,-350.524 Q246.526,-350.524 246.913,-350.893 Q247.3,-351.262 247.3,-351.848 Q247.3,-352.434 246.907,-352.791 Q246.515,-353.149 245.718,-353.148 L238.499,-353.148 L238.499,-357.367 L246.339,-357.367 Q247.171,-357.367 247.575,-357.736 Q247.979,-358.106 247.979,-358.715 Q247.979,-359.313 247.575,-359.682 Q247.171,-360.051 246.339,-360.051 z M166.686,-360.344 Q166.007,-360.344 165.649,-359.992 Q165.292,-359.641 165.145,-359.195 Q164.999,-358.75 164.835,-357.965 L162.585,-347.934 L160.042,-357.32 Q159.726,-358.481 159.538,-358.985 Q159.351,-359.488 158.864,-359.916 Q158.378,-360.344 157.499,-360.344 Q156.632,-360.344 156.128,-359.934 Q155.624,-359.524 155.401,-358.961 Q155.179,-358.399 154.897,-357.32 L152.378,-347.934 L150.128,-357.965 Q149.882,-359.125 149.554,-359.735 Q149.226,-360.344 148.276,-360.344 Q147.585,-360.344 147.116,-359.887 Q146.647,-359.43 146.647,-358.762 Q146.647,-358.235 146.905,-357.227 L149.765,-345.66 Q149.894,-345.145 150.058,-344.541 Q150.222,-343.938 150.479,-343.498 Q150.737,-343.059 151.153,-342.819 Q151.569,-342.578 152.214,-342.578 Q153.011,-342.578 153.491,-342.983 Q153.972,-343.387 154.165,-343.897 Q154.358,-344.406 154.686,-345.578 L157.499,-355.879 L160.276,-345.578 Q160.616,-344.371 160.804,-343.873 Q160.991,-343.375 161.472,-342.977 Q161.952,-342.578 162.749,-342.578 Q163.593,-342.578 164.056,-342.988 Q164.519,-343.399 164.712,-343.944 Q164.905,-344.488 165.198,-345.66 L168.058,-357.227 Q168.315,-358.281 168.315,-358.762 Q168.315,-359.442 167.841,-359.893 Q167.366,-360.344 166.686,-360.344 z M193.276,-356.676 L195.866,-349.586 L190.733,-349.586 L193.276,-356.676 z M193.3,-360.344 Q192.585,-360.344 192.099,-360.069 Q191.612,-359.793 191.313,-359.348 Q191.015,-358.902 190.751,-358.229 Q190.487,-357.555 190.3,-357.074 L185.905,-345.918 Q185.636,-345.25 185.519,-344.875 Q185.401,-344.5 185.401,-344.149 Q185.401,-343.539 185.905,-343.059 Q186.409,-342.578 187.065,-342.578 Q187.839,-342.578 188.179,-343.029 Q188.519,-343.481 188.999,-344.77 L189.819,-346.973 L196.804,-346.973 L197.624,-344.817 Q197.788,-344.418 198.017,-343.897 Q198.245,-343.375 198.444,-343.123 Q198.644,-342.871 198.936,-342.725 Q199.229,-342.578 199.64,-342.578 Q200.343,-342.578 200.841,-343.076 Q201.339,-343.574 201.339,-344.172 Q201.339,-344.746 200.811,-346.012 L196.323,-357.098 Q196.007,-357.93 195.802,-358.428 Q195.597,-358.926 195.298,-359.36 Q194.999,-359.793 194.513,-360.069 Q194.026,-360.344 193.3,-360.344 z M212.94,-360.051 L201.878,-360.051 Q201.022,-360.051 200.571,-359.664 Q200.12,-359.277 200.12,-358.61 Q200.12,-357.965 200.554,-357.572 Q200.987,-357.18 201.878,-357.18 L205.675,-357.18 L205.675,-344.699 Q205.675,-343.633 206.161,-343.106 Q206.647,-342.578 207.421,-342.578 Q208.183,-342.578 208.663,-343.1 Q209.144,-343.621 209.143,-344.699 L209.143,-357.18 L212.94,-357.18 Q213.831,-357.18 214.276,-357.572 Q214.722,-357.965 214.722,-358.61 Q214.722,-359.254 214.282,-359.652 Q213.843,-360.051 212.94,-360.051 z M229.522,-360.344 Q228.749,-360.344 228.274,-359.817 Q227.8,-359.289 227.8,-358.234 L227.8,-353.313 L220.288,-353.313 L220.288,-358.235 Q220.288,-359.301 219.802,-359.822 Q219.315,-360.344 218.53,-360.344 Q217.733,-360.344 217.27,-359.817 Q216.808,-359.289 216.807,-358.234 L216.808,-344.699 Q216.808,-343.645 217.276,-343.111 Q217.745,-342.578 218.53,-342.578 Q219.304,-342.578 219.796,-343.106 Q220.288,-343.633 220.288,-344.699 L220.288,-350.477 L227.8,-350.477 L227.8,-344.699 Q227.8,-343.645 228.269,-343.111 Q228.737,-342.578 229.522,-342.578 Q230.296,-342.578 230.788,-343.106 Q231.28,-343.633 231.28,-344.699 L231.28,-358.235 Q231.28,-359.301 230.794,-359.822 Q230.308,-360.344 229.522,-360.344 z M257.694,-357.438 Q259.487,-357.438 260.097,-357.18 Q260.741,-356.91 261.104,-356.365 Q261.468,-355.82 261.468,-355.106 Q261.468,-354.192 261.017,-353.67 Q260.565,-353.149 259.71,-352.932 Q258.854,-352.715 257.6,-352.715 L254.483,-352.715 L254.483,-357.438 L257.694,-357.438 z M258.796,-360.051 L253.136,-360.051 Q252.011,-360.051 251.507,-359.547 Q251.003,-359.043 251.003,-357.918 L251.003,-344.699 Q251.003,-343.656 251.46,-343.117 Q251.917,-342.578 252.749,-342.578 Q253.522,-342.578 254.003,-343.094 Q254.483,-343.61 254.483,-344.699 L254.483,-350.219 L255.702,-350.219 Q256.628,-350.219 257.237,-349.973 Q257.847,-349.727 258.438,-349.059 Q259.03,-348.391 259.78,-347.113 L261.175,-344.793 Q261.667,-343.973 261.954,-343.551 Q262.241,-343.129 262.64,-342.854 Q263.038,-342.578 263.624,-342.578 Q264.116,-342.578 264.491,-342.772 Q264.866,-342.965 265.083,-343.299 Q265.3,-343.633 265.3,-343.973 Q265.3,-344.301 264.931,-345.174 Q264.561,-346.047 263.899,-347.131 Q263.237,-348.215 262.394,-349.176 Q261.55,-350.137 260.624,-350.629 Q262.827,-351.11 263.911,-352.258 Q264.995,-353.406 264.995,-355.328 Q264.995,-356.266 264.673,-357.104 Q264.351,-357.942 263.729,-358.574 Q263.108,-359.207 262.3,-359.547 Q261.632,-359.852 260.8,-359.951 Q259.968,-360.051 258.796,-360.051 z"/>
    </clipPath>
    <filter id="Shadow_4">
      <feGaussianBlur in="SourceAlpha" stdDeviation="2.5"/>
      <feOffset dx="0" dy="2" result="offsetblur"/>
      <feFlood flood-color="#000000"/>
      <feComposite in2="offsetblur" operator="in"/>
    </filter>
  </defs>
  <g id="Layer_1" transform="translate(36.529, 454.16)">
    <g>
      <path d="M433.284,330.552 L-17.715,330.552 C-27.553,330.552 -35.529,323.321 -35.529,314.396 L-35.529,-438.002 C-35.529,-446.925 -27.553,-454.16 -17.715,-454.16 L433.284,-454.16 C443.123,-454.16 451.099,-446.925 451.099,-438.002 L451.099,314.396 C451.099,323.321 443.123,330.552 433.284,330.552 z" fill="url(#Gradient_1)"/>
      <path d="M312.136,-201.497 C259.793,-201.497 217.362,-163.008 217.362,-115.531 C217.362,-68.053 259.793,-29.563 312.136,-29.563 C364.478,-29.563 406.91,-68.053 406.91,-115.531 C406.91,-163.008 364.478,-201.497 312.136,-201.497 z M312.136,-40.335 C266.351,-40.335 229.234,-74.001 229.234,-115.531 C229.234,-157.06 266.351,-190.727 312.136,-190.727 C357.921,-190.727 395.037,-157.06 395.037,-115.531 C395.037,-74.001 357.921,-40.335 312.136,-40.335 z" fill="url(#Gradient_2)"/>
      <path d="M312.136,-190.727 C266.351,-190.727 229.234,-157.06 229.234,-115.531 C229.234,-74 266.351,-40.335 312.136,-40.335 C357.921,-40.335 395.037,-74 395.037,-115.531 C395.037,-157.06 357.921,-190.727 312.136,-190.727 z" fill="url(#Gradient_3)"/>
      <path d="M97.686,-25.274 C97.686,-25.274 99.593,-45.598 117.709,-54.245 C135.824,-62.894 137.643,-70.799 142.455,-68.144 C147.266,-65.488 169.196,-59.434 172.057,-54.245 C174.917,-49.055 183.498,-24.342 189.219,-13.78 C194.94,-3.218 213.932,20.132 223.029,19.269 C232.125,18.401 242.614,21.016 245.474,27.063 C248.334,33.105 263.59,57.07 267.404,62.386 C271.217,67.701 288.162,95.377 287.318,97.971 C286.473,100.566 302.91,136.941 302.91,136.941 L244.52,160.239 L119.702,135.573 C119.702,135.573 95.629,85.499 91.333,80.347 C87.038,75.195 97.686,-25.274 97.686,-25.274 z" fill="url(#Gradient_4)"/>
      <path d="M-35.562,-81.921 C-35.562,-81.921 -2.289,-109.596 4.413,-107.866 C11.116,-106.137 33.673,-115.65 48.365,-117.38 C63.058,-119.109 76.636,-119.109 94.143,-103.542 C111.649,-87.975 94.056,-87.11 104.109,-57.705 C114.163,-28.3 154.539,27.005 161.648,56.134 C168.757,85.267 189.577,144.624 197.948,148.54 C206.319,152.455 392.021,165.696 392.021,165.696 L210.508,238.262 L-35.8,181.863 L-35.562,-81.921 z" fill="url(#Gradient_5)"/>
      <path d="M21.89,-94.86 C26.551,-86.019 35.027,-79.099 35.874,-76.024 C36.722,-72.949 40.536,-90.631 40.536,-90.631 C40.536,-90.631 57.695,-91.4 61.405,-90.631 C65.115,-89.863 69.354,-102.548 74.863,-102.932 C80.372,-103.316 88.848,-89.863 86.728,-81.406 C84.61,-72.949 96.439,-50.655 90.312,-48.734 C84.186,-46.808 58.335,-41.43 63.844,-39.504 C69.354,-37.583 87.576,-44.887 94.781,-42.582 C101.978,-40.277 128.145,-10.722 128.194,-10.665 C117.954,-28.347 108.343,-45.324 104.109,-57.705 C94.056,-87.11 111.649,-87.975 94.143,-103.542 C76.636,-119.109 63.058,-119.109 48.365,-117.38 C33.673,-115.65 11.116,-106.137 4.413,-107.866 C1.652,-108.58 -5.623,-104.298 -13.221,-99.018 L-13.223,-99.015 C-13.223,-99.015 17.228,-103.701 21.89,-94.86" fill="#A16491"/>
      <path d="M134.156,-52.576 C136.948,-56.323 141.715,-63.243 144.575,-60.071 C147.436,-56.9 158.56,-60.369 157.607,-50.997 C156.654,-41.619 154.429,-36.72 161.103,-43.64 C167.778,-50.555 171.909,-40.756 174.77,-33.262 C177.631,-25.763 186.53,-2.986 172.863,0.471 C159.196,3.929 167.162,2.708 183.521,5.623 C199.879,8.544 207.194,20.474 210.737,18.059 C214.28,15.638 220.221,25.263 218.95,28.437 C218.346,29.942 222.332,24.669 227.365,19.117 C225.909,19.08 224.452,19.132 223.029,19.269 C213.932,20.132 194.94,-3.218 189.219,-13.78 C183.498,-24.342 174.917,-49.055 172.057,-54.245 C169.196,-59.435 147.266,-65.488 142.455,-68.144 C137.643,-70.799 135.824,-62.894 117.709,-54.245 C117.336,-54.065 116.98,-53.876 116.62,-53.692 C116.722,-51.96 117.64,-50.734 120.419,-51.423 C127.412,-53.15 131.366,-48.829 134.156,-52.576" fill="#B5788D"/>
      <path d="M76.319,139.641 C76.298,139.635 76.276,139.63 76.254,139.625 C76.359,139.614 76.433,139.614 76.453,139.641 C76.448,139.635 76.395,139.635 76.319,139.641 z M451.099,38.583 C448.328,38.409 445.541,38.346 442.759,38.341 C433.541,38.304 424.299,38.336 415.103,38.983 C396.007,40.335 377.612,44.54 361.76,54.639 C354.794,59.076 348.323,64.112 341.984,69.253 C338.995,71.679 336.026,74.121 333.008,76.516 C331.503,77.71 329.987,78.895 328.451,80.058 C327.685,80.636 326.915,81.21 326.138,81.778 C325.683,82.11 325.224,82.442 324.764,82.768 C324.637,82.857 324.48,82.963 324.274,83.105 C321.345,85.062 318.367,86.952 315.238,88.636 C313.501,89.572 311.728,90.451 309.918,91.262 C307.245,92.467 307.151,92.509 304.361,93.451 C295.833,96.34 286.911,98.108 278.003,99.719 C269.386,101.282 260.72,102.687 252.24,104.808 C242.751,107.176 233.797,110.791 224.774,114.301 C218.662,116.68 208.583,120.032 201.696,120.964 C191.655,122.327 181.218,121.448 171.168,120.659 C150.927,119.064 130.806,118.369 110.514,119.748 C101.285,120.374 92.085,121.369 82.937,122.643 C79.48,121.516 75.603,121.211 71.735,121.764 C61.652,123.216 55.405,131.389 54.688,140.23 C53.203,158.56 73.343,168.385 86.184,179.005 C100.216,190.609 113.41,202.818 129.044,212.717 C143.813,222.064 159.977,229.389 176.753,235.273 C211.699,247.529 249.473,252.276 286.786,252.671 C307.148,252.892 327.504,251.813 347.768,250.061 C368.116,248.308 388.628,246.33 408.765,243.104 C423.321,240.777 438.089,237.073 451.099,230.5 L451.099,38.583" fill="url(#Gradient_6)"/>
      <path d="M275.323,115.791 C272.01,116.043 266.468,108.897 266.468,108.897 C269.146,112.154 271.995,111.17 271.995,111.17 C270.758,111.138 269.083,110.065 267.975,109.244 C270.776,110.975 274.224,110.075 274.224,110.075 C271.066,109.949 268.326,106.413 268.326,106.413 C270.973,108.391 275.292,108.139 275.292,108.139 C272.72,107.713 268.127,105.592 265.073,104.071 C268.858,104.981 274.456,104.644 274.456,104.644 C264.866,103.102 261.35,98.577 261.35,98.577 C263.055,100.171 268.725,100.961 269.592,101.076 C268.216,100.882 265.694,99.813 263.839,98.961 C266.237,99.661 269.208,99.74 269.208,99.74 C266.42,99.255 263.589,96.44 262.071,94.698 C265.052,97.698 268.775,96.961 268.775,96.961 C265.79,96.672 262.812,92.672 261.228,90.167 C262.643,91.988 264.007,91.962 264.007,91.962 C262.752,91.751 261.452,88.425 261.452,88.425 C264.192,92.551 268.279,92.256 268.279,92.256 C264.842,92.004 261.499,87.415 261.499,87.415 C263.635,90.109 267.397,88.888 267.397,88.888 C263.171,88.636 260.523,82.61 260.523,82.61 C261.817,84.141 264.566,84.168 265.392,84.141 C264.201,84.162 263.018,83.61 262.146,83.062 C264.11,83.92 266.793,83.452 266.793,83.452 C264.61,83.368 261.282,78.537 261.282,78.537 C263.233,80.026 265.678,79.073 265.678,79.073 C263.233,79.047 261.065,76.011 261.065,76.011 C262.706,77.979 265.678,77.389 265.678,77.389 C262.397,77.442 259.331,72.669 259.331,72.669 C260.6,74.605 262.52,73.821 262.52,73.821 C260.291,73.795 259.238,71.574 259.238,71.574 C260.91,73.542 264.13,72.443 264.13,72.443 C259.053,71.516 257.907,68.09 257.907,68.09 C259.641,70.311 262.552,69.385 262.552,69.385 C259.517,69.748 257.907,67.533 257.907,67.533 C259.92,70.059 264.254,68.596 264.254,68.596 C260.136,68.822 257.722,64.806 257.722,64.806 C258.464,65.733 259.858,65.37 259.858,65.37 C258.712,65.564 256.854,63.091 256.854,63.091 C258.526,64.949 261.623,63.654 261.623,63.654 C258.836,64.496 253.446,57.044 253.446,57.044 C253.446,57.044 248.055,64.496 245.269,63.654 C245.269,63.654 248.365,64.949 250.037,63.091 C250.037,63.091 248.179,65.564 247.034,65.37 C247.034,65.37 248.427,65.733 249.17,64.806 C249.17,64.806 246.755,68.822 242.638,68.596 C242.638,68.596 246.972,70.059 248.984,67.533 C248.984,67.533 247.375,69.748 244.34,69.385 C244.34,69.385 247.251,70.311 248.984,68.09 C248.984,68.09 247.839,71.516 242.761,72.443 C242.761,72.443 245.981,73.542 247.653,71.574 C247.653,71.574 246.6,73.795 244.371,73.821 C244.371,73.821 246.29,74.605 247.56,72.669 C247.56,72.669 244.495,77.442 241.213,77.389 C241.213,77.389 244.185,77.979 245.826,76.011 C245.826,76.011 243.659,79.047 241.213,79.073 C241.213,79.073 243.659,80.026 245.61,78.537 C245.61,78.537 242.281,83.368 240.099,83.452 C240.099,83.452 242.781,83.92 244.746,83.062 C243.873,83.61 242.691,84.162 241.499,84.141 C242.325,84.168 245.074,84.141 246.368,82.61 C246.368,82.61 243.721,88.636 239.495,88.888 C239.495,88.888 243.257,90.109 245.393,87.415 C245.393,87.415 242.049,92.004 238.612,92.256 C238.612,92.256 242.699,92.551 245.439,88.425 C245.439,88.425 244.138,91.751 242.885,91.962 C242.885,91.962 244.248,91.988 245.664,90.167 C244.079,92.672 241.102,96.672 238.117,96.961 C238.117,96.961 241.839,97.698 244.82,94.698 C243.302,96.44 240.472,99.255 237.683,99.74 C237.683,99.74 240.655,99.661 243.052,98.961 C241.198,99.813 238.675,100.882 237.3,101.076 C238.167,100.961 243.836,100.171 245.541,98.577 C245.541,98.577 242.025,103.102 232.436,104.644 C232.436,104.644 238.034,104.981 241.818,104.071 C238.765,105.592 234.171,107.713 231.6,108.139 C231.6,108.139 235.918,108.391 238.566,106.413 C238.566,106.413 235.826,109.949 232.668,110.075 C232.668,110.075 236.116,110.975 238.916,109.244 C237.809,110.065 236.134,111.138 234.897,111.17 C234.897,111.17 237.745,112.154 240.424,108.897 C240.424,108.897 234.882,116.043 231.568,115.791 C231.568,115.791 236.16,116.222 239.696,114.312 C238.722,115.249 237.646,116.206 236.638,116.948 L270.254,116.948 C269.245,116.206 268.17,115.249 267.196,114.312 C270.731,116.222 275.323,115.791 275.323,115.791 z" fill="url(#Gradient_7)"/>
      <path d="M276.797,111.012 C276.797,111.012 276.772,111.049 276.724,111.123 L276.716,111.123 C276.745,111.086 276.772,111.049 276.797,111.012 z M298.868,111.123 L298.859,111.123 C298.811,111.049 298.786,111.012 298.786,111.012 C298.811,111.049 298.839,111.086 298.868,111.123 z M274.18,108.307 C271.63,109.733 266.592,112.344 263.836,112.296 C263.836,112.296 264.648,112.407 265.87,112.512 L309.713,112.512 C310.935,112.407 311.747,112.296 311.747,112.296 C308.992,112.344 303.954,109.733 301.404,108.307 C304.978,109.481 312.136,108.539 312.136,108.539 C310.341,108.17 308.316,107.255 306.325,106.113 C307.151,106.086 307.692,105.892 307.692,105.892 C306.587,105.771 305.225,105.255 304.118,104.76 C302.817,103.913 301.576,103.024 300.473,102.187 C302.285,102.724 304.512,102.471 304.512,102.471 C303.346,102.281 302.499,101.813 301.908,101.329 C303.932,101.271 305.537,100.55 305.537,100.55 C302.659,99.371 300.91,97.503 300.91,97.503 C303.034,99.15 308.798,97.187 308.798,97.187 C303.342,96.74 297.584,92.088 295.332,90.077 C297.394,91.525 299.848,90.783 299.848,90.783 C296.131,90.972 294.083,86.278 294.083,86.278 C297.269,90.53 305.992,88.372 305.992,88.372 C298.938,88.625 293.78,79.052 293.78,79.052 C297.269,82.794 303.413,80.7 303.413,80.7 C297.497,80.573 296.131,76.005 296.131,76.005 C298.103,76.832 298.786,76.263 298.786,76.263 C296.51,76.326 294.842,73.979 294.842,73.979 C298.407,76.705 302.958,74.169 302.958,74.169 C299.393,74.863 295.248,68.459 295.248,68.459 C296.943,69.601 300.075,68.459 300.075,68.459 C298.642,68.78 295.887,67.417 294.042,66.359 C297.822,67.954 302.958,66.812 302.958,66.812 C296.814,66.048 293.4,61.991 293.4,61.991 C295.6,62.817 297.117,62.375 297.117,62.375 C292.642,62.312 291.049,58.76 291.049,58.76 C291.656,59.518 294.69,59.581 294.69,59.581 C293.78,59.581 292.041,58.191 292.041,58.191 C294.43,59.191 298.355,58.333 298.355,58.333 C290.505,58.333 289.14,51.629 290.216,52.771 C291.292,53.913 292.895,53.055 292.895,53.055 C289.988,51.924 288.656,48.35 288.047,45.477 L288.047,41.498 C288.047,41.498 288.019,42.572 287.792,44.072 C287.564,42.572 287.537,41.498 287.537,41.498 L287.537,45.477 C286.927,48.35 285.595,51.924 282.689,53.055 C282.689,53.055 284.292,53.913 285.367,52.771 C286.444,51.629 285.078,58.333 277.228,58.333 C277.228,58.333 281.153,59.191 283.542,58.191 C283.542,58.191 281.803,59.581 280.893,59.581 C280.893,59.581 283.928,59.518 284.534,58.76 C284.534,58.76 282.942,62.312 278.466,62.375 C278.466,62.375 279.983,62.817 282.183,61.991 C282.183,61.991 278.769,66.048 272.625,66.812 C272.625,66.812 277.762,67.954 281.541,66.359 C279.697,67.417 276.941,68.78 275.508,68.459 C275.508,68.459 278.641,69.601 280.336,68.459 C280.336,68.459 276.191,74.863 272.625,74.169 C272.625,74.169 277.177,76.705 280.741,73.979 C280.741,73.979 279.073,76.326 276.797,76.263 C276.797,76.263 277.48,76.832 279.452,76.005 C279.452,76.005 278.087,80.573 272.17,80.7 C272.17,80.7 278.315,82.794 281.803,79.052 C281.803,79.052 276.645,88.625 269.592,88.372 C269.592,88.372 278.315,90.53 281.5,86.278 C281.5,86.278 279.452,90.972 275.735,90.783 C275.735,90.783 278.189,91.525 280.251,90.077 C278,92.088 272.241,96.74 266.785,97.187 C266.785,97.187 272.55,99.15 274.673,97.503 C274.673,97.503 272.925,99.371 270.046,100.55 C270.046,100.55 271.652,101.271 273.675,101.329 C273.085,101.813 272.238,102.281 271.072,102.471 C271.072,102.471 273.299,102.724 275.11,102.187 C274.007,103.024 272.767,103.913 271.466,104.76 C270.359,105.255 268.997,105.771 267.891,105.892 C267.891,105.892 268.432,106.086 269.259,106.113 C267.267,107.255 265.243,108.17 263.447,108.539 C263.447,108.539 270.605,109.481 274.18,108.307" fill="url(#Gradient_8)"/>
      <path d="M413.507,49.334 C413.507,49.334 413.486,49.371 413.444,49.434 L413.436,49.434 C413.461,49.403 413.485,49.371 413.507,49.334 z M432.558,49.434 L432.551,49.434 C432.509,49.371 432.488,49.334 432.488,49.334 C432.509,49.371 432.533,49.403 432.558,49.434 z M411.247,47.003 C409.047,48.235 404.698,50.487 402.32,50.445 C402.32,50.445 403.02,50.54 404.075,50.634 L441.92,50.634 C442.974,50.54 443.675,50.445 443.675,50.445 C441.297,50.487 436.948,48.235 434.748,47.003 C437.832,48.013 444.011,47.203 444.011,47.203 C442.462,46.887 440.714,46.093 438.995,45.109 C439.708,45.087 440.175,44.919 440.175,44.919 C439.221,44.814 438.045,44.366 437.09,43.94 C435.967,43.209 434.896,42.44 433.944,41.719 C435.508,42.183 437.43,41.961 437.43,41.961 C436.423,41.798 435.692,41.393 435.182,40.983 C436.929,40.925 438.315,40.304 438.315,40.304 C435.83,39.288 434.321,37.678 434.321,37.678 C436.154,39.099 441.13,37.404 441.13,37.404 C436.42,37.02 431.45,33.005 429.506,31.268 C431.286,32.515 433.404,31.873 433.404,31.873 C430.196,32.041 428.428,27.989 428.428,27.989 C431.178,31.657 438.707,29.794 438.707,29.794 C432.618,30.015 428.166,21.748 428.166,21.748 C431.178,24.979 436.481,23.174 436.481,23.174 C431.374,23.063 430.196,19.122 430.196,19.122 C431.898,19.832 432.488,19.343 432.488,19.343 C430.523,19.395 429.083,17.369 429.083,17.369 C432.16,19.722 436.088,17.532 436.088,17.532 C433.011,18.138 429.433,12.607 429.433,12.607 C430.896,13.591 433.601,12.607 433.601,12.607 C432.364,12.886 429.985,11.707 428.393,10.796 C431.655,12.17 436.088,11.186 436.088,11.186 C430.786,10.528 427.839,7.023 427.839,7.023 C429.738,7.734 431.047,7.355 431.047,7.355 C427.184,7.297 425.809,4.234 425.809,4.234 C426.333,4.892 428.952,4.944 428.952,4.944 C428.166,4.944 426.665,3.744 426.665,3.744 C428.728,4.608 432.116,3.865 432.116,3.865 C425.339,3.865 424.161,-1.923 425.09,-0.939 C426.018,0.05 427.402,-0.692 427.402,-0.692 C424.894,-1.671 423.743,-4.749 423.217,-7.233 L423.217,-10.665 C423.217,-10.665 423.194,-9.738 422.997,-8.444 C422.801,-9.738 422.778,-10.665 422.778,-10.665 L422.778,-7.233 C422.252,-4.749 421.101,-1.671 418.592,-0.692 C418.592,-0.692 419.976,0.05 420.905,-0.939 C421.833,-1.923 420.655,3.865 413.879,3.865 C413.879,3.865 417.267,4.608 419.329,3.744 C419.329,3.744 417.828,4.944 417.043,4.944 C417.043,4.944 419.662,4.892 420.186,4.234 C420.186,4.234 418.811,7.297 414.948,7.355 C414.948,7.355 416.257,7.734 418.156,7.023 C418.156,7.023 415.209,10.528 409.906,11.186 C409.906,11.186 414.339,12.17 417.602,10.796 C416.01,11.707 413.631,12.886 412.394,12.607 C412.394,12.607 415.098,13.591 416.561,12.607 C416.561,12.607 412.983,18.138 409.906,17.532 C409.906,17.532 413.834,19.722 416.912,17.369 C416.912,17.369 415.472,19.395 413.507,19.343 C413.507,19.343 414.097,19.832 415.799,19.122 C415.799,19.122 414.621,23.063 409.513,23.174 C409.513,23.174 414.817,24.979 417.828,21.748 C417.828,21.748 413.376,30.015 407.287,29.794 C407.287,29.794 414.817,31.657 417.567,27.989 C417.567,27.989 415.799,32.041 412.591,31.873 C412.591,31.873 414.709,32.515 416.489,31.268 C414.545,33.005 409.575,37.02 404.865,37.404 C404.865,37.404 409.84,39.099 411.674,37.678 C411.674,37.678 410.165,39.288 407.68,40.304 C407.68,40.304 409.065,40.925 410.813,40.983 C410.302,41.393 409.572,41.798 408.565,41.961 C408.565,41.961 410.487,42.183 412.051,41.719 C411.099,42.44 410.028,43.209 408.905,43.94 C407.949,44.366 406.774,44.814 405.819,44.919 C405.819,44.919 406.287,45.087 407,45.109 C405.281,46.093 403.533,46.887 401.984,47.203 C401.984,47.203 408.163,48.013 411.247,47.003" fill="url(#Gradient_9)"/>
      <path d="M198.446,132.836 C198.446,132.836 198.418,132.878 198.363,132.962 L198.354,132.962 C198.387,132.92 198.417,132.878 198.446,132.836 z M223.12,132.962 L223.11,132.962 C223.056,132.878 223.029,132.836 223.029,132.836 C223.057,132.878 223.088,132.92 223.12,132.962 z M195.519,129.81 C192.668,131.41 187.036,134.326 183.955,134.273 C183.955,134.273 184.863,134.399 186.228,134.515 L235.245,134.515 C236.611,134.399 237.519,134.273 237.519,134.273 C234.438,134.326 228.806,131.41 225.956,129.81 C229.951,131.126 237.954,130.073 237.954,130.073 C235.947,129.663 233.684,128.637 231.457,127.363 C232.381,127.332 232.986,127.116 232.986,127.116 C231.749,126.979 230.227,126.4 228.989,125.847 C227.535,124.9 226.148,123.906 224.915,122.974 C226.94,123.569 229.43,123.285 229.43,123.285 C228.126,123.074 227.179,122.553 226.519,122.016 C228.781,121.943 230.576,121.137 230.576,121.137 C227.358,119.822 225.403,117.738 225.403,117.738 C227.777,119.58 234.223,117.38 234.223,117.38 C228.122,116.88 221.685,111.681 219.167,109.433 C221.473,111.054 224.216,110.223 224.216,110.223 C220.06,110.433 217.771,105.186 217.771,105.186 C221.333,109.939 231.084,107.528 231.084,107.528 C223.199,107.812 217.432,97.103 217.432,97.103 C221.333,101.287 228.201,98.95 228.201,98.95 C221.587,98.808 220.06,93.703 220.06,93.703 C222.266,94.624 223.029,93.988 223.029,93.988 C220.484,94.056 218.619,91.435 218.619,91.435 C222.604,94.482 227.693,91.646 227.693,91.646 C223.707,92.425 219.072,85.268 219.072,85.268 C220.968,86.541 224.47,85.268 224.47,85.268 C222.868,85.625 219.788,84.099 217.725,82.915 C221.951,84.699 227.693,83.42 227.693,83.42 C220.824,82.573 217.008,78.037 217.008,78.037 C219.467,78.958 221.163,78.458 221.163,78.458 C216.16,78.389 214.379,74.421 214.379,74.421 C215.057,75.269 218.449,75.342 218.449,75.342 C217.432,75.342 215.488,73.785 215.488,73.785 C218.159,74.9 222.547,73.942 222.547,73.942 C213.771,73.942 212.244,66.448 213.447,67.722 C214.65,69.001 216.442,68.043 216.442,68.043 C213.193,66.775 211.703,62.786 211.022,59.57 L211.022,55.123 C211.022,55.123 210.992,56.323 210.737,57.997 C210.483,56.323 210.453,55.123 210.453,55.123 L210.453,59.57 C209.771,62.786 208.282,66.775 205.033,68.043 C205.033,68.043 206.824,69.001 208.027,67.722 C209.23,66.448 207.704,73.942 198.927,73.942 C198.927,73.942 203.315,74.9 205.986,73.785 C205.986,73.785 204.043,75.342 203.025,75.342 C203.025,75.342 206.417,75.269 207.095,74.421 C207.095,74.421 205.314,78.389 200.311,78.458 C200.311,78.458 202.007,78.958 204.467,78.037 C204.467,78.037 200.65,82.573 193.782,83.42 C193.782,83.42 199.523,84.699 203.749,82.915 C201.687,84.099 198.606,85.625 197.004,85.268 C197.004,85.268 200.507,86.541 202.401,85.268 C202.401,85.268 197.768,92.425 193.782,91.646 C193.782,91.646 198.87,94.482 202.855,91.435 C202.855,91.435 200.99,94.056 198.446,93.988 C198.446,93.988 199.209,94.624 201.413,93.703 C201.413,93.703 199.887,98.808 193.273,98.95 C193.273,98.95 200.142,101.287 204.043,97.103 C204.043,97.103 198.276,107.812 190.389,107.528 C190.389,107.528 200.142,109.939 203.703,105.186 C203.703,105.186 201.413,110.433 197.259,110.223 C197.259,110.223 200.001,111.054 202.307,109.433 C199.789,111.681 193.352,116.88 187.252,117.38 C187.252,117.38 193.697,119.58 196.071,117.738 C196.071,117.738 194.116,119.822 190.898,121.137 C190.898,121.137 192.693,121.943 194.955,122.016 C194.295,122.553 193.348,123.074 192.045,123.285 C192.045,123.285 194.534,123.569 196.559,122.974 C195.327,123.906 193.939,124.9 192.485,125.847 C191.247,126.4 189.724,126.979 188.489,127.116 C188.489,127.116 189.094,127.332 190.018,127.363 C187.791,128.637 185.527,129.663 183.521,130.073 C183.521,130.073 191.523,131.126 195.519,129.81" fill="url(#Gradient_10)"/>
      <path d="M134.156,114.407 C127.801,114.891 117.168,101.182 117.168,101.182 C122.306,107.428 127.771,105.544 127.771,105.544 C125.398,105.476 122.185,103.418 120.059,101.839 C125.432,105.165 132.048,103.445 132.048,103.445 C125.989,103.202 120.732,96.414 120.732,96.414 C125.811,100.208 134.097,99.724 134.097,99.724 C129.163,98.913 120.35,94.835 114.492,91.919 C121.752,93.667 132.493,93.014 132.493,93.014 C114.093,90.067 107.348,81.378 107.348,81.378 C110.62,84.436 121.497,85.957 123.16,86.173 C120.521,85.799 115.683,83.752 112.123,82.115 C116.724,83.457 122.425,83.615 122.425,83.615 C117.075,82.678 111.644,77.279 108.732,73.937 C114.452,79.689 121.593,78.279 121.593,78.279 C115.866,77.726 110.153,70.048 107.113,65.243 C109.829,68.738 112.445,68.69 112.445,68.69 C110.039,68.285 107.544,61.902 107.544,61.902 C112.801,69.822 120.643,69.253 120.643,69.253 C114.049,68.769 107.633,59.96 107.633,59.96 C111.732,65.133 118.95,62.791 118.95,62.791 C110.841,62.301 105.762,50.745 105.762,50.745 C108.244,53.681 113.519,53.734 115.104,53.681 C112.817,53.723 110.548,52.666 108.874,51.618 C112.643,53.255 117.791,52.36 117.791,52.36 C113.604,52.203 107.217,42.935 107.217,42.935 C110.96,45.787 115.653,43.956 115.653,43.956 C110.96,43.903 106.802,38.083 106.802,38.083 C109.95,41.856 115.653,40.725 115.653,40.725 C109.356,40.83 103.475,31.673 103.475,31.673 C105.911,35.389 109.594,33.883 109.594,33.883 C105.317,33.826 103.297,29.573 103.297,29.573 C106.504,33.341 112.683,31.242 112.683,31.242 C102.941,29.463 100.743,22.89 100.743,22.89 C104.069,27.147 109.653,25.369 109.653,25.369 C103.832,26.068 100.743,21.811 100.743,21.811 C104.604,26.663 112.92,23.858 112.92,23.858 C105.02,24.29 100.386,16.585 100.386,16.585 C101.812,18.364 104.485,17.664 104.485,17.664 C102.287,18.038 98.723,13.296 98.723,13.296 C101.931,16.854 107.871,14.375 107.871,14.375 C102.524,15.991 92.183,1.692 92.183,1.692 C92.183,1.692 81.842,15.991 76.495,14.375 C76.495,14.375 82.436,16.854 85.643,13.296 C85.643,13.296 82.079,18.038 79.881,17.664 C79.881,17.664 82.554,18.364 83.98,16.585 C83.98,16.585 79.346,24.29 71.446,23.858 C71.446,23.858 79.762,26.663 83.623,21.811 C83.623,21.811 80.534,26.068 74.713,25.369 C74.713,25.369 80.297,27.147 83.623,22.89 C83.623,22.89 81.426,29.463 71.684,31.242 C71.684,31.242 77.861,33.341 81.069,29.573 C81.069,29.573 79.05,33.826 74.773,33.883 C74.773,33.883 78.456,35.389 80.891,31.673 C80.891,31.673 75.01,40.83 68.713,40.725 C68.713,40.725 74.416,41.856 77.564,38.083 C77.564,38.083 73.406,43.903 68.713,43.956 C68.713,43.956 73.406,45.787 77.148,42.935 C77.148,42.935 70.763,52.203 66.575,52.36 C66.575,52.36 71.723,53.255 75.493,51.618 C73.818,52.666 71.549,53.723 69.262,53.681 C70.847,53.734 76.122,53.681 78.604,50.745 C78.604,50.745 73.525,62.301 65.417,62.791 C65.417,62.791 72.634,65.133 76.732,59.96 C76.732,59.96 70.317,68.769 63.724,69.253 C63.724,69.253 71.565,69.822 76.822,61.902 C76.822,61.902 74.327,68.285 71.921,68.69 C71.921,68.69 74.536,68.738 77.253,65.243 C74.213,70.048 68.5,77.726 62.773,78.279 C62.773,78.279 69.915,79.689 75.634,73.937 C72.722,77.279 67.291,82.678 61.941,83.615 C61.941,83.615 67.642,83.457 72.242,82.115 C68.683,83.752 63.845,85.799 61.206,86.173 C62.869,85.957 73.746,84.436 77.018,81.378 C77.018,81.378 70.273,90.067 51.873,93.014 C51.873,93.014 62.614,93.667 69.875,91.919 C64.016,94.835 55.203,98.913 50.269,99.724 C50.269,99.724 58.555,100.208 63.634,96.414 C63.634,96.414 58.377,103.202 52.318,103.445 C52.318,103.445 58.934,105.165 64.307,101.839 C62.182,103.418 58.968,105.476 56.595,105.544 C56.595,105.544 62.06,107.428 67.198,101.182 C67.198,101.182 56.565,114.891 50.209,114.407 C50.209,114.407 59.02,115.233 65.802,111.57 C63.934,113.359 61.871,115.201 59.935,116.627 L124.431,116.627 C122.496,115.201 120.432,113.359 118.564,111.57 C125.346,115.233 134.156,114.407 134.156,114.407 z" fill="url(#Gradient_11)"/>
      <path d="M176.055,141.651 C176.055,141.651 176.017,141.714 175.942,141.825 L175.929,141.825 C175.974,141.767 176.016,141.709 176.055,141.651 z M209.887,141.825 L209.874,141.825 C209.799,141.714 209.762,141.651 209.762,141.651 C209.8,141.709 209.843,141.767 209.887,141.825 z M172.042,137.504 C168.133,139.699 160.41,143.693 156.186,143.624 C156.186,143.624 157.432,143.793 159.303,143.951 L226.513,143.951 C228.385,143.793 229.63,143.624 229.63,143.624 C225.406,143.693 217.683,139.699 213.775,137.504 C219.253,139.304 230.226,137.862 230.226,137.862 C227.474,137.299 224.371,135.888 221.318,134.141 C222.584,134.104 223.414,133.804 223.414,133.804 C221.719,133.615 219.632,132.831 217.935,132.068 C215.94,130.773 214.038,129.405 212.349,128.126 C215.125,128.947 218.538,128.558 218.538,128.558 C216.751,128.268 215.453,127.547 214.547,126.81 C217.65,126.716 220.11,125.611 220.11,125.611 C215.698,123.806 213.018,120.948 213.018,120.948 C216.273,123.474 225.11,120.458 225.11,120.458 C216.745,119.774 207.919,112.644 204.467,109.565 C207.629,111.78 211.39,110.644 211.39,110.644 C205.692,110.933 202.553,103.739 202.553,103.739 C207.436,110.254 220.808,106.949 220.808,106.949 C209.994,107.339 202.088,92.656 202.088,92.656 C207.436,98.392 216.855,95.187 216.855,95.187 C207.785,94.993 205.692,87.993 205.692,87.993 C208.715,89.257 209.762,88.383 209.762,88.383 C206.274,88.478 203.715,84.883 203.715,84.883 C209.18,89.062 216.157,85.173 216.157,85.173 C210.692,86.241 204.337,76.426 204.337,76.426 C206.936,78.173 211.738,76.426 211.738,76.426 C209.542,76.916 205.318,74.821 202.49,73.206 C208.284,75.647 216.157,73.895 216.157,73.895 C206.739,72.732 201.506,66.512 201.506,66.512 C204.878,67.775 207.204,67.096 207.204,67.096 C200.343,66.996 197.902,61.554 197.902,61.554 C198.832,62.717 203.483,62.817 203.483,62.817 C202.088,62.817 199.422,60.681 199.422,60.681 C203.085,62.212 209.101,60.902 209.101,60.902 C197.068,60.902 194.975,50.624 196.624,52.371 C198.273,54.123 200.73,52.808 200.73,52.808 C196.275,51.071 194.232,45.598 193.298,41.193 L193.298,35.094 C193.298,35.094 193.257,36.736 192.908,39.035 C192.559,36.736 192.518,35.094 192.518,35.094 L192.518,41.193 C191.583,45.598 189.541,51.071 185.086,52.808 C185.086,52.808 187.543,54.123 189.192,52.371 C190.842,50.624 188.749,60.902 176.715,60.902 C176.715,60.902 182.732,62.212 186.394,60.681 C186.394,60.681 183.729,62.817 182.333,62.817 C182.333,62.817 186.985,62.717 187.915,61.554 C187.915,61.554 185.473,66.996 178.613,67.096 C178.613,67.096 180.938,67.775 184.31,66.512 C184.31,66.512 179.078,72.732 169.659,73.895 C169.659,73.895 177.533,75.647 183.327,73.206 C180.498,74.821 176.275,76.916 174.078,76.426 C174.078,76.426 178.88,78.173 181.479,76.426 C181.479,76.426 175.124,86.241 169.659,85.173 C169.659,85.173 176.636,89.062 182.101,84.883 C182.101,84.883 179.543,88.478 176.055,88.383 C176.055,88.383 177.101,89.257 180.124,87.993 C180.124,87.993 178.031,94.993 168.962,95.187 C168.962,95.187 178.38,98.392 183.729,92.656 C183.729,92.656 175.822,107.339 165.009,106.949 C165.009,106.949 178.38,110.254 183.264,103.739 C183.264,103.739 180.124,110.933 174.427,110.644 C174.427,110.644 178.188,111.78 181.35,109.565 C177.897,112.644 169.071,119.774 160.706,120.458 C160.706,120.458 169.543,123.474 172.799,120.948 C172.799,120.948 170.118,123.806 165.706,125.611 C165.706,125.611 168.167,126.716 171.269,126.81 C170.363,127.547 169.065,128.268 167.278,128.558 C167.278,128.558 170.692,128.947 173.468,128.126 C171.778,129.405 169.876,130.773 167.881,132.068 C166.184,132.831 164.097,133.615 162.402,133.804 C162.402,133.804 163.232,134.104 164.499,134.141 C161.445,135.888 158.342,137.299 155.59,137.862 C155.59,137.862 166.562,139.304 172.042,137.504" fill="url(#Gradient_12)"/>
      <path d="M451.099,73.132 C446.587,72.753 442.092,72.685 437.621,72.874 C437.353,72.806 437.086,72.737 436.817,72.674 C434.303,72.074 431.553,72.437 429.252,73.532 C408.396,75.905 388.214,83.552 369.67,92.204 C357.478,97.893 345.613,104.139 333.434,109.849 C320.857,115.749 309.947,120.259 296.301,123.695 C289.586,125.384 282.744,126.674 275.845,127.568 C270.897,128.205 262.408,128.773 256.041,128.916 C249.044,129.068 242.041,128.9 235.058,128.473 C231.738,128.274 228.423,128.016 225.113,127.7 C221.363,127.347 218.452,127.026 215.522,126.642 C186.933,122.895 159.109,115.801 131.317,108.844 C102.287,101.571 73.092,94.698 43.096,91.656 C28.503,90.178 13.758,89.725 -0.888,90.814 C-12.458,91.677 -24.715,92.904 -35.529,97.135 L-35.529,312.849 C-35.529,322.627 -26.79,330.552 -16.011,330.552 L431.58,330.552 C442.36,330.552 451.099,322.627 451.099,312.849 L451.099,73.132 z" fill="url(#Gradient_13)"/>
      <path d="M363.338,140.562 C356.982,141.051 346.349,127.337 346.349,127.337 C351.487,133.583 356.952,131.699 356.952,131.699 C354.579,131.636 351.366,129.573 349.24,127.995 C354.614,131.326 361.229,129.6 361.229,129.6 C355.17,129.358 349.913,122.569 349.913,122.569 C354.992,126.368 363.279,125.879 363.279,125.879 C358.345,125.069 349.531,120.99 343.673,118.08 C350.934,119.822 361.674,119.174 361.674,119.174 C343.275,116.222 336.53,107.534 336.53,107.534 C339.802,110.591 350.678,112.112 352.342,112.328 C349.702,111.954 344.864,109.907 341.305,108.27 C345.905,109.612 351.606,109.77 351.606,109.77 C346.257,108.833 340.826,103.434 337.913,100.092 C343.633,105.844 350.774,104.434 350.774,104.434 C345.047,103.881 339.335,96.203 336.294,91.398 C339.011,94.893 341.626,94.845 341.626,94.845 C339.22,94.44 336.725,88.057 336.725,88.057 C341.982,95.977 349.824,95.408 349.824,95.408 C343.23,94.924 336.815,86.115 336.815,86.115 C340.913,91.288 348.131,88.946 348.131,88.946 C340.023,88.462 334.944,76.9 334.944,76.9 C337.425,79.836 342.7,79.889 344.285,79.836 C341.998,79.884 339.73,78.821 338.055,77.773 C341.825,79.41 346.973,78.521 346.973,78.521 C342.785,78.358 336.399,69.09 336.399,69.09 C340.141,71.948 344.834,70.111 344.834,70.111 C340.141,70.059 335.983,64.238 335.983,64.238 C339.132,68.011 344.834,66.88 344.834,66.88 C338.537,66.99 332.657,57.828 332.657,57.828 C335.092,61.544 338.775,60.039 338.775,60.039 C334.498,59.986 332.479,55.728 332.479,55.728 C335.686,59.496 341.864,57.397 341.864,57.397 C332.122,55.618 329.924,49.045 329.924,49.045 C333.251,53.302 338.834,51.524 338.834,51.524 C333.013,52.224 329.924,47.966 329.924,47.966 C333.785,52.818 342.101,50.013 342.101,50.013 C334.201,50.445 329.568,42.74 329.568,42.74 C330.993,44.519 333.666,43.819 333.666,43.819 C331.468,44.198 327.904,39.456 327.904,39.456 C331.112,43.009 337.052,40.53 337.052,40.53 C331.706,42.151 321.364,27.847 321.364,27.847 C321.364,27.847 311.022,42.151 305.677,40.53 C305.677,40.53 311.616,43.009 314.824,39.456 C314.824,39.456 311.26,44.198 309.062,43.819 C309.062,43.819 311.735,44.519 313.161,42.74 C313.161,42.74 308.528,50.445 300.627,50.013 C300.627,50.013 308.944,52.818 312.805,47.966 C312.805,47.966 309.716,52.224 303.894,51.524 C303.894,51.524 309.478,53.302 312.805,49.045 C312.805,49.045 310.606,55.618 300.865,57.397 C300.865,57.397 307.042,59.496 310.25,55.728 C310.25,55.728 308.23,59.986 303.954,60.039 C303.954,60.039 307.636,61.544 310.072,57.828 C310.072,57.828 304.191,66.99 297.895,66.88 C297.895,66.88 303.597,68.011 306.746,64.238 C306.746,64.238 302.588,70.059 297.895,70.111 C297.895,70.111 302.588,71.948 306.33,69.09 C306.33,69.09 299.944,78.358 295.756,78.521 C295.756,78.521 300.904,79.41 304.673,77.773 C302.999,78.821 300.73,79.884 298.443,79.836 C300.028,79.889 305.303,79.836 307.785,76.9 C307.785,76.9 302.706,88.462 294.598,88.946 C294.598,88.946 301.815,91.288 305.914,86.115 C305.914,86.115 299.498,94.924 292.905,95.408 C292.905,95.408 300.746,95.977 306.003,88.057 C306.003,88.057 303.508,94.44 301.102,94.845 C301.102,94.845 303.718,94.893 306.434,91.398 C303.394,96.203 297.682,103.881 291.954,104.434 C291.954,104.434 299.096,105.844 304.816,100.092 C301.903,103.434 296.472,108.833 291.123,109.77 C291.123,109.77 296.824,109.612 301.424,108.27 C297.864,109.907 293.026,111.954 290.387,112.328 C292.05,112.112 302.927,110.591 306.199,107.534 C306.199,107.534 299.454,116.222 281.054,119.174 C281.054,119.174 291.795,119.822 299.055,118.08 C293.197,120.99 284.384,125.069 279.45,125.879 C279.45,125.879 287.737,126.368 292.816,122.569 C292.816,122.569 287.559,129.358 281.499,129.6 C281.499,129.6 288.115,131.326 293.489,127.995 C291.362,129.573 288.149,131.636 285.776,131.699 C285.776,131.699 291.241,133.583 296.38,127.337 C296.38,127.337 285.747,141.051 279.391,140.562 C279.391,140.562 288.201,141.388 294.984,137.725 C293.114,139.514 291.051,141.356 289.116,142.782 L353.612,142.782 C351.677,141.356 349.614,139.514 347.745,137.725 C354.528,141.388 363.338,140.562 363.338,140.562 z" fill="url(#Gradient_14)"/>
      <path d="M351.879,146.303 C351.879,146.303 351.829,146.382 351.731,146.535 L351.714,146.535 C351.772,146.456 351.828,146.382 351.879,146.303 z M396.296,146.535 L396.278,146.535 C396.18,146.382 396.131,146.303 396.131,146.303 C396.182,146.382 396.238,146.456 396.296,146.535 z M346.611,140.862 C341.479,143.735 331.34,148.987 325.795,148.892 C325.795,148.892 327.429,149.113 329.887,149.324 L418.123,149.324 C420.58,149.113 422.215,148.892 422.215,148.892 C416.669,148.987 406.531,143.735 401.399,140.862 C408.592,143.225 422.997,141.325 422.997,141.325 C419.385,140.588 415.31,138.741 411.302,136.446 C412.965,136.394 414.055,136.004 414.055,136.004 C411.829,135.757 409.09,134.72 406.861,133.726 C404.242,132.02 401.745,130.226 399.527,128.552 C403.172,129.626 407.653,129.11 407.653,129.11 C405.307,128.737 403.602,127.789 402.414,126.821 C406.486,126.7 409.717,125.247 409.717,125.247 C403.925,122.874 400.405,119.122 400.405,119.122 C404.679,122.437 416.281,118.485 416.281,118.485 C405.299,117.585 393.711,108.223 389.18,104.181 C393.33,107.091 398.268,105.592 398.268,105.592 C390.788,105.976 386.667,96.535 386.667,96.535 C393.078,105.081 410.633,100.745 410.633,100.745 C396.436,101.255 386.056,81.984 386.056,81.984 C393.078,89.514 405.443,85.304 405.443,85.304 C393.536,85.046 390.788,75.858 390.788,75.858 C394.757,77.516 396.131,76.368 396.131,76.368 C391.551,76.495 388.193,71.774 388.193,71.774 C395.368,77.263 404.527,72.158 404.527,72.158 C397.352,73.563 389.01,60.67 389.01,60.67 C392.422,62.97 398.726,60.67 398.726,60.67 C395.842,61.317 390.296,58.57 386.584,56.444 C394.191,59.649 404.527,57.355 404.527,57.355 C392.162,55.823 385.292,47.656 385.292,47.656 C389.72,49.313 392.773,48.419 392.773,48.419 C383.767,48.292 380.56,41.146 380.56,41.146 C381.782,42.677 387.888,42.804 387.888,42.804 C386.056,42.804 382.557,40.004 382.557,40.004 C387.365,42.014 395.264,40.293 395.264,40.293 C379.466,40.293 376.718,26.795 378.883,29.094 C381.048,31.389 384.274,29.668 384.274,29.668 C378.425,27.384 375.744,20.201 374.517,14.417 L374.517,6.413 C374.517,6.413 374.463,8.57 374.005,11.591 C373.547,8.57 373.493,6.413 373.493,6.413 L373.493,14.417 C372.266,20.201 369.584,27.384 363.736,29.668 C363.736,29.668 366.962,31.389 369.126,29.094 C371.292,26.795 368.544,40.293 352.745,40.293 C352.745,40.293 360.645,42.014 365.453,40.004 C365.453,40.004 361.954,42.804 360.122,42.804 C360.122,42.804 366.228,42.677 367.45,41.146 C367.45,41.146 364.243,48.292 355.237,48.419 C355.237,48.419 358.29,49.313 362.717,47.656 C362.717,47.656 355.848,55.823 343.483,57.355 C343.483,57.355 353.819,59.649 361.426,56.444 C357.713,58.57 352.168,61.317 349.283,60.67 C349.283,60.67 355.588,62.97 359,60.67 C359,60.67 350.658,73.563 343.483,72.158 C343.483,72.158 352.642,77.263 359.817,71.774 C359.817,71.774 356.459,76.495 351.879,76.368 C351.879,76.368 353.253,77.516 357.222,75.858 C357.222,75.858 354.474,85.046 342.567,85.304 C342.567,85.304 354.932,89.514 361.954,81.984 C361.954,81.984 351.573,101.255 337.377,100.745 C337.377,100.745 354.932,105.081 361.343,96.535 C361.343,96.535 357.222,105.976 349.742,105.592 C349.742,105.592 354.679,107.091 358.83,104.181 C354.299,108.223 342.711,117.585 331.729,118.485 C331.729,118.485 343.33,122.437 347.604,119.122 C347.604,119.122 344.085,122.874 338.293,125.247 C338.293,125.247 341.524,126.7 345.596,126.821 C344.407,127.789 342.702,128.737 340.357,129.11 C340.357,129.11 344.838,129.626 348.483,128.552 C346.265,130.226 343.768,132.02 341.149,133.726 C338.92,134.72 336.18,135.757 333.955,136.004 C333.955,136.004 335.045,136.394 336.708,136.446 C332.699,138.741 328.625,140.588 325.012,141.325 C325.012,141.325 339.418,143.225 346.611,140.862" fill="url(#Gradient_15)"/>
      <path d="M451.099,105.865 C434.103,100.971 427.608,92.619 427.608,92.619 C431.945,96.672 446.361,98.687 448.565,98.977 C445.067,98.477 438.655,95.761 433.937,93.593 C440.034,95.377 447.59,95.582 447.59,95.582 C440.5,94.34 433.302,87.183 429.442,82.757 C437.022,90.377 446.488,88.515 446.488,88.515 C438.897,87.783 431.326,77.6 427.296,71.232 C430.897,75.868 434.364,75.8 434.364,75.8 C431.175,75.269 427.868,66.806 427.868,66.806 C434.835,77.3 445.228,76.553 445.228,76.553 C436.489,75.911 427.986,64.233 427.986,64.233 C433.418,71.09 442.984,67.98 442.984,67.98 C432.237,67.338 425.506,52.024 425.506,52.024 C428.796,55.907 435.787,55.981 437.887,55.907 C434.857,55.971 431.85,54.565 429.63,53.176 C434.626,55.35 441.449,54.165 441.449,54.165 C435.899,53.95 427.435,41.667 427.435,41.667 C432.395,45.451 438.615,43.025 438.615,43.025 C432.395,42.951 426.884,35.241 426.884,35.241 C431.056,40.241 438.615,38.741 438.615,38.741 C430.269,38.883 422.475,26.742 422.475,26.742 C425.703,31.668 430.584,29.668 430.584,29.668 C424.916,29.6 422.239,23.958 422.239,23.958 C426.49,28.958 434.678,26.168 434.678,26.168 C421.767,23.816 418.854,15.101 418.854,15.101 C423.262,20.743 430.663,18.385 430.663,18.385 C422.947,19.317 418.854,13.675 418.854,13.675 C423.971,20.101 434.993,16.385 434.993,16.385 C424.522,16.959 418.381,6.744 418.381,6.744 C420.27,9.102 423.814,8.176 423.814,8.176 C420.9,8.676 416.177,2.392 416.177,2.392 C420.428,7.102 428.301,3.818 428.301,3.818 C421.215,5.96 407.509,-12.996 407.509,-12.996 C407.509,-12.996 393.802,5.96 386.717,3.818 C386.717,3.818 394.59,7.102 398.841,2.392 C398.841,2.392 394.117,8.676 391.204,8.176 C391.204,8.176 394.747,9.102 396.637,6.744 C396.637,6.744 390.495,16.959 380.024,16.385 C380.024,16.385 391.047,20.101 396.164,13.675 C396.164,13.675 392.071,19.317 384.355,18.385 C384.355,18.385 391.756,20.743 396.164,15.101 C396.164,15.101 393.251,23.816 380.339,26.168 C380.339,26.168 388.527,28.958 392.779,23.958 C392.779,23.958 390.102,29.6 384.433,29.668 C384.433,29.668 389.315,31.668 392.542,26.742 C392.542,26.742 384.748,38.883 376.403,38.741 C376.403,38.741 383.961,40.241 388.134,35.241 C388.134,35.241 382.622,42.951 376.403,43.025 C376.403,43.025 382.622,45.451 387.583,41.667 C387.583,41.667 379.119,53.95 373.569,54.165 C373.569,54.165 380.392,55.35 385.388,53.176 C383.168,54.565 380.161,55.971 377.131,55.907 C379.231,55.981 386.222,55.907 389.511,52.024 C389.511,52.024 382.78,67.338 372.034,67.98 C372.034,67.98 381.599,71.09 387.031,64.233 C387.031,64.233 378.529,75.911 369.79,76.553 C369.79,76.553 380.182,77.3 387.15,66.806 C387.15,66.806 383.843,75.269 380.654,75.8 C380.654,75.8 384.12,75.868 387.722,71.232 C383.692,77.6 376.121,87.783 368.53,88.515 C368.53,88.515 377.995,90.377 385.576,82.757 C381.716,87.183 374.518,94.34 367.428,95.582 C367.428,95.582 374.984,95.377 381.08,93.593 C376.363,95.761 369.951,98.477 366.453,98.977 C368.657,98.687 383.073,96.672 387.409,92.619 C387.409,92.619 378.47,104.134 354.083,108.044 C354.083,108.044 368.319,108.907 377.941,106.592 C370.178,110.454 358.497,115.859 351.958,116.938 C351.958,116.938 362.94,117.58 369.672,112.544 C369.672,112.544 362.704,121.543 354.674,121.864 C354.674,121.864 363.442,124.148 370.564,119.738 C367.746,121.832 363.487,124.558 360.342,124.648 C360.342,124.648 367.585,127.147 374.395,118.864 C374.395,118.864 360.303,137.036 351.879,136.394 C351.879,136.394 363.556,137.488 372.545,132.631 C370.068,135.01 367.334,137.446 364.768,139.335 L450.249,139.335 C447.684,137.446 444.95,135.01 442.473,132.631 C445.233,134.126 448.247,135.052 451.099,135.625 L451.099,130.084 C445.425,125.053 440.623,118.864 440.623,118.864 C444.426,123.49 448.362,124.753 451.099,124.963 L451.099,123.732 C448.743,122.737 446.293,121.106 444.454,119.738 C446.615,121.074 448.926,121.795 451.099,122.153 L451.099,118.08 C447.635,115.496 445.346,112.544 445.346,112.544 C447.07,113.833 449.073,114.749 451.099,115.401 L451.099,113.044 C446.214,111.023 441.116,108.602 437.076,106.592 C441.39,107.628 446.629,108.028 451.099,108.155 L451.099,105.865 z" fill="url(#Gradient_16)"/>
      <path d="M131.444,162.812 C120.838,163.617 103.095,140.735 103.095,140.735 C111.669,151.166 120.788,148.019 120.788,148.019 C116.829,147.908 111.467,144.472 107.92,141.84 C116.886,147.392 127.925,144.514 127.925,144.514 C117.814,144.109 109.043,132.778 109.043,132.778 C117.517,139.12 131.345,138.309 131.345,138.309 C123.112,136.951 108.405,130.147 98.63,125.29 C110.746,128.2 128.669,127.116 128.669,127.116 C97.966,122.195 86.711,107.697 86.711,107.697 C92.17,112.796 110.32,115.333 113.095,115.696 C108.691,115.075 100.618,111.654 94.679,108.923 C102.355,111.165 111.868,111.428 111.868,111.428 C102.942,109.865 93.879,100.85 89.02,95.282 C98.563,104.876 110.48,102.529 110.48,102.529 C100.923,101.603 91.391,88.788 86.318,80.773 C90.851,86.604 95.215,86.525 95.215,86.525 C91.201,85.846 87.038,75.195 87.038,75.195 C95.81,88.409 108.894,87.467 108.894,87.467 C97.892,86.657 87.186,71.958 87.186,71.958 C94.026,80.589 106.069,76.679 106.069,76.679 C92.539,75.868 84.064,56.581 84.064,56.581 C88.206,61.475 97.007,61.57 99.652,61.48 C95.836,61.554 92.05,59.786 89.256,58.039 C95.547,60.77 104.136,59.281 104.136,59.281 C97.148,59.012 86.493,43.546 86.493,43.546 C92.737,48.313 100.567,45.256 100.567,45.256 C92.737,45.166 85.799,35.457 85.799,35.457 C91.052,41.746 100.567,39.862 100.567,39.862 C90.061,40.041 80.248,24.758 80.248,24.758 C84.312,30.957 90.458,28.442 90.458,28.442 C83.32,28.352 79.951,21.248 79.951,21.248 C85.303,27.542 95.612,24.037 95.612,24.037 C79.356,21.069 75.689,10.102 75.689,10.102 C81.239,17.201 90.556,14.238 90.556,14.238 C80.842,15.406 75.689,8.302 75.689,8.302 C82.132,16.396 96.008,11.717 96.008,11.717 C82.825,12.438 75.094,-0.418 75.094,-0.418 C77.473,2.55 81.933,1.382 81.933,1.382 C78.265,2.008 72.318,-5.902 72.318,-5.902 C77.671,0.029 87.583,-4.107 87.583,-4.107 C78.662,-1.408 61.405,-25.274 61.405,-25.274 C61.405,-25.274 44.149,-1.408 35.228,-4.107 C35.228,-4.107 45.14,0.029 50.493,-5.902 C50.493,-5.902 44.545,2.008 40.878,1.382 C40.878,1.382 45.338,2.55 47.717,-0.418 C47.717,-0.418 39.986,12.438 26.803,11.717 C26.803,11.717 40.68,16.396 47.122,8.302 C47.122,8.302 41.968,15.406 32.255,14.238 C32.255,14.238 41.572,17.201 47.122,10.102 C47.122,10.102 43.455,21.069 27.199,24.037 C27.199,24.037 37.508,27.542 42.86,21.248 C42.86,21.248 39.49,28.352 32.354,28.442 C32.354,28.442 38.499,30.957 42.563,24.758 C42.563,24.758 32.75,40.041 22.243,39.862 C22.243,39.862 31.759,41.746 37.012,35.457 C37.012,35.457 30.074,45.166 22.243,45.256 C22.243,45.256 30.074,48.313 36.319,43.546 C36.319,43.546 25.663,59.012 18.675,59.281 C18.675,59.281 27.264,60.77 33.555,58.039 C30.761,59.786 26.975,61.554 23.16,61.48 C25.804,61.57 34.606,61.475 38.747,56.581 C38.747,56.581 30.272,75.868 16.742,76.679 C16.742,76.679 28.785,80.589 35.624,71.958 C35.624,71.958 24.919,86.657 13.917,87.467 C13.917,87.467 27.001,88.409 35.773,75.195 C35.773,75.195 31.61,85.846 27.596,86.525 C27.596,86.525 31.96,86.604 36.493,80.773 C31.42,88.788 21.888,101.603 12.331,102.529 C12.331,102.529 24.248,104.876 33.792,95.282 C28.932,100.85 19.869,109.865 10.943,111.428 C10.943,111.428 20.456,111.165 28.132,108.923 C22.193,111.654 14.12,115.075 9.716,115.696 C12.491,115.333 30.641,112.796 36.1,107.697 C36.1,107.697 24.845,122.195 -5.857,127.116 C-5.857,127.116 12.065,128.2 24.181,125.29 C14.406,130.147 -0.301,136.951 -8.533,138.309 C-8.533,138.309 5.294,139.12 13.769,132.778 C13.769,132.778 4.997,144.109 -5.114,144.514 C-5.114,144.514 5.925,147.392 14.892,141.84 C11.344,144.472 5.982,147.908 2.023,148.019 C2.023,148.019 11.142,151.166 19.716,140.735 C19.716,140.735 1.973,163.617 -8.632,162.812 C-8.632,162.812 6.069,164.191 17.386,158.07 C14.268,161.065 10.825,164.133 7.595,166.512 L115.216,166.512 C111.986,164.133 108.543,161.065 105.425,158.07 C116.743,164.191 131.444,162.812 131.444,162.812 z" fill="url(#Gradient_17)"/>
      <path d="M142.548,167.117 C142.548,167.117 142.492,167.206 142.381,167.375 L142.361,167.375 C142.427,167.29 142.49,167.206 142.548,167.117 z M192.908,167.375 L192.888,167.375 C192.777,167.206 192.721,167.117 192.721,167.117 C192.779,167.206 192.842,167.29 192.908,167.375 z M136.575,160.944 C130.757,164.207 119.261,170.159 112.974,170.053 C112.974,170.053 114.827,170.301 117.614,170.543 L217.656,170.543 C220.442,170.301 222.295,170.053 222.295,170.053 C216.008,170.159 204.513,164.207 198.695,160.944 C206.85,163.622 223.183,161.475 223.183,161.475 C219.087,160.638 214.467,158.539 209.922,155.939 C211.808,155.881 213.043,155.439 213.043,155.439 C210.52,155.155 207.414,153.981 204.887,152.855 C201.918,150.918 199.087,148.887 196.572,146.987 C200.704,148.203 205.785,147.624 205.785,147.624 C203.125,147.198 201.192,146.124 199.845,145.03 C204.462,144.887 208.125,143.24 208.125,143.24 C201.558,140.556 197.567,136.299 197.567,136.299 C202.414,140.056 215.567,135.573 215.567,135.573 C203.116,134.557 189.978,123.937 184.84,119.353 C189.546,122.658 195.145,120.958 195.145,120.958 C186.663,121.39 181.991,110.686 181.991,110.686 C189.26,120.38 209.163,115.459 209.163,115.459 C193.067,116.038 181.298,94.193 181.298,94.193 C189.26,102.729 203.279,97.95 203.279,97.95 C189.779,97.661 186.663,87.246 186.663,87.246 C191.163,89.125 192.721,87.825 192.721,87.825 C187.529,87.967 183.721,82.615 183.721,82.615 C191.856,88.835 202.241,83.047 202.241,83.047 C194.106,84.641 184.647,70.027 184.647,70.027 C188.515,72.632 195.664,70.027 195.664,70.027 C192.394,70.753 186.106,67.643 181.897,65.233 C190.522,68.869 202.241,66.264 202.241,66.264 C188.221,64.528 180.433,55.265 180.433,55.265 C185.452,57.149 188.913,56.134 188.913,56.134 C178.702,55.992 175.067,47.887 175.067,47.887 C176.452,49.624 183.375,49.771 183.375,49.771 C181.298,49.771 177.331,46.593 177.331,46.593 C182.783,48.871 191.739,46.919 191.739,46.919 C173.826,46.919 170.711,31.62 173.166,34.225 C175.621,36.825 179.278,34.873 179.278,34.873 C172.647,32.289 169.606,24.142 168.215,17.58 L168.215,8.507 C168.215,8.507 168.154,10.949 167.635,14.375 C167.115,10.949 167.054,8.507 167.054,8.507 L167.054,17.58 C165.663,24.142 162.622,32.289 155.992,34.873 C155.992,34.873 159.648,36.825 162.103,34.225 C164.559,31.62 161.443,46.919 143.531,46.919 C143.531,46.919 152.487,48.871 157.939,46.593 C157.939,46.593 153.971,49.771 151.894,49.771 C151.894,49.771 158.817,49.624 160.202,47.887 C160.202,47.887 156.567,55.992 146.356,56.134 C146.356,56.134 149.817,57.149 154.836,55.265 C154.836,55.265 147.048,64.528 133.029,66.264 C133.029,66.264 144.748,68.869 153.373,65.233 C149.163,67.643 142.875,70.753 139.606,70.027 C139.606,70.027 146.754,72.632 150.622,70.027 C150.622,70.027 141.164,84.641 133.029,83.047 C133.029,83.047 143.414,88.835 151.548,82.615 C151.548,82.615 147.741,87.967 142.548,87.825 C142.548,87.825 144.106,89.125 148.606,87.246 C148.606,87.246 145.49,97.661 131.991,97.95 C131.991,97.95 146.01,102.729 153.971,94.193 C153.971,94.193 142.202,116.038 126.106,115.459 C126.106,115.459 146.01,120.38 153.279,110.686 C153.279,110.686 148.606,121.39 140.125,120.958 C140.125,120.958 145.724,122.658 150.429,119.353 C145.291,123.937 132.153,134.557 119.702,135.573 C119.702,135.573 132.856,140.056 137.702,136.299 C137.702,136.299 133.711,140.556 127.144,143.24 C127.144,143.24 130.808,144.887 135.425,145.03 C134.077,146.124 132.144,147.198 129.484,147.624 C129.484,147.624 134.565,148.203 138.698,146.987 C136.182,148.887 133.351,150.918 130.382,152.855 C127.856,153.981 124.749,155.155 122.226,155.439 C122.226,155.439 123.461,155.881 125.347,155.939 C120.802,158.539 116.182,160.638 112.086,161.475 C112.086,161.475 128.42,163.622 136.575,160.944" fill="url(#Gradient_18)"/>
      <path d="M450.099,312.849 L450.099,206.149 C439.343,206.055 428.592,205.539 417.879,204.676 C411.271,204.139 404.686,203.444 398.104,202.697 C398.051,202.692 398.006,202.687 397.96,202.681 C397.906,202.671 397.85,202.666 397.787,202.655 C397.129,202.571 396.47,202.492 395.812,202.408 C394.057,202.181 392.302,201.945 390.549,201.703 C387.258,201.25 383.972,200.771 380.69,200.271 C354.36,196.235 328.344,190.683 302.495,184.641 C251.486,172.716 200.859,158.907 148.727,151.482 C100.781,144.645 52.167,143.151 4.556,152.86 C-9.389,155.702 -23.184,159.528 -36.529,164.364 L-36.529,312.849 C-36.529,322.627 -27.79,330.552 -17.011,330.552 L430.58,330.552 C441.36,330.552 450.099,322.627 450.099,312.849 z" fill="url(#Gradient_19)"/>
      <path d="M382.559,-115.531 C382.559,-80.251 351.03,-51.65 312.136,-51.65 C273.242,-51.65 241.713,-80.251 241.713,-115.531 C241.713,-150.81 273.242,-179.409 312.136,-179.409 C351.03,-179.409 382.559,-150.81 382.559,-115.531" fill="#FFFCEB"/>
      <g>
        <path d="M281.425,-410.122 Q283.045,-410.122 283.578,-409.066 Q284.111,-408.01 284.111,-406.021 L284.111,-389.758 Q284.111,-386.969 283.517,-384.959 Q282.922,-382.949 281.609,-381.637 Q280.297,-380.324 278.174,-379.689 Q276.052,-379.053 272.894,-379.053 Q270.002,-379.053 267.726,-379.863 Q265.449,-380.673 264.219,-381.955 Q262.988,-383.236 262.988,-384.59 Q262.988,-385.615 263.686,-386.261 Q264.383,-386.907 265.367,-386.907 Q266.598,-386.907 267.52,-385.82 Q267.972,-385.267 268.454,-384.703 Q268.936,-384.139 269.52,-383.739 Q270.104,-383.339 270.925,-383.144 Q271.745,-382.949 272.811,-382.949 Q274.985,-382.949 276.185,-383.554 Q277.385,-384.159 277.867,-385.246 Q278.349,-386.333 278.431,-387.574 Q278.513,-388.815 278.554,-391.563 Q277.262,-389.758 275.57,-388.815 Q273.878,-387.871 271.54,-387.871 Q268.73,-387.871 266.628,-389.307 Q264.526,-390.742 263.398,-393.326 Q262.27,-395.91 262.27,-399.294 Q262.27,-401.817 262.957,-403.847 Q263.645,-405.877 264.916,-407.272 Q266.187,-408.666 267.849,-409.374 Q269.51,-410.081 271.499,-410.081 Q273.878,-410.081 275.621,-409.169 Q277.364,-408.256 278.861,-406.308 L278.861,-407.066 Q278.861,-408.523 279.579,-409.322 Q280.297,-410.122 281.425,-410.122 z M273.181,-405.939 Q270.781,-405.939 269.335,-404.113 Q267.89,-402.288 267.89,-398.925 Q267.89,-395.521 269.376,-393.777 Q270.863,-392.034 273.222,-392.034 Q274.616,-392.034 275.857,-392.783 Q277.098,-393.531 277.877,-395.039 Q278.656,-396.546 278.656,-398.699 Q278.656,-402.124 277.149,-404.031 Q275.642,-405.939 273.181,-405.939 z M341.902,-410.122 Q342.907,-410.122 343.645,-409.425 Q344.384,-408.728 344.384,-407.784 Q344.384,-406.923 343.748,-405.18 L339.175,-391.768 Q338.58,-390.066 338.252,-389.307 Q337.924,-388.548 337.216,-387.953 Q336.509,-387.359 335.278,-387.359 Q334.007,-387.359 333.279,-387.994 Q332.551,-388.63 332.202,-389.553 Q331.853,-390.476 331.443,-391.952 L328.244,-402.862 L325.147,-391.952 Q324.532,-389.676 323.814,-388.517 Q323.097,-387.359 321.292,-387.359 Q320.369,-387.359 319.723,-387.717 Q319.077,-388.076 318.646,-388.743 Q318.216,-389.409 317.888,-390.322 Q317.56,-391.235 317.375,-391.768 L312.843,-405.18 Q312.166,-407.067 312.166,-407.784 Q312.166,-408.687 312.884,-409.404 Q313.602,-410.122 314.647,-410.122 Q316.042,-410.122 316.534,-409.333 Q317.026,-408.543 317.58,-406.636 L321.23,-394.126 L324.553,-405.754 Q325.086,-407.579 325.342,-408.246 Q325.599,-408.912 326.306,-409.517 Q327.014,-410.122 328.244,-410.122 Q329.495,-410.122 330.203,-409.517 Q330.91,-408.912 331.197,-408.205 Q331.484,-407.497 331.997,-405.754 L335.319,-394.126 L339.011,-406.636 Q339.38,-407.989 339.605,-408.594 Q339.831,-409.199 340.364,-409.661 Q340.897,-410.122 341.902,-410.122 z M298.508,-410.122 Q301.051,-410.122 303.122,-409.302 Q305.193,-408.482 306.67,-406.964 Q308.146,-405.446 308.915,-403.355 Q309.685,-401.263 309.685,-398.74 Q309.685,-396.238 308.905,-394.126 Q308.126,-392.014 306.649,-390.496 Q305.173,-388.979 303.122,-388.169 Q301.071,-387.359 298.508,-387.359 Q295.965,-387.359 293.935,-388.179 Q291.904,-388.999 290.417,-390.527 Q288.931,-392.055 288.162,-394.136 Q287.393,-396.218 287.393,-398.74 Q287.393,-401.283 288.172,-403.396 Q288.951,-405.508 290.407,-407.005 Q291.863,-408.502 293.935,-409.312 Q296.006,-410.122 298.508,-410.122 z M298.508,-405.98 Q296.867,-405.98 295.616,-405.129 Q294.365,-404.277 293.688,-402.616 Q293.012,-400.955 293.012,-398.74 Q293.012,-396.546 293.678,-394.905 Q294.345,-393.265 295.585,-392.393 Q296.826,-391.522 298.508,-391.522 Q301.051,-391.522 302.558,-393.439 Q304.065,-395.357 304.065,-398.74 Q304.065,-402.165 302.558,-404.072 Q301.051,-405.98 298.508,-405.98 z M248.53,-410.122 Q250.704,-410.122 252.437,-409.671 Q254.17,-409.22 255.329,-408.461 Q256.487,-407.702 257.092,-406.779 Q257.697,-405.857 257.697,-404.975 Q257.697,-404.011 257.051,-403.396 Q256.405,-402.78 255.216,-402.78 Q254.354,-402.78 253.749,-403.273 Q253.145,-403.765 252.365,-404.749 Q251.729,-405.569 250.868,-406.062 Q250.007,-406.554 248.53,-406.554 Q247.013,-406.554 246.008,-405.908 Q245.003,-405.262 245.003,-404.298 Q245.003,-403.416 245.741,-402.852 Q246.479,-402.288 247.73,-401.919 Q248.981,-401.55 251.176,-401.017 Q253.78,-400.381 255.431,-399.499 Q257.082,-398.617 257.933,-397.418 Q258.784,-396.218 258.784,-394.68 Q258.784,-392.362 257.656,-390.712 Q256.528,-389.061 254.324,-388.21 Q252.119,-387.359 248.961,-387.359 Q245.946,-387.359 243.793,-388.281 Q241.64,-389.204 240.614,-390.589 Q239.589,-391.973 239.589,-393.367 Q239.589,-394.29 240.245,-394.946 Q240.901,-395.603 241.906,-395.603 Q242.788,-395.603 243.26,-395.172 Q243.731,-394.741 244.162,-393.962 Q245.023,-392.465 246.223,-391.727 Q247.423,-390.988 249.494,-390.988 Q251.176,-390.988 252.252,-391.737 Q253.329,-392.486 253.329,-393.449 Q253.329,-394.926 252.211,-395.603 Q251.094,-396.279 248.53,-396.895 Q245.639,-397.612 243.824,-398.402 Q242.009,-399.192 240.922,-400.484 Q239.835,-401.776 239.835,-403.662 Q239.835,-405.344 240.84,-406.841 Q241.845,-408.338 243.803,-409.23 Q245.762,-410.122 248.53,-410.122 z M225.418,-410.163 Q229.109,-410.163 231.222,-409.292 Q233.334,-408.42 234.206,-406.533 Q235.077,-404.647 235.077,-401.529 Q235.077,-399.561 235.067,-398.187 Q235.057,-396.813 235.036,-395.131 Q235.036,-393.552 235.559,-391.84 Q236.082,-390.127 236.082,-389.635 Q236.082,-388.774 235.272,-388.066 Q234.462,-387.359 233.436,-387.359 Q232.575,-387.359 231.734,-388.169 Q230.894,-388.979 229.95,-390.517 Q227.92,-388.938 226.023,-388.148 Q224.126,-387.359 221.768,-387.359 Q219.614,-387.359 217.984,-388.21 Q216.353,-389.061 215.472,-390.517 Q214.59,-391.973 214.59,-393.675 Q214.59,-395.972 216.046,-397.592 Q217.502,-399.212 220.045,-399.766 Q220.578,-399.889 222.69,-400.319 Q224.803,-400.75 226.31,-401.109 Q227.817,-401.468 229.581,-401.981 Q229.478,-404.195 228.689,-405.231 Q227.899,-406.267 225.418,-406.267 Q223.285,-406.267 222.208,-405.672 Q221.132,-405.077 220.363,-403.888 Q219.594,-402.698 219.276,-402.319 Q218.958,-401.94 217.912,-401.94 Q216.969,-401.94 216.282,-402.545 Q215.595,-403.15 215.595,-404.093 Q215.595,-405.569 216.641,-406.964 Q217.686,-408.359 219.901,-409.261 Q222.116,-410.163 225.418,-410.163 z M229.581,-398.617 Q228.351,-398.166 226.002,-397.664 Q223.654,-397.161 222.752,-396.925 Q221.85,-396.69 221.029,-396.003 Q220.209,-395.316 220.209,-394.085 Q220.209,-392.814 221.173,-391.922 Q222.137,-391.029 223.695,-391.029 Q225.356,-391.029 226.761,-391.757 Q228.166,-392.486 228.822,-393.634 Q229.581,-394.905 229.581,-397.818 L229.581,-398.617 z M207.186,-418.448 Q208.458,-418.448 209.237,-417.597 Q210.017,-416.746 210.017,-415.044 L210.016,-390.763 Q210.017,-389.061 209.227,-388.21 Q208.437,-387.359 207.186,-387.359 Q205.956,-387.359 205.187,-388.24 Q204.418,-389.122 204.418,-390.763 L204.418,-415.044 Q204.418,-416.726 205.166,-417.587 Q205.915,-418.448 207.186,-418.448 z M185.981,-418.448 Q189.017,-418.448 191.354,-417.638 Q193.692,-416.828 195.148,-415.598 Q196.604,-414.367 197.343,-412.993 Q198.081,-411.619 198.081,-410.553 Q198.081,-409.404 197.23,-408.594 Q196.379,-407.784 195.189,-407.784 Q194.533,-407.784 193.928,-408.092 Q193.323,-408.4 192.913,-408.953 Q191.785,-410.717 191.006,-411.619 Q190.227,-412.522 188.904,-413.137 Q187.581,-413.752 185.53,-413.752 Q183.418,-413.752 181.757,-413.024 Q180.096,-412.296 178.916,-410.912 Q177.737,-409.527 177.112,-407.518 Q176.486,-405.508 176.486,-403.068 Q176.486,-397.777 178.916,-394.926 Q181.347,-392.075 185.694,-392.075 Q187.807,-392.075 189.663,-392.629 Q191.519,-393.183 193.426,-394.208 L193.426,-399.089 L188.709,-399.089 Q187.007,-399.089 186.135,-399.602 Q185.264,-400.114 185.264,-401.345 Q185.264,-402.35 185.992,-403.006 Q186.72,-403.662 187.971,-403.662 L194.882,-403.662 Q196.153,-403.662 197.035,-403.437 Q197.917,-403.211 198.46,-402.432 Q199.004,-401.652 199.004,-400.094 L199.004,-394.331 Q199.004,-393.183 198.778,-392.496 Q198.553,-391.809 197.948,-391.255 Q197.343,-390.701 196.399,-390.189 Q193.672,-388.712 191.149,-388.035 Q188.627,-387.359 185.653,-387.359 Q182.187,-387.359 179.337,-388.425 Q176.486,-389.491 174.477,-391.522 Q172.467,-393.552 171.39,-396.444 Q170.313,-399.335 170.313,-402.903 Q170.313,-406.41 171.359,-409.322 Q172.405,-412.235 174.436,-414.265 Q176.466,-416.295 179.378,-417.372 Q182.29,-418.448 185.981,-418.448 z M154.317,-410.122 Q155.322,-410.122 156.061,-409.425 Q156.799,-408.728 156.799,-407.784 Q156.799,-406.923 156.163,-405.18 L151.59,-391.768 Q150.995,-390.066 150.667,-389.307 Q150.339,-388.548 149.631,-387.953 Q148.924,-387.359 147.693,-387.359 Q146.422,-387.359 145.694,-387.994 Q144.966,-388.63 144.617,-389.553 Q144.269,-390.476 143.858,-391.952 L140.659,-402.862 L137.562,-391.952 Q136.947,-389.676 136.229,-388.517 Q135.512,-387.359 133.707,-387.359 Q132.784,-387.359 132.138,-387.717 Q131.492,-388.076 131.061,-388.743 Q130.631,-389.409 130.303,-390.322 Q129.975,-391.235 129.79,-391.768 L125.258,-405.18 Q124.581,-407.067 124.581,-407.784 Q124.581,-408.687 125.299,-409.404 Q126.017,-410.122 127.062,-410.122 Q128.457,-410.122 128.949,-409.333 Q129.441,-408.543 129.995,-406.636 L133.645,-394.126 L136.968,-405.754 Q137.501,-407.579 137.757,-408.246 Q138.014,-408.912 138.721,-409.517 Q139.429,-410.122 140.659,-410.122 Q141.91,-410.122 142.618,-409.517 Q143.325,-408.912 143.612,-408.205 Q143.899,-407.497 144.412,-405.754 L147.734,-394.126 L151.426,-406.636 Q151.795,-407.989 152.02,-408.594 Q152.246,-409.199 152.779,-409.661 Q153.312,-410.122 154.317,-410.122 z M112.03,-410.163 Q115.311,-410.163 117.66,-408.779 Q120.008,-407.395 121.177,-405.2 Q122.346,-403.006 122.346,-400.73 Q122.346,-398.617 121.136,-397.992 Q119.926,-397.366 117.731,-397.366 L106.78,-397.366 Q106.801,-395.459 107.549,-394.003 Q108.298,-392.547 109.539,-391.809 Q110.779,-391.07 112.276,-391.07 Q113.281,-391.07 114.112,-391.306 Q114.942,-391.542 115.722,-392.045 Q116.501,-392.547 117.157,-393.121 Q117.813,-393.695 118.859,-394.68 Q119.29,-395.049 120.09,-395.049 Q120.951,-395.049 121.484,-394.577 Q122.018,-394.106 122.018,-393.244 Q122.018,-392.486 121.423,-391.47 Q120.828,-390.455 119.628,-389.522 Q118.429,-388.589 116.614,-387.974 Q114.799,-387.359 112.44,-387.359 Q107.047,-387.359 104.053,-390.435 Q101.059,-393.511 101.059,-398.781 Q101.059,-401.263 101.797,-403.385 Q102.535,-405.508 103.95,-407.026 Q105.365,-408.543 107.436,-409.353 Q109.508,-410.163 112.03,-410.163 z M111.846,-406.267 Q109.754,-406.267 108.411,-404.821 Q107.067,-403.375 106.78,-400.545 L116.932,-400.545 Q116.727,-403.416 115.383,-404.841 Q114.04,-406.267 111.846,-406.267 z M92.999,-418.448 Q94.311,-418.448 95.07,-417.577 Q95.829,-416.705 95.829,-414.962 L95.829,-391.316 Q95.829,-387.359 92.548,-387.359 Q91.728,-387.359 91.071,-387.594 Q90.415,-387.83 89.841,-388.343 Q89.267,-388.856 88.774,-389.543 Q88.282,-390.23 87.79,-390.947 L76.367,-408.461 L76.367,-390.845 Q76.367,-389.122 75.567,-388.24 Q74.768,-387.359 73.517,-387.359 Q72.225,-387.359 71.445,-388.251 Q70.666,-389.143 70.666,-390.845 L70.666,-414.039 Q70.666,-415.516 70.994,-416.357 Q71.384,-417.279 72.286,-417.864 Q73.188,-418.448 74.234,-418.448 Q75.055,-418.448 75.639,-418.182 Q76.224,-417.915 76.665,-417.464 Q77.105,-417.013 77.567,-416.295 Q78.028,-415.577 78.52,-414.798 L90.23,-397.079 L90.23,-414.962 Q90.23,-416.705 90.979,-417.577 Q91.728,-418.448 92.999,-418.448 z" clip-path="url(#Clip_1)" filter="url(#Shadow_2)" fill="rgba(0,0,0,0.75)"/>
        <text transform="matrix(1, 0, 0, 1, 206.325, -402.871)">
          <tspan x="-139.022" y="15" font-family="ArialRoundedMTBold" font-size="42" fill="#FFFFFF">New Glasgow</tspan>
        </text>
      </g>
      <g>
        <path d="M258.796,-360.051 Q259.968,-360.051 260.8,-359.951 Q261.632,-359.852 262.3,-359.547 Q263.108,-359.207 263.729,-358.574 Q264.351,-357.942 264.673,-357.104 Q264.995,-356.266 264.995,-355.328 Q264.995,-353.406 263.911,-352.258 Q262.827,-351.11 260.624,-350.629 Q261.55,-350.137 262.394,-349.176 Q263.237,-348.215 263.899,-347.131 Q264.561,-346.047 264.931,-345.174 Q265.3,-344.301 265.3,-343.973 Q265.3,-343.633 265.083,-343.299 Q264.866,-342.965 264.491,-342.772 Q264.116,-342.578 263.624,-342.578 Q263.038,-342.578 262.64,-342.854 Q262.241,-343.129 261.954,-343.551 Q261.667,-343.973 261.175,-344.793 L259.78,-347.113 Q259.03,-348.391 258.438,-349.059 Q257.847,-349.727 257.237,-349.973 Q256.628,-350.219 255.702,-350.219 L254.483,-350.219 L254.483,-344.699 Q254.483,-343.61 254.003,-343.094 Q253.522,-342.578 252.749,-342.578 Q251.917,-342.578 251.46,-343.117 Q251.003,-343.656 251.003,-344.699 L251.003,-357.918 Q251.003,-359.043 251.507,-359.547 Q252.011,-360.051 253.136,-360.051 L258.796,-360.051 z M257.694,-357.438 L254.483,-357.438 L254.483,-352.715 L257.6,-352.715 Q258.854,-352.715 259.71,-352.932 Q260.565,-353.149 261.017,-353.67 Q261.468,-354.192 261.468,-355.106 Q261.468,-355.82 261.104,-356.365 Q260.741,-356.91 260.097,-357.18 Q259.487,-357.438 257.694,-357.438 z M229.522,-360.344 Q230.308,-360.344 230.794,-359.822 Q231.28,-359.301 231.28,-358.235 L231.28,-344.699 Q231.28,-343.633 230.788,-343.106 Q230.296,-342.578 229.522,-342.578 Q228.737,-342.578 228.269,-343.111 Q227.8,-343.645 227.8,-344.699 L227.8,-350.477 L220.288,-350.477 L220.288,-344.699 Q220.288,-343.633 219.796,-343.106 Q219.304,-342.578 218.53,-342.578 Q217.745,-342.578 217.276,-343.111 Q216.808,-343.645 216.808,-344.699 L216.807,-358.234 Q216.808,-359.289 217.27,-359.817 Q217.733,-360.344 218.53,-360.344 Q219.315,-360.344 219.802,-359.822 Q220.288,-359.301 220.288,-358.235 L220.288,-353.313 L227.8,-353.313 L227.8,-358.234 Q227.8,-359.289 228.274,-359.817 Q228.749,-360.344 229.522,-360.344 z M212.94,-360.051 Q213.843,-360.051 214.282,-359.652 Q214.722,-359.254 214.722,-358.61 Q214.722,-357.965 214.276,-357.572 Q213.831,-357.18 212.94,-357.18 L209.143,-357.18 L209.143,-344.699 Q209.144,-343.621 208.663,-343.1 Q208.183,-342.578 207.421,-342.578 Q206.647,-342.578 206.161,-343.106 Q205.675,-343.633 205.675,-344.699 L205.675,-357.18 L201.878,-357.18 Q200.987,-357.18 200.554,-357.572 Q200.12,-357.965 200.12,-358.61 Q200.12,-359.277 200.571,-359.664 Q201.022,-360.051 201.878,-360.051 L212.94,-360.051 z M193.3,-360.344 Q194.026,-360.344 194.513,-360.069 Q194.999,-359.793 195.298,-359.36 Q195.597,-358.926 195.802,-358.428 Q196.007,-357.93 196.323,-357.098 L200.811,-346.012 Q201.339,-344.746 201.339,-344.172 Q201.339,-343.574 200.841,-343.076 Q200.343,-342.578 199.64,-342.578 Q199.229,-342.578 198.936,-342.725 Q198.644,-342.871 198.444,-343.123 Q198.245,-343.375 198.017,-343.897 Q197.788,-344.418 197.624,-344.817 L196.804,-346.973 L189.819,-346.973 L188.999,-344.77 Q188.519,-343.481 188.179,-343.029 Q187.839,-342.578 187.065,-342.578 Q186.409,-342.578 185.905,-343.059 Q185.401,-343.539 185.401,-344.149 Q185.401,-344.5 185.519,-344.875 Q185.636,-345.25 185.905,-345.918 L190.3,-357.074 Q190.487,-357.555 190.751,-358.229 Q191.015,-358.902 191.313,-359.348 Q191.612,-359.793 192.099,-360.069 Q192.585,-360.344 193.3,-360.344 z M193.276,-356.676 L190.733,-349.586 L195.866,-349.586 L193.276,-356.676 z M166.686,-360.344 Q167.366,-360.344 167.841,-359.893 Q168.315,-359.442 168.315,-358.762 Q168.315,-358.281 168.058,-357.227 L165.198,-345.66 Q164.905,-344.488 164.712,-343.944 Q164.519,-343.399 164.056,-342.988 Q163.593,-342.578 162.749,-342.578 Q161.952,-342.578 161.472,-342.977 Q160.991,-343.375 160.804,-343.873 Q160.616,-344.371 160.276,-345.578 L157.499,-355.879 L154.686,-345.578 Q154.358,-344.406 154.165,-343.897 Q153.972,-343.387 153.491,-342.983 Q153.011,-342.578 152.214,-342.578 Q151.569,-342.578 151.153,-342.819 Q150.737,-343.059 150.479,-343.498 Q150.222,-343.938 150.058,-344.541 Q149.894,-345.145 149.765,-345.66 L146.905,-357.227 Q146.647,-358.235 146.647,-358.762 Q146.647,-359.43 147.116,-359.887 Q147.585,-360.344 148.276,-360.344 Q149.226,-360.344 149.554,-359.735 Q149.882,-359.125 150.128,-357.965 L152.378,-347.934 L154.897,-357.32 Q155.179,-358.399 155.401,-358.961 Q155.624,-359.524 156.128,-359.934 Q156.632,-360.344 157.499,-360.344 Q158.378,-360.344 158.864,-359.916 Q159.351,-359.488 159.538,-358.985 Q159.726,-358.481 160.042,-357.32 L162.585,-347.934 L164.835,-357.965 Q164.999,-358.75 165.145,-359.195 Q165.292,-359.641 165.649,-359.992 Q166.007,-360.344 166.686,-360.344 z M246.339,-360.051 Q247.171,-360.051 247.575,-359.682 Q247.979,-359.313 247.979,-358.715 Q247.979,-358.106 247.575,-357.736 Q247.171,-357.367 246.339,-357.367 L238.499,-357.367 L238.499,-353.148 L245.718,-353.148 Q246.515,-353.149 246.907,-352.791 Q247.3,-352.434 247.3,-351.848 Q247.3,-351.262 246.913,-350.893 Q246.526,-350.524 245.718,-350.524 L238.499,-350.523 L238.499,-345.637 L246.608,-345.637 Q247.429,-345.637 247.845,-345.256 Q248.261,-344.875 248.261,-344.242 Q248.261,-343.633 247.845,-343.252 Q247.429,-342.871 246.608,-342.871 L237.151,-342.871 Q236.015,-342.871 235.517,-343.375 Q235.019,-343.879 235.019,-345.004 L235.018,-357.918 Q235.019,-358.668 235.241,-359.143 Q235.464,-359.617 235.938,-359.834 Q236.413,-360.051 237.151,-360.051 L246.339,-360.051 z M181.944,-360.051 Q182.776,-360.051 183.181,-359.682 Q183.585,-359.313 183.585,-358.715 Q183.585,-358.106 183.181,-357.736 Q182.776,-357.367 181.944,-357.367 L174.104,-357.367 L174.104,-353.148 L181.323,-353.148 Q182.12,-353.149 182.513,-352.791 Q182.905,-352.434 182.905,-351.848 Q182.905,-351.262 182.519,-350.893 Q182.132,-350.524 181.323,-350.524 L174.104,-350.523 L174.104,-345.637 L182.214,-345.637 Q183.034,-345.637 183.45,-345.256 Q183.866,-344.875 183.866,-344.242 Q183.866,-343.633 183.45,-343.252 Q183.034,-342.871 182.214,-342.871 L172.757,-342.871 Q171.62,-342.871 171.122,-343.375 Q170.624,-343.879 170.624,-345.004 L170.624,-357.918 Q170.624,-358.668 170.847,-359.143 Q171.069,-359.617 171.544,-359.834 Q172.019,-360.051 172.757,-360.051 L181.944,-360.051 z" clip-path="url(#Clip_3)" filter="url(#Shadow_4)" fill="rgba(0,0,0,0.75)"/>
        <text transform="matrix(1, 0, 0, 1, 206.325, -350.871)">
          <tspan x="-60.088" y="8" font-family="ArialRoundedMTBold" font-size="24" fill="#FFFFFF">WEATHER</tspan>
        </text>
      </g>
      <g>
        <path d="M11.167,-371.371 L402.484,-371.371" fill="#FFFFFF"/>
        <path d="M11.167,-371.371 L402.484,-371.371" fill-opacity="0" stroke="#FFFFFF" stroke-width="1" stroke-dasharray="2,2"/>
      </g>
    </g>
  </g>
</svg>
