<?xml version="1.0" encoding="UTF-8"?>
<!DOCTYPE svg PUBLIC "-//W3C//DTD SVG 1.1//EN" "http://www.w3.org/Graphics/SVG/1.1/DTD/svg11.dtd">
<svg version="1.1" xmlns="http://www.w3.org/2000/svg" xmlns:xlink="http://www.w3.org/1999/xlink" x="0" y="0" width="839.971" height="1491.11" viewBox="0, 0, 839.971, 1491.11">
  <defs>
    <linearGradient id="Gradient_1" gradientUnits="userSpaceOnUse" x1="419.624" y1="277.5" x2="419.624" y2="-561.252" gradientTransform="matrix(1, 0, 0, 1, 0.971, 606.11)">
      <stop offset="0" stop-color="#FFFCEB"/>
      <stop offset="0.31" stop-color="#F4D982"/>
      <stop offset="0.656" stop-color="#E1707C"/>
      <stop offset="1" stop-color="#D56299"/>
    </linearGradient>
    <linearGradient id="Gradient_2" gradientUnits="userSpaceOnUse" x1="599.483" y1="277.5" x2="599.483" y2="-561.252" gradientTransform="matrix(1, 0, 0, 1, 0.971, 606.11)">
      <stop offset="0" stop-color="#FFFCEB"/>
      <stop offset="0.31" stop-color="#F6E299"/>
      <stop offset="0.656" stop-color="#E99095"/>
      <stop offset="1" stop-color="#E085AC"/>
    </linearGradient>
    <linearGradient id="Gradient_3" gradientUnits="userSpaceOnUse" x1="599.483" y1="277.5" x2="599.483" y2="-561.252" gradientTransform="matrix(1, 0, 0, 1, 0.971, 606.11)">
      <stop offset="0" stop-color="#FFFCEB"/>
      <stop offset="0.31" stop-color="#F8E9AB"/>
      <stop offset="0.656" stop-color="#EEAAA7"/>
      <stop offset="1" stop-color="#E69FBA"/>
    </linearGradient>
    <linearGradient id="Gradient_4" gradientUnits="userSpaceOnUse" x1="399.365" y1="1149.95" x2="399.365" y2="925.247" gradientTransform="matrix(1, 0, 0, 1, 1.219, 0)">
      <stop offset="0" stop-color="#B4788D"/>
      <stop offset="1" stop-color="#A7688E"/>
    </linearGradient>
    <linearGradient id="Gradient_5" gradientUnits="userSpaceOnUse" x1="367.477" y1="1068.06" x2="367.477" y2="784.917" gradientTransform="matrix(1, 0, 0, 1, 1.219, 0)">
      <stop offset="0" stop-color="#A16491"/>
      <stop offset="1" stop-color="#905684"/>
    </linearGradient>
    <linearGradient id="Gradient_6" gradientUnits="userSpaceOnUse" x1="496.306" y1="1153.63" x2="496.306" y2="1075.252" gradientTransform="matrix(1, 0, 0, 1, 1.219, 0)">
      <stop offset="0" stop-color="#A16491"/>
      <stop offset="1" stop-color="#905684"/>
    </linearGradient>
    <linearGradient id="Gradient_7" gradientUnits="userSpaceOnUse" x1="484.804" y1="984.13" x2="488.518" y2="1011.364" gradientTransform="matrix(1, 0, 0, 1, 1.219, 0)">
      <stop offset="0" stop-color="#A16491"/>
      <stop offset="1" stop-color="#905684"/>
    </linearGradient>
    <linearGradient id="Gradient_8" gradientUnits="userSpaceOnUse" x1="556.524" y1="974.26" x2="556.524" y2="1006.329" gradientTransform="matrix(1, 0, 0, 1, 1.219, 0)">
      <stop offset="0" stop-color="#A16491"/>
      <stop offset="1" stop-color="#905684"/>
    </linearGradient>
    <linearGradient id="Gradient_9" gradientUnits="userSpaceOnUse" x1="789.564" y1="873.03" x2="789.564" y2="899.428" gradientTransform="matrix(1, 0, 0, 1, 1.219, 0)">
      <stop offset="0" stop-color="#A16491"/>
      <stop offset="1" stop-color="#905684"/>
    </linearGradient>
    <linearGradient id="Gradient_10" gradientUnits="userSpaceOnUse" x1="420.005" y1="1000.79" x2="421.466" y2="1043.886" gradientTransform="matrix(1, 0, 0, 1, 1.219, 0)">
      <stop offset="0" stop-color="#7D4D85"/>
      <stop offset="1" stop-color="#6E4273"/>
    </linearGradient>
    <linearGradient id="Gradient_11" gradientUnits="userSpaceOnUse" x1="219.373" y1="897.96" x2="219.373" y2="957.122" gradientTransform="matrix(1, 0, 0, 1, 1.219, 0)">
      <stop offset="0" stop-color="#7D4D85"/>
      <stop offset="1" stop-color="#6E4273"/>
    </linearGradient>
    <linearGradient id="Gradient_12" gradientUnits="userSpaceOnUse" x1="392.983" y1="985.14" x2="392.983" y2="1014.358" gradientTransform="matrix(1, 0, 0, 1, 1.219, 0)">
      <stop offset="0" stop-color="#7D4D85"/>
      <stop offset="1" stop-color="#6E4273"/>
    </linearGradient>
    <linearGradient id="Gradient_13" gradientUnits="userSpaceOnUse" x1="418.624" y1="1282.95" x2="418.624" y2="1150.899" gradientTransform="matrix(1, 0, 0, 1, 1.219, 0)">
      <stop offset="0" stop-color="#7D4D85"/>
      <stop offset="1" stop-color="#6E4273"/>
    </linearGradient>
    <linearGradient id="Gradient_14" gradientUnits="userSpaceOnUse" x1="627.27" y1="949.37" x2="623.618" y2="996.848" gradientTransform="matrix(1, 0, 0, 1, 1.219, 0)">
      <stop offset="0" stop-color="#7D4D85"/>
      <stop offset="1" stop-color="#6E4273"/>
    </linearGradient>
    <linearGradient id="Gradient_15" gradientUnits="userSpaceOnUse" x1="705.121" y1="903.58" x2="705.121" y2="984.44" gradientTransform="matrix(1, 0, 0, 1, 1.219, 0)">
      <stop offset="0" stop-color="#7D4D85"/>
      <stop offset="1" stop-color="#6E4273"/>
    </linearGradient>
    <linearGradient id="Gradient_16" gradientUnits="userSpaceOnUse" x1="757.369" y1="881.32" x2="755.766" y2="955.196" gradientTransform="matrix(1, 0, 0, 1, 1.219, 0)">
      <stop offset="0" stop-color="#7D4D85"/>
      <stop offset="1" stop-color="#6E4273"/>
    </linearGradient>
    <linearGradient id="Gradient_17" gradientUnits="userSpaceOnUse" x1="157.865" y1="922.99" x2="161.152" y2="1011.734" gradientTransform="matrix(1, 0, 0, 1, 1.219, 0)">
      <stop offset="0" stop-color="#5B426C"/>
      <stop offset="1" stop-color="#4F365C"/>
    </linearGradient>
    <linearGradient id="Gradient_18" gradientUnits="userSpaceOnUse" x1="349.421" y1="960.8" x2="349.421" y2="1059.025" gradientTransform="matrix(1, 0, 0, 1, 1.219, 0)">
      <stop offset="0" stop-color="#5B426C"/>
      <stop offset="1" stop-color="#4F365C"/>
    </linearGradient>
    <linearGradient id="Gradient_19" gradientUnits="userSpaceOnUse" x1="418.624" y1="1556.85" x2="418.624" y2="1282.505" gradientTransform="matrix(1, 0, 0, 1, 1.219, 0)">
      <stop offset="0" stop-color="#5B426C"/>
      <stop offset="1" stop-color="#4F365C"/>
    </linearGradient>
  </defs>
  <g id="Layer_1">
    <path d="M809.266,1491.11 L31.923,1491.11 C14.966,1491.11 1.219,1477.37 1.219,1460.41 L1.219,30.704 C1.219,13.747 14.966,0 31.923,0 L809.266,0 C826.224,0 839.971,13.747 839.971,30.704 L839.971,1460.41 C839.971,1477.37 826.224,1491.11 809.266,1491.11 z" fill="url(#Gradient_1)"/>
    <path d="M600.455,480.111 C510.237,480.111 437.102,553.246 437.102,643.463 C437.102,733.681 510.237,806.82 600.455,806.82 C690.672,806.82 763.807,733.681 763.807,643.463 C763.807,553.246 690.672,480.111 600.455,480.111 z M600.455,786.35 C521.54,786.35 457.565,722.379 457.565,643.463 C457.565,564.549 521.54,500.575 600.455,500.575 C679.37,500.575 743.343,564.549 743.343,643.463 C743.343,722.379 679.37,786.35 600.455,786.35 z" fill="url(#Gradient_2)"/>
    <path d="M600.455,500.575 C521.54,500.575 457.565,564.549 457.565,643.463 C457.565,722.379 521.54,786.35 600.455,786.35 C679.37,786.35 743.343,722.379 743.343,643.463 C743.343,564.549 679.37,500.575 600.455,500.575 z" fill="url(#Gradient_3)"/>
    <path d="M721.836,643.463 C721.836,710.501 667.492,764.85 600.455,764.85 C533.417,764.85 479.073,710.501 479.073,643.463 C479.073,576.426 533.417,522.081 600.455,522.081 C667.492,522.081 721.836,576.426 721.836,643.463" fill="#FFFCEB"/>
    <g>
      <path d="M230.076,814.97 C230.076,814.97 233.363,776.35 264.588,759.918 C295.812,743.484 298.946,728.462 307.24,733.508 C315.533,738.554 353.332,750.058 358.262,759.918 C363.192,769.78 377.982,816.74 387.843,836.81 C397.703,856.88 430.438,901.25 446.117,899.61 C461.796,897.96 479.874,902.93 484.804,914.42 C489.734,925.9 516.028,971.44 522.602,981.54 C529.175,991.64 558.381,1044.23 556.926,1049.16 C555.47,1054.09 583.801,1123.21 583.801,1123.21 L483.16,1167.48 L268.023,1120.61 C268.023,1120.61 226.531,1025.46 219.127,1015.67 C211.723,1005.88 230.076,814.97 230.076,814.97 z" fill="url(#Gradient_4)"/>
      <path d="M0.411,707.329 C0.411,707.329 57.76,654.74 69.312,658.027 C80.864,661.313 119.743,643.236 145.067,639.95 C170.392,636.663 193.795,636.663 223.97,666.244 C254.144,695.825 223.82,697.469 241.148,753.344 C258.476,809.22 328.069,914.31 340.322,969.66 C352.574,1025.02 388.46,1137.81 402.888,1145.25 C417.316,1152.69 737.393,1177.85 737.393,1177.85 L424.536,1315.74 L-0,1208.57 L0.411,707.329 z" fill="url(#Gradient_5)"/>
      <path d="M99.434,682.742 C107.469,699.542 122.077,712.69 123.538,718.534 C124.999,724.377 131.573,690.777 131.573,690.777 C131.573,690.777 161.148,689.316 167.543,690.777 C173.938,692.238 181.243,668.134 190.738,667.403 C200.234,666.673 214.843,692.238 211.19,708.308 C207.539,724.377 227.927,766.74 217.367,770.39 C206.808,774.05 162.251,784.27 171.747,787.93 C181.243,791.58 212.651,777.7 225.069,782.08 C237.475,786.46 282.576,842.62 282.66,842.73 C265.011,809.13 248.445,776.87 241.148,753.344 C223.82,697.468 254.144,695.825 223.97,666.244 C193.795,636.663 170.392,636.663 145.067,639.949 C119.743,643.236 80.864,661.313 69.312,658.027 C64.552,656.672 52.014,664.808 38.917,674.841 L38.914,674.846 C38.914,674.846 91.399,665.942 99.434,682.742" fill="#A16491"/>
      <path d="M292.937,763.09 C297.748,755.969 305.965,742.821 310.895,748.847 C315.826,754.873 334.999,748.282 333.356,766.09 C331.713,783.91 327.878,793.22 339.382,780.07 C350.887,766.93 358.008,785.55 362.939,799.79 C367.87,814.04 383.208,857.32 359.652,863.89 C336.095,870.46 349.825,868.14 378.021,873.68 C406.217,879.23 418.825,901.9 424.932,897.31 C431.038,892.71 441.278,911 439.087,917.03 C438.046,919.89 444.917,909.87 453.592,899.32 C451.082,899.25 448.57,899.35 446.117,899.61 C430.438,901.25 397.703,856.88 387.843,836.81 C377.982,816.74 363.192,769.78 358.262,759.918 C353.332,750.057 315.533,738.554 307.24,733.508 C298.947,728.462 295.812,743.484 264.588,759.918 C263.945,760.26 263.332,760.62 262.712,760.97 C262.887,764.26 264.469,766.59 269.26,765.28 C281.312,762 288.127,770.21 292.937,763.09" fill="#B5788D"/>
      <path d="M193.248,1128.34 C193.212,1128.33 193.175,1128.32 193.136,1128.31 C193.317,1128.29 193.444,1128.29 193.48,1128.34 C193.471,1128.33 193.38,1128.33 193.248,1128.34 z M839.219,936.31 C834.443,935.98 829.64,935.86 824.845,935.85 C808.956,935.78 793.026,935.84 777.176,937.07 C744.263,939.64 712.557,947.63 685.235,966.82 C673.228,975.25 662.075,984.82 651.148,994.59 C645.997,999.2 640.879,1003.84 635.677,1008.39 C633.083,1010.66 630.471,1012.91 627.823,1015.12 C626.503,1016.22 625.175,1017.31 623.837,1018.39 C623.052,1019.02 622.261,1019.65 621.468,1020.27 C621.25,1020.44 620.978,1020.64 620.623,1020.91 C615.575,1024.63 610.443,1028.22 605.049,1031.42 C602.056,1033.2 599,1034.87 595.88,1036.41 C591.272,1038.7 591.111,1038.78 586.302,1040.57 C571.603,1046.06 556.225,1049.42 540.871,1052.48 C526.018,1055.45 511.082,1058.12 496.466,1062.15 C480.11,1066.65 464.678,1073.52 449.125,1080.19 C438.591,1084.71 421.218,1091.08 409.348,1092.85 C392.042,1095.44 374.053,1093.77 356.73,1092.27 C321.842,1089.24 287.162,1087.92 252.187,1090.54 C236.28,1091.73 220.423,1093.62 204.655,1096.04 C198.696,1093.9 192.014,1093.32 185.348,1094.37 C167.969,1097.13 157.201,1112.66 155.965,1129.46 C153.405,1164.29 188.119,1182.96 210.252,1203.14 C234.437,1225.19 257.178,1248.39 284.126,1267.2 C309.581,1284.96 337.441,1298.88 366.357,1310.06 C426.589,1333.35 491.697,1342.37 556.009,1343.12 C591.106,1343.54 626.19,1341.49 661.118,1338.16 C696.19,1334.83 731.545,1331.07 766.252,1324.94 C791.341,1320.52 816.795,1313.48 839.219,1300.99 L839.219,936.31" fill="url(#Gradient_6)"/>
      <path d="M536.251,1083.02 C530.541,1083.5 520.989,1069.92 520.989,1069.92 C525.605,1076.11 530.515,1074.24 530.515,1074.24 C528.383,1074.18 525.497,1072.14 523.586,1070.58 C528.414,1073.87 534.357,1072.16 534.357,1072.16 C528.914,1071.92 524.191,1065.2 524.191,1065.2 C528.754,1068.96 536.198,1068.48 536.198,1068.48 C531.766,1067.67 523.848,1063.64 518.585,1060.75 C525.108,1062.48 534.757,1061.84 534.757,1061.84 C518.228,1058.91 512.168,1050.31 512.168,1050.31 C515.107,1053.34 524.879,1054.84 526.373,1055.06 C524.002,1054.69 519.655,1052.66 516.458,1051.04 C520.591,1052.37 525.712,1052.52 525.712,1052.52 C520.907,1051.6 516.027,1046.25 513.411,1042.94 C518.549,1048.64 524.965,1047.24 524.965,1047.24 C519.82,1046.69 514.688,1039.09 511.957,1034.33 C514.397,1037.79 516.747,1037.74 516.747,1037.74 C514.585,1037.34 512.344,1031.02 512.344,1031.02 C517.067,1038.86 524.111,1038.3 524.111,1038.3 C518.187,1037.82 512.424,1029.1 512.424,1029.1 C516.106,1034.22 522.59,1031.9 522.59,1031.9 C515.306,1031.42 510.743,1019.97 510.743,1019.97 C512.973,1022.88 517.711,1022.93 519.135,1022.88 C517.081,1022.92 515.043,1021.87 513.539,1020.83 C516.925,1022.46 521.55,1021.57 521.55,1021.57 C517.787,1021.41 512.051,1012.23 512.051,1012.23 C515.413,1015.06 519.628,1013.25 519.628,1013.25 C515.413,1013.2 511.677,1007.43 511.677,1007.43 C514.505,1011.17 519.628,1010.05 519.628,1010.05 C513.972,1010.15 508.688,1001.08 508.688,1001.08 C510.876,1004.76 514.185,1003.27 514.185,1003.27 C510.343,1003.22 508.528,999 508.528,999 C511.41,1002.74 516.96,1000.65 516.96,1000.65 C508.208,998.89 506.234,992.38 506.234,992.38 C509.222,996.6 514.239,994.84 514.239,994.84 C509.009,995.53 506.234,991.32 506.234,991.32 C509.703,996.12 517.174,993.34 517.174,993.34 C510.076,993.77 505.914,986.14 505.914,986.14 C507.194,987.9 509.596,987.21 509.596,987.21 C507.621,987.58 504.419,982.88 504.419,982.88 C507.301,986.41 512.638,983.95 512.638,983.95 C507.835,985.55 498.544,971.39 498.544,971.39 C498.544,971.39 489.253,985.55 484.451,983.95 C484.451,983.95 489.787,986.41 492.669,982.88 C492.669,982.88 489.467,987.58 487.492,987.21 C487.492,987.21 489.894,987.9 491.174,986.14 C491.174,986.14 487.012,993.77 479.915,993.34 C479.915,993.34 487.386,996.12 490.854,991.32 C490.854,991.32 488.08,995.53 482.85,994.84 C482.85,994.84 487.866,996.6 490.854,992.38 C490.854,992.38 488.88,998.89 480.128,1000.65 C480.128,1000.65 485.678,1002.74 488.56,999 C488.56,999 486.745,1003.22 482.903,1003.27 C482.903,1003.27 486.211,1004.76 488.399,1001.08 C488.399,1001.08 483.116,1010.15 477.46,1010.05 C477.46,1010.05 482.583,1011.17 485.411,1007.43 C485.411,1007.43 481.676,1013.2 477.46,1013.25 C477.46,1013.25 481.676,1015.06 485.038,1012.23 C485.038,1012.23 479.301,1021.41 475.539,1021.57 C475.539,1021.57 480.163,1022.46 483.55,1020.83 C482.045,1021.87 480.007,1022.92 477.953,1022.88 C479.377,1022.93 484.115,1022.88 486.345,1019.97 C486.345,1019.97 481.782,1031.42 474.498,1031.9 C474.498,1031.9 480.982,1034.22 484.664,1029.1 C484.664,1029.1 478.9,1037.82 472.977,1038.3 C472.977,1038.3 480.021,1038.86 484.744,1031.02 C484.744,1031.02 482.502,1037.34 480.341,1037.74 C480.341,1037.74 482.691,1037.79 485.131,1034.33 C482.4,1039.09 477.268,1046.69 472.123,1047.24 C472.123,1047.24 478.539,1048.64 483.677,1042.94 C481.061,1046.25 476.182,1051.6 471.376,1052.52 C471.376,1052.52 476.498,1052.37 480.63,1051.04 C477.433,1052.66 473.086,1054.69 470.715,1055.06 C472.209,1054.84 481.98,1053.34 484.92,1050.31 C484.92,1050.31 478.86,1058.91 462.331,1061.84 C462.331,1061.84 471.98,1062.48 478.503,1060.75 C473.24,1063.64 465.322,1067.67 460.89,1068.48 C460.89,1068.48 468.334,1068.96 472.897,1065.2 C472.897,1065.2 468.174,1071.92 462.731,1072.16 C462.731,1072.16 468.674,1073.87 473.501,1070.58 C471.592,1072.14 468.705,1074.18 466.573,1074.24 C466.573,1074.24 471.483,1076.11 476.099,1069.92 C476.099,1069.92 466.547,1083.5 460.836,1083.02 C460.836,1083.02 468.751,1083.84 474.845,1080.21 C473.166,1081.99 471.312,1083.81 469.574,1085.22 L527.515,1085.22 C525.776,1083.81 523.922,1081.99 522.244,1080.21 C528.337,1083.84 536.251,1083.02 536.251,1083.02 z" fill="url(#Gradient_7)"/>
      <path d="M538.793,1073.94 C538.793,1073.94 538.75,1074.01 538.666,1074.15 L538.652,1074.15 C538.702,1074.08 538.749,1074.01 538.793,1073.94 z M576.834,1074.15 L576.819,1074.15 C576.735,1074.01 576.692,1073.94 576.692,1073.94 C576.736,1074.01 576.784,1074.08 576.834,1074.15 z M534.281,1068.8 C529.886,1071.51 521.203,1076.47 516.453,1076.38 C516.453,1076.38 517.853,1076.59 519.958,1076.79 L595.527,1076.79 C597.632,1076.59 599.032,1076.38 599.032,1076.38 C594.283,1076.47 585.6,1071.51 581.205,1068.8 C587.365,1071.03 599.703,1069.24 599.703,1069.24 C596.609,1068.54 593.119,1066.8 589.686,1064.63 C591.11,1064.58 592.043,1064.21 592.043,1064.21 C590.138,1063.98 587.791,1063 585.882,1062.06 C583.64,1060.45 581.501,1058.76 579.601,1057.17 C582.723,1058.19 586.561,1057.71 586.561,1057.71 C584.552,1057.35 583.092,1056.46 582.073,1055.54 C585.562,1055.43 588.328,1054.06 588.328,1054.06 C583.368,1051.82 580.353,1048.27 580.353,1048.27 C584.014,1051.4 593.95,1047.67 593.95,1047.67 C584.545,1046.82 574.621,1037.98 570.739,1034.16 C574.294,1036.91 578.523,1035.5 578.523,1035.5 C572.117,1035.86 568.587,1026.94 568.587,1026.94 C574.078,1035.02 589.113,1030.92 589.113,1030.92 C576.954,1031.4 568.064,1013.21 568.064,1013.21 C574.078,1020.32 584.667,1016.34 584.667,1016.34 C574.47,1016.1 572.117,1007.42 572.117,1007.42 C575.516,1008.99 576.692,1007.91 576.692,1007.91 C572.77,1008.03 569.894,1003.57 569.894,1003.57 C576.039,1008.75 583.883,1003.93 583.883,1003.93 C577.738,1005.25 570.594,993.08 570.594,993.08 C573.516,995.25 578.915,993.08 578.915,993.08 C576.445,993.69 571.696,991.1 568.516,989.09 C575.031,992.12 583.883,989.95 583.883,989.95 C573.293,988.5 567.41,980.79 567.41,980.79 C571.202,982.36 573.816,981.52 573.816,981.52 C566.103,981.4 563.357,974.65 563.357,974.65 C564.403,976.09 569.633,976.21 569.633,976.21 C568.064,976.21 565.067,973.57 565.067,973.57 C569.185,975.47 575.95,973.84 575.95,973.84 C562.419,973.84 560.066,961.1 561.921,963.27 C563.775,965.44 566.538,963.81 566.538,963.81 C561.529,961.66 559.232,954.87 558.182,949.41 L558.182,941.85 C558.182,941.85 558.135,943.89 557.743,946.74 C557.351,943.89 557.304,941.85 557.304,941.85 L557.304,949.41 C556.253,954.87 553.957,961.66 548.948,963.81 C548.948,963.81 551.71,965.44 553.564,963.27 C555.419,961.1 553.066,973.84 539.535,973.84 C539.535,973.84 546.3,975.47 550.418,973.57 C550.418,973.57 547.421,976.21 545.853,976.21 C545.853,976.21 551.083,976.09 552.128,974.65 C552.128,974.65 549.383,981.4 541.669,981.52 C541.669,981.52 544.284,982.36 548.075,980.79 C548.075,980.79 542.192,988.5 531.602,989.95 C531.602,989.95 540.455,992.12 546.969,989.09 C543.79,991.1 539.04,993.69 536.57,993.08 C536.57,993.08 541.97,995.25 544.892,993.08 C544.892,993.08 537.747,1005.25 531.602,1003.93 C531.602,1003.93 539.447,1008.75 545.591,1003.57 C545.591,1003.57 542.715,1008.03 538.793,1007.91 C538.793,1007.91 539.97,1008.99 543.369,1007.42 C543.369,1007.42 541.016,1016.1 530.818,1016.34 C530.818,1016.34 541.408,1020.32 547.421,1013.21 C547.421,1013.21 538.531,1031.4 526.373,1030.92 C526.373,1030.92 541.408,1035.02 546.898,1026.94 C546.898,1026.94 543.369,1035.86 536.962,1035.5 C536.962,1035.5 541.191,1036.91 544.746,1034.16 C540.865,1037.98 530.94,1046.82 521.536,1047.67 C521.536,1047.67 531.472,1051.4 535.132,1048.27 C535.132,1048.27 532.118,1051.82 527.157,1054.06 C527.157,1054.06 529.924,1055.43 533.412,1055.54 C532.394,1056.46 530.934,1057.35 528.925,1057.71 C528.925,1057.71 532.763,1058.19 535.884,1057.17 C533.984,1058.76 531.846,1060.45 529.603,1062.06 C527.695,1063 525.348,1063.98 523.442,1064.21 C523.442,1064.21 524.375,1064.58 525.8,1064.63 C522.366,1066.8 518.877,1068.54 515.783,1069.24 C515.783,1069.24 528.12,1071.03 534.281,1068.8" fill="url(#Gradient_8)"/>
      <path d="M774.426,956.74 C774.426,956.74 774.39,956.81 774.317,956.93 L774.304,956.93 C774.347,956.87 774.388,956.81 774.426,956.74 z M807.262,956.93 L807.249,956.93 C807.177,956.81 807.141,956.74 807.141,956.74 C807.178,956.81 807.219,956.87 807.262,956.93 z M770.531,952.31 C766.738,954.65 759.243,958.93 755.143,958.85 C755.143,958.85 756.351,959.03 758.168,959.21 L823.398,959.21 C825.215,959.03 826.424,958.85 826.424,958.85 C822.324,958.93 814.829,954.65 811.036,952.31 C816.353,954.23 827.002,952.69 827.002,952.69 C824.332,952.09 821.32,950.58 818.356,948.71 C819.585,948.67 820.391,948.35 820.391,948.35 C818.746,948.15 816.72,947.3 815.073,946.49 C813.137,945.1 811.291,943.64 809.651,942.27 C812.346,943.15 815.659,942.73 815.659,942.73 C813.924,942.42 812.664,941.65 811.785,940.87 C814.796,940.76 817.184,939.58 817.184,939.58 C812.902,937.65 810.3,934.59 810.3,934.59 C813.46,937.29 822.037,934.07 822.037,934.07 C813.918,933.34 805.352,925.71 802.002,922.41 C805.07,924.78 808.72,923.56 808.72,923.56 C803.191,923.88 800.144,916.18 800.144,916.18 C804.883,923.15 817.861,919.61 817.861,919.61 C807.366,920.03 799.692,904.32 799.692,904.32 C804.883,910.46 814.024,907.03 814.024,907.03 C805.222,906.82 803.191,899.33 803.191,899.33 C806.125,900.68 807.141,899.75 807.141,899.75 C803.755,899.85 801.272,896 801.272,896 C806.576,900.47 813.347,896.31 813.347,896.31 C808.043,897.46 801.876,886.95 801.876,886.95 C804.398,888.82 809.059,886.95 809.059,886.95 C806.927,887.48 802.827,885.24 800.083,883.51 C805.706,886.12 813.347,884.25 813.347,884.25 C804.207,883 799.128,876.34 799.128,876.34 C802.401,877.69 804.658,876.97 804.658,876.97 C797.999,876.86 795.63,871.04 795.63,871.04 C796.533,872.29 801.046,872.39 801.046,872.39 C799.692,872.39 797.105,870.11 797.105,870.11 C800.66,871.75 806.5,870.34 806.5,870.34 C794.82,870.34 792.789,859.34 794.39,861.21 C795.99,863.09 798.375,861.68 798.375,861.68 C794.052,859.82 792.069,853.97 791.162,849.25 L791.162,842.73 C791.162,842.73 791.122,844.49 790.783,846.95 C790.445,844.49 790.405,842.73 790.405,842.73 L790.405,849.25 C789.498,853.97 787.515,859.82 783.191,861.68 C783.191,861.68 785.576,863.09 787.177,861.21 C788.777,859.34 786.746,870.34 775.067,870.34 C775.067,870.34 780.907,871.75 784.461,870.11 C784.461,870.11 781.874,872.39 780.52,872.39 C780.52,872.39 785.034,872.29 785.937,871.04 C785.937,871.04 783.567,876.86 776.909,876.97 C776.909,876.97 779.166,877.69 782.438,876.34 C782.438,876.34 777.36,883 768.219,884.25 C768.219,884.25 775.86,886.12 781.484,883.51 C778.739,885.24 774.639,887.48 772.508,886.95 C772.508,886.95 777.168,888.82 779.69,886.95 C779.69,886.95 773.523,897.46 768.219,896.31 C768.219,896.31 774.99,900.47 780.294,896 C780.294,896 777.812,899.85 774.426,899.75 C774.426,899.75 775.442,900.68 778.376,899.33 C778.376,899.33 776.345,906.82 767.542,907.03 C767.542,907.03 776.683,910.46 781.874,904.32 C781.874,904.32 774.2,920.03 763.705,919.61 C763.705,919.61 776.683,923.15 781.423,916.18 C781.423,916.18 778.376,923.88 772.846,923.56 C772.846,923.56 776.497,924.78 779.565,922.41 C776.215,925.71 767.648,933.34 759.53,934.07 C759.53,934.07 768.106,937.29 771.266,934.59 C771.266,934.59 768.665,937.65 764.382,939.58 C764.382,939.58 766.77,940.76 769.782,940.87 C768.902,941.65 767.643,942.42 765.908,942.73 C765.908,942.73 769.221,943.15 771.916,942.27 C770.275,943.64 768.43,945.1 766.494,946.49 C764.846,947.3 762.82,948.15 761.175,948.35 C761.175,948.35 761.981,948.67 763.21,948.71 C760.247,950.58 757.235,952.09 754.564,952.69 C754.564,952.69 765.214,954.23 770.531,952.31" fill="url(#Gradient_9)"/>
      <path d="M403.746,1115.41 C403.746,1115.41 403.699,1115.49 403.604,1115.65 L403.588,1115.65 C403.644,1115.57 403.697,1115.49 403.746,1115.41 z M446.275,1115.65 L446.258,1115.65 C446.165,1115.49 446.117,1115.41 446.117,1115.41 C446.166,1115.49 446.219,1115.57 446.275,1115.65 z M398.701,1109.66 C393.788,1112.7 384.08,1118.24 378.77,1118.14 C378.77,1118.14 380.335,1118.38 382.688,1118.6 L467.174,1118.6 C469.527,1118.38 471.093,1118.14 471.093,1118.14 C465.783,1118.24 456.075,1112.7 451.162,1109.66 C458.049,1112.16 471.842,1110.16 471.842,1110.16 C468.383,1109.38 464.482,1107.43 460.644,1105.01 C462.236,1104.95 463.279,1104.54 463.279,1104.54 C461.148,1104.28 458.525,1103.18 456.391,1102.13 C453.884,1100.33 451.493,1098.44 449.369,1096.67 C452.859,1097.8 457.15,1097.26 457.15,1097.26 C454.903,1096.86 453.271,1095.87 452.133,1094.85 C456.032,1094.71 459.125,1093.18 459.125,1093.18 C453.58,1090.68 450.21,1086.72 450.21,1086.72 C454.302,1090.22 465.411,1086.04 465.411,1086.04 C454.896,1085.09 443.801,1075.21 439.461,1070.94 C443.436,1074.02 448.164,1072.44 448.164,1072.44 C441.001,1072.84 437.055,1062.87 437.055,1062.87 C443.194,1071.9 460.002,1067.32 460.002,1067.32 C446.41,1067.86 436.47,1047.51 436.47,1047.51 C443.194,1055.46 455.033,1051.02 455.033,1051.02 C443.632,1050.75 441.001,1041.05 441.001,1041.05 C444.802,1042.8 446.117,1041.59 446.117,1041.59 C441.732,1041.72 438.517,1036.74 438.517,1036.74 C445.386,1042.53 454.156,1037.14 454.156,1037.14 C447.287,1038.62 439.298,1025.02 439.298,1025.02 C442.565,1027.44 448.602,1025.02 448.602,1025.02 C445.841,1025.7 440.531,1022.8 436.976,1020.55 C444.259,1023.94 454.156,1021.51 454.156,1021.51 C442.317,1019.9 435.74,1011.28 435.74,1011.28 C439.978,1013.03 442.901,1012.08 442.901,1012.08 C434.278,1011.95 431.208,1004.41 431.208,1004.41 C432.378,1006.02 438.224,1006.16 438.224,1006.16 C436.47,1006.16 433.12,1003.2 433.12,1003.2 C437.724,1005.32 445.287,1003.5 445.287,1003.5 C430.16,1003.5 427.529,989.26 429.603,991.68 C431.676,994.11 434.764,992.29 434.764,992.29 C429.165,989.88 426.596,982.3 425.422,976.19 L425.422,967.74 C425.422,967.74 425.37,970.02 424.932,973.2 C424.493,970.02 424.441,967.74 424.441,967.74 L424.441,976.19 C423.267,982.3 420.699,989.88 415.099,992.29 C415.099,992.29 418.187,994.11 420.26,991.68 C422.333,989.26 419.703,1003.5 404.576,1003.5 C404.576,1003.5 412.139,1005.32 416.743,1003.2 C416.743,1003.2 413.393,1006.16 411.639,1006.16 C411.639,1006.16 417.485,1006.02 418.654,1004.41 C418.654,1004.41 415.585,1011.95 406.961,1012.08 C406.961,1012.08 409.885,1013.03 414.124,1011.28 C414.124,1011.28 407.546,1019.9 395.707,1021.51 C395.707,1021.51 405.603,1023.94 412.887,1020.55 C409.332,1022.8 404.022,1025.7 401.261,1025.02 C401.261,1025.02 407.298,1027.44 410.564,1025.02 C410.564,1025.02 402.577,1038.62 395.707,1037.14 C395.707,1037.14 404.477,1042.53 411.346,1036.74 C411.346,1036.74 408.131,1041.72 403.746,1041.59 C403.746,1041.59 405.062,1042.8 408.861,1041.05 C408.861,1041.05 406.23,1050.75 394.83,1051.02 C394.83,1051.02 406.669,1055.46 413.393,1047.51 C413.393,1047.51 403.454,1067.86 389.86,1067.32 C389.86,1067.32 406.669,1071.9 412.808,1062.87 C412.808,1062.87 408.861,1072.84 401.7,1072.44 C401.7,1072.44 406.427,1074.02 410.401,1070.94 C406.062,1075.21 394.967,1085.09 384.452,1086.04 C384.452,1086.04 395.561,1090.22 399.653,1086.72 C399.653,1086.72 396.283,1090.68 390.737,1093.18 C390.737,1093.18 393.831,1094.71 397.73,1094.85 C396.592,1095.87 394.959,1096.86 392.713,1097.26 C392.713,1097.26 397.004,1097.8 400.494,1096.67 C398.37,1098.44 395.979,1100.33 393.472,1102.13 C391.338,1103.18 388.714,1104.28 386.584,1104.54 C386.584,1104.54 387.627,1104.95 389.22,1105.01 C385.381,1107.43 381.48,1109.38 378.021,1110.16 C378.021,1110.16 391.814,1112.16 398.701,1109.66" fill="url(#Gradient_10)"/>
      <path d="M292.937,1080.39 C281.982,1081.31 263.655,1055.26 263.655,1055.26 C272.511,1067.13 281.931,1063.55 281.931,1063.55 C277.841,1063.42 272.303,1059.51 268.638,1056.51 C277.9,1062.83 289.303,1059.56 289.303,1059.56 C278.859,1059.1 269.798,1046.2 269.798,1046.2 C278.552,1053.41 292.835,1052.49 292.835,1052.49 C284.331,1050.95 269.14,1043.2 259.043,1037.66 C271.557,1040.98 290.07,1039.74 290.07,1039.74 C258.356,1034.14 246.73,1017.63 246.73,1017.63 C252.37,1023.44 271.117,1026.33 273.984,1026.74 C269.435,1026.03 261.096,1022.14 254.961,1019.03 C262.89,1021.58 272.716,1021.88 272.716,1021.88 C263.496,1020.1 254.135,1009.84 249.115,1003.49 C258.974,1014.42 271.283,1011.74 271.283,1011.74 C261.412,1010.69 251.565,996.1 246.325,986.97 C251.007,993.61 255.515,993.52 255.515,993.52 C251.369,992.75 247.068,980.62 247.068,980.62 C256.129,995.67 269.645,994.59 269.645,994.59 C258.28,993.67 247.222,976.93 247.222,976.93 C254.287,986.76 266.727,982.31 266.727,982.31 C252.751,981.38 243.997,959.42 243.997,959.42 C248.275,965 257.366,965.1 260.098,965 C256.157,965.08 252.246,963.07 249.36,961.08 C255.857,964.19 264.73,962.49 264.73,962.49 C257.512,962.19 246.505,944.58 246.505,944.58 C252.956,950 261.044,946.52 261.044,946.52 C252.956,946.42 245.789,935.36 245.789,935.36 C251.215,942.53 261.044,940.38 261.044,940.38 C250.191,940.58 240.055,923.18 240.055,923.18 C244.253,930.24 250.601,927.38 250.601,927.38 C243.229,927.27 239.748,919.19 239.748,919.19 C245.276,926.35 255.925,922.36 255.925,922.36 C239.134,918.98 235.345,906.49 235.345,906.49 C241.079,914.58 250.703,911.2 250.703,911.2 C240.669,912.53 235.345,904.44 235.345,904.44 C242,913.66 256.334,908.33 256.334,908.33 C242.717,909.15 234.731,894.51 234.731,894.51 C237.188,897.89 241.795,896.56 241.795,896.56 C238.007,897.27 231.864,888.26 231.864,888.26 C237.393,895.02 247.632,890.31 247.632,890.31 C238.416,893.38 220.592,866.21 220.592,866.21 C220.592,866.21 202.767,893.38 193.552,890.31 C193.552,890.31 203.791,895.02 209.319,888.26 C209.319,888.26 203.176,897.27 199.388,896.56 C199.388,896.56 203.995,897.89 206.453,894.51 C206.453,894.51 198.466,909.15 184.849,908.33 C184.849,908.33 199.183,913.66 205.838,904.44 C205.838,904.44 200.514,912.53 190.48,911.2 C190.48,911.2 200.104,914.58 205.838,906.49 C205.838,906.49 202.05,918.98 185.259,922.36 C185.259,922.36 195.907,926.35 201.436,919.19 C201.436,919.19 197.955,927.27 190.583,927.38 C190.583,927.38 196.931,930.24 201.128,923.18 C201.128,923.18 190.992,940.58 180.139,940.38 C180.139,940.38 189.968,942.53 195.395,935.36 C195.395,935.36 188.228,946.42 180.139,946.52 C180.139,946.52 188.228,950 194.678,944.58 C194.678,944.58 183.672,962.19 176.453,962.49 C176.453,962.49 185.326,964.19 191.824,961.08 C188.937,963.07 185.027,965.08 181.085,965 C183.817,965.1 192.909,965 197.187,959.42 C197.187,959.42 188.433,981.38 174.457,982.31 C174.457,982.31 186.897,986.76 193.961,976.93 C193.961,976.93 182.904,993.67 171.539,994.59 C171.539,994.59 185.054,995.67 194.115,980.62 C194.115,980.62 189.815,992.75 185.668,993.52 C185.668,993.52 190.176,993.61 194.859,986.97 C189.618,996.1 179.772,1010.69 169.901,1011.74 C169.901,1011.74 182.21,1014.42 192.068,1003.49 C187.048,1009.84 177.687,1020.1 168.467,1021.88 C168.467,1021.88 178.293,1021.58 186.222,1019.03 C180.087,1022.14 171.748,1026.03 167.199,1026.74 C170.066,1026.33 188.813,1023.44 194.453,1017.63 C194.453,1017.63 182.827,1034.14 151.113,1039.74 C151.113,1039.74 169.626,1040.98 182.141,1037.66 C172.043,1043.2 156.853,1050.95 148.349,1052.49 C148.349,1052.49 162.631,1053.41 171.385,1046.2 C171.385,1046.2 162.324,1059.1 151.881,1059.56 C151.881,1059.56 163.283,1062.83 172.545,1056.51 C168.881,1059.51 163.342,1063.42 159.252,1063.55 C159.252,1063.55 168.672,1067.13 177.528,1055.26 C177.528,1055.26 159.201,1081.31 148.246,1080.39 C148.246,1080.39 163.432,1081.96 175.122,1075 C171.901,1078.4 168.345,1081.9 165.009,1084.61 L276.175,1084.61 C272.839,1081.9 269.282,1078.4 266.062,1075 C277.752,1081.96 292.937,1080.39 292.937,1080.39 z" fill="url(#Gradient_11)"/>
      <path d="M365.153,1132.16 C365.153,1132.16 365.088,1132.28 364.959,1132.49 L364.937,1132.49 C365.013,1132.38 365.086,1132.27 365.153,1132.16 z M423.467,1132.49 L423.444,1132.49 C423.315,1132.28 423.25,1132.16 423.25,1132.16 C423.317,1132.27 423.391,1132.38 423.467,1132.49 z M358.236,1124.28 C351.499,1128.45 338.188,1136.04 330.908,1135.91 C330.908,1135.91 333.054,1136.23 336.28,1136.53 L452.123,1136.53 C455.349,1136.23 457.495,1135.91 457.495,1135.91 C450.215,1136.04 436.904,1128.45 430.167,1124.28 C439.61,1127.7 458.523,1124.96 458.523,1124.96 C453.78,1123.89 448.431,1121.21 443.168,1117.89 C445.351,1117.82 446.782,1117.25 446.782,1117.25 C443.86,1116.89 440.263,1115.4 437.337,1113.95 C433.9,1111.49 430.621,1108.89 427.709,1106.46 C432.495,1108.02 438.377,1107.28 438.377,1107.28 C435.297,1106.73 433.06,1105.36 431.499,1103.96 C436.846,1103.78 441.087,1101.68 441.087,1101.68 C433.482,1098.25 428.862,1092.82 428.862,1092.82 C434.473,1097.62 449.705,1091.89 449.705,1091.89 C435.287,1090.59 420.074,1077.04 414.124,1071.19 C419.574,1075.4 426.056,1073.24 426.056,1073.24 C416.236,1073.79 410.825,1060.12 410.825,1060.12 C419.242,1072.5 442.29,1066.22 442.29,1066.22 C423.651,1066.96 410.023,1039.06 410.023,1039.06 C419.242,1049.96 435.476,1043.87 435.476,1043.87 C419.843,1043.5 416.236,1030.2 416.236,1030.2 C421.447,1032.6 423.25,1030.94 423.25,1030.94 C417.238,1031.12 412.829,1024.29 412.829,1024.29 C422.248,1032.23 434.273,1024.84 434.273,1024.84 C424.853,1026.87 413.901,1008.22 413.901,1008.22 C418.38,1011.54 426.657,1008.22 426.657,1008.22 C422.872,1009.15 415.591,1005.17 410.716,1002.1 C420.703,1006.74 434.273,1003.41 434.273,1003.41 C418.04,1001.2 409.021,989.38 409.021,989.38 C414.833,991.78 418.841,990.49 418.841,990.49 C407.017,990.3 402.808,979.96 402.808,979.96 C404.412,982.17 412.428,982.36 412.428,982.36 C410.023,982.36 405.429,978.3 405.429,978.3 C411.742,981.21 422.112,978.72 422.112,978.72 C401.371,978.72 397.764,959.19 400.606,962.51 C403.449,965.84 407.684,963.34 407.684,963.34 C400.005,960.04 396.484,949.64 394.874,941.27 L394.874,929.68 C394.874,929.68 394.803,932.8 394.202,937.17 C393.6,932.8 393.529,929.68 393.529,929.68 L393.529,941.27 C391.918,949.64 388.397,960.04 380.72,963.34 C380.72,963.34 384.954,965.84 387.797,962.51 C390.64,959.19 387.032,978.72 366.291,978.72 C366.291,978.72 376.662,981.21 382.974,978.3 C382.974,978.3 378.38,982.36 375.975,982.36 C375.975,982.36 383.992,982.17 385.595,979.96 C385.595,979.96 381.386,990.3 369.562,990.49 C369.562,990.49 373.57,991.78 379.382,989.38 C379.382,989.38 370.363,1001.2 354.13,1003.41 C354.13,1003.41 367.7,1006.74 377.687,1002.1 C372.812,1005.17 365.532,1009.15 361.746,1008.22 C361.746,1008.22 370.023,1011.54 374.502,1008.22 C374.502,1008.22 363.549,1026.87 354.13,1024.84 C354.13,1024.84 366.155,1032.23 375.574,1024.29 C375.574,1024.29 371.165,1031.12 365.153,1030.94 C365.153,1030.94 366.957,1032.6 372.167,1030.2 C372.167,1030.2 368.56,1043.5 352.928,1043.87 C352.928,1043.87 369.161,1049.96 378.38,1039.06 C378.38,1039.06 364.752,1066.96 346.114,1066.22 C346.114,1066.22 369.161,1072.5 377.579,1060.12 C377.579,1060.12 372.167,1073.79 362.347,1073.24 C362.347,1073.24 368.83,1075.4 374.279,1071.19 C368.329,1077.04 353.116,1090.59 338.698,1091.89 C338.698,1091.89 353.93,1097.62 359.541,1092.82 C359.541,1092.82 354.92,1098.25 347.316,1101.68 C347.316,1101.68 351.558,1103.78 356.904,1103.96 C355.343,1105.36 353.105,1106.73 350.025,1107.28 C350.025,1107.28 355.909,1108.02 360.694,1106.46 C357.782,1108.89 354.503,1111.49 351.065,1113.95 C348.14,1115.4 344.542,1116.89 341.621,1117.25 C341.621,1117.25 343.052,1117.82 345.235,1117.89 C339.972,1121.21 334.623,1123.89 329.88,1124.96 C329.88,1124.96 348.792,1127.7 358.236,1124.28" fill="url(#Gradient_12)"/>
      <path d="M839.219,1001.96 C831.443,1001.24 823.695,1001.11 815.989,1001.47 C815.527,1001.34 815.066,1001.21 814.603,1001.09 C810.27,999.95 805.53,1000.64 801.563,1002.72 C765.616,1007.23 730.83,1021.76 698.869,1038.2 C677.854,1049.01 657.403,1060.88 636.411,1071.73 C614.734,1082.94 595.929,1091.51 572.409,1098.04 C560.835,1101.25 549.043,1103.7 537.152,1105.4 C528.623,1106.61 513.992,1107.69 503.017,1107.96 C490.958,1108.25 478.886,1107.93 466.851,1107.12 C461.129,1106.74 455.414,1106.25 449.71,1105.65 C443.246,1104.98 438.228,1104.37 433.179,1103.64 C383.903,1096.52 335.945,1083.04 288.043,1069.82 C238.006,1056 187.687,1042.94 135.985,1037.16 C110.833,1034.35 85.418,1033.49 60.174,1035.56 C40.233,1037.2 19.107,1039.53 0.467,1047.57 L0.467,1457.47 C0.467,1476.05 15.529,1491.11 34.108,1491.11 L805.577,1491.11 C824.157,1491.11 839.219,1476.05 839.219,1457.47 L839.219,1001.96 z" fill="url(#Gradient_13)"/>
      <path d="M687.954,1130.09 C676.999,1131.02 658.672,1104.96 658.672,1104.96 C667.528,1116.83 676.948,1113.25 676.948,1113.25 C672.858,1113.13 667.319,1109.21 663.655,1106.21 C672.917,1112.54 684.319,1109.26 684.319,1109.26 C673.876,1108.8 664.815,1095.9 664.815,1095.9 C673.569,1103.12 687.852,1102.19 687.852,1102.19 C679.348,1100.65 664.157,1092.9 654.06,1087.37 C666.574,1090.68 685.087,1089.45 685.087,1089.45 C653.373,1083.84 641.748,1067.33 641.748,1067.33 C647.387,1073.14 666.134,1076.03 669.001,1076.44 C664.452,1075.73 656.113,1071.84 649.978,1068.73 C657.907,1071.28 667.733,1071.58 667.733,1071.58 C658.513,1069.8 649.152,1059.54 644.132,1053.19 C653.99,1064.12 666.299,1061.44 666.299,1061.44 C656.428,1060.39 646.582,1045.8 641.341,1036.67 C646.024,1043.31 650.532,1043.22 650.532,1043.22 C646.385,1042.45 642.085,1030.32 642.085,1030.32 C651.146,1045.37 664.661,1044.29 664.661,1044.29 C653.296,1043.37 642.239,1026.63 642.239,1026.63 C649.303,1036.46 661.743,1032.01 661.743,1032.01 C647.768,1031.09 639.014,1009.12 639.014,1009.12 C643.291,1014.7 652.383,1014.8 655.115,1014.7 C651.173,1014.79 647.263,1012.77 644.376,1010.78 C650.874,1013.89 659.747,1012.2 659.747,1012.2 C652.529,1011.89 641.522,994.28 641.522,994.28 C647.972,999.71 656.061,996.22 656.061,996.22 C647.972,996.12 640.805,985.06 640.805,985.06 C646.232,992.23 656.061,990.08 656.061,990.08 C645.208,990.29 635.072,972.88 635.072,972.88 C639.27,979.94 645.618,977.08 645.618,977.08 C638.246,976.98 634.765,968.89 634.765,968.89 C640.293,976.05 650.941,972.06 650.941,972.06 C634.15,968.68 630.362,956.19 630.362,956.19 C636.096,964.28 645.72,960.9 645.72,960.9 C635.686,962.23 630.362,954.14 630.362,954.14 C637.017,963.36 651.351,958.03 651.351,958.03 C637.734,958.85 629.748,944.21 629.748,944.21 C632.205,947.59 636.812,946.26 636.812,946.26 C633.024,946.98 626.881,937.97 626.881,937.97 C632.41,944.72 642.648,940.01 642.648,940.01 C633.434,943.09 615.608,915.91 615.608,915.91 C615.608,915.91 597.783,943.09 588.569,940.01 C588.569,940.01 598.807,944.72 604.336,937.97 C604.336,937.97 598.193,946.98 594.404,946.26 C594.404,946.26 599.012,947.59 601.469,944.21 C601.469,944.21 593.483,958.85 579.866,958.03 C579.866,958.03 594.2,963.36 600.855,954.14 C600.855,954.14 595.531,962.23 585.497,960.9 C585.497,960.9 595.121,964.28 600.855,956.19 C600.855,956.19 597.066,968.68 580.275,972.06 C580.275,972.06 590.923,976.05 596.452,968.89 C596.452,968.89 592.971,976.98 585.6,977.08 C585.6,977.08 591.947,979.94 596.145,972.88 C596.145,972.88 586.009,990.29 575.156,990.08 C575.156,990.08 584.985,992.23 590.412,985.06 C590.412,985.06 583.245,996.12 575.156,996.22 C575.156,996.22 583.245,999.71 589.695,994.28 C589.695,994.28 578.688,1011.89 571.47,1012.2 C571.47,1012.2 580.343,1013.89 586.84,1010.78 C583.954,1012.77 580.043,1014.79 576.102,1014.7 C578.834,1014.8 587.926,1014.7 592.203,1009.12 C592.203,1009.12 583.449,1031.09 569.474,1032.01 C569.474,1032.01 581.914,1036.46 588.978,1026.63 C588.978,1026.63 577.92,1043.37 566.556,1044.29 C566.556,1044.29 580.071,1045.37 589.132,1030.32 C589.132,1030.32 584.832,1042.45 580.685,1043.22 C580.685,1043.22 585.193,1043.31 589.875,1036.67 C584.635,1045.8 574.789,1060.39 564.917,1061.44 C564.917,1061.44 577.227,1064.12 587.085,1053.19 C582.065,1059.54 572.704,1069.8 563.484,1071.58 C563.484,1071.58 573.31,1071.28 581.239,1068.73 C575.104,1071.84 566.765,1075.73 562.216,1076.44 C565.083,1076.03 583.83,1073.14 589.47,1067.33 C589.47,1067.33 577.844,1083.84 546.129,1089.45 C546.129,1089.45 564.643,1090.68 577.157,1087.37 C567.06,1092.9 551.869,1100.65 543.365,1102.19 C543.365,1102.19 557.648,1103.12 566.402,1095.9 C566.402,1095.9 557.341,1108.8 546.897,1109.26 C546.897,1109.26 558.3,1112.54 567.562,1106.21 C563.897,1109.21 558.359,1113.13 554.269,1113.25 C554.269,1113.25 563.688,1116.83 572.545,1104.96 C572.545,1104.96 554.218,1131.02 543.263,1130.09 C543.263,1130.09 558.448,1131.66 570.139,1124.7 C566.917,1128.1 563.361,1131.6 560.026,1134.31 L671.191,1134.31 C667.855,1131.6 664.299,1128.1 661.078,1124.7 C672.769,1131.66 687.954,1130.09 687.954,1130.09 z" fill="url(#Gradient_14)"/>
      <path d="M668.204,1141 C668.204,1141 668.118,1141.15 667.949,1141.44 L667.919,1141.44 C668.02,1141.29 668.116,1141.15 668.204,1141 z M744.76,1141.44 L744.73,1141.44 C744.561,1141.15 744.476,1141 744.476,1141 C744.564,1141.15 744.66,1141.29 744.76,1141.44 z M659.123,1130.66 C650.278,1136.12 632.803,1146.1 623.245,1145.92 C623.245,1145.92 626.062,1146.34 630.298,1146.74 L782.381,1146.74 C786.617,1146.34 789.435,1145.92 789.435,1145.92 C779.876,1146.1 762.401,1136.12 753.557,1130.66 C765.955,1135.15 790.783,1131.54 790.783,1131.54 C784.557,1130.14 777.534,1126.63 770.625,1122.27 C773.491,1122.17 775.37,1121.43 775.37,1121.43 C771.534,1120.96 766.812,1118.99 762.97,1117.1 C758.457,1113.86 754.153,1110.45 750.33,1107.27 C756.612,1109.31 764.336,1108.33 764.336,1108.33 C760.292,1107.62 757.354,1105.82 755.305,1103.98 C762.324,1103.75 767.893,1100.99 767.893,1100.99 C757.91,1096.48 751.843,1089.35 751.843,1089.35 C759.21,1095.65 779.207,1088.14 779.207,1088.14 C760.279,1086.43 740.306,1068.64 732.495,1060.96 C739.649,1066.49 748.16,1063.64 748.16,1063.64 C735.267,1064.37 728.164,1046.43 728.164,1046.43 C739.214,1062.67 769.472,1054.43 769.472,1054.43 C745.002,1055.4 727.111,1018.78 727.111,1018.78 C739.214,1033.09 760.526,1025.09 760.526,1025.09 C740.003,1024.6 735.267,1007.14 735.267,1007.14 C742.108,1010.29 744.476,1008.11 744.476,1008.11 C736.583,1008.35 730.794,999.38 730.794,999.38 C743.161,1009.81 758.947,1000.11 758.947,1000.11 C746.581,1002.78 732.202,978.28 732.202,978.28 C738.083,982.65 748.949,978.28 748.949,978.28 C743.979,979.51 734.42,974.29 728.021,970.25 C741.132,976.34 758.947,971.98 758.947,971.98 C737.635,969.07 725.795,953.55 725.795,953.55 C733.426,956.7 738.688,955 738.688,955 C723.165,954.76 717.639,941.18 717.639,941.18 C719.744,944.09 730.268,944.33 730.268,944.33 C727.111,944.33 721.08,939.01 721.08,939.01 C729.367,942.83 742.982,939.56 742.982,939.56 C715.752,939.56 711.016,913.91 714.748,918.28 C718.48,922.64 724.04,919.37 724.04,919.37 C713.959,915.03 709.337,901.38 707.223,890.39 L707.223,875.18 C707.223,875.18 707.129,879.28 706.34,885.02 C705.55,879.28 705.457,875.18 705.457,875.18 L705.457,890.39 C703.343,901.38 698.72,915.03 688.64,919.37 C688.64,919.37 694.2,922.64 697.931,918.28 C701.663,913.91 696.928,939.56 669.697,939.56 C669.697,939.56 683.312,942.83 691.6,939.01 C691.6,939.01 685.569,944.33 682.412,944.33 C682.412,944.33 692.936,944.09 695.041,941.18 C695.041,941.18 689.515,954.76 673.992,955 C673.992,955 679.254,956.7 686.884,953.55 C686.884,953.55 675.044,969.07 653.732,971.98 C653.732,971.98 671.547,976.34 684.659,970.25 C678.259,974.29 668.701,979.51 663.73,978.28 C663.73,978.28 674.597,982.65 680.478,978.28 C680.478,978.28 666.099,1002.78 653.732,1000.11 C653.732,1000.11 669.519,1009.81 681.885,999.38 C681.885,999.38 676.097,1008.35 668.204,1008.11 C668.204,1008.11 670.571,1010.29 677.412,1007.14 C677.412,1007.14 672.676,1024.6 652.154,1025.09 C652.154,1025.09 673.466,1033.09 685.569,1018.78 C685.569,1018.78 667.677,1055.4 643.208,1054.43 C643.208,1054.43 673.466,1062.67 684.516,1046.43 C684.516,1046.43 677.412,1064.37 664.52,1063.64 C664.52,1063.64 673.03,1066.49 680.184,1060.96 C672.374,1068.64 652.401,1086.43 633.473,1088.14 C633.473,1088.14 653.469,1095.65 660.836,1089.35 C660.836,1089.35 654.77,1096.48 644.787,1100.99 C644.787,1100.99 650.355,1103.75 657.375,1103.98 C655.325,1105.82 652.387,1107.62 648.344,1108.33 C648.344,1108.33 656.067,1109.31 662.35,1107.27 C658.527,1110.45 654.223,1113.86 649.709,1117.1 C645.868,1118.99 641.145,1120.96 637.31,1121.43 C637.31,1121.43 639.188,1122.17 642.055,1122.27 C635.145,1126.63 628.123,1130.14 621.896,1131.54 C621.896,1131.54 646.725,1135.15 659.123,1130.66" fill="url(#Gradient_15)"/>
      <path d="M839.219,1064.16 C809.925,1054.86 798.731,1038.99 798.731,1038.99 C806.206,1046.69 831.052,1050.52 834.852,1051.07 C828.822,1050.12 817.77,1044.96 809.639,1040.84 C820.147,1044.23 833.171,1044.62 833.171,1044.62 C820.951,1042.26 808.544,1028.66 801.891,1020.25 C814.957,1034.73 831.271,1031.19 831.271,1031.19 C818.188,1029.8 805.139,1010.45 798.192,998.35 C804.399,1007.16 810.374,1007.03 810.374,1007.03 C804.878,1006.02 799.179,989.94 799.179,989.94 C811.187,1009.88 829.1,1008.46 829.1,1008.46 C814.038,1007.24 799.382,985.05 799.382,985.05 C808.745,998.08 825.232,992.17 825.232,992.17 C806.709,990.95 795.107,961.85 795.107,961.85 C800.777,969.23 812.827,969.37 816.447,969.23 C811.224,969.35 806.041,966.68 802.215,964.04 C810.827,968.17 822.586,965.92 822.586,965.92 C813.02,965.51 798.432,942.17 798.432,942.17 C806.981,949.36 817.701,944.75 817.701,944.75 C806.981,944.61 797.482,929.96 797.482,929.96 C804.674,939.46 817.701,936.61 817.701,936.61 C803.317,936.88 789.883,913.81 789.883,913.81 C795.447,923.17 803.86,919.37 803.86,919.37 C794.09,919.24 789.476,908.52 789.476,908.52 C796.804,918.02 810.916,912.72 810.916,912.72 C788.662,908.25 783.641,891.69 783.641,891.69 C791.24,902.41 803.996,897.93 803.996,897.93 C790.697,899.7 783.641,888.98 783.641,888.98 C792.461,901.19 811.459,894.13 811.459,894.13 C793.411,895.22 782.827,875.81 782.827,875.81 C786.083,880.29 792.19,878.53 792.19,878.53 C787.169,879.48 779.027,867.54 779.027,867.54 C786.355,876.49 799.925,870.25 799.925,870.25 C787.712,874.32 764.087,838.3 764.087,838.3 C764.087,838.3 740.463,874.32 728.25,870.25 C728.25,870.25 741.82,876.49 749.147,867.54 C749.147,867.54 741.005,879.48 735.984,878.53 C735.984,878.53 742.091,880.29 745.348,875.81 C745.348,875.81 734.763,895.22 716.715,894.13 C716.715,894.13 735.713,901.19 744.534,888.98 C744.534,888.98 737.478,899.7 724.179,897.93 C724.179,897.93 736.935,902.41 744.534,891.69 C744.534,891.69 739.513,908.25 717.258,912.72 C717.258,912.72 731.371,918.02 738.699,908.52 C738.699,908.52 734.085,919.24 724.314,919.37 C724.314,919.37 732.728,923.17 738.291,913.81 C738.291,913.81 724.857,936.88 710.474,936.61 C710.474,936.61 723.5,939.46 730.692,929.96 C730.692,929.96 721.193,944.61 710.474,944.75 C710.474,944.75 721.193,949.36 729.743,942.17 C729.743,942.17 715.155,965.51 705.588,965.92 C705.588,965.92 717.348,968.17 725.959,964.04 C722.134,966.68 716.951,969.35 711.728,969.23 C715.348,969.37 727.397,969.23 733.067,961.85 C733.067,961.85 721.465,990.95 702.942,992.17 C702.942,992.17 719.429,998.08 728.792,985.05 C728.792,985.05 714.137,1007.24 699.075,1008.46 C699.075,1008.46 716.987,1009.88 728.996,989.94 C728.996,989.94 723.297,1006.02 717.801,1007.03 C717.801,1007.03 723.775,1007.16 729.982,998.35 C723.036,1010.45 709.987,1029.8 696.904,1031.19 C696.904,1031.19 713.218,1034.73 726.284,1020.25 C719.63,1028.66 707.224,1042.26 695.004,1044.62 C695.004,1044.62 708.027,1044.23 718.535,1040.84 C710.405,1044.96 699.352,1050.12 693.323,1051.07 C697.123,1050.52 721.969,1046.69 729.444,1038.99 C729.444,1038.99 714.036,1060.87 672.003,1068.3 C672.003,1068.3 696.54,1069.94 713.125,1065.54 C699.744,1072.88 679.61,1083.15 668.339,1085.2 C668.339,1085.2 687.269,1086.42 698.871,1076.85 C698.871,1076.85 686.862,1093.95 673.021,1094.56 C673.021,1094.56 688.133,1098.9 700.409,1090.52 C695.552,1094.5 688.211,1099.68 682.791,1099.85 C682.791,1099.85 695.275,1104.6 707.013,1088.86 C707.013,1088.86 682.723,1123.39 668.204,1122.17 C668.204,1122.17 688.33,1124.25 703.824,1115.02 C699.555,1119.54 694.842,1124.17 690.42,1127.76 L837.754,1127.76 C833.333,1124.17 828.62,1119.54 824.351,1115.02 C829.109,1117.86 834.304,1119.62 839.219,1120.71 L839.219,1110.18 C829.44,1100.62 821.162,1088.86 821.162,1088.86 C827.717,1097.65 834.502,1100.05 839.219,1100.45 L839.219,1098.11 C835.159,1096.22 830.935,1093.12 827.766,1090.52 C831.49,1093.06 835.474,1094.43 839.219,1095.11 L839.219,1087.37 C833.249,1082.46 829.303,1076.85 829.303,1076.85 C832.275,1079.3 835.727,1081.04 839.219,1082.28 L839.219,1077.8 C830.799,1073.96 822.012,1069.36 815.049,1065.54 C822.485,1067.51 831.514,1068.27 839.219,1068.51 L839.219,1064.16 z" fill="url(#Gradient_16)"/>
      <path d="M288.261,1172.37 C269.981,1173.9 239.4,1130.42 239.4,1130.42 C254.178,1150.24 269.895,1144.26 269.895,1144.26 C263.071,1144.05 253.83,1137.52 247.715,1132.52 C263.17,1143.07 282.196,1137.6 282.196,1137.6 C264.77,1136.83 249.651,1115.3 249.651,1115.3 C264.258,1127.35 288.091,1125.81 288.091,1125.81 C273.9,1123.23 248.552,1110.3 231.704,1101.07 C252.586,1106.6 283.478,1104.54 283.478,1104.54 C230.559,1095.19 211.16,1067.64 211.16,1067.64 C220.57,1077.33 251.852,1082.15 256.636,1082.84 C249.045,1081.66 235.13,1075.16 224.894,1069.97 C238.124,1074.23 254.52,1074.73 254.52,1074.73 C239.135,1071.76 223.515,1054.63 215.139,1044.05 C231.588,1062.28 252.128,1057.82 252.128,1057.82 C235.656,1056.06 219.227,1031.71 210.482,1016.48 C218.296,1027.56 225.818,1027.41 225.818,1027.41 C218.899,1026.12 211.723,1005.88 211.723,1005.88 C226.843,1030.99 249.395,1029.2 249.395,1029.2 C230.431,1027.66 211.979,999.73 211.979,999.73 C223.768,1016.13 244.525,1008.7 244.525,1008.7 C221.205,1007.16 206.598,970.51 206.598,970.51 C213.736,979.81 228.906,979.99 233.465,979.82 C226.888,979.96 220.363,976.6 215.547,973.28 C226.389,978.47 241.194,975.64 241.194,975.64 C229.149,975.13 210.784,945.74 210.784,945.74 C221.547,954.8 235.043,948.99 235.043,948.99 C221.547,948.82 209.588,930.37 209.588,930.37 C218.643,942.32 235.043,938.74 235.043,938.74 C216.934,939.08 200.02,910.04 200.02,910.04 C207.025,921.82 217.618,917.04 217.618,917.04 C205.316,916.87 199.508,903.37 199.508,903.37 C208.733,915.33 226.501,908.67 226.501,908.67 C198.483,903.03 192.162,882.19 192.162,882.19 C201.729,895.68 217.788,890.05 217.788,890.05 C201.045,892.27 192.162,878.77 192.162,878.77 C203.267,894.15 227.185,885.26 227.185,885.26 C204.462,886.63 191.137,862.2 191.137,862.2 C195.237,867.84 202.925,865.62 202.925,865.62 C196.603,866.81 186.353,851.78 186.353,851.78 C195.579,863.05 212.663,855.19 212.663,855.19 C197.287,860.32 167.543,814.97 167.543,814.97 C167.543,814.97 137.8,860.32 122.424,855.19 C122.424,855.19 139.508,863.05 148.734,851.78 C148.734,851.78 138.483,866.81 132.162,865.62 C132.162,865.62 139.85,867.84 143.95,862.2 C143.95,862.2 130.624,886.63 107.902,885.26 C107.902,885.26 131.821,894.15 142.925,878.77 C142.925,878.77 134.041,892.27 117.299,890.05 C117.299,890.05 133.358,895.68 142.925,882.19 C142.925,882.19 136.604,903.03 108.586,908.67 C108.586,908.67 126.353,915.33 135.579,903.37 C135.579,903.37 129.77,916.87 117.47,917.04 C117.47,917.04 128.062,921.82 135.066,910.04 C135.066,910.04 118.153,939.08 100.043,938.74 C100.043,938.74 116.444,942.32 125.499,930.37 C125.499,930.37 113.541,948.82 100.043,948.99 C100.043,948.99 113.541,954.8 124.304,945.74 C124.304,945.74 105.937,975.13 93.893,975.64 C93.893,975.64 108.698,978.47 119.54,973.28 C114.725,976.6 108.199,979.96 101.623,979.82 C106.181,979.99 121.351,979.81 128.489,970.51 C128.489,970.51 113.882,1007.16 90.562,1008.7 C90.562,1008.7 111.319,1016.13 123.107,999.73 C123.107,999.73 104.656,1027.66 85.692,1029.2 C85.692,1029.2 108.244,1030.99 123.364,1005.88 C123.364,1005.88 116.188,1026.12 109.269,1027.41 C109.269,1027.41 116.791,1027.56 124.605,1016.48 C115.86,1031.71 99.431,1056.06 82.959,1057.82 C82.959,1057.82 103.499,1062.28 119.949,1044.05 C111.572,1054.63 95.952,1071.76 80.567,1074.73 C80.567,1074.73 96.963,1074.23 110.193,1069.97 C99.957,1075.16 86.042,1081.66 78.451,1082.84 C83.235,1082.15 114.517,1077.33 123.927,1067.64 C123.927,1067.64 104.528,1095.19 51.609,1104.54 C51.609,1104.54 82.501,1106.6 103.383,1101.07 C86.535,1110.3 61.187,1123.23 46.997,1125.81 C46.997,1125.81 70.829,1127.35 85.437,1115.3 C85.437,1115.3 70.317,1136.83 52.891,1137.6 C52.891,1137.6 71.917,1143.07 87.372,1132.52 C81.257,1137.52 72.016,1144.05 65.191,1144.26 C65.191,1144.26 80.909,1150.24 95.687,1130.42 C95.687,1130.42 65.106,1173.9 46.826,1172.37 C46.826,1172.37 72.165,1174.99 91.671,1163.36 C86.297,1169.05 80.363,1174.88 74.796,1179.4 L260.291,1179.4 C254.724,1174.88 248.79,1169.05 243.416,1163.36 C262.923,1174.99 288.261,1172.37 288.261,1172.37 z" fill="url(#Gradient_17)"/>
      <path d="M307.401,1180.55 C307.401,1180.55 307.304,1180.72 307.113,1181.04 L307.079,1181.04 C307.192,1180.88 307.301,1180.72 307.401,1180.55 z M394.202,1181.04 L394.167,1181.04 C393.976,1180.72 393.879,1180.55 393.879,1180.55 C393.979,1180.72 394.088,1180.88 394.202,1181.04 z M297.105,1168.82 C287.078,1175.02 267.264,1186.33 256.427,1186.13 C256.427,1186.13 259.621,1186.6 264.424,1187.06 L436.856,1187.06 C441.659,1186.6 444.853,1186.13 444.853,1186.13 C434.016,1186.33 414.203,1175.02 404.175,1168.82 C418.231,1173.91 446.383,1169.83 446.383,1169.83 C439.323,1168.24 431.361,1164.25 423.527,1159.31 C426.777,1159.2 428.906,1158.36 428.906,1158.36 C424.558,1157.82 419.203,1155.59 414.848,1153.45 C409.731,1149.77 404.851,1145.91 400.517,1142.3 C407.639,1144.61 416.396,1143.51 416.396,1143.51 C411.812,1142.7 408.48,1140.66 406.157,1138.58 C414.116,1138.31 420.429,1135.18 420.429,1135.18 C409.11,1130.08 402.232,1121.99 402.232,1121.99 C410.585,1129.13 433.257,1120.61 433.257,1120.61 C411.796,1118.68 389.151,1098.5 380.295,1089.79 C388.407,1096.07 398.056,1092.84 398.056,1092.84 C383.438,1093.66 375.384,1073.32 375.384,1073.32 C387.913,1091.74 422.219,1082.39 422.219,1082.39 C394.476,1083.49 374.19,1041.98 374.19,1041.98 C387.913,1058.2 412.077,1049.12 412.077,1049.12 C388.808,1048.57 383.438,1028.78 383.438,1028.78 C391.194,1032.35 393.879,1029.88 393.879,1029.88 C384.93,1030.15 378.367,1019.98 378.367,1019.98 C392.388,1031.8 410.287,1020.8 410.287,1020.8 C396.266,1023.83 379.963,996.06 379.963,996.06 C386.63,1001.01 398.951,996.06 398.951,996.06 C393.315,997.44 382.478,991.53 375.223,986.95 C390.088,993.86 410.287,988.91 410.287,988.91 C386.123,985.61 372.699,968.01 372.699,968.01 C381.35,971.59 387.316,969.66 387.316,969.66 C369.716,969.39 363.451,953.99 363.451,953.99 C365.838,957.29 377.77,957.57 377.77,957.57 C374.19,957.57 367.353,951.53 367.353,951.53 C376.749,955.86 392.186,952.15 392.186,952.15 C361.312,952.15 355.942,923.08 360.174,928.03 C364.405,932.97 370.708,929.26 370.708,929.26 C359.279,924.35 354.038,908.87 351.641,896.4 L351.641,879.16 C351.641,879.16 351.535,883.8 350.64,890.31 C349.745,883.8 349.639,879.16 349.639,879.16 L349.639,896.4 C347.242,908.87 342.001,924.35 330.572,929.26 C330.572,929.26 336.875,932.97 341.106,928.03 C345.338,923.08 339.968,952.15 309.095,952.15 C309.095,952.15 324.532,955.86 333.928,951.53 C333.928,951.53 327.09,957.57 323.51,957.57 C323.51,957.57 335.442,957.29 337.829,953.99 C337.829,953.99 331.564,969.39 313.964,969.66 C313.964,969.66 319.93,971.59 328.581,968.01 C328.581,968.01 315.157,985.61 290.994,988.91 C290.994,988.91 311.192,993.86 326.058,986.95 C318.802,991.53 307.965,997.44 302.33,996.06 C302.33,996.06 314.65,1001.01 321.317,996.06 C321.317,996.06 305.015,1023.83 290.994,1020.8 C290.994,1020.8 308.893,1031.8 322.913,1019.98 C322.913,1019.98 316.351,1030.15 307.401,1029.88 C307.401,1029.88 310.086,1032.35 317.842,1028.78 C317.842,1028.78 312.472,1048.57 289.204,1049.12 C289.204,1049.12 313.367,1058.2 327.09,1041.98 C327.09,1041.98 306.804,1083.49 279.061,1082.39 C279.061,1082.39 313.367,1091.74 325.896,1073.32 C325.896,1073.32 317.842,1093.66 303.225,1092.84 C303.225,1092.84 312.874,1096.07 320.985,1089.79 C312.129,1098.5 289.484,1118.68 268.023,1120.61 C268.023,1120.61 290.695,1129.13 299.048,1121.99 C299.048,1121.99 292.17,1130.08 280.851,1135.18 C280.851,1135.18 287.165,1138.31 295.123,1138.58 C292.8,1140.66 289.469,1142.7 284.884,1143.51 C284.884,1143.51 293.641,1144.61 300.764,1142.3 C296.429,1145.91 291.549,1149.77 286.432,1153.45 C282.077,1155.59 276.722,1157.82 272.374,1158.36 C272.374,1158.36 274.503,1159.2 277.753,1159.31 C269.919,1164.25 261.957,1168.24 254.897,1169.83 C254.897,1169.83 283.049,1173.91 297.105,1168.82" fill="url(#Gradient_18)"/>
      <path d="M839.219,1457.47 L839.219,1254.72 C820.68,1254.54 802.15,1253.56 783.685,1251.92 C772.295,1250.9 760.946,1249.58 749.601,1248.16 C749.51,1248.15 749.431,1248.14 749.353,1248.13 C749.26,1248.11 749.163,1248.1 749.054,1248.08 C747.92,1247.92 746.785,1247.77 745.651,1247.61 C742.625,1247.18 739.601,1246.73 736.579,1246.27 C730.907,1245.41 725.243,1244.5 719.586,1243.55 C674.203,1235.88 629.362,1225.33 584.809,1213.85 C496.889,1191.19 409.629,1164.95 319.774,1150.84 C237.135,1137.85 153.343,1135.01 71.282,1153.46 C47.245,1158.86 23.469,1166.13 0.467,1175.32 L0.467,1457.47 C0.467,1476.05 15.529,1491.11 34.108,1491.11 L805.577,1491.11 C824.157,1491.11 839.219,1476.05 839.219,1457.47 z" fill="url(#Gradient_19)"/>
    </g>
  </g>
</svg>
