<?xml version="1.0" encoding="UTF-8"?>
<!DOCTYPE svg PUBLIC "-//W3C//DTD SVG 1.1//EN" "http://www.w3.org/Graphics/SVG/1.1/DTD/svg11.dtd">
<svg version="1.1" xmlns="http://www.w3.org/2000/svg" xmlns:xlink="http://www.w3.org/1999/xlink" x="0" y="0" width="839.971" height="1491.11" viewBox="0, 0, 839.971, 1491.11">
  <defs>
    <linearGradient id="Gradient_1" gradientUnits="userSpaceOnUse" x1="419.624" y1="277.5" x2="419.624" y2="-561.252" gradientTransform="matrix(1, 0, 0, 1, -0.248, 606.11)">
      <stop offset="0" stop-color="#FFFCEB"/>
      <stop offset="0.31" stop-color="#F4D982"/>
      <stop offset="0.656" stop-color="#E1707C"/>
      <stop offset="1" stop-color="#D56299"/>
    </linearGradient>
    <linearGradient id="Gradient_2" gradientUnits="userSpaceOnUse" x1="599.483" y1="277.5" x2="599.483" y2="-561.252" gradientTransform="matrix(1, 0, 0, 1, -0.248, 606.11)">
      <stop offset="0" stop-color="#FFFCEB"/>
      <stop offset="0.31" stop-color="#F6E299"/>
      <stop offset="0.656" stop-color="#E99095"/>
      <stop offset="1" stop-color="#E085AC"/>
    </linearGradient>
    <linearGradient id="Gradient_3" gradientUnits="userSpaceOnUse" x1="599.483" y1="277.5" x2="599.483" y2="-561.252" gradientTransform="matrix(1, 0, 0, 1, -0.248, 606.11)">
      <stop offset="0" stop-color="#FFFCEB"/>
      <stop offset="0.31" stop-color="#F8E9AB"/>
      <stop offset="0.656" stop-color="#EEAAA7"/>
      <stop offset="1" stop-color="#E69FBA"/>
    </linearGradient>
    <linearGradient id="Gradient_4" gradientUnits="userSpaceOnUse" x1="399.365" y1="1149.95" x2="399.365" y2="925.247">
      <stop offset="0" stop-color="#B4788D"/>
      <stop offset="1" stop-color="#A7688E"/>
    </linearGradient>
    <linearGradient id="Gradient_5" gradientUnits="userSpaceOnUse" x1="367.477" y1="1068.06" x2="367.477" y2="784.917">
      <stop offset="0" stop-color="#A16491"/>
      <stop offset="1" stop-color="#905684"/>
    </linearGradient>
    <linearGradient id="Gradient_6" gradientUnits="userSpaceOnUse" x1="496.306" y1="1153.63" x2="496.306" y2="1075.252">
      <stop offset="0" stop-color="#A16491"/>
      <stop offset="1" stop-color="#905684"/>
    </linearGradient>
    <linearGradient id="Gradient_7" gradientUnits="userSpaceOnUse" x1="484.804" y1="984.13" x2="488.518" y2="1011.364">
      <stop offset="0" stop-color="#A16491"/>
      <stop offset="1" stop-color="#905684"/>
    </linearGradient>
    <linearGradient id="Gradient_8" gradientUnits="userSpaceOnUse" x1="556.524" y1="974.26" x2="556.524" y2="1006.329">
      <stop offset="0" stop-color="#A16491"/>
      <stop offset="1" stop-color="#905684"/>
    </linearGradient>
    <linearGradient id="Gradient_9" gradientUnits="userSpaceOnUse" x1="789.564" y1="873.03" x2="789.564" y2="899.428">
      <stop offset="0" stop-color="#A16491"/>
      <stop offset="1" stop-color="#905684"/>
    </linearGradient>
    <linearGradient id="Gradient_10" gradientUnits="userSpaceOnUse" x1="420.005" y1="1000.79" x2="421.466" y2="1043.886">
      <stop offset="0" stop-color="#7D4D85"/>
      <stop offset="1" stop-color="#6E4273"/>
    </linearGradient>
    <linearGradient id="Gradient_11" gradientUnits="userSpaceOnUse" x1="219.373" y1="897.96" x2="219.373" y2="957.122">
      <stop offset="0" stop-color="#7D4D85"/>
      <stop offset="1" stop-color="#6E4273"/>
    </linearGradient>
    <linearGradient id="Gradient_12" gradientUnits="userSpaceOnUse" x1="392.983" y1="985.14" x2="392.983" y2="1014.358">
      <stop offset="0" stop-color="#7D4D85"/>
      <stop offset="1" stop-color="#6E4273"/>
    </linearGradient>
    <linearGradient id="Gradient_13" gradientUnits="userSpaceOnUse" x1="418.624" y1="1282.95" x2="418.624" y2="1150.899">
      <stop offset="0" stop-color="#7D4D85"/>
      <stop offset="1" stop-color="#6E4273"/>
    </linearGradient>
    <linearGradient id="Gradient_14" gradientUnits="userSpaceOnUse" x1="627.27" y1="949.37" x2="623.618" y2="996.848">
      <stop offset="0" stop-color="#7D4D85"/>
      <stop offset="1" stop-color="#6E4273"/>
    </linearGradient>
    <linearGradient id="Gradient_15" gradientUnits="userSpaceOnUse" x1="705.121" y1="903.58" x2="705.121" y2="984.44">
      <stop offset="0" stop-color="#7D4D85"/>
      <stop offset="1" stop-color="#6E4273"/>
    </linearGradient>
    <linearGradient id="Gradient_16" gradientUnits="userSpaceOnUse" x1="757.369" y1="881.32" x2="755.766" y2="955.196">
      <stop offset="0" stop-color="#7D4D85"/>
      <stop offset="1" stop-color="#6E4273"/>
    </linearGradient>
    <linearGradient id="Gradient_17" gradientUnits="userSpaceOnUse" x1="157.865" y1="922.99" x2="161.152" y2="1011.734">
      <stop offset="0" stop-color="#5B426C"/>
      <stop offset="1" stop-color="#4F365C"/>
    </linearGradient>
    <linearGradient id="Gradient_18" gradientUnits="userSpaceOnUse" x1="349.421" y1="960.8" x2="349.421" y2="1059.025">
      <stop offset="0" stop-color="#5B426C"/>
      <stop offset="1" stop-color="#4F365C"/>
    </linearGradient>
    <linearGradient id="Gradient_19" gradientUnits="userSpaceOnUse" x1="418.624" y1="1556.85" x2="418.624" y2="1282.505">
      <stop offset="0" stop-color="#5B426C"/>
      <stop offset="1" stop-color="#4F365C"/>
    </linearGradient>
  </defs>
  <g id="Layer_1" transform="translate(1.219, 0)">
    <path d="M808.047,1491.11 L30.704,1491.11 C13.747,1491.11 -0,1477.37 -0,1460.41 L-0,30.704 C-0,13.747 13.747,-0 30.704,-0 L808.047,-0 C825.005,-0 838.752,13.747 838.752,30.704 L838.752,1460.41 C838.752,1477.37 825.005,1491.11 808.047,1491.11 z" fill="url(#Gradient_1)"/>
    <path d="M599.236,480.111 C509.018,480.111 435.883,553.246 435.883,643.463 C435.883,733.681 509.018,806.82 599.236,806.82 C689.453,806.82 762.588,733.681 762.588,643.463 C762.588,553.246 689.453,480.111 599.236,480.111 z M599.236,786.35 C520.321,786.35 456.346,722.379 456.346,643.463 C456.346,564.549 520.321,500.575 599.236,500.575 C678.151,500.575 742.124,564.549 742.124,643.463 C742.124,722.379 678.151,786.35 599.236,786.35 z" fill="url(#Gradient_2)"/>
    <path d="M599.236,500.575 C520.321,500.575 456.346,564.549 456.346,643.463 C456.346,722.379 520.321,786.35 599.236,786.35 C678.151,786.35 742.124,722.379 742.124,643.463 C742.124,564.549 678.151,500.575 599.236,500.575 z" fill="url(#Gradient_3)"/>
    <path d="M720.617,643.463 C720.617,710.501 666.273,764.85 599.236,764.85 C532.198,764.85 477.854,710.501 477.854,643.463 C477.854,576.426 532.198,522.081 599.236,522.081 C666.273,522.081 720.617,576.426 720.617,643.463" fill="#FFFCEB"/>
    <path d="M300.005,90.424 C295.97,90.424 292.699,87.153 292.699,83.118 C292.699,79.083 295.97,75.812 300.005,75.812 C304.04,75.812 307.311,79.083 307.311,83.118 C307.311,87.153 304.04,90.424 300.005,90.424 z M300.005,71.618 C292.428,71.618 287.692,76.954 287.692,87.042 C287.692,97.129 297.536,107.907 300.005,108.148 C302.473,107.907 312.317,97.129 312.317,87.042 C312.317,76.954 307.581,71.618 300.005,71.618" fill="#FFFEFE"/>
    <g>
      <path d="M228.857,814.97 C228.857,814.97 232.144,776.35 263.369,759.918 C294.593,743.484 297.727,728.462 306.021,733.508 C314.314,738.554 352.113,750.058 357.043,759.918 C361.973,769.78 376.763,816.74 386.624,836.81 C396.484,856.88 429.219,901.25 444.898,899.61 C460.577,897.96 478.655,902.93 483.585,914.42 C488.515,925.9 514.809,971.44 521.383,981.54 C527.956,991.64 557.162,1044.23 555.707,1049.16 C554.251,1054.09 582.582,1123.21 582.582,1123.21 L481.941,1167.48 L266.804,1120.61 C266.804,1120.61 225.312,1025.46 217.908,1015.67 C210.504,1005.88 228.857,814.97 228.857,814.97 z" fill="url(#Gradient_4)"/>
      <path d="M-0.808,707.329 C-0.808,707.329 56.541,654.74 68.093,658.027 C79.645,661.313 118.524,643.236 143.848,639.95 C169.173,636.663 192.576,636.663 222.751,666.244 C252.925,695.825 222.601,697.469 239.929,753.344 C257.257,809.22 326.85,914.31 339.103,969.66 C351.355,1025.02 387.241,1137.81 401.669,1145.25 C416.097,1152.69 736.174,1177.85 736.174,1177.85 L423.317,1315.74 L-1.219,1208.57 L-0.808,707.329 z" fill="url(#Gradient_5)"/>
      <path d="M98.215,682.742 C106.25,699.542 120.858,712.69 122.319,718.534 C123.78,724.377 130.354,690.777 130.354,690.777 C130.354,690.777 159.929,689.316 166.324,690.777 C172.719,692.238 180.024,668.134 189.519,667.403 C199.015,666.673 213.624,692.238 209.971,708.308 C206.32,724.377 226.708,766.74 216.148,770.39 C205.589,774.05 161.032,784.27 170.528,787.93 C180.024,791.58 211.432,777.7 223.85,782.08 C236.256,786.46 281.357,842.62 281.441,842.73 C263.792,809.13 247.226,776.87 239.929,753.344 C222.601,697.468 252.925,695.825 222.751,666.244 C192.576,636.663 169.173,636.663 143.848,639.949 C118.524,643.236 79.645,661.313 68.093,658.027 C63.333,656.672 50.795,664.808 37.698,674.841 L37.695,674.846 C37.695,674.846 90.18,665.942 98.215,682.742" fill="#A16491"/>
      <path d="M291.718,763.09 C296.529,755.969 304.746,742.821 309.676,748.847 C314.607,754.873 333.78,748.282 332.137,766.09 C330.494,783.91 326.659,793.22 338.163,780.07 C349.668,766.93 356.789,785.55 361.72,799.79 C366.651,814.04 381.989,857.32 358.433,863.89 C334.876,870.46 348.606,868.14 376.802,873.68 C404.998,879.23 417.606,901.9 423.713,897.31 C429.819,892.71 440.059,911 437.868,917.03 C436.827,919.89 443.698,909.87 452.373,899.32 C449.863,899.25 447.351,899.35 444.898,899.61 C429.219,901.25 396.484,856.88 386.624,836.81 C376.763,816.74 361.973,769.78 357.043,759.918 C352.113,750.057 314.314,738.554 306.021,733.508 C297.728,728.462 294.593,743.484 263.369,759.918 C262.726,760.26 262.113,760.62 261.493,760.97 C261.668,764.26 263.25,766.59 268.041,765.28 C280.093,762 286.908,770.21 291.718,763.09" fill="#B5788D"/>
      <path d="M192.029,1128.34 C191.993,1128.33 191.956,1128.32 191.917,1128.31 C192.098,1128.29 192.225,1128.29 192.261,1128.34 C192.252,1128.33 192.161,1128.33 192.029,1128.34 z M838,936.31 C833.224,935.98 828.421,935.86 823.626,935.85 C807.737,935.78 791.807,935.84 775.957,937.07 C743.044,939.64 711.338,947.63 684.016,966.82 C672.009,975.25 660.856,984.82 649.929,994.59 C644.778,999.2 639.66,1003.84 634.458,1008.39 C631.864,1010.66 629.252,1012.91 626.604,1015.12 C625.284,1016.22 623.956,1017.31 622.618,1018.39 C621.833,1019.02 621.042,1019.65 620.249,1020.27 C620.031,1020.44 619.759,1020.64 619.404,1020.91 C614.356,1024.63 609.224,1028.22 603.83,1031.42 C600.837,1033.2 597.781,1034.87 594.661,1036.41 C590.053,1038.7 589.892,1038.78 585.083,1040.57 C570.384,1046.06 555.006,1049.42 539.652,1052.48 C524.799,1055.45 509.863,1058.12 495.247,1062.15 C478.891,1066.65 463.459,1073.52 447.906,1080.19 C437.372,1084.71 419.999,1091.08 408.129,1092.85 C390.823,1095.44 372.834,1093.77 355.511,1092.27 C320.623,1089.24 285.943,1087.92 250.968,1090.54 C235.061,1091.73 219.204,1093.62 203.436,1096.04 C197.477,1093.9 190.795,1093.32 184.129,1094.37 C166.75,1097.13 155.982,1112.66 154.746,1129.46 C152.186,1164.29 186.9,1182.96 209.033,1203.14 C233.218,1225.19 255.959,1248.39 282.907,1267.2 C308.362,1284.96 336.222,1298.88 365.138,1310.06 C425.37,1333.35 490.478,1342.37 554.79,1343.12 C589.887,1343.54 624.971,1341.49 659.899,1338.16 C694.971,1334.83 730.326,1331.07 765.033,1324.94 C790.122,1320.52 815.576,1313.48 838,1300.99 L838,936.31" fill="url(#Gradient_6)"/>
      <path d="M535.032,1083.02 C529.322,1083.5 519.77,1069.92 519.77,1069.92 C524.386,1076.11 529.296,1074.24 529.296,1074.24 C527.164,1074.18 524.278,1072.14 522.367,1070.58 C527.195,1073.87 533.138,1072.16 533.138,1072.16 C527.695,1071.92 522.972,1065.2 522.972,1065.2 C527.535,1068.96 534.979,1068.48 534.979,1068.48 C530.547,1067.67 522.629,1063.64 517.366,1060.75 C523.889,1062.48 533.538,1061.84 533.538,1061.84 C517.009,1058.91 510.949,1050.31 510.949,1050.31 C513.888,1053.34 523.66,1054.84 525.154,1055.06 C522.783,1054.69 518.436,1052.66 515.239,1051.04 C519.372,1052.37 524.493,1052.52 524.493,1052.52 C519.688,1051.6 514.808,1046.25 512.192,1042.94 C517.33,1048.64 523.746,1047.24 523.746,1047.24 C518.601,1046.69 513.469,1039.09 510.738,1034.33 C513.178,1037.79 515.528,1037.74 515.528,1037.74 C513.366,1037.34 511.125,1031.02 511.125,1031.02 C515.848,1038.86 522.892,1038.3 522.892,1038.3 C516.968,1037.82 511.205,1029.1 511.205,1029.1 C514.887,1034.22 521.371,1031.9 521.371,1031.9 C514.087,1031.42 509.524,1019.97 509.524,1019.97 C511.754,1022.88 516.492,1022.93 517.916,1022.88 C515.862,1022.92 513.824,1021.87 512.32,1020.83 C515.706,1022.46 520.331,1021.57 520.331,1021.57 C516.568,1021.41 510.832,1012.23 510.832,1012.23 C514.194,1015.06 518.409,1013.25 518.409,1013.25 C514.194,1013.2 510.458,1007.43 510.458,1007.43 C513.286,1011.17 518.409,1010.05 518.409,1010.05 C512.753,1010.15 507.469,1001.08 507.469,1001.08 C509.657,1004.76 512.966,1003.27 512.966,1003.27 C509.124,1003.22 507.309,999 507.309,999 C510.191,1002.74 515.741,1000.65 515.741,1000.65 C506.989,998.89 505.015,992.38 505.015,992.38 C508.003,996.6 513.02,994.84 513.02,994.84 C507.79,995.53 505.015,991.32 505.015,991.32 C508.484,996.12 515.955,993.34 515.955,993.34 C508.857,993.77 504.695,986.14 504.695,986.14 C505.975,987.9 508.377,987.21 508.377,987.21 C506.402,987.58 503.2,982.88 503.2,982.88 C506.082,986.41 511.419,983.95 511.419,983.95 C506.616,985.55 497.325,971.39 497.325,971.39 C497.325,971.39 488.034,985.55 483.232,983.95 C483.232,983.95 488.568,986.41 491.45,982.88 C491.45,982.88 488.248,987.58 486.273,987.21 C486.273,987.21 488.675,987.9 489.955,986.14 C489.955,986.14 485.793,993.77 478.696,993.34 C478.696,993.34 486.167,996.12 489.635,991.32 C489.635,991.32 486.861,995.53 481.631,994.84 C481.631,994.84 486.647,996.6 489.635,992.38 C489.635,992.38 487.661,998.89 478.909,1000.65 C478.909,1000.65 484.459,1002.74 487.341,999 C487.341,999 485.526,1003.22 481.684,1003.27 C481.684,1003.27 484.992,1004.76 487.18,1001.08 C487.18,1001.08 481.897,1010.15 476.241,1010.05 C476.241,1010.05 481.364,1011.17 484.192,1007.43 C484.192,1007.43 480.457,1013.2 476.241,1013.25 C476.241,1013.25 480.457,1015.06 483.819,1012.23 C483.819,1012.23 478.082,1021.41 474.32,1021.57 C474.32,1021.57 478.944,1022.46 482.331,1020.83 C480.826,1021.87 478.788,1022.92 476.734,1022.88 C478.158,1022.93 482.896,1022.88 485.126,1019.97 C485.126,1019.97 480.563,1031.42 473.279,1031.9 C473.279,1031.9 479.763,1034.22 483.445,1029.1 C483.445,1029.1 477.681,1037.82 471.758,1038.3 C471.758,1038.3 478.802,1038.86 483.525,1031.02 C483.525,1031.02 481.283,1037.34 479.122,1037.74 C479.122,1037.74 481.472,1037.79 483.912,1034.33 C481.181,1039.09 476.049,1046.69 470.904,1047.24 C470.904,1047.24 477.32,1048.64 482.458,1042.94 C479.842,1046.25 474.963,1051.6 470.157,1052.52 C470.157,1052.52 475.279,1052.37 479.411,1051.04 C476.214,1052.66 471.867,1054.69 469.496,1055.06 C470.99,1054.84 480.761,1053.34 483.701,1050.31 C483.701,1050.31 477.641,1058.91 461.112,1061.84 C461.112,1061.84 470.761,1062.48 477.284,1060.75 C472.021,1063.64 464.103,1067.67 459.671,1068.48 C459.671,1068.48 467.115,1068.96 471.678,1065.2 C471.678,1065.2 466.955,1071.92 461.512,1072.16 C461.512,1072.16 467.455,1073.87 472.282,1070.58 C470.373,1072.14 467.486,1074.18 465.354,1074.24 C465.354,1074.24 470.264,1076.11 474.88,1069.92 C474.88,1069.92 465.328,1083.5 459.617,1083.02 C459.617,1083.02 467.532,1083.84 473.626,1080.21 C471.947,1081.99 470.093,1083.81 468.355,1085.22 L526.296,1085.22 C524.557,1083.81 522.703,1081.99 521.025,1080.21 C527.118,1083.84 535.032,1083.02 535.032,1083.02 z" fill="url(#Gradient_7)"/>
      <path d="M537.574,1073.94 C537.574,1073.94 537.531,1074.01 537.447,1074.15 L537.433,1074.15 C537.483,1074.08 537.53,1074.01 537.574,1073.94 z M575.615,1074.15 L575.6,1074.15 C575.516,1074.01 575.473,1073.94 575.473,1073.94 C575.517,1074.01 575.565,1074.08 575.615,1074.15 z M533.062,1068.8 C528.667,1071.51 519.984,1076.47 515.234,1076.38 C515.234,1076.38 516.634,1076.59 518.739,1076.79 L594.308,1076.79 C596.413,1076.59 597.813,1076.38 597.813,1076.38 C593.064,1076.47 584.381,1071.51 579.986,1068.8 C586.146,1071.03 598.484,1069.24 598.484,1069.24 C595.39,1068.54 591.9,1066.8 588.467,1064.63 C589.891,1064.58 590.824,1064.21 590.824,1064.21 C588.919,1063.98 586.572,1063 584.663,1062.06 C582.421,1060.45 580.282,1058.76 578.382,1057.17 C581.504,1058.19 585.342,1057.71 585.342,1057.71 C583.333,1057.35 581.873,1056.46 580.854,1055.54 C584.343,1055.43 587.109,1054.06 587.109,1054.06 C582.149,1051.82 579.134,1048.27 579.134,1048.27 C582.795,1051.4 592.731,1047.67 592.731,1047.67 C583.326,1046.82 573.402,1037.98 569.52,1034.16 C573.075,1036.91 577.304,1035.5 577.304,1035.5 C570.898,1035.86 567.368,1026.94 567.368,1026.94 C572.859,1035.02 587.894,1030.92 587.894,1030.92 C575.735,1031.4 566.845,1013.21 566.845,1013.21 C572.859,1020.32 583.448,1016.34 583.448,1016.34 C573.251,1016.1 570.898,1007.42 570.898,1007.42 C574.297,1008.99 575.473,1007.91 575.473,1007.91 C571.551,1008.03 568.675,1003.57 568.675,1003.57 C574.82,1008.75 582.664,1003.93 582.664,1003.93 C576.519,1005.25 569.375,993.08 569.375,993.08 C572.297,995.25 577.696,993.08 577.696,993.08 C575.226,993.69 570.477,991.1 567.297,989.09 C573.812,992.12 582.664,989.95 582.664,989.95 C572.074,988.5 566.191,980.79 566.191,980.79 C569.983,982.36 572.597,981.52 572.597,981.52 C564.884,981.4 562.138,974.65 562.138,974.65 C563.184,976.09 568.414,976.21 568.414,976.21 C566.845,976.21 563.848,973.57 563.848,973.57 C567.966,975.47 574.731,973.84 574.731,973.84 C561.2,973.84 558.847,961.1 560.702,963.27 C562.556,965.44 565.319,963.81 565.319,963.81 C560.31,961.66 558.013,954.87 556.963,949.41 L556.963,941.85 C556.963,941.85 556.916,943.89 556.524,946.74 C556.132,943.89 556.085,941.85 556.085,941.85 L556.085,949.41 C555.034,954.87 552.738,961.66 547.729,963.81 C547.729,963.81 550.491,965.44 552.345,963.27 C554.2,961.1 551.847,973.84 538.316,973.84 C538.316,973.84 545.081,975.47 549.199,973.57 C549.199,973.57 546.202,976.21 544.634,976.21 C544.634,976.21 549.864,976.09 550.909,974.65 C550.909,974.65 548.164,981.4 540.45,981.52 C540.45,981.52 543.065,982.36 546.856,980.79 C546.856,980.79 540.973,988.5 530.383,989.95 C530.383,989.95 539.236,992.12 545.75,989.09 C542.571,991.1 537.821,993.69 535.351,993.08 C535.351,993.08 540.751,995.25 543.673,993.08 C543.673,993.08 536.528,1005.25 530.383,1003.93 C530.383,1003.93 538.228,1008.75 544.372,1003.57 C544.372,1003.57 541.496,1008.03 537.574,1007.91 C537.574,1007.91 538.751,1008.99 542.15,1007.42 C542.15,1007.42 539.797,1016.1 529.599,1016.34 C529.599,1016.34 540.189,1020.32 546.202,1013.21 C546.202,1013.21 537.312,1031.4 525.154,1030.92 C525.154,1030.92 540.189,1035.02 545.679,1026.94 C545.679,1026.94 542.15,1035.86 535.743,1035.5 C535.743,1035.5 539.972,1036.91 543.527,1034.16 C539.646,1037.98 529.721,1046.82 520.317,1047.67 C520.317,1047.67 530.253,1051.4 533.913,1048.27 C533.913,1048.27 530.899,1051.82 525.938,1054.06 C525.938,1054.06 528.705,1055.43 532.193,1055.54 C531.175,1056.46 529.715,1057.35 527.706,1057.71 C527.706,1057.71 531.544,1058.19 534.665,1057.17 C532.765,1058.76 530.627,1060.45 528.384,1062.06 C526.476,1063 524.129,1063.98 522.223,1064.21 C522.223,1064.21 523.156,1064.58 524.581,1064.63 C521.147,1066.8 517.658,1068.54 514.564,1069.24 C514.564,1069.24 526.901,1071.03 533.062,1068.8" fill="url(#Gradient_8)"/>
      <path d="M773.207,956.74 C773.207,956.74 773.171,956.81 773.098,956.93 L773.085,956.93 C773.128,956.87 773.169,956.81 773.207,956.74 z M806.043,956.93 L806.03,956.93 C805.958,956.81 805.922,956.74 805.922,956.74 C805.959,956.81 806,956.87 806.043,956.93 z M769.312,952.31 C765.519,954.65 758.024,958.93 753.924,958.85 C753.924,958.85 755.132,959.03 756.949,959.21 L822.179,959.21 C823.996,959.03 825.205,958.85 825.205,958.85 C821.105,958.93 813.61,954.65 809.817,952.31 C815.134,954.23 825.783,952.69 825.783,952.69 C823.113,952.09 820.101,950.58 817.137,948.71 C818.366,948.67 819.172,948.35 819.172,948.35 C817.527,948.15 815.501,947.3 813.854,946.49 C811.918,945.1 810.072,943.64 808.432,942.27 C811.127,943.15 814.44,942.73 814.44,942.73 C812.705,942.42 811.445,941.65 810.566,940.87 C813.577,940.76 815.965,939.58 815.965,939.58 C811.683,937.65 809.081,934.59 809.081,934.59 C812.241,937.29 820.818,934.07 820.818,934.07 C812.699,933.34 804.133,925.71 800.783,922.41 C803.851,924.78 807.501,923.56 807.501,923.56 C801.972,923.88 798.925,916.18 798.925,916.18 C803.664,923.15 816.642,919.61 816.642,919.61 C806.147,920.03 798.473,904.32 798.473,904.32 C803.664,910.46 812.805,907.03 812.805,907.03 C804.003,906.82 801.972,899.33 801.972,899.33 C804.906,900.68 805.922,899.75 805.922,899.75 C802.536,899.85 800.053,896 800.053,896 C805.357,900.47 812.128,896.31 812.128,896.31 C806.824,897.46 800.657,886.95 800.657,886.95 C803.179,888.82 807.84,886.95 807.84,886.95 C805.708,887.48 801.608,885.24 798.864,883.51 C804.487,886.12 812.128,884.25 812.128,884.25 C802.988,883 797.909,876.34 797.909,876.34 C801.182,877.69 803.439,876.97 803.439,876.97 C796.78,876.86 794.411,871.04 794.411,871.04 C795.314,872.29 799.827,872.39 799.827,872.39 C798.473,872.39 795.886,870.11 795.886,870.11 C799.441,871.75 805.281,870.34 805.281,870.34 C793.601,870.34 791.57,859.34 793.171,861.21 C794.771,863.09 797.156,861.68 797.156,861.68 C792.833,859.82 790.85,853.97 789.943,849.25 L789.943,842.73 C789.943,842.73 789.903,844.49 789.564,846.95 C789.226,844.49 789.186,842.73 789.186,842.73 L789.186,849.25 C788.279,853.97 786.296,859.82 781.972,861.68 C781.972,861.68 784.357,863.09 785.958,861.21 C787.558,859.34 785.527,870.34 773.848,870.34 C773.848,870.34 779.688,871.75 783.242,870.11 C783.242,870.11 780.655,872.39 779.301,872.39 C779.301,872.39 783.815,872.29 784.718,871.04 C784.718,871.04 782.348,876.86 775.69,876.97 C775.69,876.97 777.947,877.69 781.219,876.34 C781.219,876.34 776.141,883 767,884.25 C767,884.25 774.641,886.12 780.265,883.51 C777.52,885.24 773.42,887.48 771.289,886.95 C771.289,886.95 775.949,888.82 778.471,886.95 C778.471,886.95 772.304,897.46 767,896.31 C767,896.31 773.771,900.47 779.075,896 C779.075,896 776.593,899.85 773.207,899.75 C773.207,899.75 774.223,900.68 777.157,899.33 C777.157,899.33 775.126,906.82 766.323,907.03 C766.323,907.03 775.464,910.46 780.655,904.32 C780.655,904.32 772.981,920.03 762.486,919.61 C762.486,919.61 775.464,923.15 780.204,916.18 C780.204,916.18 777.157,923.88 771.627,923.56 C771.627,923.56 775.278,924.78 778.346,922.41 C774.996,925.71 766.429,933.34 758.311,934.07 C758.311,934.07 766.887,937.29 770.047,934.59 C770.047,934.59 767.446,937.65 763.163,939.58 C763.163,939.58 765.551,940.76 768.563,940.87 C767.683,941.65 766.424,942.42 764.689,942.73 C764.689,942.73 768.002,943.15 770.697,942.27 C769.056,943.64 767.211,945.1 765.275,946.49 C763.627,947.3 761.601,948.15 759.956,948.35 C759.956,948.35 760.762,948.67 761.991,948.71 C759.028,950.58 756.016,952.09 753.345,952.69 C753.345,952.69 763.995,954.23 769.312,952.31" fill="url(#Gradient_9)"/>
      <path d="M402.527,1115.41 C402.527,1115.41 402.48,1115.49 402.385,1115.65 L402.369,1115.65 C402.425,1115.57 402.478,1115.49 402.527,1115.41 z M445.056,1115.65 L445.039,1115.65 C444.946,1115.49 444.898,1115.41 444.898,1115.41 C444.947,1115.49 445,1115.57 445.056,1115.65 z M397.482,1109.66 C392.569,1112.7 382.861,1118.24 377.551,1118.14 C377.551,1118.14 379.116,1118.38 381.469,1118.6 L465.955,1118.6 C468.308,1118.38 469.874,1118.14 469.874,1118.14 C464.564,1118.24 454.856,1112.7 449.943,1109.66 C456.83,1112.16 470.623,1110.16 470.623,1110.16 C467.164,1109.38 463.263,1107.43 459.425,1105.01 C461.017,1104.95 462.06,1104.54 462.06,1104.54 C459.929,1104.28 457.306,1103.18 455.172,1102.13 C452.665,1100.33 450.274,1098.44 448.15,1096.67 C451.64,1097.8 455.931,1097.26 455.931,1097.26 C453.684,1096.86 452.052,1095.87 450.914,1094.85 C454.813,1094.71 457.906,1093.18 457.906,1093.18 C452.361,1090.68 448.991,1086.72 448.991,1086.72 C453.083,1090.22 464.192,1086.04 464.192,1086.04 C453.677,1085.09 442.582,1075.21 438.242,1070.94 C442.217,1074.02 446.945,1072.44 446.945,1072.44 C439.782,1072.84 435.836,1062.87 435.836,1062.87 C441.975,1071.9 458.783,1067.32 458.783,1067.32 C445.191,1067.86 435.251,1047.51 435.251,1047.51 C441.975,1055.46 453.814,1051.02 453.814,1051.02 C442.413,1050.75 439.782,1041.05 439.782,1041.05 C443.583,1042.8 444.898,1041.59 444.898,1041.59 C440.513,1041.72 437.298,1036.74 437.298,1036.74 C444.167,1042.53 452.937,1037.14 452.937,1037.14 C446.068,1038.62 438.079,1025.02 438.079,1025.02 C441.346,1027.44 447.383,1025.02 447.383,1025.02 C444.622,1025.7 439.312,1022.8 435.757,1020.55 C443.04,1023.94 452.937,1021.51 452.937,1021.51 C441.098,1019.9 434.521,1011.28 434.521,1011.28 C438.759,1013.03 441.682,1012.08 441.682,1012.08 C433.059,1011.95 429.989,1004.41 429.989,1004.41 C431.159,1006.02 437.005,1006.16 437.005,1006.16 C435.251,1006.16 431.901,1003.2 431.901,1003.2 C436.505,1005.32 444.068,1003.5 444.068,1003.5 C428.941,1003.5 426.31,989.26 428.384,991.68 C430.457,994.11 433.545,992.29 433.545,992.29 C427.946,989.88 425.377,982.3 424.203,976.19 L424.203,967.74 C424.203,967.74 424.151,970.02 423.713,973.2 C423.274,970.02 423.222,967.74 423.222,967.74 L423.222,976.19 C422.048,982.3 419.48,989.88 413.88,992.29 C413.88,992.29 416.968,994.11 419.041,991.68 C421.114,989.26 418.484,1003.5 403.357,1003.5 C403.357,1003.5 410.92,1005.32 415.524,1003.2 C415.524,1003.2 412.174,1006.16 410.42,1006.16 C410.42,1006.16 416.266,1006.02 417.435,1004.41 C417.435,1004.41 414.366,1011.95 405.742,1012.08 C405.742,1012.08 408.666,1013.03 412.905,1011.28 C412.905,1011.28 406.327,1019.9 394.488,1021.51 C394.488,1021.51 404.384,1023.94 411.668,1020.55 C408.113,1022.8 402.803,1025.7 400.042,1025.02 C400.042,1025.02 406.079,1027.44 409.345,1025.02 C409.345,1025.02 401.358,1038.62 394.488,1037.14 C394.488,1037.14 403.258,1042.53 410.127,1036.74 C410.127,1036.74 406.912,1041.72 402.527,1041.59 C402.527,1041.59 403.843,1042.8 407.642,1041.05 C407.642,1041.05 405.011,1050.75 393.611,1051.02 C393.611,1051.02 405.45,1055.46 412.174,1047.51 C412.174,1047.51 402.235,1067.86 388.641,1067.32 C388.641,1067.32 405.45,1071.9 411.589,1062.87 C411.589,1062.87 407.642,1072.84 400.481,1072.44 C400.481,1072.44 405.208,1074.02 409.182,1070.94 C404.843,1075.21 393.748,1085.09 383.233,1086.04 C383.233,1086.04 394.342,1090.22 398.434,1086.72 C398.434,1086.72 395.064,1090.68 389.518,1093.18 C389.518,1093.18 392.612,1094.71 396.511,1094.85 C395.373,1095.87 393.74,1096.86 391.494,1097.26 C391.494,1097.26 395.785,1097.8 399.275,1096.67 C397.151,1098.44 394.76,1100.33 392.253,1102.13 C390.119,1103.18 387.495,1104.28 385.365,1104.54 C385.365,1104.54 386.408,1104.95 388.001,1105.01 C384.162,1107.43 380.261,1109.38 376.802,1110.16 C376.802,1110.16 390.595,1112.16 397.482,1109.66" fill="url(#Gradient_10)"/>
      <path d="M291.718,1080.39 C280.763,1081.31 262.436,1055.26 262.436,1055.26 C271.292,1067.13 280.712,1063.55 280.712,1063.55 C276.622,1063.42 271.084,1059.51 267.419,1056.51 C276.681,1062.83 288.084,1059.56 288.084,1059.56 C277.64,1059.1 268.579,1046.2 268.579,1046.2 C277.333,1053.41 291.616,1052.49 291.616,1052.49 C283.112,1050.95 267.921,1043.2 257.824,1037.66 C270.338,1040.98 288.851,1039.74 288.851,1039.74 C257.137,1034.14 245.511,1017.63 245.511,1017.63 C251.151,1023.44 269.898,1026.33 272.765,1026.74 C268.216,1026.03 259.877,1022.14 253.742,1019.03 C261.671,1021.58 271.497,1021.88 271.497,1021.88 C262.277,1020.1 252.916,1009.84 247.896,1003.49 C257.755,1014.42 270.064,1011.74 270.064,1011.74 C260.193,1010.69 250.346,996.1 245.106,986.97 C249.788,993.61 254.296,993.52 254.296,993.52 C250.15,992.75 245.849,980.62 245.849,980.62 C254.91,995.67 268.426,994.59 268.426,994.59 C257.061,993.67 246.003,976.93 246.003,976.93 C253.068,986.76 265.508,982.31 265.508,982.31 C251.532,981.38 242.778,959.42 242.778,959.42 C247.056,965 256.147,965.1 258.879,965 C254.938,965.08 251.027,963.07 248.141,961.08 C254.638,964.19 263.511,962.49 263.511,962.49 C256.293,962.19 245.286,944.58 245.286,944.58 C251.737,950 259.825,946.52 259.825,946.52 C251.737,946.42 244.57,935.36 244.57,935.36 C249.996,942.53 259.825,940.38 259.825,940.38 C248.972,940.58 238.836,923.18 238.836,923.18 C243.034,930.24 249.382,927.38 249.382,927.38 C242.01,927.27 238.529,919.19 238.529,919.19 C244.057,926.35 254.706,922.36 254.706,922.36 C237.915,918.98 234.126,906.49 234.126,906.49 C239.86,914.58 249.484,911.2 249.484,911.2 C239.45,912.53 234.126,904.44 234.126,904.44 C240.781,913.66 255.115,908.33 255.115,908.33 C241.498,909.15 233.512,894.51 233.512,894.51 C235.969,897.89 240.576,896.56 240.576,896.56 C236.788,897.27 230.645,888.26 230.645,888.26 C236.174,895.02 246.413,890.31 246.413,890.31 C237.197,893.38 219.373,866.21 219.373,866.21 C219.373,866.21 201.548,893.38 192.333,890.31 C192.333,890.31 202.572,895.02 208.1,888.26 C208.1,888.26 201.957,897.27 198.169,896.56 C198.169,896.56 202.776,897.89 205.234,894.51 C205.234,894.51 197.247,909.15 183.63,908.33 C183.63,908.33 197.964,913.66 204.619,904.44 C204.619,904.44 199.295,912.53 189.261,911.2 C189.261,911.2 198.885,914.58 204.619,906.49 C204.619,906.49 200.831,918.98 184.04,922.36 C184.04,922.36 194.688,926.35 200.217,919.19 C200.217,919.19 196.736,927.27 189.364,927.38 C189.364,927.38 195.712,930.24 199.909,923.18 C199.909,923.18 189.773,940.58 178.92,940.38 C178.92,940.38 188.749,942.53 194.176,935.36 C194.176,935.36 187.009,946.42 178.92,946.52 C178.92,946.52 187.009,950 193.459,944.58 C193.459,944.58 182.453,962.19 175.234,962.49 C175.234,962.49 184.107,964.19 190.605,961.08 C187.718,963.07 183.808,965.08 179.866,965 C182.598,965.1 191.69,965 195.968,959.42 C195.968,959.42 187.214,981.38 173.238,982.31 C173.238,982.31 185.678,986.76 192.742,976.93 C192.742,976.93 181.685,993.67 170.32,994.59 C170.32,994.59 183.835,995.67 192.896,980.62 C192.896,980.62 188.596,992.75 184.449,993.52 C184.449,993.52 188.957,993.61 193.64,986.97 C188.399,996.1 178.553,1010.69 168.682,1011.74 C168.682,1011.74 180.991,1014.42 190.849,1003.49 C185.829,1009.84 176.468,1020.1 167.248,1021.88 C167.248,1021.88 177.074,1021.58 185.003,1019.03 C178.868,1022.14 170.529,1026.03 165.98,1026.74 C168.847,1026.33 187.594,1023.44 193.234,1017.63 C193.234,1017.63 181.608,1034.14 149.894,1039.74 C149.894,1039.74 168.407,1040.98 180.922,1037.66 C170.824,1043.2 155.634,1050.95 147.13,1052.49 C147.13,1052.49 161.412,1053.41 170.166,1046.2 C170.166,1046.2 161.105,1059.1 150.662,1059.56 C150.662,1059.56 162.064,1062.83 171.326,1056.51 C167.662,1059.51 162.123,1063.42 158.033,1063.55 C158.033,1063.55 167.453,1067.13 176.309,1055.26 C176.309,1055.26 157.982,1081.31 147.027,1080.39 C147.027,1080.39 162.213,1081.96 173.903,1075 C170.682,1078.4 167.126,1081.9 163.79,1084.61 L274.956,1084.61 C271.62,1081.9 268.063,1078.4 264.843,1075 C276.533,1081.96 291.718,1080.39 291.718,1080.39 z" fill="url(#Gradient_11)"/>
      <path d="M363.934,1132.16 C363.934,1132.16 363.869,1132.28 363.74,1132.49 L363.718,1132.49 C363.794,1132.38 363.867,1132.27 363.934,1132.16 z M422.248,1132.49 L422.225,1132.49 C422.096,1132.28 422.031,1132.16 422.031,1132.16 C422.098,1132.27 422.172,1132.38 422.248,1132.49 z M357.017,1124.28 C350.28,1128.45 336.969,1136.04 329.689,1135.91 C329.689,1135.91 331.835,1136.23 335.061,1136.53 L450.904,1136.53 C454.13,1136.23 456.276,1135.91 456.276,1135.91 C448.996,1136.04 435.685,1128.45 428.948,1124.28 C438.391,1127.7 457.304,1124.96 457.304,1124.96 C452.561,1123.89 447.212,1121.21 441.949,1117.89 C444.132,1117.82 445.563,1117.25 445.563,1117.25 C442.641,1116.89 439.044,1115.4 436.118,1113.95 C432.681,1111.49 429.402,1108.89 426.49,1106.46 C431.276,1108.02 437.158,1107.28 437.158,1107.28 C434.078,1106.73 431.841,1105.36 430.28,1103.96 C435.627,1103.78 439.868,1101.68 439.868,1101.68 C432.263,1098.25 427.643,1092.82 427.643,1092.82 C433.254,1097.62 448.486,1091.89 448.486,1091.89 C434.068,1090.59 418.855,1077.04 412.905,1071.19 C418.355,1075.4 424.837,1073.24 424.837,1073.24 C415.017,1073.79 409.606,1060.12 409.606,1060.12 C418.023,1072.5 441.071,1066.22 441.071,1066.22 C422.432,1066.96 408.804,1039.06 408.804,1039.06 C418.023,1049.96 434.257,1043.87 434.257,1043.87 C418.624,1043.5 415.017,1030.2 415.017,1030.2 C420.228,1032.6 422.031,1030.94 422.031,1030.94 C416.019,1031.12 411.61,1024.29 411.61,1024.29 C421.029,1032.23 433.054,1024.84 433.054,1024.84 C423.634,1026.87 412.682,1008.22 412.682,1008.22 C417.161,1011.54 425.438,1008.22 425.438,1008.22 C421.653,1009.15 414.372,1005.17 409.497,1002.1 C419.484,1006.74 433.054,1003.41 433.054,1003.41 C416.821,1001.2 407.802,989.38 407.802,989.38 C413.614,991.78 417.622,990.49 417.622,990.49 C405.798,990.3 401.589,979.96 401.589,979.96 C403.193,982.17 411.209,982.36 411.209,982.36 C408.804,982.36 404.21,978.3 404.21,978.3 C410.523,981.21 420.893,978.72 420.893,978.72 C400.152,978.72 396.545,959.19 399.387,962.51 C402.23,965.84 406.465,963.34 406.465,963.34 C398.786,960.04 395.265,949.64 393.655,941.27 L393.655,929.68 C393.655,929.68 393.584,932.8 392.983,937.17 C392.381,932.8 392.31,929.68 392.31,929.68 L392.31,941.27 C390.699,949.64 387.178,960.04 379.501,963.34 C379.501,963.34 383.735,965.84 386.578,962.51 C389.421,959.19 385.813,978.72 365.072,978.72 C365.072,978.72 375.443,981.21 381.755,978.3 C381.755,978.3 377.161,982.36 374.756,982.36 C374.756,982.36 382.773,982.17 384.376,979.96 C384.376,979.96 380.167,990.3 368.343,990.49 C368.343,990.49 372.351,991.78 378.163,989.38 C378.163,989.38 369.144,1001.2 352.911,1003.41 C352.911,1003.41 366.481,1006.74 376.468,1002.1 C371.593,1005.17 364.313,1009.15 360.527,1008.22 C360.527,1008.22 368.804,1011.54 373.283,1008.22 C373.283,1008.22 362.33,1026.87 352.911,1024.84 C352.911,1024.84 364.936,1032.23 374.355,1024.29 C374.355,1024.29 369.946,1031.12 363.934,1030.94 C363.934,1030.94 365.738,1032.6 370.948,1030.2 C370.948,1030.2 367.341,1043.5 351.709,1043.87 C351.709,1043.87 367.942,1049.96 377.161,1039.06 C377.161,1039.06 363.533,1066.96 344.895,1066.22 C344.895,1066.22 367.942,1072.5 376.36,1060.12 C376.36,1060.12 370.948,1073.79 361.128,1073.24 C361.128,1073.24 367.611,1075.4 373.06,1071.19 C367.11,1077.04 351.897,1090.59 337.479,1091.89 C337.479,1091.89 352.711,1097.62 358.322,1092.82 C358.322,1092.82 353.701,1098.25 346.097,1101.68 C346.097,1101.68 350.339,1103.78 355.685,1103.96 C354.124,1105.36 351.886,1106.73 348.806,1107.28 C348.806,1107.28 354.69,1108.02 359.475,1106.46 C356.563,1108.89 353.284,1111.49 349.846,1113.95 C346.921,1115.4 343.323,1116.89 340.402,1117.25 C340.402,1117.25 341.833,1117.82 344.016,1117.89 C338.753,1121.21 333.404,1123.89 328.661,1124.96 C328.661,1124.96 347.573,1127.7 357.017,1124.28" fill="url(#Gradient_12)"/>
      <path d="M838,1001.96 C830.224,1001.24 822.476,1001.11 814.77,1001.47 C814.308,1001.34 813.847,1001.21 813.384,1001.09 C809.051,999.95 804.311,1000.64 800.344,1002.72 C764.397,1007.23 729.611,1021.76 697.65,1038.2 C676.635,1049.01 656.184,1060.88 635.192,1071.73 C613.515,1082.94 594.71,1091.51 571.19,1098.04 C559.616,1101.25 547.824,1103.7 535.933,1105.4 C527.404,1106.61 512.773,1107.69 501.798,1107.96 C489.739,1108.25 477.667,1107.93 465.632,1107.12 C459.91,1106.74 454.195,1106.25 448.491,1105.65 C442.027,1104.98 437.009,1104.37 431.96,1103.64 C382.684,1096.52 334.726,1083.04 286.824,1069.82 C236.787,1056 186.468,1042.94 134.766,1037.16 C109.614,1034.35 84.199,1033.49 58.955,1035.56 C39.014,1037.2 17.888,1039.53 -0.752,1047.57 L-0.752,1457.47 C-0.752,1476.05 14.31,1491.11 32.889,1491.11 L804.358,1491.11 C822.938,1491.11 838,1476.05 838,1457.47 L838,1001.96 z" fill="url(#Gradient_13)"/>
      <path d="M686.735,1130.09 C675.78,1131.02 657.453,1104.96 657.453,1104.96 C666.309,1116.83 675.729,1113.25 675.729,1113.25 C671.639,1113.13 666.1,1109.21 662.436,1106.21 C671.698,1112.54 683.1,1109.26 683.1,1109.26 C672.657,1108.8 663.596,1095.9 663.596,1095.9 C672.35,1103.12 686.633,1102.19 686.633,1102.19 C678.129,1100.65 662.938,1092.9 652.841,1087.37 C665.355,1090.68 683.868,1089.45 683.868,1089.45 C652.154,1083.84 640.529,1067.33 640.529,1067.33 C646.168,1073.14 664.915,1076.03 667.782,1076.44 C663.233,1075.73 654.894,1071.84 648.759,1068.73 C656.688,1071.28 666.514,1071.58 666.514,1071.58 C657.294,1069.8 647.933,1059.54 642.913,1053.19 C652.771,1064.12 665.08,1061.44 665.08,1061.44 C655.209,1060.39 645.363,1045.8 640.122,1036.67 C644.805,1043.31 649.313,1043.22 649.313,1043.22 C645.166,1042.45 640.866,1030.32 640.866,1030.32 C649.927,1045.37 663.442,1044.29 663.442,1044.29 C652.077,1043.37 641.02,1026.63 641.02,1026.63 C648.084,1036.46 660.524,1032.01 660.524,1032.01 C646.549,1031.09 637.795,1009.12 637.795,1009.12 C642.072,1014.7 651.164,1014.8 653.896,1014.7 C649.954,1014.79 646.044,1012.77 643.157,1010.78 C649.655,1013.89 658.528,1012.2 658.528,1012.2 C651.31,1011.89 640.303,994.28 640.303,994.28 C646.753,999.71 654.842,996.22 654.842,996.22 C646.753,996.12 639.586,985.06 639.586,985.06 C645.013,992.23 654.842,990.08 654.842,990.08 C643.989,990.29 633.853,972.88 633.853,972.88 C638.051,979.94 644.399,977.08 644.399,977.08 C637.027,976.98 633.546,968.89 633.546,968.89 C639.074,976.05 649.722,972.06 649.722,972.06 C632.931,968.68 629.143,956.19 629.143,956.19 C634.877,964.28 644.501,960.9 644.501,960.9 C634.467,962.23 629.143,954.14 629.143,954.14 C635.798,963.36 650.132,958.03 650.132,958.03 C636.515,958.85 628.529,944.21 628.529,944.21 C630.986,947.59 635.593,946.26 635.593,946.26 C631.805,946.98 625.662,937.97 625.662,937.97 C631.191,944.72 641.429,940.01 641.429,940.01 C632.215,943.09 614.389,915.91 614.389,915.91 C614.389,915.91 596.564,943.09 587.35,940.01 C587.35,940.01 597.588,944.72 603.117,937.97 C603.117,937.97 596.974,946.98 593.185,946.26 C593.185,946.26 597.793,947.59 600.25,944.21 C600.25,944.21 592.264,958.85 578.647,958.03 C578.647,958.03 592.981,963.36 599.636,954.14 C599.636,954.14 594.312,962.23 584.278,960.9 C584.278,960.9 593.902,964.28 599.636,956.19 C599.636,956.19 595.847,968.68 579.056,972.06 C579.056,972.06 589.704,976.05 595.233,968.89 C595.233,968.89 591.752,976.98 584.381,977.08 C584.381,977.08 590.728,979.94 594.926,972.88 C594.926,972.88 584.79,990.29 573.937,990.08 C573.937,990.08 583.766,992.23 589.193,985.06 C589.193,985.06 582.026,996.12 573.937,996.22 C573.937,996.22 582.026,999.71 588.476,994.28 C588.476,994.28 577.469,1011.89 570.251,1012.2 C570.251,1012.2 579.124,1013.89 585.621,1010.78 C582.735,1012.77 578.824,1014.79 574.883,1014.7 C577.615,1014.8 586.707,1014.7 590.984,1009.12 C590.984,1009.12 582.23,1031.09 568.255,1032.01 C568.255,1032.01 580.695,1036.46 587.759,1026.63 C587.759,1026.63 576.701,1043.37 565.337,1044.29 C565.337,1044.29 578.852,1045.37 587.913,1030.32 C587.913,1030.32 583.613,1042.45 579.466,1043.22 C579.466,1043.22 583.974,1043.31 588.656,1036.67 C583.416,1045.8 573.57,1060.39 563.698,1061.44 C563.698,1061.44 576.008,1064.12 585.866,1053.19 C580.846,1059.54 571.485,1069.8 562.265,1071.58 C562.265,1071.58 572.091,1071.28 580.02,1068.73 C573.885,1071.84 565.546,1075.73 560.997,1076.44 C563.864,1076.03 582.611,1073.14 588.251,1067.33 C588.251,1067.33 576.625,1083.84 544.91,1089.45 C544.91,1089.45 563.424,1090.68 575.938,1087.37 C565.841,1092.9 550.65,1100.65 542.146,1102.19 C542.146,1102.19 556.429,1103.12 565.183,1095.9 C565.183,1095.9 556.122,1108.8 545.678,1109.26 C545.678,1109.26 557.081,1112.54 566.343,1106.21 C562.678,1109.21 557.14,1113.13 553.05,1113.25 C553.05,1113.25 562.469,1116.83 571.326,1104.96 C571.326,1104.96 552.999,1131.02 542.044,1130.09 C542.044,1130.09 557.229,1131.66 568.92,1124.7 C565.698,1128.1 562.142,1131.6 558.807,1134.31 L669.972,1134.31 C666.636,1131.6 663.08,1128.1 659.859,1124.7 C671.55,1131.66 686.735,1130.09 686.735,1130.09 z" fill="url(#Gradient_14)"/>
      <path d="M666.985,1141 C666.985,1141 666.899,1141.15 666.73,1141.44 L666.7,1141.44 C666.801,1141.29 666.897,1141.15 666.985,1141 z M743.541,1141.44 L743.511,1141.44 C743.342,1141.15 743.257,1141 743.257,1141 C743.345,1141.15 743.441,1141.29 743.541,1141.44 z M657.904,1130.66 C649.059,1136.12 631.584,1146.1 622.026,1145.92 C622.026,1145.92 624.843,1146.34 629.079,1146.74 L781.162,1146.74 C785.398,1146.34 788.216,1145.92 788.216,1145.92 C778.657,1146.1 761.182,1136.12 752.338,1130.66 C764.736,1135.15 789.564,1131.54 789.564,1131.54 C783.338,1130.14 776.315,1126.63 769.406,1122.27 C772.272,1122.17 774.151,1121.43 774.151,1121.43 C770.315,1120.96 765.593,1118.99 761.751,1117.1 C757.238,1113.86 752.934,1110.45 749.111,1107.27 C755.393,1109.31 763.117,1108.33 763.117,1108.33 C759.073,1107.62 756.135,1105.82 754.086,1103.98 C761.105,1103.75 766.674,1100.99 766.674,1100.99 C756.691,1096.48 750.624,1089.35 750.624,1089.35 C757.991,1095.65 777.988,1088.14 777.988,1088.14 C759.06,1086.43 739.087,1068.64 731.276,1060.96 C738.43,1066.49 746.941,1063.64 746.941,1063.64 C734.048,1064.37 726.945,1046.43 726.945,1046.43 C737.995,1062.67 768.253,1054.43 768.253,1054.43 C743.783,1055.4 725.892,1018.78 725.892,1018.78 C737.995,1033.09 759.307,1025.09 759.307,1025.09 C738.784,1024.6 734.048,1007.14 734.048,1007.14 C740.889,1010.29 743.257,1008.11 743.257,1008.11 C735.364,1008.35 729.575,999.38 729.575,999.38 C741.942,1009.81 757.728,1000.11 757.728,1000.11 C745.362,1002.78 730.983,978.28 730.983,978.28 C736.864,982.65 747.73,978.28 747.73,978.28 C742.76,979.51 733.201,974.29 726.802,970.25 C739.913,976.34 757.728,971.98 757.728,971.98 C736.416,969.07 724.576,953.55 724.576,953.55 C732.207,956.7 737.469,955 737.469,955 C721.946,954.76 716.42,941.18 716.42,941.18 C718.525,944.09 729.049,944.33 729.049,944.33 C725.892,944.33 719.861,939.01 719.861,939.01 C728.148,942.83 741.763,939.56 741.763,939.56 C714.533,939.56 709.797,913.91 713.529,918.28 C717.261,922.64 722.821,919.37 722.821,919.37 C712.74,915.03 708.118,901.38 706.004,890.39 L706.004,875.18 C706.004,875.18 705.91,879.28 705.121,885.02 C704.331,879.28 704.238,875.18 704.238,875.18 L704.238,890.39 C702.124,901.38 697.501,915.03 687.421,919.37 C687.421,919.37 692.981,922.64 696.712,918.28 C700.444,913.91 695.709,939.56 668.478,939.56 C668.478,939.56 682.093,942.83 690.381,939.01 C690.381,939.01 684.35,944.33 681.193,944.33 C681.193,944.33 691.717,944.09 693.822,941.18 C693.822,941.18 688.296,954.76 672.773,955 C672.773,955 678.035,956.7 685.665,953.55 C685.665,953.55 673.825,969.07 652.513,971.98 C652.513,971.98 670.328,976.34 683.44,970.25 C677.04,974.29 667.482,979.51 662.511,978.28 C662.511,978.28 673.378,982.65 679.259,978.28 C679.259,978.28 664.88,1002.78 652.513,1000.11 C652.513,1000.11 668.3,1009.81 680.666,999.38 C680.666,999.38 674.878,1008.35 666.985,1008.11 C666.985,1008.11 669.352,1010.29 676.193,1007.14 C676.193,1007.14 671.457,1024.6 650.935,1025.09 C650.935,1025.09 672.247,1033.09 684.35,1018.78 C684.35,1018.78 666.458,1055.4 641.989,1054.43 C641.989,1054.43 672.247,1062.67 683.297,1046.43 C683.297,1046.43 676.193,1064.37 663.301,1063.64 C663.301,1063.64 671.811,1066.49 678.965,1060.96 C671.155,1068.64 651.182,1086.43 632.254,1088.14 C632.254,1088.14 652.25,1095.65 659.617,1089.35 C659.617,1089.35 653.551,1096.48 643.568,1100.99 C643.568,1100.99 649.136,1103.75 656.156,1103.98 C654.106,1105.82 651.168,1107.62 647.125,1108.33 C647.125,1108.33 654.848,1109.31 661.131,1107.27 C657.308,1110.45 653.004,1113.86 648.49,1117.1 C644.649,1118.99 639.926,1120.96 636.091,1121.43 C636.091,1121.43 637.969,1122.17 640.836,1122.27 C633.926,1126.63 626.904,1130.14 620.677,1131.54 C620.677,1131.54 645.506,1135.15 657.904,1130.66" fill="url(#Gradient_15)"/>
      <path d="M838,1064.16 C808.706,1054.86 797.512,1038.99 797.512,1038.99 C804.987,1046.69 829.833,1050.52 833.633,1051.07 C827.603,1050.12 816.551,1044.96 808.42,1040.84 C818.928,1044.23 831.952,1044.62 831.952,1044.62 C819.732,1042.26 807.325,1028.66 800.672,1020.25 C813.738,1034.73 830.052,1031.19 830.052,1031.19 C816.969,1029.8 803.92,1010.45 796.973,998.35 C803.18,1007.16 809.155,1007.03 809.155,1007.03 C803.659,1006.02 797.96,989.94 797.96,989.94 C809.968,1009.88 827.881,1008.46 827.881,1008.46 C812.819,1007.24 798.163,985.05 798.163,985.05 C807.526,998.08 824.013,992.17 824.013,992.17 C805.49,990.95 793.888,961.85 793.888,961.85 C799.558,969.23 811.608,969.37 815.228,969.23 C810.005,969.35 804.822,966.68 800.996,964.04 C809.608,968.17 821.367,965.92 821.367,965.92 C811.801,965.51 797.213,942.17 797.213,942.17 C805.762,949.36 816.482,944.75 816.482,944.75 C805.762,944.61 796.263,929.96 796.263,929.96 C803.455,939.46 816.482,936.61 816.482,936.61 C802.098,936.88 788.664,913.81 788.664,913.81 C794.228,923.17 802.641,919.37 802.641,919.37 C792.871,919.24 788.257,908.52 788.257,908.52 C795.585,918.02 809.697,912.72 809.697,912.72 C787.443,908.25 782.422,891.69 782.422,891.69 C790.021,902.41 802.777,897.93 802.777,897.93 C789.478,899.7 782.422,888.98 782.422,888.98 C791.242,901.19 810.24,894.13 810.24,894.13 C792.192,895.22 781.608,875.81 781.608,875.81 C784.864,880.29 790.971,878.53 790.971,878.53 C785.95,879.48 777.808,867.54 777.808,867.54 C785.136,876.49 798.706,870.25 798.706,870.25 C786.493,874.32 762.868,838.3 762.868,838.3 C762.868,838.3 739.244,874.32 727.031,870.25 C727.031,870.25 740.601,876.49 747.928,867.54 C747.928,867.54 739.786,879.48 734.765,878.53 C734.765,878.53 740.872,880.29 744.129,875.81 C744.129,875.81 733.544,895.22 715.496,894.13 C715.496,894.13 734.494,901.19 743.315,888.98 C743.315,888.98 736.259,899.7 722.96,897.93 C722.96,897.93 735.716,902.41 743.315,891.69 C743.315,891.69 738.294,908.25 716.039,912.72 C716.039,912.72 730.152,918.02 737.48,908.52 C737.48,908.52 732.866,919.24 723.095,919.37 C723.095,919.37 731.509,923.17 737.072,913.81 C737.072,913.81 723.638,936.88 709.255,936.61 C709.255,936.61 722.281,939.46 729.473,929.96 C729.473,929.96 719.974,944.61 709.255,944.75 C709.255,944.75 719.974,949.36 728.524,942.17 C728.524,942.17 713.936,965.51 704.369,965.92 C704.369,965.92 716.129,968.17 724.74,964.04 C720.915,966.68 715.732,969.35 710.509,969.23 C714.129,969.37 726.178,969.23 731.848,961.85 C731.848,961.85 720.246,990.95 701.723,992.17 C701.723,992.17 718.21,998.08 727.573,985.05 C727.573,985.05 712.918,1007.24 697.856,1008.46 C697.856,1008.46 715.768,1009.88 727.777,989.94 C727.777,989.94 722.078,1006.02 716.582,1007.03 C716.582,1007.03 722.556,1007.16 728.763,998.35 C721.817,1010.45 708.768,1029.8 695.685,1031.19 C695.685,1031.19 711.999,1034.73 725.065,1020.25 C718.411,1028.66 706.005,1042.26 693.785,1044.62 C693.785,1044.62 706.808,1044.23 717.316,1040.84 C709.186,1044.96 698.133,1050.12 692.104,1051.07 C695.904,1050.52 720.75,1046.69 728.225,1038.99 C728.225,1038.99 712.817,1060.87 670.784,1068.3 C670.784,1068.3 695.321,1069.94 711.906,1065.54 C698.525,1072.88 678.391,1083.15 667.12,1085.2 C667.12,1085.2 686.05,1086.42 697.652,1076.85 C697.652,1076.85 685.643,1093.95 671.802,1094.56 C671.802,1094.56 686.914,1098.9 699.19,1090.52 C694.333,1094.5 686.992,1099.68 681.572,1099.85 C681.572,1099.85 694.056,1104.6 705.794,1088.86 C705.794,1088.86 681.504,1123.39 666.985,1122.17 C666.985,1122.17 687.111,1124.25 702.605,1115.02 C698.336,1119.54 693.623,1124.17 689.201,1127.76 L836.535,1127.76 C832.114,1124.17 827.401,1119.54 823.132,1115.02 C827.89,1117.86 833.085,1119.62 838,1120.71 L838,1110.18 C828.221,1100.62 819.943,1088.86 819.943,1088.86 C826.498,1097.65 833.283,1100.05 838,1100.45 L838,1098.11 C833.94,1096.22 829.716,1093.12 826.547,1090.52 C830.271,1093.06 834.255,1094.43 838,1095.11 L838,1087.37 C832.03,1082.46 828.084,1076.85 828.084,1076.85 C831.056,1079.3 834.508,1081.04 838,1082.28 L838,1077.8 C829.58,1073.96 820.793,1069.36 813.83,1065.54 C821.266,1067.51 830.295,1068.27 838,1068.51 L838,1064.16 z" fill="url(#Gradient_16)"/>
      <path d="M287.042,1172.37 C268.762,1173.9 238.181,1130.42 238.181,1130.42 C252.959,1150.24 268.676,1144.26 268.676,1144.26 C261.852,1144.05 252.611,1137.52 246.496,1132.52 C261.951,1143.07 280.977,1137.6 280.977,1137.6 C263.551,1136.83 248.432,1115.3 248.432,1115.3 C263.039,1127.35 286.872,1125.81 286.872,1125.81 C272.681,1123.23 247.333,1110.3 230.485,1101.07 C251.367,1106.6 282.259,1104.54 282.259,1104.54 C229.34,1095.19 209.941,1067.64 209.941,1067.64 C219.351,1077.33 250.633,1082.15 255.417,1082.84 C247.826,1081.66 233.911,1075.16 223.675,1069.97 C236.905,1074.23 253.301,1074.73 253.301,1074.73 C237.916,1071.76 222.296,1054.63 213.92,1044.05 C230.369,1062.28 250.909,1057.82 250.909,1057.82 C234.437,1056.06 218.008,1031.71 209.263,1016.48 C217.077,1027.56 224.599,1027.41 224.599,1027.41 C217.68,1026.12 210.504,1005.88 210.504,1005.88 C225.624,1030.99 248.176,1029.2 248.176,1029.2 C229.212,1027.66 210.76,999.73 210.76,999.73 C222.549,1016.13 243.306,1008.7 243.306,1008.7 C219.986,1007.16 205.379,970.51 205.379,970.51 C212.517,979.81 227.687,979.99 232.246,979.82 C225.669,979.96 219.144,976.6 214.328,973.28 C225.17,978.47 239.975,975.64 239.975,975.64 C227.93,975.13 209.565,945.74 209.565,945.74 C220.328,954.8 233.824,948.99 233.824,948.99 C220.328,948.82 208.369,930.37 208.369,930.37 C217.424,942.32 233.824,938.74 233.824,938.74 C215.715,939.08 198.801,910.04 198.801,910.04 C205.806,921.82 216.399,917.04 216.399,917.04 C204.097,916.87 198.289,903.37 198.289,903.37 C207.514,915.33 225.282,908.67 225.282,908.67 C197.264,903.03 190.943,882.19 190.943,882.19 C200.51,895.68 216.569,890.05 216.569,890.05 C199.826,892.27 190.943,878.77 190.943,878.77 C202.048,894.15 225.966,885.26 225.966,885.26 C203.243,886.63 189.918,862.2 189.918,862.2 C194.018,867.84 201.706,865.62 201.706,865.62 C195.384,866.81 185.134,851.78 185.134,851.78 C194.36,863.05 211.444,855.19 211.444,855.19 C196.068,860.32 166.324,814.97 166.324,814.97 C166.324,814.97 136.581,860.32 121.205,855.19 C121.205,855.19 138.289,863.05 147.515,851.78 C147.515,851.78 137.264,866.81 130.943,865.62 C130.943,865.62 138.631,867.84 142.731,862.2 C142.731,862.2 129.405,886.63 106.683,885.26 C106.683,885.26 130.602,894.15 141.706,878.77 C141.706,878.77 132.822,892.27 116.08,890.05 C116.08,890.05 132.139,895.68 141.706,882.19 C141.706,882.19 135.385,903.03 107.367,908.67 C107.367,908.67 125.134,915.33 134.36,903.37 C134.36,903.37 128.551,916.87 116.251,917.04 C116.251,917.04 126.843,921.82 133.847,910.04 C133.847,910.04 116.934,939.08 98.824,938.74 C98.824,938.74 115.225,942.32 124.28,930.37 C124.28,930.37 112.322,948.82 98.824,948.99 C98.824,948.99 112.322,954.8 123.085,945.74 C123.085,945.74 104.718,975.13 92.674,975.64 C92.674,975.64 107.479,978.47 118.321,973.28 C113.506,976.6 106.98,979.96 100.404,979.82 C104.962,979.99 120.132,979.81 127.27,970.51 C127.27,970.51 112.663,1007.16 89.343,1008.7 C89.343,1008.7 110.1,1016.13 121.888,999.73 C121.888,999.73 103.437,1027.66 84.473,1029.2 C84.473,1029.2 107.025,1030.99 122.145,1005.88 C122.145,1005.88 114.969,1026.12 108.05,1027.41 C108.05,1027.41 115.572,1027.56 123.386,1016.48 C114.641,1031.71 98.212,1056.06 81.74,1057.82 C81.74,1057.82 102.28,1062.28 118.73,1044.05 C110.353,1054.63 94.733,1071.76 79.348,1074.73 C79.348,1074.73 95.744,1074.23 108.974,1069.97 C98.738,1075.16 84.823,1081.66 77.232,1082.84 C82.016,1082.15 113.298,1077.33 122.708,1067.64 C122.708,1067.64 103.309,1095.19 50.39,1104.54 C50.39,1104.54 81.282,1106.6 102.164,1101.07 C85.316,1110.3 59.968,1123.23 45.778,1125.81 C45.778,1125.81 69.61,1127.35 84.218,1115.3 C84.218,1115.3 69.098,1136.83 51.672,1137.6 C51.672,1137.6 70.698,1143.07 86.153,1132.52 C80.038,1137.52 70.797,1144.05 63.972,1144.26 C63.972,1144.26 79.69,1150.24 94.468,1130.42 C94.468,1130.42 63.887,1173.9 45.607,1172.37 C45.607,1172.37 70.946,1174.99 90.452,1163.36 C85.078,1169.05 79.144,1174.88 73.577,1179.4 L259.072,1179.4 C253.505,1174.88 247.571,1169.05 242.197,1163.36 C261.704,1174.99 287.042,1172.37 287.042,1172.37 z" fill="url(#Gradient_17)"/>
      <path d="M306.182,1180.55 C306.182,1180.55 306.085,1180.72 305.894,1181.04 L305.86,1181.04 C305.973,1180.88 306.082,1180.72 306.182,1180.55 z M392.983,1181.04 L392.948,1181.04 C392.757,1180.72 392.66,1180.55 392.66,1180.55 C392.76,1180.72 392.869,1180.88 392.983,1181.04 z M295.886,1168.82 C285.859,1175.02 266.045,1186.33 255.208,1186.13 C255.208,1186.13 258.402,1186.6 263.205,1187.06 L435.637,1187.06 C440.44,1186.6 443.634,1186.13 443.634,1186.13 C432.797,1186.33 412.984,1175.02 402.956,1168.82 C417.012,1173.91 445.164,1169.83 445.164,1169.83 C438.104,1168.24 430.142,1164.25 422.308,1159.31 C425.558,1159.2 427.687,1158.36 427.687,1158.36 C423.339,1157.82 417.984,1155.59 413.629,1153.45 C408.512,1149.77 403.632,1145.91 399.298,1142.3 C406.42,1144.61 415.177,1143.51 415.177,1143.51 C410.593,1142.7 407.261,1140.66 404.938,1138.58 C412.897,1138.31 419.21,1135.18 419.21,1135.18 C407.891,1130.08 401.013,1121.99 401.013,1121.99 C409.366,1129.13 432.038,1120.61 432.038,1120.61 C410.577,1118.68 387.932,1098.5 379.076,1089.79 C387.188,1096.07 396.837,1092.84 396.837,1092.84 C382.219,1093.66 374.165,1073.32 374.165,1073.32 C386.694,1091.74 421,1082.39 421,1082.39 C393.257,1083.49 372.971,1041.98 372.971,1041.98 C386.694,1058.2 410.858,1049.12 410.858,1049.12 C387.589,1048.57 382.219,1028.78 382.219,1028.78 C389.975,1032.35 392.66,1029.88 392.66,1029.88 C383.711,1030.15 377.148,1019.98 377.148,1019.98 C391.169,1031.8 409.068,1020.8 409.068,1020.8 C395.047,1023.83 378.744,996.06 378.744,996.06 C385.411,1001.01 397.732,996.06 397.732,996.06 C392.096,997.44 381.259,991.53 374.004,986.95 C388.869,993.86 409.068,988.91 409.068,988.91 C384.904,985.61 371.48,968.01 371.48,968.01 C380.131,971.59 386.097,969.66 386.097,969.66 C368.497,969.39 362.232,953.99 362.232,953.99 C364.619,957.29 376.551,957.57 376.551,957.57 C372.971,957.57 366.134,951.53 366.134,951.53 C375.53,955.86 390.967,952.15 390.967,952.15 C360.093,952.15 354.723,923.08 358.955,928.03 C363.186,932.97 369.489,929.26 369.489,929.26 C358.06,924.35 352.819,908.87 350.422,896.4 L350.422,879.16 C350.422,879.16 350.316,883.8 349.421,890.31 C348.526,883.8 348.42,879.16 348.42,879.16 L348.42,896.4 C346.023,908.87 340.782,924.35 329.353,929.26 C329.353,929.26 335.656,932.97 339.887,928.03 C344.119,923.08 338.749,952.15 307.876,952.15 C307.876,952.15 323.313,955.86 332.709,951.53 C332.709,951.53 325.871,957.57 322.291,957.57 C322.291,957.57 334.223,957.29 336.61,953.99 C336.61,953.99 330.345,969.39 312.745,969.66 C312.745,969.66 318.711,971.59 327.362,968.01 C327.362,968.01 313.938,985.61 289.775,988.91 C289.775,988.91 309.973,993.86 324.839,986.95 C317.583,991.53 306.746,997.44 301.111,996.06 C301.111,996.06 313.431,1001.01 320.098,996.06 C320.098,996.06 303.796,1023.83 289.775,1020.8 C289.775,1020.8 307.674,1031.8 321.694,1019.98 C321.694,1019.98 315.132,1030.15 306.182,1029.88 C306.182,1029.88 308.867,1032.35 316.623,1028.78 C316.623,1028.78 311.253,1048.57 287.985,1049.12 C287.985,1049.12 312.148,1058.2 325.871,1041.98 C325.871,1041.98 305.585,1083.49 277.842,1082.39 C277.842,1082.39 312.148,1091.74 324.677,1073.32 C324.677,1073.32 316.623,1093.66 302.006,1092.84 C302.006,1092.84 311.655,1096.07 319.766,1089.79 C310.91,1098.5 288.265,1118.68 266.804,1120.61 C266.804,1120.61 289.476,1129.13 297.829,1121.99 C297.829,1121.99 290.951,1130.08 279.632,1135.18 C279.632,1135.18 285.946,1138.31 293.904,1138.58 C291.581,1140.66 288.25,1142.7 283.665,1143.51 C283.665,1143.51 292.422,1144.61 299.545,1142.3 C295.21,1145.91 290.33,1149.77 285.213,1153.45 C280.858,1155.59 275.503,1157.82 271.155,1158.36 C271.155,1158.36 273.284,1159.2 276.534,1159.31 C268.7,1164.25 260.738,1168.24 253.678,1169.83 C253.678,1169.83 281.83,1173.91 295.886,1168.82" fill="url(#Gradient_18)"/>
      <path d="M838,1457.47 L838,1254.72 C819.461,1254.54 800.931,1253.56 782.466,1251.92 C771.076,1250.9 759.727,1249.58 748.382,1248.16 C748.291,1248.15 748.212,1248.14 748.134,1248.13 C748.041,1248.11 747.944,1248.1 747.835,1248.08 C746.701,1247.92 745.566,1247.77 744.432,1247.61 C741.406,1247.18 738.382,1246.73 735.36,1246.27 C729.688,1245.41 724.024,1244.5 718.367,1243.55 C672.984,1235.88 628.143,1225.33 583.59,1213.85 C495.67,1191.19 408.41,1164.95 318.555,1150.84 C235.916,1137.85 152.124,1135.01 70.063,1153.46 C46.026,1158.86 22.25,1166.13 -0.752,1175.32 L-0.752,1457.47 C-0.752,1476.05 14.31,1491.11 32.889,1491.11 L804.358,1491.11 C822.938,1491.11 838,1476.05 838,1457.47 z" fill="url(#Gradient_19)"/>
    </g>
  </g>
</svg>
