<?xml version="1.0" encoding="UTF-8"?>
<!DOCTYPE svg PUBLIC "-//W3C//DTD SVG 1.1//EN" "http://www.w3.org/Graphics/SVG/1.1/DTD/svg11.dtd">
<svg version="1.1" xmlns="http://www.w3.org/2000/svg" xmlns:xlink="http://www.w3.org/1999/xlink" x="0" y="0" width="694.18" height="548.954" viewBox="0, 0, 694.18, 548.954">
  <g id="Layer_1" transform="translate(-342.73, -302.936)">
    <g>
      <path d="M690,780 C580.648,780 492,691.352 492,582 C492,472.648 580.648,384 690,384 C799.352,384 888,472.648 888,582 C888,691.352 799.352,780 690,780 z" fill="#F6EDDD"/>
      <path d="M689.82,326.982 C551.74,326.982 439.39,439.325 439.39,577.41 C439.39,715.5 551.74,827.84 689.82,827.84 C827.91,827.84 940.25,715.5 940.25,577.41 C940.25,439.325 827.91,326.982 689.82,326.982 z M689.82,836.42 C654.86,836.42 620.94,829.57 589,816.06 C558.16,803.02 530.46,784.34 506.68,760.56 C482.89,736.77 464.22,709.08 451.17,678.23 C437.67,646.3 430.82,612.38 430.82,577.41 C430.82,542.45 437.67,508.529 451.17,476.595 C464.22,445.752 482.89,418.053 506.68,394.268 C530.46,370.482 558.16,351.808 589,338.762 C620.94,325.255 654.86,318.407 689.82,318.407 C724.79,318.407 758.71,325.255 790.64,338.762 C821.49,351.808 849.18,370.482 872.97,394.268 C896.75,418.053 915.43,445.752 928.47,476.595 C941.98,508.529 948.83,542.45 948.83,577.41 C948.83,612.38 941.98,646.3 928.47,678.23 C915.43,709.08 896.75,736.77 872.97,760.56 C849.18,784.34 821.49,803.02 790.64,816.06 C758.71,829.57 724.79,836.42 689.82,836.42" fill="#FFFFFE"/>
      <path d="M772.13,731.25 L607.09,731.02 C552.91,701.62 516.11,644.22 516.11,578.24 C516.11,482.299 593.89,404.526 689.82,404.526 C785.76,404.526 863.53,482.299 863.53,578.24 C863.53,644.39 826.55,701.91 772.13,731.25 z M689.82,302.936 C538.23,302.936 415.35,425.824 415.35,577.41 C415.35,729 538.23,851.89 689.82,851.89 C841.41,851.89 964.3,729 964.3,577.41 C964.3,425.824 841.41,302.936 689.82,302.936" fill="#301318"/>
      <path d="M772.13,731.25 L607.09,731.02 C552.91,701.62 516.11,644.22 516.11,578.24 C516.11,482.299 593.89,404.526 689.82,404.526 C785.76,404.526 863.53,482.299 863.53,578.24 C863.53,644.39 826.55,701.91 772.13,731.25 z M689.82,322.694 C549.15,322.694 435.1,436.736 435.1,577.41 C435.1,718.09 549.15,832.13 689.82,832.13 C830.5,832.13 944.54,718.09 944.54,577.41 C944.54,436.736 830.5,322.694 689.82,322.694" fill="#EA928B"/>
      <path d="M774.17,735.02 L770.1,727.47 C825.09,697.83 859.25,640.65 859.25,578.24 C859.25,484.817 783.24,408.814 689.82,408.814 C596.4,408.814 520.4,484.817 520.4,578.24 C520.4,640.45 554.4,697.55 609.14,727.25 L605.05,734.79 C547.55,703.59 511.83,643.6 511.83,578.24 C511.83,530.692 530.34,485.993 563.96,452.373 C597.58,418.753 642.28,400.239 689.82,400.239 C737.37,400.239 782.07,418.753 815.69,452.373 C849.31,485.993 867.82,530.692 867.82,578.24 C867.82,643.8 831.94,703.88 774.17,735.02" fill="#311517"/>
      <path d="M689.82,467.935 C643.18,467.935 604.57,485.142 598.01,507.552 C596.96,511.127 602.53,514.332 609.76,514.332 L769.89,514.332 C777.12,514.332 782.68,511.127 781.63,507.552 C775.07,485.142 736.47,467.935 689.82,467.935" fill="#301416"/>
      <path d="M781.59,543.99 L598.06,543.99 C592.32,543.99 587.67,539.34 587.67,533.6 C587.67,527.865 592.32,523.215 598.06,523.215 L781.59,523.215 C787.33,523.215 791.98,527.865 791.98,533.6 C791.98,539.34 787.33,543.99 781.59,543.99" fill="#311517"/>
      <path d="M613.98,556.43 C610.39,556.43 607.1,557.79 604.95,560.16 C603.33,561.95 602.55,564.14 602.77,566.35 L622.18,766.36 C622.69,771.61 628.1,775.72 634.5,775.72 L745.15,775.72 C751.55,775.72 756.96,771.61 757.47,766.36 L776.88,566.35 C777.09,564.14 776.32,561.95 774.7,560.16 C772.54,557.79 769.25,556.43 765.67,556.43 L613.98,556.43 z M745.15,782.84 L634.5,782.84 C624.31,782.84 615.96,776.05 615.09,767.04 L595.68,567.04 C595.27,562.81 596.69,558.67 599.68,555.38 C603.18,551.52 608.39,549.31 613.98,549.31 L765.67,549.31 C771.26,549.31 776.47,551.52 779.97,555.38 C782.96,558.67 784.37,562.81 783.96,567.04 L764.56,767.04 C763.68,776.05 755.34,782.84 745.15,782.84" fill="#301318"/>
      <path d="M754.06,596.69 C759.21,596.1 763.54,600.92 763.04,606.65 L749.21,765.34 C749.16,765.88 747.69,767.42 745.15,767.42 L634.5,767.42 C631.96,767.42 630.49,765.88 630.44,765.34 L615.76,596.92 C615.38,592.61 617.78,588.58 621.51,587.32 C631.92,583.82 653.79,579.09 677.39,589.86 C701.49,600.87 736.94,598.65 754.06,596.69" fill="#E88887"/>
      <path d="M652.52,621 C652.52,626.03 648.45,630.1 643.42,630.1 C638.4,630.1 634.33,626.03 634.33,621 C634.33,615.98 638.4,611.91 643.42,611.91 C648.45,611.91 652.52,615.98 652.52,621" fill="#301416"/>
      <path d="M699.46,693.28 C699.46,698.3 695.38,702.37 690.36,702.37 C685.34,702.37 681.27,698.3 681.27,693.28 C681.27,688.26 685.34,684.19 690.36,684.19 C695.38,684.19 699.46,688.26 699.46,693.28" fill="#301416"/>
      <path d="M742.52,630.1 C742.52,633.91 739.42,637 735.61,637 C731.79,637 728.7,633.91 728.7,630.1 C728.7,626.28 731.79,623.19 735.61,623.19 C739.42,623.19 742.52,626.28 742.52,630.1" fill="#311517"/>
      <path d="M705.27,632.28 C705.27,637.31 701.2,641.38 696.17,641.38 C691.15,641.38 687.08,637.31 687.08,632.28 C687.08,627.26 691.15,623.19 696.17,623.19 C701.2,623.19 705.27,627.26 705.27,632.28" fill="#311517"/>
      <path d="M661.46,669.65 C661.46,672.74 658.96,675.25 655.87,675.25 C652.78,675.25 650.28,672.74 650.28,669.65 C650.28,666.57 652.78,664.06 655.87,664.06 C658.96,664.06 661.46,666.57 661.46,669.65" fill="#311517"/>
      <path d="M654.61,714.95 C654.61,718.04 652.11,720.54 649.02,720.54 C645.93,720.54 643.42,718.04 643.42,714.95 C643.42,711.86 645.93,709.36 649.02,709.36 C652.11,709.36 654.61,711.86 654.61,714.95" fill="#311517"/>
      <path d="M742.52,680.68 C742.52,684.5 739.42,687.59 735.61,687.59 C731.79,687.59 728.7,684.5 728.7,680.68 C728.7,676.87 731.79,673.78 735.61,673.78 C739.42,673.78 742.52,676.87 742.52,680.68" fill="#311517"/>
      <path d="M683.16,743.49 C683.16,748.51 679.08,752.59 674.06,752.59 C669.04,752.59 664.97,748.51 664.97,743.49 C664.97,738.47 669.04,734.4 674.06,734.4 C679.08,734.4 683.16,738.47 683.16,743.49" fill="#311517"/>
      <path d="M739.76,734.4 C739.76,739.42 735.69,743.49 730.66,743.49 C725.64,743.49 721.57,739.42 721.57,734.4 C721.57,729.37 725.64,725.3 730.66,725.3 C735.69,725.3 739.76,729.37 739.76,734.4" fill="#301416"/>
      <path d="M639.12,614.66 C640.79,614.51 641.49,614.89 640.75,616.04 C640.55,616.35 640.26,616.59 639.94,616.77 C638.29,617.71 637.16,619.23 636.43,621.2 C636.31,621.5 635.86,621.43 635.86,621.1 C635.88,618.83 636.42,616.78 638.05,615.16 C638.34,614.88 638.72,614.69 639.12,614.66" fill="#FFFFFE"/>
      <path d="M692.66,625.55 C694.33,625.41 695.03,625.78 694.29,626.93 C694.09,627.24 693.8,627.48 693.49,627.66 C691.84,628.6 690.7,630.12 689.97,632.09 C689.85,632.4 689.4,632.32 689.4,631.99 C689.42,629.73 689.96,627.67 691.59,626.06 C691.88,625.77 692.26,625.58 692.66,625.55" fill="#FFFFFE"/>
      <path d="M686.42,687.62 C688.09,687.48 688.79,687.85 688.05,689 C687.85,689.31 687.56,689.55 687.24,689.73 C685.59,690.67 684.46,692.2 683.72,694.16 C683.61,694.47 683.15,694.39 683.16,694.07 C683.17,691.8 683.72,689.75 685.34,688.13 C685.63,687.84 686.01,687.66 686.42,687.62" fill="#FFFFFE"/>
      <path d="M670.14,736.76 C671.81,736.61 672.51,736.99 671.77,738.14 C671.57,738.45 671.28,738.69 670.96,738.87 C669.32,739.81 668.18,741.33 667.45,743.3 C667.33,743.6 666.88,743.53 666.88,743.2 C666.9,740.93 667.44,738.88 669.07,737.26 C669.36,736.98 669.74,736.79 670.14,736.76" fill="#FFFFFE"/>
      <path d="M727.12,727.75 C728.79,727.77 729.45,728.22 728.6,729.29 C728.37,729.57 728.06,729.78 727.72,729.93 C725.99,730.7 724.71,732.1 723.78,733.98 C723.63,734.28 723.19,734.16 723.22,733.83 C723.47,731.58 724.22,729.59 726,728.14 C726.31,727.89 726.71,727.74 727.12,727.75" fill="#FFFFFE"/>
      <path d="M732.51,624.97 C733.92,624.85 734.52,625.17 733.89,626.15 C733.72,626.41 733.47,626.61 733.2,626.77 C731.8,627.57 730.84,628.86 730.22,630.53 C730.12,630.79 729.73,630.73 729.74,630.45 C729.75,628.52 730.21,626.78 731.59,625.4 C731.84,625.16 732.16,625 732.51,624.97" fill="#FFFFFE"/>
      <path d="M654.09,665.28 C655.26,665.35 655.71,665.69 655.07,666.41 C654.9,666.6 654.68,666.74 654.44,666.83 C653.2,667.32 652.25,668.25 651.54,669.54 C651.43,669.75 651.12,669.65 651.15,669.42 C651.4,667.85 651.99,666.48 653.29,665.52 C653.52,665.35 653.8,665.26 654.09,665.28" fill="#FFFFFE"/>
      <path d="M647.07,710.57 C648.25,710.65 648.69,710.98 648.06,711.7 C647.89,711.9 647.67,712.03 647.43,712.13 C646.18,712.61 645.24,713.55 644.52,714.84 C644.41,715.04 644.1,714.94 644.14,714.71 C644.39,713.14 644.98,711.77 646.28,710.81 C646.51,710.64 646.79,710.56 647.07,710.57" fill="#FFFFFE"/>
      <path d="M732.91,675.38 C734.33,675.36 734.9,675.72 734.2,676.65 C734.02,676.9 733.76,677.09 733.48,677.22 C732.03,677.92 730.98,679.14 730.24,680.77 C730.13,681.02 729.74,680.93 729.77,680.65 C729.91,678.73 730.5,677.03 731.97,675.75 C732.23,675.52 732.56,675.39 732.91,675.38" fill="#FFFFFE"/>
      <path d="M967.42,796.66 C782.36,781.56 597.29,781.56 412.22,796.66 C377.1,799.53 347.02,771.78 347.02,736.54 C347.02,705.06 371.21,678.87 402.59,676.39 C594.26,661.24 785.75,661.25 977.06,676.38 C1008.44,678.87 1032.63,705.06 1032.63,736.53 L1032.63,736.54 C1032.63,771.78 1002.55,799.53 967.42,796.66" fill="#FFFFFE"/>
      <path d="M689.92,669.37 C594.06,669.37 498.17,673.14 402.93,680.66 C373.98,682.95 351.31,707.49 351.31,736.54 C351.31,752.38 357.72,767.02 369.37,777.75 C381.01,788.48 396.1,793.68 411.87,792.39 C596.31,777.33 783.34,777.33 967.77,792.39 C983.54,793.68 998.64,788.48 1010.27,777.75 C1021.92,767.02 1028.34,752.38 1028.34,736.54 C1028.34,707.49 1005.67,682.95 976.72,680.66 C881.6,673.13 785.77,669.37 689.92,669.37 z M972.29,801.15 C970.55,801.15 968.81,801.08 967.08,800.94 C783.1,785.92 596.54,785.92 412.57,800.94 C394.65,802.41 376.79,796.25 363.56,784.06 C350.32,771.86 342.73,754.54 342.73,736.54 C342.73,720.23 348.83,704.66 359.89,692.68 C370.96,680.7 386,673.4 402.25,672.12 C593.16,657.02 786.67,657.02 977.4,672.11 C993.65,673.4 1008.7,680.7 1019.76,692.68 C1030.82,704.65 1036.91,720.23 1036.91,736.53 C1036.91,754.54 1029.32,771.86 1016.09,784.06 C1004.14,795.07 988.42,801.15 972.29,801.15" fill="#311517"/>
      <path d="M972.41,785.43 C971.07,785.43 969.7,785.38 968.35,785.27 C875.95,777.72 782.23,773.9 689.82,773.9 C597.41,773.9 503.7,777.72 411.29,785.27 C409.94,785.38 408.58,785.43 407.24,785.43 C394.29,785.43 382.07,780.37 372.84,771.18 C363.57,761.95 358.46,749.64 358.46,736.54 C358.46,724.2 363.07,712.41 371.44,703.35 C379.81,694.29 391.19,688.76 403.49,687.79 C498.55,680.27 594.92,676.46 689.92,676.46 C784.91,676.46 881.22,680.27 976.16,687.78 C988.46,688.76 999.84,694.28 1008.21,703.35 C1016.58,712.41 1021.19,724.19 1021.19,736.53 C1021.19,763.5 999.31,785.43 972.41,785.43" fill="#F6D473"/>
      <path d="M967.42,796.66 C782.36,781.56 597.29,781.56 412.22,796.66 C377.1,799.53 347.02,771.78 347.02,736.54 C347.02,705.06 371.21,678.87 402.59,676.39 C594.26,661.24 785.75,661.25 977.06,676.38 C1008.44,678.87 1032.63,705.06 1032.63,736.53 L1032.63,736.54 C1032.63,771.78 1002.55,799.53 967.42,796.66" fill="#FFFFFE"/>
      <path d="M689.92,669.37 C594.06,669.37 498.17,673.14 402.93,680.66 C373.98,682.95 351.31,707.49 351.31,736.54 C351.31,752.38 357.72,767.02 369.37,777.75 C381.01,788.48 396.1,793.68 411.87,792.39 C596.31,777.33 783.34,777.33 967.77,792.39 C983.54,793.68 998.64,788.48 1010.27,777.75 C1021.92,767.02 1028.34,752.38 1028.34,736.54 C1028.34,707.49 1005.67,682.95 976.72,680.66 C881.6,673.13 785.77,669.37 689.92,669.37 z M972.29,801.15 C970.55,801.15 968.81,801.08 967.08,800.94 C783.1,785.92 596.54,785.92 412.57,800.94 C394.65,802.41 376.79,796.25 363.56,784.06 C350.32,771.86 342.73,754.54 342.73,736.54 C342.73,720.23 348.83,704.66 359.89,692.68 C370.96,680.7 386,673.4 402.25,672.12 C593.16,657.02 786.67,657.02 977.4,672.11 C993.65,673.4 1008.7,680.7 1019.76,692.68 C1030.82,704.65 1036.91,720.23 1036.91,736.53 C1036.91,754.54 1029.32,771.86 1016.09,784.06 C1004.14,795.07 988.42,801.15 972.29,801.15" fill="#311517"/>
      <path d="M972.41,785.43 C971.07,785.43 969.7,785.38 968.35,785.27 C875.95,777.72 782.23,773.9 689.82,773.9 C597.41,773.9 503.7,777.72 411.29,785.27 C409.94,785.38 408.58,785.43 407.24,785.43 C394.29,785.43 382.07,780.37 372.84,771.18 C363.57,761.95 358.46,749.64 358.46,736.54 C358.46,724.2 363.07,712.41 371.44,703.35 C379.81,694.29 391.19,688.76 403.49,687.79 C498.54,680.27 594.91,676.46 689.92,676.46 C784.91,676.46 881.21,680.27 976.16,687.78 C988.46,688.76 999.84,694.28 1008.21,703.35 C1016.58,712.41 1021.19,724.19 1021.19,736.53 C1021.19,763.5 999.31,785.43 972.41,785.43" fill="#F6D473"/>
      <path d="M441.87,707.48 L442.64,721.58 C441.56,721.27 440.73,721.14 440.15,721.17 C439.04,721.23 438.1,721.69 437.35,722.56 C436.6,723.42 436.26,724.44 436.32,725.6 C436.38,726.59 436.88,727.82 437.83,729.29 L439.06,731.19 C441.29,734.6 442.49,737.95 442.67,741.24 C442.93,746.05 441.45,750.21 438.21,753.73 C434.97,757.25 430.89,759.15 425.96,759.42 C423.6,759.55 421.22,759.13 418.85,758.17 L418.06,743.86 C419.51,744.68 420.78,745.06 421.87,745 C423.15,744.93 424.2,744.5 425.01,743.72 C425.83,742.93 426.21,741.99 426.15,740.87 C426.11,740.15 425.33,738.61 423.82,736.24 C421.41,732.5 420.1,728.69 419.89,724.83 C419.63,720.16 421.07,716.06 424.21,712.5 C427.34,708.95 431.22,707.05 435.83,706.8 C437.86,706.68 439.87,706.91 441.87,707.48" fill="#311218"/>
      <path d="M479.29,754.53 L477.38,718.87 C477.14,714.45 478.29,710.77 480.82,707.82 C483.35,704.87 486.75,703.29 491.03,703.06 C496.1,702.79 500.13,704.91 503.11,709.42 C504.64,706.82 506.33,704.93 508.19,703.76 C510.04,702.58 512.36,701.92 515.17,701.76 C519.61,701.53 523.09,702.75 525.61,705.42 C528.13,708.1 529.53,712.07 529.81,717.33 L531.65,751.72 L516.94,752.51 L515.21,720.33 C515.13,718.74 514.95,717.69 514.66,717.18 C514.38,716.68 513.86,716.44 513.08,716.49 C511.63,716.56 510.97,717.83 511.11,720.3 L512.84,752.73 L498.13,753.52 L496.41,721.34 C496.32,719.77 496.13,718.73 495.84,718.21 C495.55,717.69 495.01,717.45 494.24,717.49 C492.79,717.57 492.14,718.93 492.28,721.56 L494,753.74 L479.29,754.53" fill="#311218"/>
      <path d="M590.68,713.42 C587.66,713.5 585.11,714.69 583.05,716.98 C580.98,719.26 580,721.98 580.09,725.12 C580.18,728.26 581.32,730.92 583.53,733.08 C585.73,735.25 588.33,736.28 591.33,736.2 C594.38,736.11 596.93,734.93 598.98,732.66 C601.03,730.38 602.01,727.66 601.92,724.49 C601.83,721.33 600.7,718.67 598.52,716.51 C596.34,714.36 593.73,713.33 590.68,713.42 z M590.7,698.82 C597.71,698.62 603.8,701 608.96,705.96 C614.13,710.92 616.81,716.95 617.01,724.06 C617.22,731.29 614.87,737.51 609.96,742.71 C605.05,747.91 598.98,750.61 591.75,750.82 C584.57,751.02 578.36,748.66 573.14,743.73 C567.92,738.79 565.2,732.74 565,725.55 C564.79,718.3 567.17,712.08 572.14,706.91 C577.11,701.73 583.3,699.03 590.7,698.82" fill="#311218"/>
      <path d="M675.68,712.02 C672.66,712.03 670.09,713.16 667.97,715.39 C665.85,717.63 664.79,720.32 664.81,723.46 C664.82,726.61 665.9,729.29 668.05,731.5 C670.2,733.72 672.78,734.82 675.78,734.81 C678.83,734.8 681.4,733.68 683.51,731.46 C685.62,729.24 686.67,726.54 686.65,723.37 C686.64,720.2 685.57,717.51 683.45,715.31 C681.32,713.1 678.73,712.01 675.68,712.02 z M676.06,697.43 C683.08,697.4 689.1,699.93 694.14,705.01 C699.19,710.1 701.72,716.19 701.75,723.31 C701.78,730.54 699.28,736.7 694.24,741.77 C689.21,746.85 683.07,749.41 675.84,749.43 C668.65,749.46 662.51,746.95 657.41,741.89 C652.31,736.83 649.74,730.71 649.71,723.52 C649.68,716.27 652.21,710.11 657.31,705.06 C662.41,700 668.66,697.46 676.06,697.43" fill="#311218"/>
      <path d="M759.06,713.55 L758.42,748.86 L743.69,748.59 L744.33,713.29 L733.04,713.08 L733.3,698.86 L770.56,699.53 L770.3,713.75 L759.06,713.55" fill="#311218"/>
      <path d="M841.11,701.89 L839.22,751.38 L824.5,750.82 L826.39,701.32 L841.11,701.89 z M823.21,718.92 L822.71,731.98 L818.61,731.82 L817.9,750.57 L803.17,750.01 L805.07,700.51 L819.79,701.07 L819.11,718.77 L823.21,718.92" fill="#311218"/>
      <path d="M894.62,704.65 L891.83,754.11 L877.12,753.28 L879.91,703.82 L894.62,704.65" fill="#311218"/>
      <path d="M958.27,728.27 L957.46,739.27 L947.87,738.57 C946.57,738.47 945.63,738.6 945.06,738.95 C944.49,739.29 944.17,739.92 944.1,740.84 C944.02,741.88 944.25,742.58 944.78,742.95 C945.31,743.31 946.43,743.56 948.15,743.68 L958.03,744.41 L956.99,758.52 L945.45,757.68 C940.02,757.28 935.96,755.68 933.28,752.87 C930.6,750.07 929.44,746.22 929.8,741.32 L931.22,721.96 C931.57,717.23 933.2,713.66 936.1,711.25 C939.01,708.85 942.92,707.82 947.84,708.18 L960.62,709.12 L959.58,723.31 L950.2,722.62 C947.67,722.44 946.34,723.16 946.22,724.8 C946.15,725.77 946.4,726.46 946.98,726.88 C947.55,727.3 948.62,727.56 950.16,727.68 L958.27,728.27" fill="#311218"/>
      <path d="M699.46,596.21 C692.84,595.36 686.42,593.95 680.19,592.02 L680.19,423.212 C680.19,420.444 682.96,418.201 686.38,418.201 L693.27,418.201 C696.69,418.201 699.46,420.444 699.46,423.212 L699.46,596.21" fill="#301416"/>
      <path d="M470.96,619.39 C469.31,620.26 468.29,620.97 467.56,621.91 C466.68,623.02 466.63,624.22 467.31,627.11 L467.94,629.76 C468.29,631.25 468.42,631.41 469.87,631.07 L480.05,628.66 L479.09,624.61 C478.15,620.6 477.66,620.33 474.64,620.47 L474.29,618.99 L483.17,616.89 L483.52,618.38 C480.57,619.6 480.22,620.11 481.17,624.12 L482.12,628.17 L489.65,626.4 C493.75,625.43 493.93,624.96 493.3,620.92 L494.75,620.58 L497.92,634.01 L496.48,634.35 C495.35,631 494.99,630.66 490.88,631.63 L473.76,635.67 C469.75,636.62 469.57,637.09 470.09,640.48 L468.6,640.84 L463.7,620.06 C464.77,619.76 467.96,618.77 470.39,617.96 L470.96,619.39" fill="#2F111C"/>
      <path d="M475.33,579.25 C475.36,577.12 475.02,575.58 474.15,574.5 C472.84,572.86 471,572.14 468.59,572.1 C463.63,572.02 461.73,574.95 461.69,577.92 C461.67,579.12 461.89,579.82 462.11,580.15 C462.38,580.47 462.89,580.57 463.96,580.59 L475.3,580.78 L475.33,579.25 z M490.75,562.22 C490.74,562.59 490.69,563.15 490.68,563.66 C490.37,568.65 489.13,570.49 486.14,572.38 C484.08,573.69 481.42,575.09 479.03,576.39 C477.63,577.11 477.06,577.93 477.03,579.74 L477.02,580.8 L484.01,580.92 C487.8,580.98 488.23,580.57 488.61,577.01 L490.09,577.03 L489.88,590.37 L488.39,590.34 C488.13,586.77 487.77,586.26 483.92,586.2 L465.82,585.9 C462.02,585.84 461.64,586.25 461.31,589.72 L459.78,589.7 L459.98,577.24 C460.04,573.44 460.54,571.13 461.78,569.3 C463.06,567.47 465.12,566.25 467.99,566.3 C472.02,566.36 474.24,569.04 475.53,572.26 C476.98,571.54 480.11,569.83 482.22,568.48 C484.79,566.85 486.2,565.9 487.23,564.9 C488.45,563.85 489.02,562.98 489.36,561.92 L490.75,562.22" fill="#2F111C"/>
      <path d="M491.26,516.43 C492.99,517.134 496.96,519.042 498.22,519.772 L492.8,542.28 L491.36,541.94 C491.99,537.94 491.77,537.46 487.99,536.55 L470.47,532.34 C466.51,531.384 466.23,531.75 465.17,534.97 L463.69,534.61 L468.68,513.855 C469.59,514.027 472.8,514.56 475.45,515.009 L475.31,516.594 C473.5,516.587 472.07,516.813 471.04,517.328 C470.01,517.842 469.4,518.982 468.73,521.773 L468.1,524.384 C467.72,525.96 467.78,526.117 469.22,526.463 L478.99,528.815 L479.82,525.348 C480.75,521.476 480.59,520.961 477.63,519.628 L478,518.097 L486.91,520.243 L486.54,521.773 C483.16,521.579 482.87,521.985 481.94,525.857 L481.1,529.324 L489.12,531.252 C491.28,531.77 492.37,531.8 493.07,531.061 C493.72,530.358 494.14,528.793 494.58,526.948 C495.25,524.201 495.29,522.64 494.37,521.322 C493.63,520.24 492.34,519.072 490.63,517.851 L491.26,516.43" fill="#2F111C"/>
      <path d="M493.03,473.349 C490,472.897 486.31,472.843 484.62,476.295 C483.34,478.915 484.45,481.474 486.78,482.615 C489.36,483.878 491.57,482.846 495.05,480.167 C498.98,477.195 502.77,474.928 507.1,477.047 C511.71,479.309 513.42,484.991 510.52,490.896 C509.75,492.476 508.8,493.768 507.88,494.707 C507,495.667 506.34,496.273 505.85,496.649 C504.66,496.535 500.91,495.363 498.43,494.514 L498.71,492.896 C501.7,493.431 507.29,493.387 509.29,489.311 C510.65,486.525 509.66,483.923 506.87,482.558 C504.21,481.254 501.69,482.496 498.54,484.82 C494.82,487.583 490.94,489.914 486.7,487.835 C482.38,485.716 480.53,480.532 483.32,474.835 C484.51,472.423 486.25,470.648 487.12,469.73 C488.74,470.318 490.6,470.924 493.39,471.875 L493.03,473.349" fill="#2F111C"/>
      <path d="M524.83,418.781 C522.73,421.798 522.71,422.196 525.73,424.716 L539.63,436.31 C542.62,438.8 543.07,438.694 545.63,436.127 L546.77,437.076 L538.11,447.461 L536.98,446.512 C539.13,443.424 539.15,442.961 536.17,440.471 L529.37,434.807 L520.57,445.371 L527.36,451.034 C530.35,453.524 530.8,453.418 533.33,450.887 L534.47,451.835 L525.99,462.007 L524.85,461.059 C526.85,458.148 526.91,457.65 523.92,455.159 L510.01,443.566 C506.99,441.045 506.51,441.188 503.95,443.819 L502.78,442.841 L511.26,432.669 L512.43,433.647 C510.45,436.458 510.43,436.92 513.45,439.44 L518.86,443.947 L527.67,433.384 L522.26,428.877 C519.24,426.357 518.85,426.458 516.35,428.953 L515.17,427.974 L523.65,417.803 L524.83,418.781" fill="#2F111C"/>
      <path d="M594.18,376.122 C592.92,374.743 591.97,373.937 590.88,373.466 C589.58,372.896 588.41,373.151 585.79,374.539 L583.38,375.819 C582.03,376.535 581.91,376.703 582.6,378.013 L587.5,387.259 L591.18,385.307 C594.83,383.377 594.96,382.835 594.06,379.957 L595.41,379.241 L599.68,387.301 L598.33,388.017 C596.41,385.473 595.82,385.259 592.18,387.189 L588.5,389.141 L592.12,395.974 C594.1,399.696 594.59,399.747 598.35,398.125 L599.04,399.434 L586.85,405.896 L586.15,404.587 C589.11,402.653 589.35,402.212 587.38,398.489 L579.13,382.942 C577.21,379.3 576.71,379.25 573.55,380.61 L572.83,379.259 L591.69,369.262 C592.26,370.222 594.02,373.06 595.42,375.202 L594.18,376.122" fill="#2F111C"/>
      <path d="M633.66,370.378 C635.72,369.845 637.11,369.104 637.92,367.985 C639.15,366.279 639.36,364.312 638.76,361.981 C637.52,357.184 634.18,356.133 631.31,356.875 C630.15,357.176 629.54,357.574 629.28,357.88 C629.03,358.23 629.07,358.746 629.34,359.777 L632.18,370.761 L633.66,370.378 z M654.17,380.713 C653.81,380.806 653.26,380.9 652.77,381.028 C647.87,382.056 645.78,381.354 643.15,378.972 C641.34,377.335 639.29,375.14 637.4,373.189 C636.33,372.03 635.39,371.701 633.64,372.153 L632.61,372.419 L634.36,379.188 C635.31,382.865 635.82,383.164 639.35,382.585 L639.72,384.02 L626.81,387.358 L626.44,385.924 C629.81,384.717 630.21,384.231 629.25,380.51 L624.72,362.982 C623.76,359.306 623.27,359.051 619.84,359.652 L619.45,358.173 L631.51,355.054 C635.19,354.103 637.55,353.972 639.64,354.674 C641.75,355.42 643.47,357.08 644.19,359.859 C645.2,363.759 643.21,366.617 640.45,368.717 C641.53,369.921 644.01,372.484 645.88,374.154 C648.13,376.202 649.42,377.304 650.66,378.035 C651.99,378.934 652.98,379.251 654.09,379.298 L654.17,380.713" fill="#2F111C"/>
      <path d="M704.32,348.848 C701.69,349.03 700.59,349.881 700.39,351.645 C700.22,352.991 700.11,354.799 700.17,358.457 L700.25,363.041 C700.33,368.135 699.61,372.083 697.01,374.904 C694.92,377.161 691.79,378.324 688.59,378.375 C685.67,378.422 682.84,377.82 680.64,376.188 C677.96,374.147 676.61,370.742 676.52,365.325 L676.34,354.165 C676.27,349.859 675.85,349.634 672.33,349.367 L672.3,347.839 L685.55,347.624 L685.57,349.152 C682.1,349.486 681.69,349.771 681.76,354.077 L681.93,364.311 C682.04,371.441 684.75,375.52 690.03,375.434 C695.95,375.338 698.19,370.624 698.07,362.891 L698,358.492 C697.94,354.88 697.68,353.032 697.47,351.6 C697.16,349.937 696.13,349.167 692.93,349.033 L692.91,347.505 L704.3,347.32 L704.32,348.848" fill="#2F111C"/>
      <path d="M725.75,380.79 L726.06,379.341 C729.61,379.779 730.08,379.596 730.91,375.749 L734.72,358.144 C735.55,354.296 735.22,353.892 731.79,352.866 L732.11,351.372 L745.1,354.184 L744.78,355.677 C741.24,355.195 740.8,355.433 739.97,359.28 L736.16,376.885 C735.34,380.687 735.63,381.082 739.05,382.153 L738.73,383.601 L725.75,380.79" fill="#2F111C"/>
      <path d="M791.96,379.684 C792.41,377.345 792.49,375.808 792.18,374.805 C791.8,373.618 790.99,372.946 788.24,371.708 L785.96,370.68 L776.85,390.9 C775.27,394.404 775.49,394.913 779.2,396.94 L778.59,398.292 L765.42,392.353 L766.03,391.002 C769.8,392.343 770.37,392.196 771.95,388.692 L781.07,368.473 L779.17,367.616 C775.71,366.055 774.73,366.073 773.78,366.609 C772.82,367.041 771.75,368.182 770.33,369.98 L768.89,369.333 C770.36,366.539 771.96,363.656 773.04,361.499 L774.01,361.937 C774.2,363.193 774.71,363.525 775.9,364.058 L792.78,371.671 C793.88,372.167 794.5,372.142 795.58,371.663 L796.55,372.101 C795.73,373.916 794.36,377.515 793.39,380.227 L791.96,379.684" fill="#2F111C"/>
      <path d="M836.25,432.269 C833.78,434.575 833.69,436.046 835.91,438.416 C840.74,443.596 847.68,442.886 853.46,437.485 C856.82,434.357 858.48,430.713 858.21,427.296 C858.1,424.672 857.01,422.275 854.86,419.973 C853.63,418.652 852.69,418.129 852.2,418.079 C851.68,418.061 851.08,418.434 849.96,419.476 L836.25,432.269 z M856.62,419.281 C860.6,423.546 862.75,427.618 862.71,431.646 C862.7,434.824 861.43,438.35 858.21,441.351 C854.12,445.173 849.62,446.328 845.26,445.587 C840.99,444.882 836.86,442.216 832.94,438.018 L825.04,429.554 L826.12,428.543 C828.95,431.099 829.44,431.214 832.32,428.529 L845.49,416.241 C848.4,413.524 848.32,413.03 846.21,410.369 L847.33,409.327 L856.62,419.281" fill="#2F111C"/>
      <path d="M877.42,473.384 C878.43,475.258 879.49,476.426 880.77,476.944 C882.72,477.73 884.68,477.459 886.79,476.313 C891.15,473.956 891.37,470.468 889.96,467.861 C889.39,466.802 888.86,466.301 888.5,466.126 C888.1,465.974 887.61,466.134 886.67,466.641 L876.69,472.04 L877.42,473.384 z M872.32,495.782 C872.14,495.456 871.92,494.945 871.68,494.497 C869.5,489.988 869.68,487.786 871.36,484.666 C872.51,482.515 874.15,479.996 875.59,477.691 C876.46,476.378 876.55,475.38 875.69,473.792 L875.18,472.855 L869.03,476.183 C865.69,477.99 865.53,478.554 866.94,481.845 L865.63,482.55 L859.29,470.82 L860.59,470.115 C862.57,473.097 863.14,473.368 866.52,471.539 L882.45,462.923 C885.79,461.117 885.91,460.574 884.51,457.387 L885.85,456.66 L891.78,467.616 C893.58,470.956 894.28,473.213 894.1,475.415 C893.88,477.639 892.69,479.708 890.16,481.075 C886.62,482.992 883.37,481.75 880.66,479.578 C879.75,480.913 877.86,483.937 876.69,486.15 C875.24,488.829 874.48,490.346 874.07,491.726 C873.52,493.236 873.45,494.274 873.67,495.365 L872.32,495.782" fill="#2F111C"/>
      <path d="M879.71,514.956 L881.13,514.541 C882.44,517.873 882.83,518.195 886.61,517.092 L903.9,512.046 C907.68,510.944 907.87,510.453 907.14,506.952 L908.61,506.524 L912.33,519.283 L910.86,519.71 C909.6,516.366 909.18,516.101 905.4,517.203 L888.11,522.249 C884.38,523.339 884.17,523.785 884.86,527.299 L883.43,527.714 L879.71,514.956" fill="#2F111C"/>
      <path d="M918.74,579.54 C918.45,577.06 917.74,576.08 915.65,575.98 C914.25,575.88 912.06,575.82 907.9,576.08 L889.46,577.21 L889.34,575.26 L911.64,554.41 L911.63,554.32 L900.77,554.98 C896.65,555.24 894.58,555.55 893.21,555.77 C891.05,556.14 890.36,557.06 890.38,560.4 L888.9,560.49 L888.22,549.3 L889.7,549.21 C890.04,551.79 890.8,552.86 892.9,552.96 C894.43,553.01 896.52,553.11 900.64,552.86 L910.48,552.26 C913.63,552.06 914.27,551.98 915.28,551.04 C916.38,550.04 916.69,549.05 916.75,546.96 L918.23,546.87 L918.71,554.82 L898.52,574.38 L898.53,574.52 L907.77,573.95 C911.93,573.7 914.09,573.33 915.43,573.16 C917.4,572.76 918.08,571.74 918.06,568.4 L919.54,568.31 L920.22,579.45 L918.74,579.54" fill="#2F111C"/>
      <path d="M884.13,624.4 C887.78,622.49 893.53,619.78 899.01,617.2 C900.53,616.47 900.87,615.93 900.93,615.18 L892.58,613.49 C888.67,612.7 888.27,613.09 887.23,616.57 L885.78,616.27 L888.39,603.38 L889.84,603.68 C889.49,607.06 889.71,607.57 893.62,608.36 L911.09,611.9 C915.08,612.71 915.44,612.36 916.42,608.92 L917.92,609.22 L915.34,621.97 L913.84,621.67 C914.24,618.3 914,617.83 910.05,617.03 L902.29,615.46 C902.36,616.51 902.83,617.69 903.88,619.28 C906.12,622.71 908.25,625.5 910.08,627.62 C911.34,629.1 911.94,629.18 912.65,627.1 L912.91,626.25 L914.41,626.56 L912.09,638 L910.6,637.69 C910.93,634.64 910.75,632.95 908.84,629.78 C907.13,627.02 905.08,624.1 903.11,621.25 C898.13,623.4 892.38,626.4 888.3,628.55 C885.43,630.14 884.56,631.15 883.9,633.04 L882.44,632.75 L884.13,624.4" fill="#2F111C"/>
      <path d="M690.39,794.41 L693.34,803.49 C693.42,803.73 693.64,803.9 693.9,803.9 L703.45,803.9 C704.02,803.9 704.26,804.63 703.79,804.97 L696.07,810.58 C695.86,810.73 695.78,811 695.86,811.24 L698.81,820.32 C698.98,820.87 698.36,821.32 697.9,820.99 L690.17,815.37 C689.96,815.22 689.68,815.22 689.48,815.37 L681.75,820.99 C681.29,821.32 680.66,820.87 680.84,820.32 L683.79,811.24 C683.87,811 683.78,810.73 683.58,810.58 L675.85,804.97 C675.39,804.63 675.63,803.9 676.2,803.9 L685.75,803.9 C686,803.9 686.23,803.73 686.31,803.49 L689.26,794.41 C689.44,793.86 690.21,793.86 690.39,794.41" fill="#2F111C"/>
      <path d="M645.32,797.04 L647.68,804.3 C647.74,804.5 647.92,804.63 648.13,804.63 L655.76,804.63 C656.22,804.63 656.41,805.22 656.04,805.49 L649.86,809.97 C649.7,810.09 649.63,810.31 649.69,810.5 L652.05,817.76 C652.19,818.2 651.69,818.56 651.32,818.29 L645.15,813.8 C644.98,813.68 644.76,813.68 644.59,813.8 L638.42,818.29 C638.04,818.56 637.54,818.2 637.69,817.76 L640.04,810.5 C640.11,810.31 640.04,810.09 639.87,809.97 L633.7,805.49 C633.33,805.22 633.52,804.63 633.98,804.63 L641.61,804.63 C641.81,804.63 642,804.5 642.06,804.3 L644.42,797.04 C644.56,796.61 645.18,796.61 645.32,797.04" fill="#2F111C"/>
      <path d="M735.23,797.04 L737.59,804.3 C737.65,804.5 737.83,804.63 738.04,804.63 L745.67,804.63 C746.13,804.63 746.32,805.22 745.95,805.49 L739.77,809.97 C739.61,810.09 739.54,810.31 739.6,810.5 L741.96,817.76 C742.1,818.2 741.6,818.56 741.23,818.29 L735.06,813.8 C734.89,813.68 734.67,813.68 734.5,813.8 L728.33,818.29 C727.96,818.56 727.46,818.2 727.6,817.76 L729.96,810.5 C730.02,810.31 729.95,810.09 729.78,809.97 L723.61,805.49 C723.24,805.22 723.43,804.63 723.89,804.63 L731.52,804.63 C731.72,804.63 731.91,804.5 731.97,804.3 L734.33,797.04 C734.47,796.61 735.09,796.61 735.23,797.04" fill="#2F111C"/>
    </g>
  </g>
</svg>
