<?xml version="1.0" encoding="UTF-8"?>
<!DOCTYPE svg PUBLIC "-//W3C//DTD SVG 1.1//EN" "http://www.w3.org/Graphics/SVG/1.1/DTD/svg11.dtd">
<svg version="1.1" xmlns="http://www.w3.org/2000/svg" xmlns:xlink="http://www.w3.org/1999/xlink" x="0" y="0" width="140" height="69.592" viewBox="0, 0, 140, 69.592">
  <g id="Layer_1" transform="translate(-50.825, -67.404)">
    <g>
      <g>
        <path d="M78.704,125.374 C74.428,128.509 75.445,129.514 82.854,128.62 C88.004,127.998 88.844,126.755 91.671,125.705 L78.704,125.374" fill="#4E4E4C"/>
        <path d="M112.306,123.615 C91.192,127.215 75.068,127.616 66.904,124.745 C52.451,119.662 49.901,107.668 51.715,100.847 C53.828,91.575 56.521,89.895 59.64,87.95 C60.581,87.362 61.554,86.755 62.574,85.897 L62.952,85.577 L62.935,85.565 C65.088,83.514 66.452,80.576 67.89,77.476 C69.298,74.442 70.755,71.305 73.032,68.97 C73.707,68.278 74.292,67.886 74.771,67.804 C75.085,67.75 75.342,67.835 75.578,68.072 C76.982,69.483 76.929,75.364 76.168,80.181 C75.381,85.164 77.348,86.472 80.071,88.282 C81.247,89.063 82.579,89.949 83.93,91.292 C86.586,93.935 87.179,95.998 86.88,96.961 C86.81,97.186 86.655,97.466 86.319,97.524 C86.193,97.545 86.055,97.533 85.909,97.488 C83.032,96.603 79.192,97.155 76.107,97.598 C74.709,97.799 73.5,97.972 72.623,97.979 C72.623,97.979 72.489,97.98 72.45,97.979 L72.297,97.97 C71.135,97.91 70.14,97.478 69.341,97.129 C68.571,96.794 67.919,96.511 67.376,96.603 C67.338,96.61 67.301,96.618 67.266,96.628 C66.749,96.767 66.246,97.326 65.734,98.337 L65.537,98.727 L65.943,98.874 C73.445,101.589 83.367,101.757 97.17,99.404 C104.388,98.173 111.761,96.402 118.266,94.84 L118.743,94.725 C132.762,91.36 150.189,88.221 152.13,87.874 L152.23,87.856 L152.308,87.79 C152.85,87.331 153.458,87.042 154.113,86.93 C155.549,86.685 156.754,87.347 157.089,87.555 L157.167,87.604 L157.26,87.611 C158.812,87.726 163.004,87.184 166.243,86.632 C167.919,86.346 171.962,85.607 173.29,84.921 C173.948,84.582 174.686,84.336 175.423,84.21 C176.674,83.997 177.856,84.136 178.662,84.593 C179.249,84.925 179.599,85.422 179.646,85.993 C179.847,88.485 177.687,90.741 175.186,93.352 L174.841,93.712 C171.996,97.105 170.338,101.183 169.6,103.313 L169.465,103.702 L169.858,103.811 C171.674,104.312 173.837,104.337 176.47,103.888 C178.584,103.528 180.623,102.925 182.261,102.442 L182.453,102.385 C182.649,102.327 182.837,102.284 183.01,102.254 C183.895,102.102 184.441,102.31 184.633,102.868 C185.24,104.634 180.13,108.8 174.507,111.123 C171.777,112.249 167.181,113.354 160.457,114.501 C160.456,114.501 160.457,114.501 160.457,114.501 C156.758,115.131 152.858,115.703 149.417,116.207 C146.748,116.599 144.242,116.966 142.348,117.29 C141.16,117.492 140.282,117.665 139.665,117.818 C130.037,120.211 120.833,122.161 112.306,123.615" fill="#FFFFFE"/>
        <path d="M173.934,109.699 C168.822,111.809 157.482,113.472 149.199,114.686 C144.882,115.319 141.154,115.864 139.303,116.324 C89.438,128.716 71.662,124.791 67.402,123.293 C60.456,120.85 51.303,113.61 52.785,103.208 C53.759,110.573 60.876,118.732 86.232,117.691 C113.373,116.577 135.761,111.64 140.822,110.451 C140.825,110.452 140.826,110.452 140.828,110.453 C142.181,110.932 143.492,111.332 144.628,111.677 C148.533,112.862 155.356,111.522 155.08,111.568 C154.805,111.613 154.532,111.654 154.262,111.688 C154.17,111.7 154.08,111.708 153.989,111.719 C153.81,111.74 153.632,111.761 153.456,111.778 C153.35,111.788 153.245,111.793 153.138,111.802 C152.979,111.814 152.82,111.827 152.664,111.837 C152.553,111.842 152.443,111.846 152.332,111.85 C152.183,111.856 152.033,111.862 151.886,111.866 C151.773,111.868 151.663,111.866 151.551,111.867 C151.407,111.867 151.264,111.868 151.122,111.866 C151.009,111.864 150.898,111.859 150.786,111.855 C150.648,111.85 150.509,111.846 150.372,111.839 C150.26,111.833 150.149,111.824 150.039,111.816 C149.905,111.806 149.77,111.797 149.637,111.786 C149.527,111.774 149.418,111.762 149.308,111.75 C149.177,111.736 149.047,111.722 148.917,111.705 C148.808,111.691 148.701,111.674 148.593,111.658 C148.466,111.639 148.338,111.62 148.212,111.599 C148.105,111.581 148,111.561 147.895,111.541 C147.77,111.518 147.646,111.495 147.522,111.47 C147.418,111.447 147.315,111.424 147.212,111.4 C147.09,111.373 146.968,111.345 146.849,111.315 C146.746,111.29 146.645,111.264 146.544,111.236 C146.426,111.205 146.308,111.173 146.19,111.139 C146.091,111.11 145.992,111.08 145.893,111.049 C145.777,111.014 145.662,110.978 145.549,110.941 C145.451,110.909 145.354,110.875 145.258,110.842 C145.146,110.803 145.035,110.762 144.924,110.721 C144.829,110.686 144.734,110.649 144.64,110.613 C144.531,110.57 144.423,110.526 144.315,110.481 C144.223,110.442 144.131,110.404 144.04,110.364 C143.933,110.318 143.828,110.271 143.723,110.222 C143.633,110.181 143.545,110.139 143.456,110.097 C143.352,110.047 143.25,109.996 143.148,109.944 C143.062,109.9 142.975,109.856 142.89,109.811 C142.789,109.758 142.691,109.704 142.592,109.649 C142.508,109.603 142.423,109.556 142.34,109.507 C142.243,109.451 142.149,109.394 142.054,109.338 C141.972,109.288 141.89,109.238 141.808,109.187 C141.717,109.129 141.625,109.07 141.534,109.01 C141.454,108.958 141.374,108.905 141.296,108.852 C141.206,108.791 141.119,108.729 141.032,108.667 C140.955,108.613 140.877,108.558 140.801,108.502 C140.716,108.439 140.633,108.374 140.549,108.31 C140.474,108.253 140.399,108.196 140.325,108.137 C140.244,108.073 140.165,108.007 140.084,107.941 C140.012,107.881 139.939,107.821 139.867,107.761 C139.791,107.694 139.716,107.627 139.64,107.559 C139.57,107.497 139.499,107.435 139.43,107.371 C139.359,107.305 139.29,107.238 139.22,107.171 C139.15,107.103 139.079,107.037 139.01,106.97 C138.947,106.906 138.886,106.841 138.825,106.778 C138.753,106.704 138.681,106.632 138.611,106.557 C138.559,106.5 138.508,106.443 138.456,106.387 C138.382,106.303 138.305,106.22 138.233,106.136 C138.208,106.108 138.185,106.079 138.162,106.052 C137.848,105.684 137.557,105.307 137.289,104.923 C137.27,104.896 137.25,104.869 137.232,104.843 C137.156,104.732 137.085,104.622 137.013,104.51 C136.987,104.471 136.961,104.433 136.936,104.394 C136.868,104.286 136.804,104.177 136.738,104.068 C136.714,104.025 136.687,103.984 136.662,103.941 C136.6,103.833 136.541,103.726 136.483,103.618 C136.458,103.573 136.433,103.528 136.409,103.483 C136.352,103.374 136.299,103.267 136.246,103.159 C136.223,103.113 136.2,103.068 136.178,103.021 C136.125,102.912 136.077,102.804 136.029,102.694 C136.008,102.648 135.987,102.603 135.967,102.558 C135.922,102.448 135.876,102.338 135.834,102.228 C135.816,102.182 135.797,102.137 135.78,102.092 C135.737,101.981 135.699,101.871 135.66,101.759 C135.644,101.715 135.63,101.67 135.614,101.625 C135.577,101.513 135.542,101.402 135.509,101.29 C135.496,101.245 135.483,101.202 135.47,101.158 C135.439,101.045 135.408,100.933 135.381,100.82 C135.37,100.778 135.359,100.735 135.349,100.692 C135.322,100.578 135.298,100.464 135.275,100.351 C135.267,100.31 135.259,100.269 135.251,100.228 C135.229,100.112 135.21,99.998 135.193,99.883 C135.187,99.845 135.181,99.805 135.176,99.766 C135.16,99.65 135.146,99.534 135.134,99.419 C135.13,99.382 135.127,99.345 135.123,99.308 C135.112,99.191 135.104,99.074 135.098,98.957 C135.096,98.923 135.096,98.888 135.094,98.855 C135.089,98.736 135.087,98.618 135.087,98.501 C135.088,98.469 135.088,98.438 135.088,98.406 C135.089,98.287 135.094,98.168 135.1,98.05 C135.102,98.021 135.104,97.993 135.106,97.963 C135.114,97.842 135.124,97.723 135.137,97.604 C135.14,97.578 135.144,97.553 135.147,97.528 C135.162,97.406 135.179,97.285 135.199,97.165 C135.203,97.144 135.207,97.123 135.211,97.101 C135.233,96.978 135.258,96.855 135.286,96.735 C135.291,96.717 135.295,96.701 135.299,96.683 C135.328,96.558 135.361,96.435 135.398,96.313 C135.402,96.3 135.406,96.288 135.41,96.275 C135.448,96.149 135.49,96.024 135.535,95.9 C135.537,95.894 135.54,95.888 135.543,95.881 C136.188,94.145 137.531,92.686 139.66,91.793 C139.661,91.793 139.661,91.793 139.661,91.793 C142.825,91.168 145.641,90.633 147.837,90.223 C147.283,90.384 146.738,90.547 146.212,90.698 C145.745,90.833 145.296,90.965 144.869,91.09 C144.442,91.212 144.045,91.358 143.676,91.477 C142.203,91.966 141.222,92.291 141.222,92.291 C141.222,92.291 142.233,92.082 143.75,91.767 C144.128,91.692 144.534,91.595 144.973,91.523 C145.409,91.449 145.87,91.371 146.347,91.29 C147.301,91.134 148.312,90.945 149.332,90.798 C149.533,90.768 149.733,90.739 149.934,90.71 C149.883,90.726 149.834,90.739 149.782,90.756 C149.469,90.863 149.136,90.975 148.803,91.088 C148.469,91.199 148.138,91.313 147.834,91.441 C147.528,91.562 147.244,91.675 147,91.772 C146.512,91.966 146.189,92.095 146.189,92.095 C146.189,92.095 146.533,92.035 147.048,91.945 C147.305,91.901 147.604,91.849 147.924,91.794 C148.242,91.732 148.587,91.689 148.932,91.65 C149.274,91.609 149.617,91.568 149.939,91.528 C150.258,91.491 150.558,91.477 150.812,91.454 C150.965,91.441 151.1,91.43 151.219,91.422 C151.286,91.522 151.356,91.621 151.436,91.72 C151.536,91.86 151.673,91.985 151.792,92.117 C151.935,92.234 152.059,92.367 152.219,92.464 C152.37,92.569 152.524,92.665 152.691,92.733 C152.848,92.816 153.017,92.86 153.176,92.903 C153.333,92.958 153.494,92.959 153.64,92.978 C153.785,93.002 153.923,92.988 154.049,92.98 C154.174,92.968 154.288,92.977 154.386,92.948 C154.484,92.926 154.569,92.908 154.64,92.893 C154.778,92.863 154.857,92.845 154.857,92.845 C154.857,92.845 154.776,92.839 154.634,92.827 C154.566,92.821 154.482,92.814 154.385,92.806 C154.289,92.806 154.183,92.764 154.071,92.742 C153.956,92.713 153.835,92.69 153.716,92.63 C153.597,92.575 153.466,92.537 153.354,92.451 C153.237,92.377 153.118,92.305 153.017,92.201 C152.906,92.114 152.814,92.004 152.727,91.892 C152.632,91.79 152.569,91.654 152.492,91.545 C152.435,91.413 152.363,91.302 152.322,91.172 C152.273,91.049 152.231,90.928 152.201,90.809 C152.164,90.694 152.146,90.576 152.122,90.475 C152.117,90.446 152.114,90.419 152.109,90.392 C152.122,90.39 152.136,90.388 152.15,90.385 C153.295,93.061 157.496,93.014 157.936,90.085 C157.959,90.207 157.954,90.324 157.965,90.449 C157.959,90.569 157.96,90.695 157.941,90.814 C157.915,90.93 157.906,91.057 157.859,91.163 C157.822,91.273 157.786,91.386 157.726,91.477 C157.673,91.573 157.625,91.672 157.558,91.743 C157.495,91.818 157.439,91.894 157.383,91.954 C157.321,92.008 157.266,92.055 157.22,92.094 C157.129,92.174 157.076,92.22 157.076,92.22 C157.076,92.22 157.141,92.195 157.254,92.152 C157.312,92.129 157.383,92.102 157.464,92.07 C157.54,92.03 157.623,91.977 157.717,91.921 C157.817,91.869 157.903,91.786 158.001,91.701 C158.105,91.619 158.189,91.512 158.279,91.398 C158.379,91.288 158.442,91.154 158.523,91.021 C158.598,90.885 158.652,90.739 158.711,90.591 C158.752,90.443 158.81,90.289 158.834,90.138 C158.867,89.987 158.893,89.836 158.907,89.691 C158.931,89.483 158.937,89.291 158.937,89.11 C160.653,89.002 163.023,88.714 165.401,88.334 C165.281,88.417 165.167,88.497 165.042,88.583 C164.539,88.93 164.002,89.301 163.466,89.672 C162.92,90.04 162.373,90.409 161.861,90.754 C161.348,91.096 160.876,91.431 160.469,91.713 C159.659,92.278 159.118,92.655 159.118,92.655 C159.118,92.655 159.707,92.36 160.589,91.921 C161.031,91.7 161.541,91.441 162.099,91.176 C162.655,90.91 163.247,90.625 163.84,90.34 C164.436,90.046 165.031,89.752 165.589,89.476 C165.748,89.397 165.901,89.321 166.052,89.245 C165.486,89.647 164.903,90.048 164.322,90.48 C163.661,90.964 162.988,91.45 162.33,91.962 C161.999,92.214 161.669,92.465 161.34,92.717 C161.016,92.977 160.695,93.235 160.375,93.491 C159.731,93.996 159.118,94.522 158.526,95.03 C157.924,95.526 157.379,96.05 156.849,96.531 C156.313,97.004 155.853,97.506 155.409,97.943 C154.959,98.376 154.597,98.822 154.259,99.202 C154.092,99.392 153.936,99.571 153.792,99.736 C153.654,99.907 153.539,100.073 153.43,100.22 C152.997,100.804 152.75,101.139 152.75,101.139 C152.75,101.139 153.02,100.824 153.491,100.272 C153.611,100.135 153.736,99.979 153.884,99.819 C154.039,99.666 154.207,99.499 154.386,99.322 C154.748,98.971 155.136,98.557 155.614,98.161 C156.085,97.759 156.571,97.299 157.136,96.869 C157.694,96.432 158.267,95.955 158.898,95.507 C159.519,95.047 160.16,94.573 160.832,94.121 C161.166,93.89 161.503,93.658 161.84,93.425 C162.183,93.201 162.528,92.975 162.872,92.75 C163.557,92.293 164.257,91.86 164.944,91.43 C165.627,90.995 166.318,90.596 166.977,90.194 C168.303,89.407 169.553,88.692 170.631,88.095 C171.71,87.498 172.614,87.011 173.249,86.679 C173.752,86.417 174.081,86.247 174.197,86.187 C174.994,85.82 175.842,85.659 176.558,85.66 C176.532,85.673 176.507,85.682 176.482,85.696 C176.238,85.825 175.973,85.963 175.693,86.11 C175.421,86.266 175.153,86.458 174.867,86.641 C174.584,86.831 174.28,87.008 174.011,87.242 C173.734,87.463 173.454,87.688 173.172,87.913 L172.752,88.25 C172.624,88.373 172.496,88.496 172.367,88.619 C172.113,88.863 171.863,89.103 171.62,89.335 C171.383,89.572 171.135,89.781 170.934,90.013 C170.731,90.244 170.539,90.461 170.362,90.662 C169.656,91.463 169.186,91.997 169.186,91.997 C169.186,91.997 169.706,91.514 170.487,90.79 C170.682,90.61 170.892,90.415 171.116,90.208 C171.335,90 171.601,89.818 171.858,89.609 C172.117,89.406 172.386,89.197 172.659,88.983 C172.795,88.877 172.932,88.769 173.071,88.661 L173.51,88.377 C173.804,88.187 174.097,87.997 174.385,87.811 C174.666,87.613 174.974,87.475 175.259,87.321 C175.548,87.177 175.82,87.02 176.088,86.9 C176.36,86.791 176.617,86.689 176.854,86.594 C177.087,86.488 177.312,86.442 177.505,86.382 C177.51,86.379 177.514,86.379 177.519,86.378 C173.097,88.341 162.826,97.804 158.749,102.591 C158.978,102.293 159.205,101.99 159.429,101.687 C160.4,100.367 161.382,99.069 162.216,98.176 C162.63,97.727 162.996,97.372 163.26,97.134 C163.527,96.896 163.684,96.766 163.684,96.766 C163.684,96.766 163.516,96.882 163.23,97.095 C162.945,97.31 162.547,97.633 162.091,98.046 C161.176,98.87 160.07,100.094 158.991,101.32 C158.449,101.931 157.905,102.535 157.371,103.061 C156.838,103.586 156.313,104.034 155.833,104.327 C155.649,104.448 155.472,104.533 155.307,104.607 C153.343,105.218 151.171,105.085 149.236,103.343 C149.236,103.343 153.262,109.579 161.08,103.346 C161.059,103.369 161.041,103.39 161.022,103.415 C160.909,103.555 160.778,103.681 160.652,103.821 C160.523,103.957 160.396,104.103 160.259,104.236 C160.119,104.366 159.979,104.496 159.84,104.623 C159.7,104.749 159.567,104.886 159.421,104.987 C159.278,105.097 159.139,105.203 159.008,105.303 C158.873,105.398 158.753,105.512 158.627,105.578 C158.117,105.871 157.778,106.068 157.778,106.068 C157.778,106.068 158.166,105.982 158.746,105.852 C158.898,105.825 159.042,105.753 159.207,105.7 C159.371,105.641 159.543,105.579 159.721,105.514 C159.905,105.455 160.076,105.363 160.259,105.28 C160.439,105.194 160.624,105.106 160.808,105.018 C160.983,104.931 161.148,104.83 161.316,104.737 C161.364,104.73 161.449,104.719 161.573,104.702 C161.638,104.7 161.707,104.7 161.797,104.692 C161.909,104.698 162.042,104.703 162.19,104.718 C162.787,104.783 163.63,104.977 164.475,105.198 C165.321,105.416 166.176,105.646 166.83,105.765 C167.156,105.829 167.431,105.864 167.624,105.881 C167.815,105.893 167.924,105.899 167.924,105.899 C167.924,105.899 167.819,105.869 167.635,105.816 C167.453,105.758 167.197,105.666 166.898,105.536 C166.298,105.281 165.525,104.878 164.74,104.477 C164.497,104.352 164.252,104.231 164.009,104.113 C164.117,104.148 164.226,104.183 164.341,104.223 C164.64,104.335 164.964,104.456 165.31,104.605 C165.66,104.754 166.028,104.911 166.409,105.073 C166.794,105.238 167.199,105.4 167.617,105.557 C167.822,105.639 168.042,105.702 168.255,105.776 C168.467,105.852 168.685,105.917 168.907,105.971 C169.343,106.1 169.791,106.183 170.229,106.264 C170.447,106.309 170.672,106.318 170.886,106.345 C171.104,106.365 171.316,106.402 171.529,106.399 C171.951,106.401 172.357,106.434 172.742,106.393 C173.126,106.363 173.489,106.359 173.819,106.295 C174.147,106.244 174.45,106.197 174.716,106.155 C174.98,106.093 175.211,106.039 175.399,105.994 C175.774,105.904 175.991,105.853 175.991,105.853 C175.991,105.853 175.77,105.881 175.387,105.929 C175.197,105.953 174.964,105.982 174.698,106.015 C174.431,106.027 174.129,106.04 173.8,106.056 C173.473,106.083 173.117,106.048 172.744,106.037 C172.369,106.037 171.979,105.961 171.576,105.914 C171.374,105.896 171.176,105.838 170.971,105.797 C170.769,105.748 170.561,105.718 170.358,105.652 C169.951,105.53 169.54,105.408 169.142,105.241 C169.007,105.191 168.875,105.13 168.743,105.072 C172.677,106.446 177.463,105.399 181.016,104.402 C180.714,104.564 180.378,104.742 179.999,104.922 C179.71,105.062 179.403,105.211 179.08,105.369 C178.748,105.514 178.402,105.667 178.039,105.827 C177.679,105.992 177.296,106.147 176.897,106.302 C176.499,106.458 176.088,106.62 175.665,106.787 C175.234,106.937 174.793,107.09 174.342,107.249 C174.117,107.326 173.888,107.406 173.657,107.485 C173.423,107.556 173.187,107.627 172.949,107.698 C172.473,107.842 171.989,107.987 171.498,108.135 C171.001,108.261 170.499,108.387 169.993,108.514 C168.982,108.792 167.935,108.973 166.893,109.184 C166.371,109.299 165.846,109.372 165.321,109.445 C164.796,109.521 164.272,109.595 163.754,109.67 C162.715,109.807 161.682,109.863 160.687,109.96 C160.188,110.017 159.697,110.007 159.216,110.027 C158.734,110.04 158.262,110.054 157.803,110.067 C156.885,110.117 156.019,110.048 155.217,110.031 C154.816,110.017 154.43,110.004 154.065,109.991 C153.882,109.985 153.704,109.979 153.531,109.974 C153.358,109.957 153.191,109.941 153.029,109.926 C152.378,109.862 151.812,109.806 151.346,109.761 C150.412,109.668 149.877,109.616 149.877,109.616 C149.877,109.616 150.408,109.698 151.336,109.842 C151.8,109.915 152.364,110.002 153.011,110.102 C153.173,110.126 153.34,110.152 153.512,110.178 C153.686,110.194 153.863,110.21 154.047,110.226 C154.413,110.259 154.797,110.294 155.199,110.33 C156.002,110.393 156.872,110.51 157.797,110.512 C158.26,110.525 158.736,110.539 159.221,110.552 C159.707,110.56 160.205,110.597 160.709,110.568 C161.719,110.526 162.767,110.527 163.827,110.448 C164.355,110.403 164.891,110.355 165.425,110.309 C165.963,110.265 166.502,110.22 167.036,110.134 C168.107,109.978 169.184,109.854 170.228,109.63 C170.753,109.529 171.273,109.427 171.787,109.328 C172.295,109.206 172.798,109.084 173.293,108.964 C173.54,108.905 173.786,108.846 174.03,108.787 C174.27,108.719 174.509,108.651 174.744,108.585 C175.217,108.448 175.678,108.315 176.127,108.186 C176.573,108.04 177.005,107.897 177.423,107.759 C177.745,107.654 178.053,107.547 178.353,107.437 C177.092,108.221 175.609,109.007 173.934,109.699 z M68.347,90.126 C70.128,91.888 71.721,94.055 72.173,96.421 C71.379,96.339 70.649,96.025 69.939,95.716 C68.962,95.291 67.954,94.851 66.878,95.141 C65.88,95.409 65.082,96.214 64.34,97.714 C64.316,97.693 64.301,97.681 64.301,97.681 C63.715,92.576 66.116,90.747 68.347,90.126 z M166.432,103.886 C166.22,103.768 166.012,103.652 165.812,103.54 C165.712,103.483 165.613,103.431 165.513,103.378 C165.857,103.436 166.197,103.503 166.53,103.58 L166.432,103.886 z M184.991,102.742 C184.816,102.231 184.24,101.458 182.347,102.016 L182.155,102.073 C178.747,103.079 173.857,104.515 169.958,103.44 C170.662,101.404 172.305,97.33 175.113,93.979 C175.229,93.859 175.344,93.739 175.458,93.619 C178.024,90.941 180.239,88.626 180.023,85.961 C179.966,85.259 179.549,84.653 178.848,84.257 C177.413,83.446 175.058,83.579 173.119,84.579 C170.951,85.697 159.812,87.415 157.288,87.228 C156.178,86.537 153.968,85.884 152.064,87.495 C149.736,87.911 132.612,91 118.656,94.351 L118.178,94.466 C101.174,98.55 80.133,103.601 66.071,98.513 C66.518,97.631 66.96,97.107 67.365,96.998 C67.805,96.877 68.447,97.159 69.191,97.483 C70.032,97.848 71.064,98.292 72.279,98.353 C72.279,98.355 72.279,98.356 72.278,98.358 C72.381,98.364 72.491,98.364 72.606,98.364 C72.613,98.364 72.619,98.364 72.626,98.365 L72.626,98.364 C75.496,98.34 81.718,96.6 85.799,97.856 C87.525,98.387 88.682,95.481 84.196,91.018 C79.709,86.554 75.463,87.078 76.543,80.241 C77.613,73.468 77.439,63.905 72.762,68.7 C68.023,73.558 66.843,81.666 62.33,85.6 L62.332,85.601 C61.333,86.441 60.377,87.038 59.442,87.622 C56.25,89.613 53.494,91.332 51.348,100.747 C49.498,107.707 52.082,119.939 66.78,125.108 C75.126,128.043 91.392,127.571 112.37,123.994 C120.805,122.555 130.006,120.614 139.755,118.192 C141.518,117.754 145.204,117.214 149.471,116.589 C158.316,115.292 169.323,113.677 174.65,111.478 C180.053,109.246 185.749,104.944 184.991,102.742" fill="#4E4E4C"/>
      </g>
      <path d="M157.764,88.198 C159.23,93.234 152.694,93.618 151.935,89.68 C151.223,85.98 157.344,86.757 157.764,88.198" fill="#4E4E4C"/>
      <path d="M157.502,89.671 C157.502,89.671 156.478,89.805 154.942,90.005 C154.176,90.109 153.275,90.215 152.324,90.36 C151.369,90.5 150.35,90.649 149.332,90.798 C148.312,90.945 147.301,91.134 146.347,91.29 C145.87,91.371 145.409,91.449 144.973,91.523 C144.534,91.595 144.128,91.692 143.75,91.767 C142.233,92.082 141.222,92.291 141.222,92.291 C141.222,92.291 142.203,91.966 143.676,91.477 C144.045,91.358 144.442,91.212 144.869,91.09 C145.296,90.965 145.745,90.833 146.212,90.698 C147.144,90.432 148.136,90.124 149.136,89.857 C150.138,89.589 151.14,89.322 152.078,89.07 C153.018,88.813 153.895,88.604 154.646,88.412 C156.149,88.034 157.151,87.782 157.151,87.782 L157.502,89.671" fill="#4E4E4C"/>
      <path d="M151.671,91.398 C151.671,91.398 151.317,91.409 150.812,91.454 C150.558,91.477 150.258,91.491 149.939,91.528 C149.617,91.568 149.274,91.609 148.932,91.65 C148.587,91.689 148.242,91.732 147.924,91.794 C147.604,91.849 147.305,91.901 147.048,91.945 C146.533,92.035 146.189,92.095 146.189,92.095 C146.189,92.095 146.512,91.966 147,91.772 C147.244,91.675 147.528,91.562 147.834,91.441 C148.138,91.313 148.469,91.199 148.803,91.088 C149.136,90.975 149.469,90.863 149.782,90.756 C150.096,90.652 150.397,90.572 150.653,90.494 C151.169,90.339 151.503,90.258 151.503,90.258 L151.671,91.398" fill="#4E4E4C"/>
      <path d="M179.079,86.039 C176.259,85.368 162.765,97.697 158.399,103.006 C158.399,103.006 166.214,102.57 169.549,104.729 C169.549,104.729 171.552,97.35 176.378,92.605 C180.388,88.665 179.079,86.039 179.079,86.039" fill="#4E4E4C"/>
      <path d="M174.246,86.161 C174.246,86.161 173.884,86.349 173.249,86.679 C172.614,87.011 171.71,87.498 170.631,88.096 C169.553,88.692 168.303,89.407 166.977,90.194 C166.318,90.596 165.627,90.995 164.944,91.43 C164.257,91.86 163.557,92.293 162.872,92.75 C162.528,92.975 162.183,93.201 161.84,93.425 C161.503,93.658 161.166,93.89 160.832,94.121 C160.16,94.573 159.519,95.047 158.898,95.507 C158.267,95.955 157.694,96.432 157.136,96.869 C156.571,97.299 156.085,97.759 155.614,98.161 C155.136,98.557 154.748,98.971 154.386,99.322 C154.207,99.499 154.039,99.666 153.884,99.819 C153.736,99.979 153.611,100.135 153.491,100.272 C153.02,100.824 152.75,101.139 152.75,101.139 C152.75,101.139 152.997,100.804 153.43,100.22 C153.539,100.073 153.654,99.907 153.792,99.736 C153.936,99.571 154.092,99.392 154.259,99.202 C154.597,98.822 154.959,98.376 155.409,97.943 C155.853,97.506 156.313,97.004 156.849,96.531 C157.379,96.051 157.924,95.526 158.526,95.03 C159.118,94.522 159.731,93.996 160.375,93.491 C160.695,93.235 161.016,92.977 161.34,92.717 C161.669,92.465 161.999,92.214 162.33,91.962 C162.988,91.45 163.661,90.964 164.322,90.48 C164.98,89.991 165.645,89.539 166.28,89.086 C167.56,88.195 168.767,87.384 169.812,86.702 C170.856,86.02 171.735,85.462 172.356,85.078 C172.978,84.695 173.335,84.475 173.335,84.475 L174.246,86.161" fill="#4E4E4C"/>
      <path d="M168.539,87.894 C168.539,87.894 167.963,88.212 167.099,88.691 C166.881,88.809 166.653,88.944 166.397,89.074 C166.141,89.201 165.87,89.336 165.589,89.476 C165.031,89.752 164.436,90.046 163.84,90.34 C163.248,90.625 162.655,90.91 162.099,91.176 C161.541,91.441 161.031,91.7 160.589,91.921 C159.707,92.36 159.118,92.655 159.118,92.655 C159.118,92.655 159.659,92.278 160.469,91.713 C160.876,91.431 161.348,91.096 161.861,90.754 C162.373,90.409 162.92,90.04 163.466,89.672 C164.002,89.301 164.539,88.93 165.042,88.583 C165.292,88.41 165.534,88.242 165.762,88.084 C165.99,87.923 166.201,87.753 166.398,87.605 C167.183,87.007 167.708,86.607 167.708,86.607 L168.539,87.894" fill="#4E4E4C"/>
      <path d="M160.533,100.951 C158.54,103.474 153.353,107.048 149.236,103.343 C149.236,103.343 153.551,110.031 161.92,102.641 C168.543,96.795 160.533,100.951 160.533,100.951" fill="#4E4E4C"/>
      <path d="M163.569,103.198 C163.569,103.198 163.488,103.262 163.347,103.375 C163.197,103.497 162.985,103.66 162.731,103.837 C162.483,104.023 162.174,104.213 161.853,104.423 C161.694,104.529 161.514,104.621 161.34,104.723 C161.164,104.821 160.992,104.927 160.808,105.018 C160.624,105.106 160.439,105.194 160.259,105.28 C160.076,105.363 159.905,105.455 159.721,105.514 C159.543,105.579 159.371,105.641 159.207,105.7 C159.042,105.753 158.898,105.825 158.746,105.852 C158.166,105.982 157.778,106.068 157.778,106.068 C157.778,106.068 158.117,105.871 158.627,105.578 C158.753,105.512 158.873,105.398 159.008,105.303 C159.139,105.203 159.278,105.097 159.421,104.987 C159.567,104.886 159.7,104.749 159.84,104.623 C159.979,104.496 160.119,104.366 160.259,104.236 C160.396,104.103 160.523,103.957 160.652,103.821 C160.778,103.681 160.909,103.555 161.022,103.415 C161.249,103.137 161.466,102.89 161.632,102.659 C161.807,102.432 161.938,102.246 162.022,102.118 C162.114,101.98 162.168,101.901 162.168,101.901 L163.569,103.198" fill="#4E4E4C"/>
      <path d="M170.102,99.929 C171.641,93.459 179.341,90.535 178.467,86.242 C179.88,89.963 173.125,93.661 170.102,99.929" fill="#FFFFFE"/>
      <path d="M156.659,109.249 C141.099,106.851 142.644,95.17 142.644,95.17 C142.644,95.17 138.174,108.684 156.659,109.249" fill="#4E4E4C"/>
      <path d="M157.902,108.456 C147.034,107.355 143.533,98.407 143.533,98.407 C143.533,98.407 146.07,108.459 157.902,108.456" fill="#4E4E4C"/>
      <path d="M162.607,102.257 C162.607,102.257 162.822,102.307 163.198,102.396 C163.388,102.442 163.662,102.544 163.948,102.639 C164.228,102.747 164.52,102.877 164.836,103.026 C165.145,103.181 165.477,103.351 165.812,103.54 C166.145,103.726 166.496,103.922 166.86,104.125 C167.217,104.328 167.59,104.525 167.969,104.717 C168.159,104.818 168.355,104.897 168.549,104.99 C168.743,105.084 168.941,105.167 169.142,105.241 C169.54,105.408 169.952,105.53 170.358,105.652 C170.561,105.718 170.769,105.748 170.971,105.797 C171.176,105.838 171.374,105.896 171.576,105.914 C171.979,105.961 172.369,106.037 172.744,106.037 C173.117,106.048 173.473,106.083 173.8,106.056 C174.129,106.04 174.431,106.027 174.698,106.015 C174.964,105.982 175.197,105.953 175.387,105.929 C175.77,105.881 175.991,105.853 175.991,105.853 C175.991,105.853 175.774,105.904 175.399,105.994 C175.211,106.039 174.98,106.094 174.717,106.155 C174.45,106.197 174.147,106.244 173.819,106.295 C173.489,106.359 173.126,106.363 172.742,106.393 C172.357,106.434 171.951,106.401 171.529,106.399 C171.316,106.402 171.104,106.365 170.886,106.345 C170.672,106.318 170.447,106.309 170.229,106.264 C169.791,106.183 169.343,106.1 168.907,105.971 C168.685,105.917 168.467,105.852 168.255,105.776 C168.042,105.702 167.822,105.639 167.617,105.557 C167.199,105.4 166.794,105.238 166.409,105.073 C166.028,104.911 165.66,104.754 165.31,104.605 C164.964,104.456 164.64,104.335 164.341,104.223 C164.046,104.12 163.769,104.033 163.537,103.971 C163.305,103.926 163.134,103.871 162.945,103.845 C162.562,103.798 162.342,103.771 162.342,103.771 L162.607,102.257" fill="#4E4E4C"/>
      <path d="M161.231,103.206 C161.231,103.206 161.34,103.215 161.531,103.231 C161.656,103.249 161.817,103.276 161.991,103.31 C162.14,103.352 162.303,103.396 162.474,103.454 C163.151,103.686 163.956,104.075 164.74,104.477 C165.525,104.878 166.298,105.281 166.898,105.536 C167.197,105.666 167.453,105.758 167.635,105.816 C167.819,105.869 167.924,105.9 167.924,105.9 C167.924,105.9 167.815,105.893 167.624,105.881 C167.431,105.864 167.156,105.829 166.83,105.765 C166.176,105.646 165.321,105.416 164.475,105.198 C163.63,104.977 162.787,104.783 162.19,104.718 C162.042,104.703 161.909,104.698 161.797,104.692 C161.707,104.7 161.638,104.7 161.573,104.702 C161.382,104.727 161.273,104.742 161.273,104.742 L161.231,103.206" fill="#4E4E4C"/>
      <path d="M162.248,101.837 C162.248,101.837 166.57,104.729 171.253,104.908 C165.689,103.745 162.941,101.177 162.941,101.177 L162.248,101.837" fill="#FFFFFE"/>
      <path d="M161.865,102.383 C161.865,102.383 162.077,101.975 162.449,101.402 C162.632,101.113 162.865,100.79 163.117,100.445 C163.37,100.101 163.661,99.752 163.948,99.398 C164.254,99.062 164.551,98.717 164.855,98.416 C165.162,98.119 165.449,97.843 165.708,97.621 C165.974,97.406 166.206,97.24 166.363,97.119 C166.522,97 166.616,96.936 166.616,96.936 C166.616,96.936 166.543,97.026 166.411,97.175 C166.276,97.32 166.092,97.537 165.86,97.78 C165.637,98.035 165.382,98.337 165.098,98.648 C164.954,98.801 164.823,98.979 164.674,99.142 C164.53,99.309 164.382,99.48 164.235,99.65 C163.942,99.993 163.65,100.335 163.377,100.657 C163.105,100.982 162.842,101.277 162.622,101.536 C162.396,101.79 162.208,102.002 162.077,102.151 C161.942,102.298 161.865,102.383 161.865,102.383" fill="#FFFFFE"/>
      <path d="M152.983,90.692 C152.983,90.692 152.93,90.614 152.866,90.464 C152.801,90.313 152.727,90.091 152.689,89.807 C152.674,89.665 152.655,89.508 152.669,89.339 C152.668,89.171 152.713,88.991 152.755,88.806 C152.823,88.627 152.888,88.432 153.015,88.264 C153.117,88.078 153.289,87.944 153.442,87.796 C153.529,87.737 153.621,87.688 153.711,87.634 C153.8,87.58 153.892,87.532 153.989,87.508 C154.177,87.452 154.365,87.38 154.546,87.38 C154.726,87.372 154.902,87.344 155.061,87.367 C155.221,87.385 155.371,87.41 155.508,87.434 C155.645,87.448 155.763,87.502 155.869,87.537 C155.976,87.572 156.065,87.611 156.139,87.641 C156.286,87.703 156.367,87.745 156.367,87.745 C156.367,87.745 156.274,87.767 156.118,87.792 C156.04,87.804 155.947,87.82 155.841,87.829 C155.736,87.844 155.618,87.847 155.492,87.876 C155.367,87.901 155.232,87.926 155.093,87.945 C154.952,87.961 154.818,88.02 154.674,88.05 C154.525,88.072 154.404,88.153 154.265,88.199 C154.194,88.219 154.137,88.262 154.078,88.3 L153.898,88.41 C153.803,88.509 153.683,88.584 153.61,88.702 C153.514,88.802 153.457,88.932 153.382,89.049 C153.332,89.181 153.263,89.304 153.229,89.438 C153.184,89.568 153.153,89.699 153.122,89.821 C153.073,90.068 153.033,90.286 153.015,90.441 C152.992,90.597 152.983,90.692 152.983,90.692" fill="#FFFFFE"/>
      <path d="M155.963,89.087 C155.963,89.087 156.133,89.162 156.321,89.363 C156.413,89.465 156.517,89.595 156.585,89.766 C156.624,89.847 156.647,89.945 156.667,90.042 C156.672,90.145 156.684,90.249 156.659,90.355 C156.648,90.462 156.594,90.558 156.552,90.652 C156.5,90.74 156.429,90.813 156.367,90.881 C156.295,90.939 156.222,90.99 156.153,91.034 C156.082,91.07 156.012,91.098 155.947,91.124 C155.822,91.18 155.704,91.182 155.628,91.197 C155.55,91.208 155.506,91.209 155.506,91.209 C155.506,91.209 155.54,91.176 155.6,91.127 C155.657,91.073 155.75,91.019 155.84,90.932 C155.886,90.889 155.934,90.845 155.988,90.803 C156.032,90.751 156.073,90.696 156.123,90.647 C156.163,90.592 156.195,90.531 156.23,90.474 C156.251,90.411 156.285,90.353 156.287,90.285 C156.308,90.222 156.3,90.151 156.303,90.084 C156.288,90.015 156.293,89.943 156.27,89.875 C156.24,89.734 156.184,89.603 156.141,89.485 C156.042,89.255 155.963,89.087 155.963,89.087" fill="#FFFFFE"/>
      <path d="M158.85,88.082 C158.85,88.082 158.854,88.101 158.86,88.137 C158.868,88.18 158.881,88.246 158.889,88.313 C158.909,88.455 158.927,88.652 158.937,88.887 C158.943,89.123 158.942,89.397 158.907,89.691 C158.893,89.836 158.867,89.987 158.834,90.138 C158.81,90.289 158.752,90.443 158.711,90.591 C158.652,90.739 158.598,90.885 158.523,91.021 C158.442,91.154 158.379,91.288 158.279,91.398 C158.189,91.512 158.105,91.619 158.001,91.701 C157.903,91.786 157.817,91.869 157.717,91.921 C157.623,91.977 157.54,92.03 157.464,92.07 C157.383,92.102 157.312,92.129 157.254,92.152 C157.141,92.195 157.076,92.22 157.076,92.22 C157.076,92.22 157.129,92.174 157.22,92.094 C157.266,92.055 157.321,92.008 157.383,91.954 C157.439,91.894 157.495,91.818 157.558,91.743 C157.625,91.672 157.673,91.573 157.727,91.477 C157.786,91.386 157.822,91.273 157.859,91.163 C157.906,91.057 157.915,90.93 157.941,90.814 C157.96,90.695 157.959,90.569 157.965,90.449 C157.954,90.323 157.96,90.205 157.936,90.083 C157.919,89.963 157.899,89.846 157.87,89.733 C157.82,89.508 157.745,89.302 157.679,89.131 C157.609,88.96 157.545,88.821 157.496,88.731 C157.471,88.682 157.454,88.658 157.443,88.639 C157.429,88.613 157.421,88.6 157.421,88.6 L158.85,88.082" fill="#4E4E4C"/>
      <path d="M178.424,86.19 C178.424,86.19 178.381,86.194 178.299,86.203 C178.214,86.211 178.126,86.235 177.995,86.257 C177.87,86.273 177.699,86.323 177.505,86.382 C177.312,86.442 177.087,86.488 176.854,86.594 C176.617,86.689 176.36,86.791 176.088,86.9 C175.82,87.02 175.548,87.177 175.259,87.322 C174.974,87.475 174.666,87.613 174.385,87.811 C174.097,87.997 173.804,88.187 173.51,88.377 L173.071,88.661 C172.932,88.769 172.795,88.877 172.659,88.983 C172.386,89.197 172.117,89.406 171.858,89.609 C171.601,89.818 171.335,90 171.116,90.208 C170.892,90.415 170.682,90.61 170.487,90.79 C169.706,91.514 169.186,91.997 169.186,91.997 C169.186,91.997 169.656,91.463 170.362,90.662 C170.539,90.461 170.731,90.244 170.934,90.013 C171.135,89.781 171.383,89.572 171.62,89.335 C171.863,89.103 172.113,88.863 172.367,88.619 C172.496,88.496 172.624,88.373 172.752,88.25 L173.172,87.913 C173.454,87.688 173.734,87.463 174.011,87.242 C174.28,87.008 174.584,86.831 174.867,86.641 C175.153,86.458 175.421,86.266 175.693,86.11 C175.973,85.963 176.238,85.825 176.482,85.696 C176.721,85.559 176.969,85.478 177.178,85.388 C177.389,85.302 177.572,85.226 177.751,85.181 C177.92,85.134 178.064,85.089 178.144,85.073 C178.226,85.056 178.269,85.048 178.269,85.048 L178.424,86.19" fill="#4E4E4C"/>
      <path d="M163.684,96.766 C163.684,96.766 163.527,96.896 163.26,97.134 C162.996,97.372 162.63,97.727 162.216,98.176 C161.382,99.069 160.4,100.367 159.429,101.687 C158.455,103.001 157.443,104.331 156.376,105.13 C156.115,105.333 155.845,105.491 155.599,105.623 C155.347,105.747 155.113,105.836 154.912,105.895 C154.711,105.95 154.548,105.984 154.436,105.996 C154.323,106.011 154.261,106.02 154.261,106.02 L154.202,104.869 C154.202,104.869 154.243,104.866 154.319,104.862 C154.396,104.863 154.509,104.847 154.653,104.824 C154.797,104.795 154.972,104.746 155.172,104.67 C155.372,104.583 155.597,104.48 155.833,104.327 C156.313,104.034 156.838,103.586 157.371,103.061 C157.905,102.535 158.449,101.931 158.991,101.32 C160.07,100.094 161.176,98.87 162.091,98.046 C162.547,97.633 162.945,97.31 163.23,97.095 C163.516,96.882 163.684,96.766 163.684,96.766" fill="#4E4E4C"/>
      <path d="M164.083,102.309 C164.083,102.309 164.536,100.862 165.212,100.573 C165.212,100.573 164.668,101.877 165.161,102.69 C165.411,103.104 164.083,102.309 164.083,102.309" fill="#FFFFFE"/>
      <path d="M165.706,103.137 C165.706,103.137 165.883,102.02 166.561,101.731 C166.561,101.731 166.149,102.729 166.598,103.413 C166.864,103.817 165.706,103.137 165.706,103.137" fill="#FFFFFE"/>
      <path d="M175.647,87.313 L175.051,87.796 C175.542,88.274 175.467,89.23 175.467,89.23 C176.074,88.169 175.647,87.313 175.647,87.313" fill="#FFFFFE"/>
      <path d="M174.611,88.049 L174.065,88.478 C174.51,88.895 174.437,89.737 174.437,89.737 C174.996,88.799 174.611,88.049 174.611,88.049" fill="#FFFFFE"/>
      <path d="M173.559,88.814 L173.126,89.182 C173.49,89.555 173.443,90.29 173.443,90.29 C173.879,89.478 173.559,88.814 173.559,88.814" fill="#FFFFFE"/>
      <path d="M135.898,98.402 C135.898,98.402 136.241,98.769 136.864,99.146 C137.015,99.247 137.193,99.332 137.374,99.428 C137.564,99.51 137.755,99.61 137.968,99.677 C138.176,99.759 138.395,99.821 138.621,99.877 C138.839,99.946 139.077,99.964 139.303,100.009 C139.535,100.038 139.767,100.049 139.992,100.068 C140.217,100.063 140.44,100.059 140.655,100.055 C140.869,100.03 141.076,100.006 141.271,99.983 C141.465,99.959 141.647,99.907 141.816,99.875 C141.983,99.84 142.134,99.811 142.267,99.763 C142.4,99.72 142.517,99.684 142.612,99.654 C142.802,99.595 142.91,99.562 142.91,99.562 L143.273,101.054 C143.273,101.054 143.14,101.069 142.91,101.095 C142.796,101.107 142.657,101.122 142.497,101.139 C142.34,101.162 142.157,101.161 141.959,101.164 C141.761,101.163 141.55,101.179 141.324,101.163 C141.1,101.144 140.862,101.125 140.617,101.105 C140.376,101.062 140.126,101.017 139.873,100.972 C139.624,100.903 139.372,100.839 139.127,100.758 C138.886,100.658 138.638,100.587 138.413,100.466 C138.183,100.358 137.963,100.245 137.761,100.116 C137.552,100 137.369,99.855 137.19,99.733 C137.021,99.594 136.858,99.472 136.722,99.339 C136.162,98.829 135.898,98.402 135.898,98.402" fill="#4E4E4C"/>
      <path d="M137.251,101.146 C137.251,101.146 137.624,101.472 138.26,101.82 C138.575,101.998 138.957,102.173 139.375,102.327 C139.794,102.477 140.248,102.605 140.707,102.68 C140.933,102.732 141.168,102.738 141.392,102.767 C141.617,102.791 141.842,102.781 142.054,102.789 C142.268,102.793 142.475,102.765 142.669,102.756 C142.864,102.75 143.045,102.707 143.213,102.683 C143.38,102.651 143.533,102.642 143.666,102.599 C143.799,102.564 143.915,102.533 144.01,102.509 C144.199,102.459 144.308,102.431 144.308,102.431 L144.598,103.941 C144.598,103.941 144.467,103.948 144.235,103.962 C144.12,103.969 143.981,103.976 143.821,103.986 C143.664,104.002 143.479,103.98 143.285,103.978 C143.088,103.968 142.876,103.973 142.653,103.937 C142.43,103.904 142.196,103.888 141.957,103.836 C141.72,103.779 141.473,103.74 141.23,103.665 C140.988,103.584 140.74,103.525 140.504,103.421 C140.026,103.241 139.571,103.009 139.168,102.765 C138.764,102.519 138.41,102.261 138.127,102.018 C137.553,101.539 137.251,101.146 137.251,101.146" fill="#4E4E4C"/>
      <path d="M139.937,104.13 C139.937,104.13 140.347,104.401 141.012,104.698 C141.342,104.849 141.737,105.002 142.163,105.142 C142.592,105.277 143.051,105.406 143.518,105.489 C143.747,105.542 143.983,105.567 144.211,105.601 C144.438,105.64 144.668,105.642 144.884,105.664 C145.1,105.688 145.314,105.677 145.511,105.683 C145.71,105.691 145.897,105.678 146.069,105.666 C146.242,105.654 146.398,105.653 146.538,105.634 C146.675,105.615 146.795,105.599 146.895,105.586 C147.092,105.56 147.204,105.545 147.204,105.545 L147.301,107.079 C147.301,107.079 147.17,107.072 146.942,107.057 C146.829,107.049 146.691,107.04 146.533,107.03 C146.375,107.019 146.199,106.987 146.007,106.962 C145.815,106.936 145.607,106.909 145.39,106.857 C145.175,106.808 144.946,106.774 144.715,106.702 C144.485,106.632 144.246,106.579 144.009,106.49 C143.774,106.406 143.533,106.329 143.302,106.227 C142.832,106.042 142.382,105.814 141.972,105.588 C141.564,105.357 141.196,105.124 140.895,104.906 C140.286,104.477 139.937,104.13 139.937,104.13" fill="#4E4E4C"/>
      <path d="M152.059,89.798 C152.059,89.798 152.059,89.816 152.059,89.85 C152.059,89.874 152.056,89.908 152.062,89.972 C152.066,90.089 152.086,90.264 152.122,90.475 C152.146,90.576 152.164,90.694 152.201,90.809 C152.231,90.928 152.273,91.049 152.322,91.172 C152.363,91.302 152.435,91.413 152.492,91.545 C152.569,91.654 152.632,91.79 152.727,91.892 C152.814,92.004 152.906,92.114 153.017,92.201 C153.118,92.305 153.237,92.377 153.354,92.451 C153.466,92.537 153.597,92.575 153.716,92.63 C153.835,92.69 153.956,92.713 154.071,92.742 C154.183,92.764 154.289,92.806 154.385,92.806 C154.482,92.814 154.566,92.821 154.634,92.827 C154.776,92.839 154.857,92.845 154.857,92.845 C154.857,92.845 154.778,92.863 154.64,92.893 C154.569,92.908 154.484,92.926 154.386,92.948 C154.288,92.977 154.174,92.968 154.049,92.98 C153.923,92.988 153.785,93.002 153.64,92.978 C153.494,92.959 153.333,92.958 153.176,92.903 C153.017,92.86 152.848,92.816 152.692,92.733 C152.524,92.665 152.37,92.569 152.219,92.464 C152.059,92.367 151.935,92.234 151.792,92.117 C151.673,91.985 151.536,91.86 151.436,91.72 C151.328,91.585 151.229,91.449 151.148,91.314 C151.057,91.182 150.992,91.048 150.921,90.927 C150.796,90.68 150.703,90.466 150.647,90.307 C150.618,90.233 150.595,90.157 150.58,90.107 C150.567,90.066 150.56,90.045 150.56,90.045 L152.059,89.798" fill="#4E4E4C"/>
      <path d="M136.647,91.774 C136.647,91.774 136.41,92.007 136.043,92.453 C135.677,92.897 135.182,93.555 134.695,94.401 C134.215,95.249 133.74,96.29 133.494,97.465 C133.419,97.756 133.391,98.059 133.342,98.363 C133.327,98.67 133.285,98.978 133.296,99.291 C133.278,99.916 133.371,100.55 133.499,101.17 C133.581,101.477 133.636,101.792 133.752,102.088 L133.903,102.539 C133.96,102.688 134.029,102.83 134.09,102.975 C134.209,103.267 134.351,103.545 134.497,103.819 C134.632,104.099 134.793,104.36 134.955,104.616 C135.035,104.744 135.115,104.872 135.193,104.998 C135.28,105.119 135.366,105.239 135.45,105.359 C135.622,105.595 135.775,105.838 135.96,106.049 C136.136,106.267 136.306,106.479 136.472,106.684 C136.642,106.885 136.817,107.071 136.98,107.255 C137.301,107.626 137.624,107.941 137.904,108.228 C138.181,108.517 138.434,108.76 138.646,108.954 C139.064,109.355 139.304,109.583 139.304,109.583 C139.304,109.583 139.031,109.398 138.551,109.073 C138.311,108.91 138.022,108.709 137.712,108.448 C137.396,108.196 137.031,107.918 136.672,107.568 C136.49,107.397 136.294,107.224 136.1,107.035 C135.916,106.836 135.724,106.631 135.527,106.421 C135.324,106.215 135.148,105.975 134.952,105.741 C134.857,105.623 134.761,105.501 134.664,105.38 C134.576,105.251 134.487,105.12 134.399,104.989 C134.217,104.727 134.036,104.459 133.88,104.168 C133.799,104.025 133.717,103.881 133.634,103.737 C133.558,103.588 133.493,103.432 133.422,103.28 C133.354,103.125 133.28,102.973 133.216,102.815 L133.044,102.331 C132.917,102.011 132.85,101.67 132.757,101.337 C132.626,100.657 132.536,99.964 132.564,99.281 C132.569,98.597 132.681,97.929 132.846,97.305 C132.999,96.678 133.238,96.099 133.494,95.574 C133.742,95.043 134.042,94.578 134.33,94.162 C134.913,93.334 135.504,92.737 135.937,92.347 C136.369,91.958 136.647,91.774 136.647,91.774" fill="#FFFFFE"/>
      <path d="M170.102,99.929 C171.641,93.459 179.341,90.535 178.467,86.242 C179.88,89.963 173.125,93.661 170.102,99.929" fill="#FFFFFE"/>
      <path d="M156.659,109.249 C141.099,106.851 142.644,95.17 142.644,95.17 C142.644,95.17 138.174,108.684 156.659,109.249" fill="#4E4E4C"/>
      <path d="M157.902,108.456 C147.034,107.355 143.533,98.407 143.533,98.407 C143.533,98.407 146.07,108.459 157.902,108.456" fill="#4E4E4C"/>
      <path d="M162.248,101.837 C162.248,101.837 166.57,104.729 171.253,104.908 C165.689,103.745 162.941,101.177 162.941,101.177 L162.248,101.837" fill="#FFFFFE"/>
      <path d="M161.865,102.383 C161.865,102.383 162.077,101.975 162.449,101.402 C162.632,101.113 162.865,100.79 163.117,100.445 C163.37,100.101 163.661,99.752 163.948,99.398 C164.254,99.062 164.551,98.717 164.855,98.416 C165.162,98.119 165.449,97.843 165.708,97.621 C165.974,97.406 166.206,97.24 166.363,97.119 C166.522,97 166.616,96.936 166.616,96.936 C166.616,96.936 166.543,97.026 166.411,97.175 C166.276,97.32 166.092,97.537 165.86,97.78 C165.637,98.035 165.382,98.337 165.098,98.648 C164.954,98.801 164.823,98.979 164.674,99.142 C164.53,99.309 164.382,99.48 164.235,99.65 C163.942,99.993 163.65,100.335 163.377,100.657 C163.105,100.982 162.842,101.277 162.622,101.536 C162.396,101.79 162.208,102.002 162.077,102.151 C161.942,102.298 161.865,102.383 161.865,102.383" fill="#FFFFFE"/>
      <path d="M152.983,90.692 C152.983,90.692 152.93,90.614 152.866,90.464 C152.801,90.313 152.727,90.091 152.689,89.807 C152.674,89.665 152.655,89.508 152.669,89.339 C152.668,89.171 152.713,88.991 152.755,88.806 C152.823,88.627 152.888,88.432 153.015,88.264 C153.117,88.078 153.289,87.944 153.442,87.796 C153.529,87.737 153.621,87.688 153.711,87.634 C153.8,87.58 153.892,87.532 153.989,87.508 C154.177,87.452 154.365,87.38 154.546,87.38 C154.726,87.372 154.902,87.344 155.061,87.367 C155.221,87.385 155.371,87.41 155.508,87.434 C155.645,87.448 155.763,87.502 155.869,87.537 C155.976,87.572 156.065,87.611 156.139,87.641 C156.286,87.703 156.367,87.745 156.367,87.745 C156.367,87.745 156.274,87.767 156.118,87.792 C156.04,87.804 155.947,87.82 155.841,87.829 C155.736,87.844 155.618,87.847 155.492,87.876 C155.367,87.901 155.232,87.926 155.093,87.945 C154.952,87.961 154.818,88.02 154.674,88.05 C154.525,88.072 154.404,88.153 154.265,88.199 C154.194,88.219 154.137,88.262 154.078,88.3 L153.898,88.41 C153.803,88.509 153.683,88.584 153.61,88.702 C153.514,88.802 153.457,88.932 153.382,89.049 C153.332,89.181 153.263,89.304 153.229,89.438 C153.184,89.568 153.153,89.699 153.122,89.821 C153.073,90.068 153.033,90.286 153.015,90.441 C152.992,90.597 152.983,90.692 152.983,90.692" fill="#FFFFFE"/>
      <path d="M155.963,89.087 C155.963,89.087 156.133,89.162 156.321,89.363 C156.413,89.465 156.517,89.595 156.585,89.766 C156.624,89.847 156.647,89.945 156.667,90.042 C156.672,90.145 156.684,90.249 156.659,90.355 C156.648,90.462 156.594,90.558 156.552,90.652 C156.5,90.74 156.429,90.813 156.367,90.881 C156.295,90.939 156.222,90.99 156.153,91.034 C156.082,91.07 156.012,91.098 155.947,91.124 C155.822,91.18 155.704,91.182 155.628,91.197 C155.55,91.208 155.506,91.209 155.506,91.209 C155.506,91.209 155.54,91.176 155.6,91.127 C155.657,91.073 155.75,91.019 155.84,90.932 C155.886,90.889 155.934,90.845 155.988,90.803 C156.032,90.751 156.073,90.696 156.123,90.647 C156.163,90.592 156.195,90.531 156.23,90.474 C156.251,90.411 156.285,90.353 156.287,90.285 C156.308,90.222 156.3,90.151 156.303,90.084 C156.288,90.015 156.293,89.943 156.27,89.875 C156.24,89.734 156.184,89.603 156.141,89.485 C156.042,89.255 155.963,89.087 155.963,89.087" fill="#FFFFFE"/>
      <path d="M164.083,102.309 C164.083,102.309 164.536,100.862 165.212,100.573 C165.212,100.573 164.668,101.877 165.161,102.69 C165.411,103.104 164.083,102.309 164.083,102.309" fill="#FFFFFE"/>
      <path d="M165.706,103.137 C165.706,103.137 165.883,102.02 166.561,101.731 C166.561,101.731 166.149,102.729 166.598,103.413 C166.864,103.817 165.706,103.137 165.706,103.137" fill="#FFFFFE"/>
      <path d="M175.647,87.313 L175.051,87.796 C175.542,88.274 175.467,89.23 175.467,89.23 C176.074,88.169 175.647,87.313 175.647,87.313" fill="#FFFFFE"/>
      <path d="M174.611,88.049 L174.065,88.478 C174.51,88.895 174.437,89.737 174.437,89.737 C174.996,88.799 174.611,88.049 174.611,88.049" fill="#FFFFFE"/>
      <path d="M173.559,88.814 L173.126,89.182 C173.49,89.555 173.443,90.29 173.443,90.29 C173.879,89.478 173.559,88.814 173.559,88.814" fill="#FFFFFE"/>
      <path d="M135.898,98.402 C135.898,98.402 136.241,98.769 136.864,99.146 C137.015,99.247 137.193,99.332 137.374,99.428 C137.564,99.51 137.755,99.61 137.968,99.677 C138.176,99.759 138.395,99.821 138.621,99.877 C138.839,99.946 139.077,99.964 139.303,100.009 C139.535,100.038 139.767,100.049 139.992,100.068 C140.217,100.063 140.44,100.059 140.655,100.055 C140.869,100.03 141.076,100.006 141.271,99.983 C141.465,99.959 141.647,99.907 141.816,99.875 C141.983,99.84 142.134,99.811 142.267,99.763 C142.4,99.72 142.517,99.684 142.612,99.654 C142.802,99.595 142.91,99.562 142.91,99.562 L143.273,101.054 C143.273,101.054 143.14,101.069 142.91,101.095 C142.796,101.107 142.657,101.122 142.497,101.139 C142.34,101.162 142.157,101.161 141.959,101.164 C141.761,101.163 141.55,101.179 141.324,101.163 C141.1,101.144 140.862,101.125 140.617,101.105 C140.376,101.062 140.126,101.017 139.873,100.972 C139.624,100.903 139.372,100.839 139.127,100.758 C138.886,100.658 138.638,100.587 138.413,100.466 C138.183,100.358 137.963,100.245 137.761,100.116 C137.552,100 137.369,99.855 137.19,99.733 C137.021,99.594 136.858,99.472 136.722,99.339 C136.162,98.829 135.898,98.402 135.898,98.402" fill="#4E4E4C"/>
      <path d="M137.251,101.146 C137.251,101.146 137.624,101.472 138.26,101.82 C138.575,101.998 138.957,102.173 139.375,102.327 C139.794,102.477 140.248,102.605 140.707,102.68 C140.933,102.732 141.168,102.738 141.392,102.767 C141.617,102.791 141.842,102.781 142.054,102.789 C142.268,102.793 142.475,102.765 142.669,102.756 C142.864,102.75 143.045,102.707 143.213,102.683 C143.38,102.651 143.533,102.642 143.666,102.599 C143.799,102.564 143.915,102.533 144.01,102.509 C144.199,102.459 144.308,102.431 144.308,102.431 L144.598,103.941 C144.598,103.941 144.467,103.948 144.235,103.962 C144.12,103.969 143.981,103.976 143.821,103.986 C143.664,104.002 143.479,103.98 143.285,103.978 C143.088,103.968 142.876,103.973 142.653,103.937 C142.43,103.904 142.196,103.888 141.957,103.836 C141.72,103.779 141.473,103.74 141.23,103.665 C140.988,103.584 140.74,103.525 140.504,103.421 C140.026,103.241 139.571,103.009 139.168,102.765 C138.764,102.519 138.41,102.261 138.127,102.018 C137.553,101.539 137.251,101.146 137.251,101.146" fill="#4E4E4C"/>
      <path d="M58.554,93.073 C58.554,93.073 58.684,93.506 59.03,94.192 C59.198,94.537 59.438,94.936 59.723,95.378 C60.012,95.818 60.377,96.286 60.799,96.766 C61.222,97.247 61.722,97.726 62.28,98.191 C62.833,98.661 63.469,99.092 64.142,99.502 C64.811,99.923 65.553,100.271 66.307,100.618 C66.691,100.777 67.081,100.933 67.474,101.082 C67.876,101.214 68.268,101.375 68.68,101.484 C69.49,101.737 70.318,101.943 71.141,102.121 C71.554,102.197 71.961,102.301 72.37,102.363 C72.78,102.43 73.184,102.497 73.581,102.564 C74.383,102.66 75.155,102.785 75.898,102.845 C76.639,102.925 77.344,102.971 77.995,103.024 C78.322,103.054 78.634,103.068 78.932,103.082 C79.231,103.099 79.514,103.115 79.78,103.131 C80.314,103.166 80.78,103.183 81.165,103.198 C81.935,103.231 82.379,103.268 82.379,103.268 C82.379,103.268 81.947,103.365 81.184,103.503 C80.803,103.571 80.34,103.665 79.803,103.72 C79.267,103.778 78.662,103.88 77.997,103.907 C77.333,103.951 76.611,104.007 75.846,103.992 C75.08,104.008 74.271,103.97 73.433,103.918 C72.597,103.839 71.732,103.751 70.86,103.585 C69.986,103.433 69.107,103.216 68.238,102.954 C67.802,102.833 67.379,102.657 66.95,102.511 C66.527,102.349 66.114,102.159 65.703,101.977 C65.303,101.77 64.896,101.586 64.519,101.349 C64.329,101.237 64.141,101.124 63.952,101.013 C63.771,100.889 63.592,100.767 63.414,100.645 C62.705,100.153 62.069,99.605 61.518,99.035 C61.236,98.758 60.985,98.463 60.745,98.178 C60.521,97.879 60.299,97.597 60.114,97.305 C59.727,96.734 59.434,96.172 59.217,95.658 C58.993,95.148 58.845,94.685 58.749,94.299 C58.552,93.528 58.554,93.073 58.554,93.073" fill="#FFFFFE"/>
      <path d="M133.695,98.41 C133.737,98.119 133.759,97.828 133.822,97.545 C134.029,96.411 134.451,95.381 134.877,94.521 C135.096,94.093 135.32,93.708 135.525,93.368 C135.741,93.035 135.928,92.74 136.098,92.506 C136.354,92.143 136.54,91.906 136.612,91.817 C136.615,91.814 136.616,91.813 136.618,91.811 C136.618,91.811 136.618,91.811 136.617,91.811 C136.635,91.788 136.647,91.774 136.647,91.774 C136.647,91.774 136.615,91.791 136.561,91.824 C135.922,91.954 135.287,92.158 134.654,92.321 C132.927,92.767 131.197,93.205 129.466,93.638 C120.3,95.939 111.093,98.147 101.812,99.92 C98.038,100.642 94.263,101.262 90.449,101.715 C99.359,100.95 109.238,99.49 118.005,97.759 C122.286,96.914 126.558,96.025 130.822,95.101 C131.835,94.882 132.847,94.661 133.859,94.439 C133.64,94.746 133.423,95.081 133.233,95.453 C132.951,95.986 132.694,96.578 132.518,97.225 C132.329,97.867 132.212,98.563 132.195,99.274 C132.154,99.988 132.25,100.713 132.387,101.42 C132.482,101.767 132.554,102.123 132.685,102.453 L132.866,102.955 C132.933,103.117 133.012,103.274 133.085,103.433 C133.161,103.59 133.229,103.751 133.31,103.903 C133.398,104.05 133.483,104.198 133.569,104.344 C133.733,104.642 133.922,104.916 134.116,105.178 C134.211,105.311 134.304,105.442 134.398,105.571 C134.501,105.693 134.602,105.814 134.702,105.933 C134.908,106.166 135.093,106.409 135.308,106.61 C135.516,106.816 135.719,107.016 135.916,107.21 C136.12,107.394 136.327,107.56 136.519,107.724 C136.896,108.064 137.282,108.323 137.617,108.56 C137.943,108.803 138.252,108.985 138.505,109.132 C139.008,109.431 139.304,109.583 139.304,109.583 C139.304,109.583 139.087,109.322 138.694,108.894 C138.495,108.684 138.26,108.422 138,108.117 C137.738,107.814 137.436,107.48 137.133,107.099 C136.98,106.909 136.815,106.715 136.657,106.508 C136.503,106.299 136.343,106.083 136.179,105.86 C136.007,105.645 135.862,105.404 135.701,105.166 C135.62,105.047 135.541,104.927 135.459,104.806 C135.386,104.68 135.313,104.554 135.239,104.426 C135.089,104.172 134.934,103.916 134.808,103.643 C134.671,103.375 134.538,103.103 134.427,102.821 C134.37,102.68 134.306,102.542 134.254,102.399 L134.111,101.966 C133.999,101.681 133.949,101.38 133.869,101.086 C133.748,100.494 133.66,99.892 133.666,99.296 C133.65,98.998 133.686,98.703 133.695,98.41" fill="#FFFFFE"/>
      <path d="M52.912,97.134 C53.084,97.378 53.252,97.616 53.417,97.847 C53.589,98.072 53.758,98.29 53.92,98.501 C54.092,98.704 54.258,98.901 54.417,99.089 C54.752,99.452 55.058,99.782 55.353,100.05 C55.634,100.333 55.913,100.542 56.127,100.729 C56.348,100.909 56.534,101.034 56.654,101.126 C56.776,101.216 56.841,101.264 56.841,101.264 C56.841,101.264 56.782,101.208 56.673,101.103 C56.565,100.996 56.398,100.849 56.203,100.644 C56.016,100.431 55.772,100.193 55.532,99.881 C55.279,99.582 55.021,99.221 54.743,98.829 C54.613,98.626 54.477,98.416 54.337,98.199 C54.206,97.975 54.071,97.743 53.931,97.506 C53.803,97.263 53.67,97.013 53.535,96.758 C53.409,96.498 53.282,96.232 53.152,95.962 C53.071,95.781 52.992,95.594 52.913,95.409 C52.778,95.761 52.645,96.133 52.513,96.523 C52.648,96.729 52.782,96.935 52.912,97.134" fill="#FFFFFE"/>
      <path d="M52.825,109.696 C53.118,117.627 56.436,128.969 58.958,127.649 C61.037,126.561 61.898,124.547 62.669,122.234 C57.46,119.543 54.478,114.166 52.825,109.696" fill="#4E4E4C"/>
      <path d="M143.169,114.2 C143.169,114.2 140.383,121.119 132.394,124.242 C125.433,126.965 125.823,123.001 129.186,118.677 C131.504,115.698 130.986,115.808 137.583,115.026 C143.705,114.3 143.169,114.2 143.169,114.2" fill="#4E4E4C"/>
      <path d="M98.038,125.47 C98.038,125.47 95.35,132.85 87.369,135.99 C80.413,138.726 79.638,135.489 82.815,131.024 C85.992,126.559 86.91,125.961 93.073,125.801 C99.235,125.642 98.038,125.47 98.038,125.47" fill="#4E4E4C"/>
      <path d="M122.019,118.599 C122.019,118.599 122.429,118.423 123.159,118.156 C123.889,117.885 124.935,117.512 126.205,117.121 C126.84,116.923 127.525,116.7 128.259,116.503 C128.993,116.298 129.764,116.077 130.567,115.87 C131.369,115.654 132.204,115.459 133.052,115.264 C133.901,115.067 134.766,114.88 135.631,114.692 C136.5,114.526 137.37,114.361 138.228,114.211 C139.087,114.06 139.93,113.909 140.753,113.796 C141.576,113.683 142.376,113.593 143.13,113.503 C143.886,113.412 144.602,113.334 145.265,113.282 C146.595,113.194 147.705,113.157 148.481,113.14 C149.257,113.121 149.701,113.129 149.701,113.129 C149.701,113.129 149.272,113.255 148.518,113.443 C147.763,113.632 146.688,113.89 145.395,114.155 C144.75,114.304 144.055,114.479 143.314,114.636 C142.575,114.801 141.797,114.977 140.988,115.14 C140.183,115.313 139.349,115.493 138.503,115.676 C137.655,115.85 136.793,116.024 135.93,116.199 C135.068,116.378 134.208,116.558 133.356,116.722 C132.505,116.883 131.667,117.043 130.856,117.197 C130.045,117.356 129.257,117.488 128.51,117.618 C127.764,117.751 127.058,117.871 126.404,117.977 C125.751,118.089 125.149,118.174 124.616,118.252 C124.084,118.339 123.616,118.398 123.232,118.45 C122.462,118.552 122.019,118.599 122.019,118.599" fill="#4E4E4C"/>
      <path d="M54.007,102.215 C54.007,102.215 54.003,102.249 53.997,102.312 C53.991,102.36 53.986,102.45 53.979,102.579 C53.966,102.831 53.952,103.211 53.967,103.704 C53.991,104.684 54.116,106.114 54.532,107.776 C54.728,108.612 55.028,109.491 55.394,110.403 C55.76,111.317 56.253,112.233 56.811,113.151 C57.394,114.055 58.067,114.947 58.839,115.781 C59.02,116 59.24,116.185 59.439,116.391 C59.648,116.587 59.84,116.804 60.063,116.986 C60.506,117.354 60.93,117.755 61.41,118.085 L62.112,118.604 L62.847,119.075 C63.096,119.226 63.333,119.396 63.589,119.533 C63.844,119.671 64.098,119.81 64.352,119.947 C64.852,120.238 65.38,120.461 65.895,120.7 C66.406,120.952 66.935,121.14 67.451,121.339 C67.711,121.437 67.968,121.534 68.222,121.631 C68.481,121.713 68.738,121.793 68.993,121.872 C69.504,122.026 69.997,122.207 70.496,122.316 C70.99,122.44 71.471,122.56 71.937,122.677 C72.405,122.785 72.864,122.859 73.302,122.947 C74.175,123.133 74.988,123.233 75.708,123.331 C76.069,123.381 76.405,123.426 76.717,123.468 C77.031,123.495 77.319,123.52 77.579,123.543 C78.621,123.635 79.216,123.686 79.216,123.686 C79.216,123.686 78.618,123.676 77.572,123.658 C77.31,123.654 77.02,123.649 76.705,123.644 C76.389,123.624 76.049,123.602 75.685,123.579 C74.956,123.532 74.132,123.487 73.24,123.362 C72.792,123.305 72.324,123.263 71.844,123.187 C71.364,123.102 70.869,123.015 70.359,122.925 C69.845,122.849 69.333,122.701 68.799,122.582 C68.534,122.518 68.266,122.454 67.994,122.39 C67.728,122.309 67.457,122.228 67.185,122.147 C66.642,121.98 66.084,121.823 65.539,121.602 C64.99,121.392 64.425,121.198 63.884,120.933 C63.609,120.808 63.335,120.683 63.057,120.557 C62.78,120.432 62.518,120.273 62.247,120.132 C61.978,119.984 61.705,119.842 61.438,119.689 L60.657,119.193 C60.124,118.878 59.641,118.483 59.139,118.121 C58.886,117.942 58.662,117.725 58.423,117.529 C58.193,117.323 57.944,117.138 57.73,116.915 C56.832,116.071 56.028,115.149 55.32,114.199 C54.633,113.233 54.019,112.254 53.543,111.27 C53.065,110.287 52.665,109.328 52.38,108.413 C51.789,106.589 51.536,104.995 51.431,103.867 C51.374,103.302 51.358,102.85 51.352,102.535 C51.35,102.379 51.35,102.252 51.354,102.154 C51.356,102.072 51.356,102.029 51.356,102.029 L54.007,102.215" fill="#4E4E4C"/>
      <path d="M53.392,74.054 C53.392,74.054 53.34,74.39 53.269,74.979 C53.192,75.567 53.1,76.407 53.008,77.415 C52.968,77.92 52.918,78.465 52.886,79.042 C52.84,79.62 52.825,80.229 52.797,80.859 C52.758,81.488 52.786,82.14 52.764,82.8 C52.776,83.46 52.783,84.131 52.818,84.8 C52.838,85.134 52.858,85.469 52.877,85.802 L52.907,86.3 L52.961,86.793 C53.045,87.446 53.077,88.097 53.2,88.713 C53.308,89.33 53.377,89.936 53.521,90.492 C53.583,90.773 53.644,91.046 53.703,91.311 C53.73,91.444 53.759,91.575 53.786,91.703 C53.823,91.828 53.86,91.951 53.895,92.071 C54.04,92.552 54.166,92.997 54.277,93.393 C54.409,93.781 54.544,94.112 54.643,94.391 C54.843,94.95 54.958,95.269 54.958,95.269 C54.958,95.269 54.794,94.973 54.506,94.455 C54.368,94.191 54.182,93.879 54.007,93.502 C53.848,93.119 53.668,92.685 53.481,92.207 C53.433,92.088 53.384,91.966 53.335,91.842 C53.296,91.715 53.256,91.584 53.215,91.453 C53.137,91.188 53.055,90.913 52.971,90.631 C52.787,90.07 52.671,89.46 52.543,88.83 C52.398,88.202 52.319,87.543 52.234,86.874 L52.171,86.37 L52.134,85.86 C52.109,85.52 52.085,85.178 52.06,84.836 C52.034,84.152 52.036,83.468 52.032,82.794 C52.058,82.122 52.072,81.459 52.132,80.821 C52.178,80.182 52.241,79.567 52.324,78.986 C52.39,78.404 52.491,77.859 52.578,77.355 C52.761,76.349 52.962,75.522 53.122,74.948 C53.279,74.374 53.392,74.054 53.392,74.054" fill="#FFFFFE"/>
      <path d="M63.423,115.742 C63.423,115.742 63.665,115.837 64.121,116.017 C64.349,116.108 64.63,116.219 64.96,116.349 C65.125,116.415 65.303,116.485 65.493,116.56 C65.683,116.638 65.883,116.717 66.092,116.774 C66.511,116.903 66.975,117.045 67.479,117.201 C67.734,117.276 67.991,117.371 68.272,117.437 C68.554,117.501 68.847,117.566 69.149,117.633 C69.451,117.701 69.764,117.77 70.085,117.843 C70.245,117.879 70.409,117.916 70.573,117.953 C70.741,117.977 70.911,118.001 71.084,118.025 C71.775,118.119 72.498,118.238 73.259,118.326 C74.025,118.382 74.823,118.438 75.649,118.498 C76.48,118.526 77.341,118.52 78.225,118.534 C78.667,118.547 79.117,118.522 79.572,118.505 C80.027,118.486 80.489,118.468 80.954,118.449 C81.887,118.429 82.84,118.331 83.809,118.258 C84.294,118.22 84.782,118.181 85.275,118.142 C85.767,118.089 86.263,118.035 86.761,117.982 C87.758,117.866 88.769,117.775 89.786,117.637 C90.802,117.504 91.827,117.37 92.856,117.236 C93.884,117.1 94.916,116.94 95.948,116.793 C98.012,116.502 100.074,116.172 102.104,115.862 C104.135,115.541 106.133,115.226 108.066,114.921 C111.932,114.305 115.54,113.73 118.634,113.237 C124.824,112.273 128.949,111.629 128.949,111.629 C128.949,111.629 124.844,112.391 118.684,113.534 C115.605,114.114 112.014,114.793 108.167,115.519 C106.242,115.881 104.253,116.254 102.233,116.633 C100.209,117.001 98.157,117.391 96.096,117.742 C95.065,117.92 94.038,118.109 93.009,118.275 C91.98,118.44 90.955,118.604 89.938,118.767 C88.922,118.935 87.904,119.057 86.904,119.201 C86.403,119.27 85.904,119.338 85.411,119.406 C84.913,119.46 84.421,119.513 83.93,119.567 C82.951,119.668 81.991,119.794 81.039,119.843 C80.566,119.876 80.097,119.908 79.633,119.94 C79.169,119.972 78.712,120.011 78.256,120.01 C77.346,120.022 76.463,120.054 75.606,120.048 C74.747,120.013 73.917,119.976 73.121,119.942 C72.325,119.874 71.563,119.772 70.836,119.693 C70.656,119.672 70.476,119.651 70.299,119.631 C70.124,119.598 69.952,119.564 69.782,119.532 C69.441,119.465 69.11,119.402 68.789,119.34 C68.469,119.277 68.159,119.216 67.859,119.158 C67.559,119.096 67.274,119.002 66.997,118.929 C66.445,118.775 65.938,118.633 65.479,118.506 C65.245,118.446 65.041,118.372 64.851,118.301 C64.66,118.232 64.48,118.166 64.314,118.106 C63.979,117.985 63.696,117.882 63.465,117.798 C63.005,117.631 62.759,117.542 62.759,117.542 L63.423,115.742" fill="#FFFFFE"/>
      <path d="M52.682,102.122 C52.682,102.122 52.726,102.287 52.84,102.582 C52.951,102.879 53.145,103.302 53.416,103.825 C53.689,104.346 54.058,104.96 54.543,105.617 C55.031,106.271 55.613,106.986 56.324,107.689 C57.037,108.389 57.845,109.11 58.773,109.776 C59.702,110.439 60.718,111.09 61.826,111.654 C62.368,111.959 62.953,112.204 63.531,112.477 C63.821,112.612 64.126,112.72 64.425,112.843 C64.727,112.959 65.021,113.097 65.331,113.2 C66.56,113.639 67.827,114.042 69.121,114.347 L70.087,114.585 C70.409,114.665 70.738,114.719 71.061,114.786 C71.711,114.917 72.357,115.049 73.006,115.135 C74.299,115.348 75.581,115.491 76.823,115.617 C77.447,115.663 78.06,115.709 78.659,115.755 C79.259,115.807 79.848,115.812 80.421,115.841 C81.567,115.904 82.652,115.895 83.654,115.91 C84.156,115.922 84.636,115.912 85.093,115.9 C85.549,115.893 85.984,115.886 86.392,115.88 C87.208,115.878 87.918,115.833 88.504,115.805 C89.675,115.757 90.345,115.73 90.345,115.73 C90.345,115.73 89.679,115.812 88.514,115.955 C87.931,116.02 87.223,116.111 86.407,116.166 C85.591,116.222 84.671,116.331 83.664,116.351 C82.656,116.385 81.564,116.444 80.408,116.415 C79.83,116.405 79.236,116.42 78.629,116.388 C78.021,116.356 77.401,116.324 76.77,116.291 C75.513,116.184 74.208,116.084 72.896,115.869 C72.237,115.786 71.579,115.656 70.917,115.528 C70.254,115.413 69.596,115.255 68.939,115.092 C67.624,114.773 66.333,114.354 65.078,113.895 C64.454,113.658 63.843,113.397 63.246,113.129 C62.657,112.837 62.065,112.575 61.514,112.251 C60.386,111.655 59.367,110.946 58.437,110.235 C57.504,109.524 56.707,108.744 56.011,107.994 C55.312,107.246 54.764,106.475 54.312,105.779 C53.86,105.081 53.528,104.435 53.285,103.89 C53.04,103.346 52.89,102.902 52.802,102.595 C52.713,102.29 52.682,102.122 52.682,102.122" fill="#FFFFFE"/>
      <path d="M85.692,95.33 C85.599,95.334 85.466,95.377 85.293,95.363 C85.207,95.359 85.111,95.362 85.008,95.353 C84.907,95.337 84.797,95.319 84.679,95.3 C84.445,95.246 84.187,95.169 83.909,95.066 C83.352,94.863 82.701,94.599 81.978,94.383 C81.619,94.265 81.24,94.179 80.854,94.079 C80.466,94.007 80.072,93.906 79.673,93.854 C79.275,93.793 78.876,93.729 78.482,93.696 C78.087,93.654 77.698,93.612 77.321,93.597 C76.944,93.58 76.58,93.545 76.234,93.543 C75.886,93.538 75.557,93.533 75.254,93.527 C74.645,93.518 74.158,93.544 73.807,93.546 C73.691,93.548 73.598,93.551 73.518,93.552 C73.465,93.326 73.409,93.093 73.319,92.861 C73.184,92.48 73.055,92.069 72.886,91.66 C72.701,91.258 72.516,90.838 72.301,90.425 C72.067,90.022 71.839,89.606 71.576,89.212 C71.298,88.829 71.047,88.427 70.738,88.078 C70.588,87.899 70.44,87.723 70.294,87.548 C70.19,87.434 70.084,87.328 69.978,87.22 C70.061,86.969 70.215,86.499 70.415,85.889 C70.494,85.663 70.56,85.399 70.638,85.129 C70.714,84.859 70.795,84.572 70.877,84.276 C71.041,83.69 71.215,83.065 71.389,82.439 C71.56,81.819 71.732,81.198 71.893,80.616 C71.971,80.323 72.06,80.048 72.138,79.782 C72.217,79.518 72.293,79.267 72.362,79.036 C72.64,78.11 72.825,77.493 72.825,77.493 C72.825,77.493 72.551,78.076 72.14,78.949 C72.038,79.168 71.927,79.405 71.809,79.656 C71.693,79.908 71.562,80.171 71.443,80.447 C71.198,81 70.937,81.589 70.676,82.178 C70.415,82.763 70.155,83.347 69.911,83.894 C69.79,84.165 69.673,84.426 69.562,84.675 C69.449,84.923 69.354,85.157 69.24,85.372 C69.088,85.677 68.953,85.944 68.843,86.165 C68.615,85.979 68.393,85.812 68.175,85.657 C68.219,85.544 68.286,85.372 68.377,85.138 C68.455,84.913 68.55,84.641 68.658,84.327 C68.755,84.023 68.866,83.679 68.986,83.304 C69.456,81.809 70.032,79.818 70.672,77.851 C70.991,76.867 71.325,75.889 71.666,74.982 C71.83,74.526 72.015,74.098 72.176,73.684 C72.354,73.278 72.518,72.892 72.684,72.543 C72.862,72.201 73.005,71.874 73.166,71.605 C73.328,71.337 73.457,71.092 73.585,70.908 C73.85,70.542 74.001,70.332 74.001,70.332 C74.001,70.332 73.831,70.527 73.533,70.868 C73.387,71.043 73.236,71.274 73.048,71.529 C72.86,71.786 72.686,72.099 72.475,72.428 C72.276,72.764 72.076,73.137 71.858,73.53 C71.658,73.93 71.432,74.346 71.226,74.789 C70.799,75.668 70.374,76.62 69.963,77.577 C69.141,79.491 68.381,81.429 67.785,82.856 C67.634,83.21 67.496,83.535 67.374,83.823 C67.25,84.097 67.142,84.336 67.053,84.533 C66.986,84.667 66.933,84.773 66.887,84.868 C66.749,84.799 66.618,84.738 66.507,84.684 C66.134,84.519 65.91,84.456 65.91,84.456 C65.91,84.456 66.089,84.607 66.386,84.876 C66.533,85.015 66.712,85.177 66.91,85.371 C67.112,85.562 67.328,85.786 67.566,86.027 C67.803,86.266 68.041,86.547 68.306,86.824 C68.554,87.119 68.827,87.418 69.084,87.749 C69.215,87.912 69.348,88.077 69.483,88.244 C69.612,88.417 69.74,88.591 69.871,88.768 C70.143,89.11 70.375,89.492 70.631,89.855 C70.884,90.221 71.099,90.612 71.342,90.978 C71.557,91.362 71.77,91.739 71.977,92.104 C72.169,92.479 72.355,92.841 72.532,93.185 C72.626,93.355 72.701,93.528 72.774,93.696 C72.851,93.863 72.925,94.024 72.996,94.178 C73.132,94.49 73.289,94.769 73.385,95.03 C73.487,95.288 73.588,95.512 73.668,95.699 C73.832,96.07 73.94,96.283 73.94,96.283 C73.94,96.283 73.93,96.048 73.888,95.641 C73.867,95.438 73.843,95.188 73.802,94.905 C73.795,94.827 73.777,94.742 73.761,94.66 C73.801,94.655 73.835,94.652 73.878,94.647 C74.221,94.614 74.722,94.541 75.304,94.499 C75.596,94.478 75.913,94.454 76.247,94.428 C76.582,94.4 76.939,94.401 77.306,94.385 C77.675,94.367 78.053,94.373 78.44,94.379 C78.826,94.376 79.216,94.403 79.607,94.428 C80,94.441 80.386,94.505 80.772,94.541 C81.153,94.604 81.53,94.653 81.89,94.737 C82.613,94.882 83.276,95.084 83.856,95.239 C84.146,95.316 84.419,95.371 84.662,95.405 C84.784,95.413 84.899,95.421 85.005,95.429 C85.111,95.428 85.209,95.417 85.295,95.412 C85.471,95.411 85.602,95.355 85.695,95.343 C85.785,95.322 85.834,95.311 85.834,95.311 C85.834,95.311 85.785,95.317 85.692,95.33" fill="#FFFFFE"/>
      <path d="M60.706,80.653 C60.476,80.35 60.259,80.041 60.048,79.733 C60.035,79.766 60.024,79.799 60.011,79.835 C59.897,80.159 59.763,80.538 59.62,80.943 C59.473,81.346 59.344,81.789 59.201,82.223 C59.063,82.658 58.925,83.093 58.795,83.501 C58.687,83.917 58.586,84.305 58.501,84.638 C58.331,85.298 58.218,85.738 58.218,85.738 C58.218,85.738 58.42,85.331 58.723,84.721 C58.874,84.419 59.049,84.066 59.238,83.688 C59.447,83.32 59.671,82.928 59.895,82.536 C60.122,82.146 60.334,81.75 60.558,81.393 C60.665,81.218 60.767,81.049 60.866,80.889 C60.816,80.81 60.766,80.731 60.706,80.653" fill="#FFFFFE"/>
      <path d="M97.4,126.85 C97.563,126.537 97.694,126.266 97.793,126.049 L91.036,126.817 L97.4,126.85" fill="#FFFFFE"/>
      <path d="M141.641,115.059 C141.641,115.059 141.253,115.909 140.437,117.036 C140.233,117.317 140.012,117.623 139.755,117.927 C139.508,118.24 139.23,118.556 138.934,118.876 C138.639,119.195 138.321,119.513 137.992,119.831 C137.646,120.13 137.311,120.452 136.945,120.741 C136.574,121.02 136.215,121.317 135.828,121.563 C135.452,121.825 135.071,122.064 134.685,122.269 C134.493,122.374 134.309,122.481 134.123,122.578 C133.938,122.675 133.744,122.748 133.563,122.831 C133.197,122.991 132.858,123.151 132.52,123.244 C132.19,123.352 131.886,123.443 131.617,123.523 C131.343,123.585 131.1,123.624 130.903,123.662 C130.507,123.731 130.281,123.763 130.281,123.763 C130.281,123.763 130.493,123.668 130.861,123.514 C131.044,123.44 131.268,123.349 131.523,123.245 C131.77,123.12 132.048,122.98 132.354,122.836 C132.663,122.702 132.971,122.5 133.31,122.318 C133.651,122.14 133.989,121.913 134.344,121.687 C134.519,121.57 134.705,121.466 134.878,121.336 C135.052,121.207 135.229,121.079 135.411,120.953 C135.779,120.71 136.119,120.415 136.473,120.139 C136.831,119.868 137.162,119.562 137.503,119.28 C137.823,118.973 138.161,118.696 138.463,118.399 C138.763,118.1 139.068,117.825 139.337,117.542 C139.611,117.267 139.867,117.001 140.104,116.754 C140.572,116.257 140.957,115.835 141.223,115.534 C141.491,115.235 141.641,115.059 141.641,115.059" fill="#FFFFFE"/>
      <path d="M137.054,118.254 C137.054,118.254 136.973,118.366 136.825,118.552 C136.672,118.736 136.466,119.003 136.169,119.284 C136.025,119.429 135.867,119.585 135.693,119.743 C135.515,119.893 135.328,120.054 135.127,120.209 C134.928,120.37 134.716,120.527 134.492,120.672 C134.267,120.818 134.045,120.977 133.805,121.105 C133.564,121.232 133.324,121.359 133.087,121.484 C132.85,121.608 132.596,121.691 132.362,121.79 C132.127,121.889 131.896,121.974 131.668,122.031 C131.445,122.098 131.23,122.151 131.032,122.199 C130.838,122.257 130.649,122.273 130.485,122.295 C130.322,122.319 130.178,122.331 130.059,122.343 C129.824,122.365 129.689,122.37 129.689,122.37 C129.689,122.37 129.81,122.302 130.022,122.196 C130.128,122.143 130.255,122.079 130.403,122.014 C130.549,121.944 130.716,121.877 130.892,121.781 C131.068,121.689 131.258,121.592 131.461,121.497 C131.667,121.407 131.871,121.284 132.089,121.173 C132.304,121.059 132.527,120.94 132.754,120.82 C132.977,120.693 133.204,120.565 133.431,120.436 C133.663,120.318 133.876,120.166 134.1,120.041 C134.321,119.91 134.545,119.79 134.749,119.653 C134.954,119.517 135.163,119.4 135.357,119.284 C135.543,119.158 135.727,119.047 135.897,118.943 C136.237,118.741 136.522,118.553 136.726,118.436 C136.932,118.317 137.054,118.254 137.054,118.254" fill="#FFFFFE"/>
      <path d="M82.683,135.991 C82.683,135.991 82.925,135.946 83.338,135.842 C83.543,135.783 83.793,135.722 84.074,135.631 C84.357,135.55 84.67,135.435 85.011,135.318 C85.35,135.194 85.713,135.047 86.094,134.889 C86.471,134.721 86.869,134.547 87.27,134.34 C87.678,134.154 88.075,133.909 88.488,133.684 C88.904,133.462 89.295,133.18 89.702,132.93 C90.099,132.66 90.488,132.379 90.872,132.105 C91.236,131.802 91.608,131.521 91.961,131.238 C92.293,130.932 92.624,130.645 92.937,130.371 C93.249,130.095 93.515,129.804 93.782,129.555 C94.039,129.296 94.292,129.073 94.486,128.848 C94.69,128.63 94.867,128.44 95.015,128.283 C95.312,127.972 95.488,127.798 95.488,127.798 C95.488,127.798 95.364,128.01 95.133,128.377 C95.016,128.559 94.873,128.78 94.71,129.035 C94.552,129.295 94.337,129.559 94.105,129.85 C93.87,130.138 93.634,130.471 93.338,130.777 C93.043,131.086 92.734,131.416 92.403,131.746 C92.052,132.053 91.696,132.379 91.318,132.693 C90.926,132.986 90.527,133.286 90.12,133.573 C89.69,133.826 89.278,134.109 88.841,134.333 C88.409,134.566 87.978,134.78 87.545,134.955 C87.122,135.152 86.691,135.289 86.288,135.426 C85.883,135.558 85.493,135.659 85.13,135.74 C84.767,135.821 84.433,135.882 84.134,135.917 C83.839,135.967 83.574,135.973 83.359,135.992 C82.928,136.011 82.683,135.991 82.683,135.991" fill="#FFFFFE"/>
      <path d="M58.219,120.304 C57.995,120.122 57.744,119.918 57.47,119.694 C57.202,119.464 56.935,119.186 56.642,118.91 C56.349,118.634 56.079,118.297 55.781,117.976 C55.488,117.649 55.219,117.278 54.929,116.92 C54.653,116.549 54.385,116.163 54.117,115.78 C53.866,115.381 53.6,114.997 53.368,114.597 C53.342,114.554 53.318,114.512 53.294,114.469 C53.407,115.219 53.537,115.972 53.683,116.717 C53.902,116.96 54.124,117.202 54.347,117.434 C54.693,117.765 55.011,118.106 55.355,118.403 C55.703,118.695 56.016,118.999 56.352,119.245 C56.688,119.489 56.99,119.736 57.291,119.934 C57.595,120.124 57.875,120.298 58.123,120.452 C58.368,120.609 58.607,120.702 58.79,120.8 C59.163,120.984 59.376,121.089 59.376,121.089 C59.376,121.089 59.178,120.958 58.831,120.728 C58.662,120.608 58.441,120.489 58.219,120.304" fill="#FFFFFE"/>
      <path d="M126.86,108.499 C126.968,108.954 126.461,109.469 125.729,109.648 C124.996,109.826 124.314,109.601 124.205,109.145 C124.098,108.688 124.604,108.174 125.336,107.995 C126.069,107.817 126.751,108.042 126.86,108.499" fill="#FFFFFE"/>
      <path d="M131.784,96.428 C131.894,96.714 131.443,97.161 130.775,97.426 C130.108,97.69 129.478,97.673 129.367,97.387 C129.256,97.101 129.706,96.654 130.375,96.389 C131.042,96.125 131.673,96.141 131.784,96.428" fill="#FFFFFE"/>
      <path d="M124.745,99.226 C124.786,99.445 124.468,99.69 124.037,99.772 C123.605,99.854 123.222,99.743 123.182,99.523 C123.141,99.303 123.458,99.06 123.889,98.977 C124.321,98.895 124.704,99.006 124.745,99.226" fill="#FFFFFE"/>
      <path d="M117.365,99.664 C117.406,99.883 117.088,100.129 116.657,100.21 C116.225,100.292 115.842,100.18 115.801,99.962 C115.761,99.741 116.077,99.497 116.51,99.415 C116.94,99.333 117.324,99.445 117.365,99.664" fill="#FFFFFE"/>
      <path d="M113.024,102.288 C113.064,102.507 112.748,102.752 112.315,102.834 C111.884,102.915 111.501,102.804 111.461,102.585 C111.42,102.365 111.737,102.121 112.169,102.039 C112.6,101.956 112.983,102.068 113.024,102.288" fill="#FFFFFE"/>
      <path d="M99.45,101.983 C99.491,102.202 99.173,102.447 98.742,102.529 C98.31,102.61 97.928,102.5 97.887,102.279 C97.847,102.061 98.163,101.815 98.595,101.734 C99.027,101.652 99.409,101.763 99.45,101.983" fill="#FFFFFE"/>
      <path d="M97.941,105.862 C97.999,106.184 97.497,106.551 96.816,106.68 C96.136,106.808 95.536,106.653 95.477,106.331 C95.417,106.009 95.92,105.643 96.601,105.513 C97.281,105.384 97.881,105.54 97.941,105.862" fill="#FFFFFE"/>
      <path d="M87.377,103.109 C87.418,103.328 87.1,103.573 86.669,103.654 C86.237,103.737 85.854,103.625 85.814,103.406 C85.773,103.186 86.09,102.942 86.522,102.859 C86.953,102.778 87.336,102.889 87.377,103.109" fill="#FFFFFE"/>
      <path d="M80.094,106.097 C80.151,106.407 79.769,106.739 79.241,106.839 C78.714,106.94 78.239,106.77 78.182,106.461 C78.124,106.151 78.505,105.818 79.033,105.718 C79.562,105.617 80.037,105.787 80.094,106.097" fill="#FFFFFE"/>
      <path d="M65.414,104.332 C65.348,104.554 64.921,104.624 64.46,104.486 C63.999,104.347 63.678,104.054 63.743,103.831 C63.808,103.608 64.235,103.539 64.696,103.678 C65.158,103.815 65.48,104.109 65.414,104.332" fill="#FFFFFE"/>
      <path d="M60.357,89.905 C60.521,89.997 60.523,90.313 60.362,90.609 C60.2,90.906 59.935,91.072 59.771,90.98 C59.606,90.888 59.603,90.572 59.766,90.275 C59.927,89.978 60.192,89.812 60.357,89.905" fill="#FFFFFE"/>
      <path d="M63.367,88.046 C63.514,88.158 63.511,88.413 63.361,88.614 C63.211,88.815 62.97,88.888 62.823,88.776 C62.676,88.663 62.679,88.409 62.829,88.208 C62.98,88.005 63.22,87.933 63.367,88.046" fill="#FFFFFE"/>
      <path d="M60.54,104.264 C60.373,104.519 59.852,104.471 59.376,104.153 C58.899,103.836 58.647,103.371 58.813,103.115 C58.979,102.859 59.501,102.908 59.977,103.225 C60.454,103.543 60.706,104.007 60.54,104.264" fill="#FFFFFE"/>
      <path d="M93.291,104.4 C93.341,104.672 92.935,104.977 92.382,105.082 C91.829,105.187 91.343,105.052 91.293,104.78 C91.242,104.508 91.648,104.203 92.2,104.098 C92.752,103.993 93.24,104.129 93.291,104.4" fill="#FFFFFE"/>
      <path d="M86.886,106.366 C86.944,106.675 86.627,106.996 86.18,107.08 C85.732,107.165 85.323,106.984 85.266,106.675 C85.21,106.366 85.525,106.046 85.972,105.961 C86.42,105.875 86.829,106.057 86.886,106.366" fill="#FFFFFE"/>
      <path d="M107.921,102.509 C107.954,102.69 107.676,102.896 107.298,102.968 C106.921,103.039 106.587,102.951 106.553,102.769 C106.519,102.587 106.798,102.382 107.176,102.311 C107.554,102.238 107.887,102.327 107.921,102.509" fill="#FFFFFE"/>
      <path d="M121.129,102.575 C121.159,102.795 120.831,103.026 120.396,103.087 C119.962,103.149 119.584,103.02 119.553,102.8 C119.522,102.579 119.85,102.348 120.284,102.286 C120.72,102.224 121.098,102.354 121.129,102.575" fill="#FFFFFE"/>
      <path d="M133.023,108.918 C133.12,109.403 132.476,109.945 131.585,110.129 C130.694,110.314 129.891,110.07 129.795,109.585 C129.697,109.099 130.339,108.556 131.231,108.372 C132.123,108.188 132.925,108.432 133.023,108.918" fill="#FFFFFE"/>
      <path d="M115.905,111.051 C115.991,111.484 115.258,112.001 114.265,112.206 C113.273,112.411 112.397,112.226 112.31,111.793 C112.224,111.36 112.956,110.843 113.949,110.638 C114.942,110.432 115.818,110.618 115.905,111.051" fill="#FFFFFE"/>
      <path d="M106.595,109.886 C106.683,110.324 105.962,110.844 104.982,111.045 C104.004,111.248 103.139,111.056 103.052,110.618 C102.963,110.179 103.684,109.66 104.662,109.458 C105.641,109.255 106.506,109.447 106.595,109.886" fill="#FFFFFE"/>
      <path d="M95.285,113.92 C95.382,114.405 94.739,114.947 93.847,115.131 C92.956,115.315 92.154,115.072 92.057,114.587 C91.959,114.102 92.602,113.559 93.492,113.374 C94.384,113.189 95.187,113.435 95.285,113.92" fill="#FFFFFE"/>
      <path d="M76.632,112.727 C76.603,113.279 75.918,113.692 75.102,113.649 C74.286,113.606 73.646,113.123 73.675,112.571 C73.704,112.019 74.388,111.606 75.205,111.649 C76.022,111.691 76.661,112.175 76.632,112.727" fill="#FFFFFE"/>
      <path d="M65.343,110.015 C65.187,110.538 64.282,110.723 63.323,110.43 C62.365,110.135 61.714,109.471 61.871,108.948 C62.026,108.425 62.931,108.24 63.89,108.533 C64.85,108.828 65.5,109.491 65.343,110.015" fill="#FFFFFE"/>
      <path d="M54.892,103.34 C54.613,103.478 54.181,103.166 53.927,102.641 C53.675,102.118 53.694,101.581 53.973,101.443 C54.251,101.304 54.683,101.617 54.936,102.14 C55.19,102.664 55.171,103.202 54.892,103.34" fill="#FFFFFE"/>
      <path d="M62.78,95.503 C62.427,95.462 62.194,94.95 62.258,94.356 C62.324,93.765 62.663,93.316 63.016,93.356 C63.369,93.396 63.603,93.908 63.538,94.501 C63.473,95.094 63.133,95.543 62.78,95.503" fill="#FFFFFE"/>
      <path d="M63.992,89.895 C63.737,89.699 63.74,89.255 64.002,88.901 C64.264,88.548 64.684,88.419 64.94,88.615 C65.198,88.81 65.193,89.255 64.932,89.608 C64.67,89.961 64.25,90.09 63.992,89.895" fill="#FFFFFE"/>
      <path d="M129.991,101.362 C130.086,101.644 129.704,102.032 129.139,102.226 C128.574,102.421 128.038,102.352 127.944,102.069 C127.849,101.787 128.23,101.4 128.795,101.204 C129.361,101.009 129.897,101.08 129.991,101.362" fill="#FFFFFE"/>
      <path d="M126.737,105.002 C126.773,105.297 126.323,105.598 125.73,105.674 C125.138,105.749 124.628,105.571 124.59,105.276 C124.554,104.98 125.004,104.679 125.596,104.603 C126.189,104.527 126.699,104.705 126.737,105.002" fill="#FFFFFE"/>
      <path d="M112.796,108.114 C112.832,108.41 112.381,108.711 111.789,108.787 C111.196,108.863 110.685,108.684 110.649,108.389 C110.612,108.093 111.063,107.791 111.655,107.716 C112.248,107.64 112.759,107.819 112.796,108.114" fill="#FFFFFE"/>
      <path d="M106.241,105.586 C106.276,105.881 105.827,106.183 105.235,106.258 C104.641,106.333 104.131,106.155 104.094,105.86 C104.057,105.564 104.508,105.263 105.101,105.187 C105.693,105.111 106.204,105.29 106.241,105.586" fill="#FFFFFE"/>
      <path d="M100.045,109.258 C100.084,109.577 99.531,109.912 98.806,110.005 C98.082,110.097 97.463,109.912 97.423,109.592 C97.383,109.271 97.937,108.936 98.661,108.843 C99.386,108.751 100.005,108.936 100.045,109.258" fill="#FFFFFE"/>
      <path d="M85.018,111.389 C85.066,111.779 84.52,112.172 83.795,112.264 C83.071,112.356 82.445,112.114 82.396,111.724 C82.347,111.332 82.894,110.94 83.618,110.847 C84.342,110.754 84.97,110.997 85.018,111.389" fill="#FFFFFE"/>
      <path d="M90.649,108.328 C90.696,108.718 90.155,109.11 89.436,109.202 C88.719,109.293 88.098,109.05 88.049,108.659 C88.001,108.269 88.543,107.877 89.261,107.785 C89.978,107.693 90.601,107.937 90.649,108.328" fill="#FFFFFE"/>
      <path d="M72.411,107.981 C72.344,108.349 71.706,108.541 70.984,108.409 C70.262,108.275 69.729,107.869 69.795,107.5 C69.862,107.132 70.501,106.94 71.223,107.074 C71.946,107.206 72.478,107.613 72.411,107.981" fill="#FFFFFE"/>
      <path d="M119.816,106.079 C119.878,106.37 119.458,106.712 118.874,106.843 C118.291,106.973 117.766,106.843 117.703,106.552 C117.64,106.261 118.061,105.919 118.645,105.789 C119.227,105.658 119.752,105.788 119.816,106.079" fill="#FFFFFE"/>
      <path d="M62.503,116.847 C62.503,116.847 62.721,116.937 63.135,117.077 C63.551,117.21 64.163,117.398 64.954,117.588 C65.347,117.693 65.784,117.8 66.267,117.887 C66.749,117.974 67.259,118.11 67.821,118.192 C68.378,118.281 68.971,118.376 69.598,118.476 C70.227,118.553 70.887,118.634 71.577,118.72 C71.923,118.759 72.274,118.809 72.633,118.841 C72.993,118.868 73.36,118.896 73.735,118.923 C74.482,118.972 75.251,119.062 76.046,119.098 C77.639,119.149 79.312,119.261 81.05,119.245 C81.919,119.249 82.801,119.255 83.695,119.26 C84.588,119.228 85.493,119.196 86.405,119.177 C86.861,119.164 87.319,119.154 87.778,119.142 L88.467,119.124 L89.157,119.08 C90.08,119.02 91.005,118.96 91.93,118.9 C93.783,118.826 95.63,118.62 97.45,118.455 C97.904,118.413 98.358,118.371 98.809,118.329 C99.259,118.287 99.71,118.265 100.153,118.203 C101.044,118.096 101.923,117.991 102.788,117.887 C103.653,117.786 104.502,117.675 105.336,117.587 C106.172,117.505 106.984,117.385 107.775,117.268 C109.355,117.032 110.855,116.828 112.24,116.641 C113.627,116.467 114.887,116.238 116.009,116.066 C117.132,115.891 118.112,115.74 118.919,115.615 C119.726,115.489 120.363,115.408 120.796,115.345 C121.231,115.284 121.462,115.251 121.462,115.251 C121.462,115.251 121.236,115.312 120.814,115.427 C120.39,115.538 119.771,115.713 118.979,115.914 C118.188,116.116 117.225,116.362 116.12,116.644 C115.014,116.914 113.771,117.253 112.393,117.51 C111.019,117.794 109.531,118.099 107.952,118.401 C106.377,118.736 104.696,118.964 102.962,119.229 C102.093,119.36 101.212,119.491 100.318,119.625 C99.424,119.756 98.512,119.835 97.596,119.933 C95.762,120.116 93.902,120.343 92.028,120.433 C91.092,120.485 90.156,120.537 89.224,120.588 L88.526,120.626 L87.828,120.638 C87.362,120.644 86.899,120.652 86.438,120.659 C85.514,120.677 84.599,120.685 83.694,120.688 C82.789,120.656 81.895,120.626 81.015,120.595 C79.256,120.574 77.561,120.366 75.955,120.239 C75.152,120.16 74.373,120.042 73.622,119.94 C73.246,119.888 72.876,119.835 72.513,119.784 C72.151,119.728 71.799,119.652 71.452,119.59 C70.76,119.453 70.095,119.344 69.468,119.203 C68.844,119.049 68.253,118.902 67.696,118.764 C67.14,118.631 66.63,118.458 66.156,118.316 C65.681,118.178 65.252,118.024 64.866,117.88 C64.089,117.614 63.505,117.334 63.103,117.153 C62.706,116.962 62.503,116.847 62.503,116.847" fill="#4E4E4C"/>
      <path d="M180.797,89.475 L181.099,89.734 L181.955,88.836 L180.797,89.475" fill="#4E4E4C"/>
      <path d="M184.474,87.898 C183.144,89.198 182.189,89.378 179.464,93.227 C176.739,97.077 176.046,97.459 175.51,97.754 C174.975,98.049 174.638,97.978 174.659,98.594 C174.679,99.209 175.02,100.932 175.649,101.147 C176.278,101.362 175.539,101.079 175.892,99.854 C176.244,98.63 176.411,98.208 178.466,96.897 C180.522,95.584 183.612,93.365 184.561,90.535 C185.51,87.705 184.651,87.725 184.474,87.898" fill="#4E4E4C"/>
      <path d="M180.937,89.514 C180.686,89.781 180.426,90.057 180.442,90.424 C180.456,90.712 180.641,91.009 181.01,91.335 L181.193,91.121 C180.886,90.849 180.732,90.617 180.722,90.412 C180.711,90.165 180.909,89.954 181.139,89.71 C181.204,89.64 181.271,89.571 181.333,89.498 L180.937,89.514" fill="#4E4E4C"/>
      <path d="M183.203,89.155 C183.075,88.975 183.024,88.756 183.058,88.537 C183.093,88.318 183.209,88.125 183.387,87.996 C183.754,87.728 184.266,87.812 184.531,88.182 L184.305,88.348 C184.13,88.104 183.792,88.049 183.551,88.226 C183.434,88.311 183.357,88.438 183.334,88.582 C183.312,88.726 183.346,88.871 183.43,88.989 L183.203,89.155" fill="#4E4E4C"/>
      <path d="M185.27,87.511 C185.388,87.677 185.352,87.908 185.188,88.028 C185.024,88.148 184.796,88.111 184.678,87.945 C184.56,87.78 184.596,87.548 184.76,87.428 C184.923,87.309 185.151,87.346 185.27,87.511" fill="#4E4E4C"/>
      <g>
        <path d="M178.191,95.718 C178.191,95.718 178.486,95.174 178.991,94.397 C179.249,94.013 179.545,93.559 179.888,93.094 C180.226,92.623 180.609,92.138 180.999,91.659 C181.196,91.422 181.402,91.191 181.599,90.96 C181.802,90.733 182.009,90.517 182.207,90.306 C182.411,90.1 182.61,89.904 182.802,89.721 C182.999,89.543 183.185,89.375 183.357,89.22 C183.534,89.07 183.702,88.94 183.85,88.824 C183.994,88.704 184.133,88.617 184.242,88.538 C184.465,88.387 184.592,88.301 184.592,88.301 C184.592,88.301 184.477,88.403 184.276,88.582 C184.175,88.671 184.048,88.771 183.916,88.905 C183.782,89.036 183.631,89.182 183.463,89.338 C183.303,89.502 183.129,89.68 182.946,89.868 C182.768,90.062 182.58,90.266 182.386,90.478 C182.006,90.908 181.601,91.368 181.214,91.842 C181.02,92.079 180.82,92.312 180.635,92.55 C180.447,92.787 180.262,93.019 180.083,93.245 C179.728,93.698 179.396,94.121 179.118,94.489 C178.562,95.227 178.191,95.718 178.191,95.718" fill="#FFFFFE"/>
        <path d="M148.244,129.817 C148.207,129.817 148.171,129.817 148.134,129.817 C141.647,129.791 135.48,127.378 129.805,122.647 L129.914,122.456 C135.557,127.16 141.687,129.559 148.135,129.586 C148.171,129.586 148.208,129.586 148.244,129.586 C153.878,129.586 159.643,127.797 165.382,124.269 C179.981,115.294 190.405,97.492 190.63,87.129 C190.702,83.799 189.712,81.322 187.766,79.966 C186.786,79.283 185.871,79.409 185.188,80.32 C183.768,82.215 184.086,85.747 185.261,87.732 L185.105,87.866 C183.589,85.304 183.857,81.751 185.046,80.164 C185.796,79.164 186.795,79.022 187.862,79.766 C189.872,81.166 190.895,83.714 190.821,87.135 C190.595,97.563 180.128,115.463 165.469,124.475 C159.703,128.02 153.908,129.817 148.244,129.817" fill="#4E4E4C"/>
      </g>
    </g>
  </g>
</svg>
