<?xml version="1.0" encoding="UTF-8"?>
<!DOCTYPE svg PUBLIC "-//W3C//DTD SVG 1.1//EN" "http://www.w3.org/Graphics/SVG/1.1/DTD/svg11.dtd">
<svg version="1.1" xmlns="http://www.w3.org/2000/svg" xmlns:xlink="http://www.w3.org/1999/xlink" x="0" y="0" width="91.27" height="120" viewBox="0, 0, 91.27, 120">
  <defs>
    <linearGradient id="Gradient_1" gradientUnits="userSpaceOnUse" x1="369.803" y1="56.385" x2="378.406" y2="80.7">
      <stop offset="0" stop-color="#01AD4E"/>
      <stop offset="1" stop-color="#005447"/>
    </linearGradient>
    <linearGradient id="Gradient_2" gradientUnits="userSpaceOnUse" x1="369.944" y1="57.719" x2="377.456" y2="79.878">
      <stop offset="0" stop-color="#FFFFFF"/>
      <stop offset="1" stop-color="#DCD8D5"/>
    </linearGradient>
    <linearGradient id="Gradient_3" gradientUnits="userSpaceOnUse" x1="430.2" y1="56.386" x2="421.597" y2="80.7">
      <stop offset="0" stop-color="#01AD4E"/>
      <stop offset="1" stop-color="#005447"/>
    </linearGradient>
    <linearGradient id="Gradient_4" gradientUnits="userSpaceOnUse" x1="430.061" y1="57.718" x2="422.549" y2="79.877">
      <stop offset="0" stop-color="#FFFFFF"/>
      <stop offset="1" stop-color="#DCD8D5"/>
    </linearGradient>
    <linearGradient id="Gradient_5" gradientUnits="userSpaceOnUse" x1="371.564" y1="141.718" x2="428.283" y2="91.59">
      <stop offset="0" stop-color="#A27A4E"/>
      <stop offset="0.181" stop-color="#765232"/>
      <stop offset="0.385" stop-color="#8D674F"/>
      <stop offset="0.637" stop-color="#B6804B"/>
      <stop offset="0.83" stop-color="#A37546"/>
      <stop offset="1" stop-color="#714D35"/>
    </linearGradient>
    <linearGradient id="Gradient_6" gradientUnits="userSpaceOnUse" x1="399.925" y1="143.596" x2="399.925" y2="89.711">
      <stop offset="0" stop-color="#D1A672"/>
      <stop offset="0.184" stop-color="#AD7D4B"/>
      <stop offset="0.436" stop-color="#D5A56A"/>
      <stop offset="0.65" stop-color="#A67644"/>
      <stop offset="1" stop-color="#60432B"/>
    </linearGradient>
    <linearGradient id="Gradient_7" gradientUnits="userSpaceOnUse" x1="364.663" y1="116.643" x2="434.429" y2="116.643">
      <stop offset="0" stop-color="#A27A4E"/>
      <stop offset="0.181" stop-color="#765232"/>
      <stop offset="0.385" stop-color="#8D674F"/>
      <stop offset="0.637" stop-color="#B6804B"/>
      <stop offset="0.83" stop-color="#A37546"/>
      <stop offset="1" stop-color="#714D35"/>
    </linearGradient>
  </defs>
  <g id="Layer_1" transform="translate(-354.365, -34.5)">
    <path d="M426.193,65.726 L373.569,65.726 L373.817,34.593 L426.279,34.5 z" fill="#006559"/>
    <path d="M426.193,55.619 L373.728,55.619 L373.728,45.259 L426.193,45.259 z" fill="#D6D8E1"/>
    <path d="M371.198,93.599 L354.365,57.691 L373.817,34.5 L394.767,82.003 z" fill="url(#Gradient_1)"/>
    <path d="M359.749,50.854 L377.38,90.558 L387.291,85.681 L367.125,42.055 z" fill="url(#Gradient_2)"/>
    <path d="M428.805,93.599 L445.635,57.691 L426.185,34.5 L405.239,82.003 z" fill="url(#Gradient_3)"/>
    <path d="M440.255,50.854 L422.624,90.558 L412.713,85.681 L432.878,42.055 z" fill="url(#Gradient_4)"/>
    <path d="M362.076,116.654 C362.076,137.556 379.021,154.5 399.925,154.5 L399.925,154.5 C420.828,154.5 437.771,137.556 437.771,116.654 L437.771,116.654 C437.771,95.753 420.828,78.806 399.925,78.806 L399.925,78.806 C379.021,78.806 362.076,95.753 362.076,116.654 z" fill="url(#Gradient_5)"/>
    <path d="M372.982,116.654 C372.982,131.511 385.068,143.596 399.925,143.596 L399.925,143.596 C414.781,143.596 426.867,131.511 426.867,116.654 L426.867,116.654 C426.867,101.799 414.781,89.711 399.925,89.711 L399.925,89.711 C385.068,89.711 372.982,101.799 372.982,116.654 z M376.193,116.654 C376.193,103.568 386.84,92.92 399.925,92.92 L399.925,92.92 C413.012,92.92 423.659,103.568 423.659,116.654 L423.659,116.654 C423.659,129.741 413.012,140.389 399.925,140.389 L399.925,140.389 C386.84,140.389 376.193,129.741 376.193,116.654 z" fill="url(#Gradient_6)"/>
    <path d="M364.663,116.644 C364.663,135.876 380.311,151.527 399.548,151.527 L399.548,151.527 C418.781,151.527 434.429,135.876 434.429,116.644 L434.429,116.644 C434.429,97.408 418.781,81.758 399.548,81.758 L399.548,81.758 C380.311,81.758 364.663,97.408 364.663,116.644 z M365.51,116.644 C365.51,97.876 380.781,82.607 399.548,82.607 L399.548,82.607 C418.313,82.607 433.581,97.876 433.581,116.644 L433.581,116.644 C433.581,135.409 418.313,150.678 399.548,150.678 L399.548,150.678 C380.781,150.678 365.51,135.409 365.51,116.644 z M366.847,116.644 C366.847,134.676 381.515,149.341 399.548,149.341 L399.548,149.341 C417.577,149.341 432.244,134.676 432.244,116.644 L432.244,116.644 C432.244,98.613 417.577,83.943 399.548,83.943 L399.548,83.943 C381.515,83.943 366.847,98.613 366.847,116.644 z M367.696,116.644 C367.696,99.078 381.983,84.797 399.548,84.797 L399.548,84.797 C417.109,84.797 431.395,99.078 431.395,116.644 L431.395,116.644 C431.395,134.207 417.109,148.493 399.548,148.493 L399.548,148.493 C381.983,148.493 367.696,134.207 367.696,116.644 z M369.116,116.644 C369.116,133.419 382.765,147.07 399.548,147.07 L399.548,147.07 C416.327,147.07 429.976,133.419 429.976,116.644 L429.976,116.644 C429.976,99.866 416.327,86.212 399.548,86.212 L399.548,86.212 C382.765,86.212 369.116,99.866 369.116,116.644 z M369.969,116.644 C369.969,100.329 383.233,87.061 399.548,87.061 L399.548,87.061 C415.858,87.061 429.126,100.329 429.126,116.644 L429.126,116.644 C429.126,132.953 415.858,146.224 399.548,146.224 L399.548,146.224 C383.233,146.224 369.969,132.953 369.969,116.644 z" fill="url(#Gradient_7)"/>
  </g>
</svg>
