<?xml version="1.0" encoding="UTF-8"?>
<!DOCTYPE svg PUBLIC "-//W3C//DTD SVG 1.1//EN" "http://www.w3.org/Graphics/SVG/1.1/DTD/svg11.dtd">
<svg version="1.1" xmlns="http://www.w3.org/2000/svg" xmlns:xlink="http://www.w3.org/1999/xlink" x="0" y="0" width="60" height="75" viewBox="0, 0, 60, 75">
  <defs>
    <linearGradient id="Gradient_1" gradientUnits="userSpaceOnUse" x1="61.211" y1="48.271" x2="66.866" y2="63.568" gradientTransform="matrix(1, 0, 0, 1, -51.063, -34.5)">
      <stop offset="0" stop-color="#FA400A"/>
      <stop offset="1" stop-color="#B00803"/>
    </linearGradient>
    <linearGradient id="Gradient_2" gradientUnits="userSpaceOnUse" x1="61.304" y1="49.108" x2="66.241" y2="63.05" gradientTransform="matrix(1, 0, 0, 1, -51.063, -34.5)">
      <stop offset="0" stop-color="#FFFFFF"/>
      <stop offset="1" stop-color="#DCD8D5"/>
    </linearGradient>
    <linearGradient id="Gradient_3" gradientUnits="userSpaceOnUse" x1="100.915" y1="48.271" x2="95.26" y2="63.568" gradientTransform="matrix(1, 0, 0, 1, -51.063, -34.5)">
      <stop offset="0" stop-color="#FA400A"/>
      <stop offset="1" stop-color="#B00803"/>
    </linearGradient>
    <linearGradient id="Gradient_4" gradientUnits="userSpaceOnUse" x1="100.824" y1="49.108" x2="95.885" y2="63.049" gradientTransform="matrix(1, 0, 0, 1, -51.063, -34.5)">
      <stop offset="0" stop-color="#FFFFFF"/>
      <stop offset="1" stop-color="#DCD8D5"/>
    </linearGradient>
    <linearGradient id="Gradient_5" gradientUnits="userSpaceOnUse" x1="63.42" y1="68.851" x2="98.607" y2="102.526" gradientTransform="matrix(1, 0, 0, 1, -51.063, -34.5)">
      <stop offset="0" stop-color="#FFF07A"/>
      <stop offset="0.607" stop-color="#E19F2B"/>
      <stop offset="1" stop-color="#FAE26D"/>
    </linearGradient>
    <linearGradient id="Gradient_6" gradientUnits="userSpaceOnUse" x1="93.532" y1="97.669" x2="68.495" y2="73.708" gradientTransform="matrix(1, 0, 0, 1, -51.063, -34.5)">
      <stop offset="0" stop-color="#F8B641"/>
      <stop offset="0.006" stop-color="#F8B641"/>
      <stop offset="0.281" stop-color="#FFF07A"/>
      <stop offset="0.522" stop-color="#E19F2B"/>
      <stop offset="0.775" stop-color="#B37100"/>
      <stop offset="1" stop-color="#F8B641"/>
    </linearGradient>
    <linearGradient id="Gradient_7" gradientUnits="userSpaceOnUse" x1="57.832" y1="85.682" x2="103.695" y2="85.682" gradientTransform="matrix(1, 0, 0, 1, -51.063, -34.5)">
      <stop offset="0" stop-color="#F8B641"/>
      <stop offset="0.006" stop-color="#F8B641"/>
      <stop offset="0.281" stop-color="#FFF07A"/>
      <stop offset="0.522" stop-color="#E19F2B"/>
      <stop offset="0.775" stop-color="#B37100"/>
      <stop offset="1" stop-color="#F8B641"/>
    </linearGradient>
  </defs>
  <g id="Layer_1" transform="translate(-0, -0)">
    <path d="M47.218,19.646 L12.623,19.646 L12.786,0.059 L47.275,0 z" fill="#C81B00"/>
    <path d="M47.218,13.289 L12.728,13.289 L12.728,6.769 L47.218,6.769 z" fill="#D6D8E1"/>
    <path d="M11.065,37.183 L0,14.591 L12.787,0 L26.557,29.887 z" fill="url(#Gradient_1)"/>
    <path d="M3.538,10.289 L15.129,35.269 L21.644,32.201 L8.387,4.753 z" fill="url(#Gradient_2)"/>
    <path d="M48.935,37.183 L60,14.591 L47.212,0 L33.443,29.887 z" fill="url(#Gradient_3)"/>
    <path d="M56.462,10.289 L44.872,35.269 L38.356,32.201 L51.613,4.753 z" fill="url(#Gradient_4)"/>
    <path d="M5.068,51.189 C5.068,64.339 16.208,75 29.95,75 L29.95,75 C43.691,75 54.831,64.339 54.831,51.189 L54.831,51.189 C54.831,38.037 43.691,27.376 29.95,27.376 L29.95,27.376 C16.208,27.376 5.068,38.037 5.068,51.189 z" fill="url(#Gradient_5)"/>
    <path d="M12.238,51.189 C12.238,60.536 20.182,68.139 29.95,68.139 L29.95,68.139 C39.716,68.139 47.663,60.536 47.663,51.189 L47.663,51.189 C47.663,41.841 39.716,34.238 29.95,34.238 L29.95,34.238 C20.182,34.238 12.238,41.841 12.238,51.189 z M14.348,51.189 C14.348,42.956 21.347,36.257 29.95,36.257 L29.95,36.257 C38.553,36.257 45.552,42.956 45.552,51.189 L45.552,51.189 C45.552,59.423 38.553,66.121 29.95,66.121 L29.95,66.121 C21.347,66.121 14.348,59.423 14.348,51.189 z" fill="url(#Gradient_6)"/>
    <path d="M6.769,51.184 C6.769,63.283 17.056,73.129 29.701,73.129 L29.701,73.129 C42.347,73.129 52.632,63.283 52.632,51.184 L52.632,51.184 C52.632,39.08 42.347,29.234 29.701,29.234 L29.701,29.234 C17.056,29.234 6.769,39.08 6.769,51.184 z M7.325,51.184 C7.325,39.374 17.364,29.768 29.701,29.768 L29.701,29.768 C42.039,29.768 52.075,39.374 52.075,51.184 L52.075,51.184 C52.075,62.988 42.039,72.594 29.701,72.594 L29.701,72.594 C17.364,72.594 7.325,62.988 7.325,51.184 z M8.204,51.184 C8.204,62.528 17.848,71.754 29.701,71.754 L29.701,71.754 C41.553,71.754 51.197,62.528 51.197,51.184 L51.197,51.184 C51.197,39.837 41.553,30.609 29.701,30.609 L29.701,30.609 C17.848,30.609 8.204,39.837 8.204,51.184 z M8.763,51.184 C8.763,40.132 18.155,31.145 29.701,31.145 L29.701,31.145 C41.247,31.145 50.638,40.132 50.638,51.184 L50.638,51.184 C50.638,62.231 41.247,71.221 29.701,71.221 L29.701,71.221 C18.155,71.221 8.763,62.231 8.763,51.184 z M9.697,51.184 C9.697,61.737 18.669,70.325 29.701,70.325 L29.701,70.325 C40.731,70.325 49.704,61.737 49.704,51.184 L49.704,51.184 C49.704,40.626 40.731,32.037 29.701,32.037 L29.701,32.037 C18.669,32.037 9.697,40.626 9.697,51.184 z M10.256,51.184 C10.256,40.919 18.977,32.571 29.701,32.571 L29.701,32.571 C40.424,32.571 49.146,40.919 49.146,51.184 L49.146,51.184 C49.146,61.444 40.424,69.792 29.701,69.792 L29.701,69.792 C18.977,69.792 10.256,61.444 10.256,51.184 z" fill="url(#Gradient_7)"/>
  </g>
</svg>
