<?xml version="1.0" encoding="UTF-8"?>
<!DOCTYPE svg PUBLIC "-//W3C//DTD SVG 1.1//EN" "http://www.w3.org/Graphics/SVG/1.1/DTD/svg11.dtd">
<svg version="1.1" xmlns="http://www.w3.org/2000/svg" xmlns:xlink="http://www.w3.org/1999/xlink" x="0" y="0" width="512" height="512" viewBox="0, 0, 512, 512">
  <g id="g5891" transform="translate(0, 0)">
    <path d="M512,64 C512,28.677 483.323,0 448,0 L64,0 C28.677,0 0,28.677 0,64 L0,448 C0,483.323 28.677,512 64,512 L448,512 C483.323,512 512,483.323 512,448 L512,64 z" fill="#977D6D" id="background"/>
    <g id="shapes">
      <path d="M61.053,178.667 L146.813,178.667 L146.813,436.629 L61.053,436.629 z" fill="#FFFFFF" id="rect11"/>
      <path d="M104.512,54.28 C75.171,54.28 56,73.57 56,98.853 C56,123.605 74.588,143.427 103.377,143.427 L103.931,143.427 C133.834,143.427 152.447,123.605 152.447,98.853 C151.892,73.57 133.836,54.28 104.512,54.28 z" fill="#FFFFFF" id="path13-0"/>
      <path d="M357.278,172.601 C311.788,172.601 291.412,197.618 280.002,215.19 L280.002,178.667 L194.264,178.667 C195.401,202.864 194.264,436.628 194.264,436.628 L280.001,436.628 L280.001,292.564 C280.001,284.853 280.555,277.144 282.828,271.633 C289.016,256.233 303.133,240.281 326.821,240.281 C357.833,240.281 370.257,263.945 370.257,298.608 L370.257,436.628 L455.998,436.628 L455.998,288.698 C455.998,209.461 413.693,172.601 357.278,172.601 z" fill="#FFFFFF" id="path15"/>
    </g>
  </g>
</svg>
