<?xml version="1.0" encoding="UTF-8"?>
<!DOCTYPE svg PUBLIC "-//W3C//DTD SVG 1.1//EN" "http://www.w3.org/Graphics/SVG/1.1/DTD/svg11.dtd">
<svg version="1.1" xmlns="http://www.w3.org/2000/svg" xmlns:xlink="http://www.w3.org/1999/xlink" x="0" y="0" width="48" height="48" viewBox="0, 0, 48, 48">
  <g id="g5891" transform="translate(0, 0)">
    <path d="M48,6 C48,2.689 45.311,0 42,0 L6,0 C2.689,0 0,2.689 0,6 L0,42 C0,45.311 2.689,48 6,48 L42,48 C45.311,48 48,45.311 48,42 L48,6 z" fill="#977D6D" id="background"/>
    <g id="shapes">
      <path d="M5.724,16.75 L13.764,16.75 L13.764,40.934 L5.724,40.934 z" fill="#FFFFFF" id="rect11"/>
      <path d="M9.798,5.089 C7.047,5.089 5.25,6.897 5.25,9.268 C5.25,11.588 6.992,13.446 9.692,13.446 L9.743,13.446 C12.547,13.446 14.292,11.588 14.292,9.268 C14.24,6.897 12.547,5.089 9.798,5.089 z" fill="#FFFFFF" id="path13-0"/>
      <path d="M33.495,16.181 C29.23,16.181 27.319,18.527 26.25,20.174 L26.25,16.75 L18.212,16.75 C18.319,19.019 18.212,40.934 18.212,40.934 L26.25,40.934 L26.25,27.428 C26.25,26.705 26.302,25.982 26.515,25.465 C27.095,24.022 28.419,22.526 30.64,22.526 C33.547,22.526 34.712,24.745 34.712,27.995 L34.712,40.934 L42.75,40.934 L42.75,27.065 C42.75,19.637 38.784,16.181 33.495,16.181 z" fill="#FFFFFF" id="path15"/>
    </g>
  </g>
</svg>
