<?xml version="1.0" encoding="UTF-8"?>
<!DOCTYPE svg PUBLIC "-//W3C//DTD SVG 1.1//EN" "http://www.w3.org/Graphics/SVG/1.1/DTD/svg11.dtd">
<svg version="1.1" xmlns="http://www.w3.org/2000/svg" xmlns:xlink="http://www.w3.org/1999/xlink" x="0" y="0" width="117.194" height="126.446" viewBox="0, 0, 117.194, 126.446">
  <g id="Layer_1" transform="translate(-249.003, -233.804)">
    <text transform="matrix(1, 0, 0, 1, 307.6, 292.968)">
      <tspan x="-39.654" y="10.5" font-family="SnellRoundhand-Black" font-size="36" fill="#DAC08B">N.G.</tspan>
    </text>
    <path d="M307.6,235.674 C306.87,234.545 305.412,235.394 305.875,236.618 C306.123,237.273 307.119,237.748 307.6,238.951 C308.082,237.748 309.078,237.273 309.325,236.618 C309.789,235.394 308.331,234.545 307.6,235.674 z M307.6,233.804 C307.92,233.804 308.18,234.064 308.18,234.384 C308.18,234.704 307.92,234.963 307.6,234.963 C307.28,234.963 307.021,234.704 307.021,234.384 C307.021,234.064 307.28,233.804 307.6,233.804" fill="#DAC08B"/>
    <path d="M275.1,253.005 C274.956,253.268 274.851,253.642 274.855,254.172 C277.142,253.176 278.995,255.423 277.322,256.71 C277.341,254.964 275.739,255.048 274.732,255.939 C272.834,257.617 273.299,261.34 274.588,263.339 C271.673,260.132 271.805,255.865 275.1,253.005" fill="#DAC08B"/>
    <path d="M260.423,252.188 C261.15,252.503 261.483,253.347 261.168,254.074 C260.852,254.801 260.008,255.134 259.282,254.818 C258.555,254.503 258.222,253.659 258.537,252.932 C258.852,252.206 259.697,251.872 260.423,252.188" fill="#DAC08B"/>
    <path d="M256.067,257.954 C256.598,258.185 256.842,258.803 256.611,259.335 C256.381,259.867 255.763,260.111 255.231,259.88 C254.699,259.65 254.455,259.031 254.686,258.499 C254.917,257.968 255.535,257.724 256.067,257.954" fill="#DAC08B"/>
    <path d="M257.142,254.601 C257.772,254.875 258.062,255.607 257.788,256.237 C257.514,256.868 256.782,257.157 256.151,256.884 C255.521,256.61 255.232,255.877 255.505,255.247 C255.779,254.617 256.512,254.327 257.142,254.601" fill="#DAC08B"/>
    <path d="M307.6,267.351 C307.6,267.351 309.447,266.207 309.329,264.09 C310.738,265.089 312.461,263.771 312.461,263.771 C312.461,263.771 308.386,263.597 307.6,258.096 C306.815,263.597 302.74,263.771 302.74,263.771 C302.74,263.771 304.462,265.089 305.872,264.09 C305.754,266.207 307.6,267.351 307.6,267.351" fill="#DAC08B"/>
    <path d="M296.453,255.561 C287.383,255.007 281.731,263.975 274.87,268.574 C271.283,270.979 266.395,272.925 262.11,271.248 C257.094,269.283 255.018,261.92 258.236,258.055 C261.223,254.468 265.232,255.78 266.262,258.032 C266.879,259.379 266.475,261.267 264.884,262.034 C263.654,262.628 261.953,261.943 261.767,260.506 C261.697,259.963 261.934,259.219 262.439,258.927 C262.922,258.648 263.54,258.814 263.819,259.297 C264.098,259.78 263.932,260.397 263.449,260.676 C263.201,260.819 262.918,260.845 262.663,260.772 C263.034,261.419 263.729,261.478 264.368,261.247 C265.449,260.468 265.651,258.016 263.095,257.428 C261.821,257.136 260.456,257.636 259.537,258.602 C256.252,262.056 257.889,268.574 262.476,270.371 C266.516,271.953 270.713,269.785 273.915,267.32 C280.149,262.52 285.93,253.918 296.453,255.561" fill="#DAC08B"/>
    <path d="M275.996,260.52 C276.809,259.546 277.645,258.594 278.578,257.721 C280.096,256.301 281.865,255.243 284.128,255.301 C285.633,255.339 286.965,255.936 287.98,256.862 C288.247,257.106 288.494,257.375 288.718,257.665 L287.882,258.31 C287.699,258.072 287.493,257.849 287.269,257.644 C284.781,255.373 281.394,256.042 279.173,258.313 C276.319,261.233 274.588,264.58 271.083,267.361 C269.81,268.373 268.345,269.053 266.905,269.323 C263.871,269.931 260.61,268.667 259.037,264.885 C259.037,264.885 259.577,265.461 260.888,265.765 C260.53,263.764 262.662,262.719 263.366,264.289 C261.985,263.944 261.75,265.229 262.265,266.196 C263.313,268.16 265.852,268.467 267.74,267.6 C266.145,267.39 264.968,266.325 266.045,264.243 C267.443,265.979 269.273,266.214 271.048,265.362 C273.128,264.365 274.579,262.22 275.996,260.52" fill="#DAC08B"/>
    <path d="M269.726,253.864 C268.897,253.571 268.017,253.875 267.941,254.834 C266.823,253.8 267.989,252.167 269.506,252.434 C268.298,251.448 266.737,250.981 265.161,251.589 C265.366,251.689 265.555,251.831 265.714,252.014 C266.347,252.742 266.27,253.846 265.542,254.48 C264.813,255.113 263.709,255.036 263.076,254.308 C262.83,254.025 262.691,253.686 262.656,253.339 C262.314,249.981 267.926,248.717 271.091,252.496 C273.622,255.52 273.017,258.773 274.221,262.43 C275.742,267.046 281.485,269.388 285.647,267.315 C288.792,265.749 289.91,261.369 287.882,258.31 L287.815,257.542 L288.718,257.665 C291.115,261.349 289.563,266.134 285.908,268.038 C281.139,270.524 274.941,267.996 273.216,262.761 C272.789,261.462 272.559,259.906 272.297,258.345 C271.992,256.532 271.507,254.494 269.726,253.864" fill="#DAC08B"/>
    <path d="M257.344,266.059 C256.717,263.191 253.833,262.414 253.561,264.381 C252.58,263.362 253.75,261.911 255.142,262.24 C254.076,261.26 252.899,260.806 251.424,261.408 C251.609,261.512 251.777,261.654 251.914,261.832 C252.462,262.542 252.331,263.562 251.621,264.11 C250.911,264.658 249.891,264.527 249.343,263.817 C249.13,263.541 249.02,263.219 249.006,262.896 C248.871,259.762 253.879,258.707 256.61,262.384 C257.434,263.495 257.92,264.678 258.124,265.877 L257.344,266.059" fill="#DAC08B"/>
    <path d="M280.495,264.521 C281.721,264.909 283.237,264.102 284.328,263.377 C286.405,261.997 287.908,259.766 290.112,258.139 C291.564,257.068 293.49,256.259 295.483,256.128 C297.862,255.971 300.119,256.922 300.398,258.711 L298.15,258.545 C297.847,256.538 294.75,256.927 293.179,257.547 C290.979,258.414 289.041,260.694 287.593,262.48 C286.052,264.379 282.719,267.597 280.495,264.521" fill="#DAC08B"/>
    <path d="M340.102,253.005 C340.245,253.268 340.35,253.642 340.346,254.172 C338.059,253.176 336.206,255.423 337.879,256.71 C337.86,254.964 339.462,255.048 340.469,255.939 C342.367,257.617 341.902,261.34 340.613,263.339 C343.528,260.132 343.397,255.865 340.102,253.005" fill="#DAC08B"/>
    <path d="M354.778,252.188 C354.052,252.503 353.718,253.347 354.033,254.074 C354.349,254.801 355.193,255.134 355.92,254.818 C356.646,254.503 356.979,253.659 356.664,252.932 C356.349,252.206 355.504,251.872 354.778,252.188" fill="#DAC08B"/>
    <path d="M359.134,257.954 C358.602,258.185 358.359,258.803 358.589,259.335 C358.82,259.867 359.438,260.111 359.97,259.88 C360.502,259.65 360.746,259.031 360.515,258.499 C360.284,257.968 359.666,257.724 359.134,257.954" fill="#DAC08B"/>
    <path d="M358.059,254.601 C357.429,254.875 357.139,255.607 357.413,256.237 C357.687,256.868 358.42,257.157 359.05,256.884 C359.68,256.61 359.969,255.877 359.696,255.247 C359.422,254.617 358.689,254.327 358.059,254.601" fill="#DAC08B"/>
    <path d="M318.747,255.561 C327.818,255.007 333.47,263.975 340.331,268.574 C343.918,270.979 348.806,272.925 353.091,271.248 C358.107,269.283 360.183,261.92 356.965,258.055 C353.979,254.468 349.968,255.78 348.939,258.032 C348.322,259.379 348.725,261.267 350.317,262.034 C351.547,262.628 353.248,261.943 353.434,260.506 C353.504,259.963 353.266,259.219 352.762,258.927 C352.279,258.648 351.661,258.814 351.382,259.297 C351.103,259.78 351.269,260.397 351.752,260.676 C351.999,260.819 352.283,260.845 352.538,260.772 C352.167,261.419 351.472,261.478 350.834,261.247 C349.751,260.468 349.55,258.016 352.106,257.428 C353.38,257.136 354.744,257.636 355.665,258.602 C358.949,262.056 357.312,268.574 352.725,270.371 C348.685,271.953 344.488,269.785 341.286,267.32 C335.052,262.52 329.271,253.918 318.747,255.561" fill="#DAC08B"/>
    <path d="M339.205,260.52 C338.392,259.546 337.556,258.594 336.623,257.721 C335.105,256.301 333.336,255.243 331.073,255.301 C329.568,255.339 328.236,255.936 327.221,256.862 C326.954,257.106 326.707,257.375 326.483,257.665 L327.319,258.31 C327.502,258.072 327.708,257.849 327.932,257.644 C330.42,255.373 333.807,256.042 336.028,258.313 C338.882,261.233 340.613,264.58 344.118,267.361 C345.392,268.373 346.857,269.053 348.295,269.323 C351.329,269.931 354.591,268.667 356.164,264.885 C356.164,264.885 355.623,265.461 354.313,265.765 C354.671,263.764 352.539,262.719 351.835,264.289 C353.215,263.944 353.451,265.229 352.936,266.196 C351.888,268.16 349.349,268.467 347.461,267.6 C349.056,267.39 350.233,266.325 349.156,264.243 C347.758,265.979 345.928,266.214 344.153,265.362 C342.073,264.365 340.622,262.22 339.205,260.52" fill="#DAC08B"/>
    <path d="M345.475,253.864 C346.304,253.571 347.184,253.875 347.26,254.834 C348.378,253.8 347.212,252.167 345.695,252.434 C346.903,251.448 348.464,250.981 350.04,251.589 C349.835,251.689 349.646,251.831 349.487,252.014 C348.854,252.742 348.931,253.846 349.659,254.48 C350.388,255.113 351.491,255.036 352.125,254.308 C352.371,254.025 352.509,253.686 352.545,253.339 C352.887,249.981 347.274,248.717 344.11,252.496 C341.579,255.52 342.184,258.773 340.98,262.43 C339.459,267.046 333.716,269.388 329.554,267.315 C326.409,265.749 325.291,261.369 327.319,258.31 L327.386,257.542 L326.483,257.665 C324.086,261.349 325.638,266.134 329.292,268.038 C334.062,270.524 340.26,267.996 341.985,262.761 C342.412,261.462 342.642,259.906 342.904,258.345 C343.208,256.532 343.694,254.494 345.475,253.864" fill="#DAC08B"/>
    <path d="M357.857,266.059 C358.484,263.191 361.367,262.414 361.64,264.381 C362.621,263.362 361.451,261.911 360.058,262.24 C361.125,261.26 362.302,260.806 363.777,261.408 C363.592,261.512 363.424,261.654 363.287,261.832 C362.739,262.542 362.87,263.562 363.58,264.11 C364.29,264.658 365.31,264.527 365.858,263.817 C366.071,263.541 366.181,263.219 366.195,262.896 C366.33,259.762 361.322,258.707 358.591,262.384 C357.767,263.495 357.281,264.678 357.077,265.877 L357.857,266.059" fill="#DAC08B"/>
    <path d="M334.706,264.521 C333.48,264.909 331.964,264.102 330.873,263.377 C328.796,261.997 327.293,259.766 325.089,258.139 C323.637,257.068 321.711,256.259 319.718,256.128 C317.339,255.971 315.082,256.922 314.803,258.711 L317.051,258.545 C317.354,256.538 320.45,256.927 322.022,257.547 C324.222,258.414 326.16,260.694 327.608,262.48 C329.149,264.379 332.482,267.597 334.706,264.521" fill="#DAC08B"/>
    <path d="M307.6,358.38 C306.87,359.509 305.412,358.66 305.875,357.435 C306.123,356.78 307.119,356.306 307.6,355.102 C308.082,356.306 309.078,356.78 309.325,357.435 C309.789,358.66 308.331,359.509 307.6,358.38 z M307.6,360.25 C307.92,360.25 308.18,359.99 308.18,359.67 C308.18,359.35 307.92,359.09 307.6,359.09 C307.28,359.09 307.021,359.35 307.021,359.67 C307.021,359.99 307.28,360.25 307.6,360.25" fill="#DAC08B"/>
    <path d="M275.1,341.049 C274.956,340.786 274.851,340.412 274.855,339.882 C277.142,340.878 278.995,338.631 277.322,337.344 C277.341,339.09 275.739,339.005 274.732,338.115 C272.834,336.437 273.299,332.714 274.588,330.715 C271.673,333.922 271.805,338.189 275.1,341.049" fill="#DAC08B"/>
    <path d="M260.423,341.866 C261.15,341.551 261.483,340.706 261.168,339.98 C260.852,339.254 260.008,338.92 259.282,339.236 C258.555,339.551 258.222,340.395 258.537,341.122 C258.852,341.848 259.697,342.181 260.423,341.866" fill="#DAC08B"/>
    <path d="M256.067,336.1 C256.598,335.869 256.842,335.25 256.611,334.719 C256.381,334.187 255.763,333.943 255.231,334.173 C254.699,334.404 254.455,335.023 254.686,335.554 C254.917,336.087 255.535,336.331 256.067,336.1" fill="#DAC08B"/>
    <path d="M257.142,339.453 C257.772,339.179 258.062,338.447 257.788,337.816 C257.514,337.186 256.782,336.897 256.151,337.17 C255.521,337.444 255.232,338.177 255.505,338.807 C255.779,339.437 256.512,339.726 257.142,339.453" fill="#DAC08B"/>
    <path d="M307.6,326.703 C307.6,326.703 309.447,327.847 309.329,329.963 C310.738,328.965 312.461,330.283 312.461,330.283 C312.461,330.283 308.386,330.457 307.6,335.958 C306.815,330.457 302.74,330.283 302.74,330.283 C302.74,330.283 304.462,328.965 305.872,329.963 C305.754,327.847 307.6,326.703 307.6,326.703" fill="#DAC08B"/>
    <path d="M296.453,338.493 C287.383,339.047 281.731,330.079 274.87,325.48 C271.283,323.075 266.395,321.128 262.11,322.806 C257.094,324.771 255.018,332.134 258.236,335.998 C261.223,339.586 265.232,338.273 266.262,336.022 C266.879,334.675 266.475,332.786 264.884,332.019 C263.654,331.426 261.953,332.111 261.767,333.548 C261.697,334.091 261.934,334.835 262.439,335.127 C262.922,335.405 263.54,335.24 263.819,334.757 C264.098,334.274 263.932,333.656 263.449,333.378 C263.201,333.235 262.918,333.208 262.663,333.282 C263.034,332.635 263.729,332.576 264.368,332.806 C265.449,333.586 265.651,336.038 263.095,336.626 C261.821,336.918 260.456,336.418 259.537,335.452 C256.252,331.999 257.889,325.48 262.476,323.683 C266.516,322.101 270.713,324.268 273.915,326.734 C280.149,331.534 285.93,340.135 296.453,338.493" fill="#DAC08B"/>
    <path d="M275.996,333.534 C276.809,334.509 277.645,335.459 278.578,336.333 C280.096,337.753 281.865,338.81 284.128,338.753 C285.633,338.714 286.965,338.117 287.98,337.192 C288.247,336.948 288.494,336.679 288.718,336.389 L287.882,335.744 C287.699,335.981 287.493,336.204 287.269,336.411 C284.781,338.681 281.394,338.011 279.173,335.74 C276.319,332.821 274.588,329.474 271.083,326.692 C269.81,325.681 268.345,325.001 266.905,324.731 C263.871,324.123 260.61,325.387 259.037,329.169 C259.037,329.169 259.577,328.593 260.888,328.289 C260.53,330.29 262.662,331.335 263.366,329.765 C261.985,330.11 261.75,328.825 262.265,327.857 C263.313,325.894 265.852,325.587 267.74,326.454 C266.145,326.663 264.968,327.729 266.045,329.811 C267.443,328.075 269.273,327.839 271.048,328.692 C273.128,329.689 274.579,331.834 275.996,333.534" fill="#DAC08B"/>
    <path d="M269.726,340.19 C268.897,340.483 268.017,340.179 267.941,339.22 C266.823,340.254 267.989,341.886 269.506,341.619 C268.298,342.605 266.737,343.073 265.161,342.465 C265.366,342.365 265.555,342.223 265.714,342.04 C266.347,341.311 266.27,340.208 265.542,339.574 C264.813,338.941 263.709,339.018 263.076,339.746 C262.83,340.029 262.691,340.368 262.656,340.714 C262.314,344.072 267.926,345.337 271.091,341.557 C273.622,338.535 273.017,335.281 274.221,331.624 C275.742,327.008 281.485,324.666 285.647,326.739 C288.792,328.305 289.91,332.684 287.882,335.744 L287.815,336.513 L288.718,336.389 C291.115,332.705 289.563,327.919 285.908,326.015 C281.139,323.529 274.941,326.057 273.216,331.293 C272.789,332.592 272.559,334.148 272.297,335.709 C271.992,337.522 271.507,339.56 269.726,340.19" fill="#DAC08B"/>
    <path d="M257.344,327.995 C256.717,330.863 253.833,331.64 253.561,329.673 C252.58,330.692 253.75,332.143 255.142,331.813 C254.076,332.793 252.899,333.248 251.424,332.646 C251.609,332.542 251.777,332.4 251.914,332.222 C252.462,331.512 252.331,330.492 251.621,329.943 C250.911,329.395 249.891,329.527 249.343,330.237 C249.13,330.513 249.02,330.835 249.006,331.158 C248.871,334.291 253.879,335.347 256.61,331.67 C257.434,330.559 257.92,329.376 258.124,328.177 L257.344,327.995" fill="#DAC08B"/>
    <path d="M280.495,329.533 C281.721,329.144 283.237,329.952 284.328,330.677 C286.405,332.057 287.908,334.288 290.112,335.914 C291.564,336.985 293.49,337.795 295.483,337.926 C297.862,338.082 300.119,337.132 300.398,335.343 L298.15,335.509 C297.847,337.516 294.75,337.127 293.179,336.507 C290.979,335.64 289.041,333.359 287.593,331.575 C286.052,329.675 282.719,326.457 280.495,329.533" fill="#DAC08B"/>
    <path d="M340.102,341.049 C340.245,340.786 340.35,340.412 340.346,339.882 C338.059,340.878 336.206,338.631 337.879,337.344 C337.86,339.09 339.462,339.005 340.469,338.115 C342.367,336.437 341.902,332.714 340.613,330.715 C343.528,333.922 343.397,338.189 340.102,341.049" fill="#DAC08B"/>
    <path d="M354.778,341.866 C354.052,341.551 353.718,340.706 354.033,339.98 C354.349,339.254 355.193,338.92 355.92,339.236 C356.646,339.551 356.979,340.395 356.664,341.122 C356.349,341.848 355.504,342.181 354.778,341.866" fill="#DAC08B"/>
    <path d="M359.134,336.1 C358.602,335.869 358.359,335.25 358.589,334.719 C358.82,334.187 359.438,333.943 359.97,334.173 C360.502,334.404 360.746,335.023 360.515,335.554 C360.284,336.087 359.666,336.331 359.134,336.1" fill="#DAC08B"/>
    <path d="M358.059,339.453 C357.429,339.179 357.139,338.447 357.413,337.816 C357.687,337.186 358.42,336.897 359.05,337.17 C359.68,337.444 359.969,338.177 359.696,338.807 C359.422,339.437 358.689,339.726 358.059,339.453" fill="#DAC08B"/>
    <path d="M318.747,338.493 C327.818,339.047 333.47,330.079 340.331,325.48 C343.918,323.075 348.806,321.128 353.091,322.806 C358.107,324.771 360.183,332.134 356.965,335.998 C353.979,339.586 349.968,338.273 348.939,336.022 C348.322,334.675 348.725,332.786 350.317,332.019 C351.547,331.426 353.248,332.111 353.434,333.548 C353.504,334.091 353.266,334.835 352.762,335.127 C352.279,335.405 351.661,335.24 351.382,334.757 C351.103,334.274 351.269,333.656 351.752,333.378 C351.999,333.235 352.283,333.208 352.538,333.282 C352.167,332.635 351.472,332.576 350.834,332.806 C349.751,333.586 349.55,336.038 352.106,336.626 C353.38,336.918 354.744,336.418 355.665,335.452 C358.949,331.999 357.312,325.48 352.725,323.683 C348.685,322.101 344.488,324.268 341.286,326.734 C335.052,331.534 329.271,340.135 318.747,338.493" fill="#DAC08B"/>
    <path d="M339.205,333.534 C338.392,334.509 337.556,335.459 336.623,336.333 C335.105,337.753 333.336,338.81 331.073,338.753 C329.568,338.714 328.236,338.117 327.221,337.192 C326.954,336.948 326.707,336.679 326.483,336.389 L327.319,335.744 C327.502,335.981 327.708,336.204 327.932,336.411 C330.42,338.681 333.807,338.011 336.028,335.74 C338.882,332.821 340.613,329.474 344.118,326.692 C345.392,325.681 346.857,325.001 348.295,324.731 C351.329,324.123 354.591,325.387 356.164,329.169 C356.164,329.169 355.623,328.593 354.313,328.289 C354.671,330.29 352.539,331.335 351.835,329.765 C353.215,330.11 353.451,328.825 352.936,327.857 C351.888,325.894 349.349,325.587 347.461,326.454 C349.056,326.663 350.233,327.729 349.156,329.811 C347.758,328.075 345.928,327.839 344.153,328.692 C342.073,329.689 340.622,331.834 339.205,333.534" fill="#DAC08B"/>
    <path d="M345.475,340.19 C346.304,340.483 347.184,340.179 347.26,339.22 C348.378,340.254 347.212,341.886 345.695,341.619 C346.903,342.605 348.464,343.073 350.04,342.465 C349.835,342.365 349.646,342.223 349.487,342.04 C348.854,341.311 348.931,340.208 349.659,339.574 C350.388,338.941 351.491,339.018 352.125,339.746 C352.371,340.029 352.509,340.368 352.545,340.714 C352.887,344.072 347.274,345.337 344.11,341.557 C341.579,338.535 342.184,335.281 340.98,331.624 C339.459,327.008 333.716,324.666 329.554,326.739 C326.409,328.305 325.291,332.684 327.319,335.744 L327.386,336.513 L326.483,336.389 C324.086,332.705 325.638,327.919 329.292,326.015 C334.062,323.529 340.26,326.057 341.985,331.293 C342.412,332.592 342.642,334.148 342.904,335.709 C343.208,337.522 343.694,339.56 345.475,340.19" fill="#DAC08B"/>
    <path d="M357.857,327.995 C358.484,330.863 361.367,331.64 361.64,329.673 C362.621,330.692 361.451,332.143 360.058,331.813 C361.125,332.793 362.302,333.248 363.777,332.646 C363.592,332.542 363.424,332.4 363.287,332.222 C362.739,331.512 362.87,330.492 363.58,329.943 C364.29,329.395 365.31,329.527 365.858,330.237 C366.071,330.513 366.181,330.835 366.195,331.158 C366.33,334.291 361.322,335.347 358.591,331.67 C357.767,330.559 357.281,329.376 357.077,328.177 L357.857,327.995" fill="#DAC08B"/>
    <path d="M334.706,329.533 C333.48,329.144 331.964,329.952 330.873,330.677 C328.796,332.057 327.293,334.288 325.089,335.914 C323.637,336.985 321.711,337.795 319.718,337.926 C317.339,338.082 315.082,337.132 314.803,335.343 L317.051,335.509 C317.354,337.516 320.45,337.127 322.022,336.507 C324.222,335.64 326.16,333.359 327.608,331.575 C329.149,329.675 332.482,326.457 334.706,329.533" fill="#DAC08B"/>
    <path d="M350.382,274.946 C352.117,278.301 353.47,281.889 354.383,285.649 C355.268,289.302 355.737,293.112 355.737,297.027 C355.737,300.942 355.268,304.752 354.383,308.404 C353.47,312.165 352.117,315.753 350.382,319.108 L349.548,318.678 C351.251,315.385 352.577,311.868 353.47,308.184 C354.337,304.611 354.796,300.875 354.796,297.027 C354.796,293.179 354.337,289.442 353.47,285.87 C352.577,282.186 351.251,278.669 349.548,275.376 L350.382,274.946 z M264.819,319.108 C263.083,315.753 261.73,312.165 260.818,308.404 C259.933,304.752 259.463,300.942 259.463,297.027 C259.463,293.112 259.933,289.302 260.818,285.649 C261.73,281.889 263.083,278.301 264.819,274.946 L265.653,275.376 C263.95,278.669 262.623,282.186 261.73,285.87 C260.864,289.442 260.405,293.179 260.405,297.027 C260.405,300.875 260.864,304.611 261.73,308.184 C262.623,311.868 263.95,315.385 265.653,318.678 L264.819,319.108 z M347.932,276.363 C349.546,279.506 350.803,282.864 351.651,286.383 C352.474,289.802 352.91,293.366 352.91,297.027 C352.91,300.688 352.474,304.252 351.651,307.671 C350.803,311.19 349.546,314.548 347.932,317.691 L347.097,317.264 C348.678,314.186 349.91,310.897 350.738,307.454 C351.543,304.115 351.969,300.623 351.969,297.027 C351.969,293.43 351.543,289.939 350.738,286.6 C349.91,283.157 348.678,279.868 347.097,276.789 L347.932,276.363 z M267.269,317.691 C265.655,314.548 264.397,311.19 263.55,307.671 C262.727,304.252 262.29,300.688 262.29,297.027 C262.29,293.366 262.727,289.802 263.55,286.383 C264.397,282.864 265.655,279.506 267.269,276.363 L268.104,276.789 C266.523,279.868 265.291,283.157 264.462,286.6 C263.658,289.939 263.232,293.43 263.232,297.027 C263.232,300.623 263.658,304.115 264.462,307.454 C265.291,310.897 266.523,314.186 268.104,317.264 L267.269,317.691" fill="#DAC08B"/>
    <path d="M305.817,256.831 C305.859,254.401 301.064,250.697 299.489,248.045 C298.835,246.944 298.361,245.748 298.205,244.432 C297.959,242.352 298.538,240.764 299.469,239.651 C301.088,237.717 304.22,236.806 306.185,238.768 C306.825,239.406 307.228,240.295 307.2,241.362 C307.173,242.398 306.459,243.774 305.303,243.774 C304.593,243.774 304.016,243.198 304.016,242.487 C304.016,241.776 304.593,241.199 305.303,241.199 C305.742,241.199 306.13,241.419 306.362,241.754 C307.002,238.572 301.854,236.688 300.448,241.113 C298.308,247.853 306.84,251.446 305.817,256.831" fill="#DAC08B"/>
    <path d="M296.754,262.058 C294.056,258.412 298.791,255.54 300.223,258.097 C300.584,258.741 300.373,259.553 299.734,259.922 C299.095,260.291 298.278,260.072 297.909,259.433 C297.72,259.105 297.685,258.73 297.782,258.393 C296.618,259.061 296.894,260.518 297.583,261.45 C300.212,265.005 307.695,260.05 301.829,253.977 C301.035,253.156 300.13,252.582 299.275,252.478 C298.403,252.372 297.609,252.861 297.744,253.813 C296.428,253.048 297.21,251.2 298.748,251.131 C297.355,250.431 295.729,250.315 294.324,251.252 C294.546,251.305 294.761,251.402 294.956,251.546 C295.733,252.119 295.898,253.213 295.325,253.99 C294.752,254.767 293.658,254.932 292.881,254.359 C292.579,254.137 292.37,253.836 292.26,253.505 C291.195,250.302 296.397,247.847 300.31,250.846 C301.166,251.503 302.1,252.398 302.917,253.426 C309.317,261.486 299.902,266.313 296.754,262.058" fill="#DAC08B"/>
    <path d="M299.591,251.368 C291.776,247.053 294.769,239.045 298.323,238.576 C294.475,241.149 296.02,248.335 300.309,250.846 L299.591,251.368" fill="#DAC08B"/>
    <path d="M309.384,256.831 C309.341,254.401 314.137,250.697 315.711,248.045 C316.365,246.944 316.84,245.748 316.996,244.432 C317.242,242.352 316.663,240.764 315.732,239.651 C314.113,237.717 310.981,236.806 309.015,238.768 C308.376,239.406 307.973,240.295 308.001,241.362 C308.028,242.398 308.742,243.774 309.898,243.774 C310.608,243.774 311.185,243.198 311.185,242.487 C311.185,241.776 310.608,241.199 309.898,241.199 C309.458,241.199 309.071,241.419 308.839,241.754 C308.198,238.572 313.346,236.688 314.753,241.113 C316.893,247.853 308.36,251.446 309.384,256.831" fill="#DAC08B"/>
    <path d="M318.447,262.058 C321.145,258.412 316.41,255.54 314.978,258.097 C314.617,258.741 314.827,259.553 315.467,259.922 C316.106,260.291 316.923,260.072 317.292,259.433 C317.481,259.105 317.516,258.73 317.418,258.393 C318.583,259.061 318.307,260.518 317.618,261.45 C314.989,265.005 307.506,260.05 313.372,253.977 C314.165,253.156 315.071,252.582 315.926,252.478 C316.798,252.372 317.592,252.861 317.457,253.813 C318.773,253.048 317.991,251.2 316.452,251.131 C317.846,250.431 319.472,250.315 320.877,251.252 C320.655,251.305 320.44,251.402 320.245,251.546 C319.468,252.119 319.303,253.213 319.876,253.99 C320.449,254.767 321.543,254.932 322.32,254.359 C322.621,254.137 322.831,253.836 322.941,253.505 C324.005,250.302 318.804,247.847 314.891,250.846 C314.034,251.503 313.1,252.398 312.284,253.426 C305.884,261.486 315.299,266.313 318.447,262.058" fill="#DAC08B"/>
    <path d="M315.61,251.368 C323.425,247.053 320.432,239.045 316.878,238.576 C320.726,241.149 319.181,248.335 314.891,250.846 L315.61,251.368" fill="#DAC08B"/>
    <path d="M305.817,337.223 C305.859,339.653 301.064,343.357 299.489,346.009 C298.835,347.11 298.361,348.306 298.205,349.622 C297.959,351.702 298.538,353.29 299.469,354.403 C301.088,356.337 304.22,357.248 306.185,355.286 C306.825,354.648 307.228,353.759 307.2,352.692 C307.173,351.656 306.459,350.279 305.303,350.279 C304.593,350.279 304.016,350.856 304.016,351.567 C304.016,352.278 304.593,352.854 305.303,352.854 C305.742,352.854 306.13,352.635 306.362,352.3 C307.002,355.482 301.854,357.366 300.448,352.94 C298.308,346.2 306.84,342.607 305.817,337.223" fill="#DAC08B"/>
    <path d="M296.754,331.996 C294.056,335.643 298.791,338.514 300.223,335.957 C300.584,335.313 300.373,334.501 299.734,334.131 C299.095,333.763 298.278,333.982 297.909,334.621 C297.72,334.949 297.685,335.323 297.782,335.66 C296.618,334.992 296.894,333.536 297.583,332.604 C300.212,329.049 307.695,334.004 301.829,340.077 C301.035,340.898 300.13,341.472 299.275,341.576 C298.403,341.682 297.609,341.193 297.744,340.241 C296.428,341.006 297.21,342.853 298.748,342.923 C297.355,343.623 295.729,343.739 294.324,342.802 C294.546,342.749 294.761,342.651 294.956,342.508 C295.733,341.935 295.898,340.84 295.325,340.064 C294.752,339.287 293.658,339.121 292.881,339.695 C292.579,339.917 292.37,340.218 292.26,340.549 C291.195,343.752 296.397,346.207 300.31,343.208 C301.166,342.551 302.1,341.656 302.917,340.627 C309.317,332.568 299.902,327.741 296.754,331.996" fill="#DAC08B"/>
    <path d="M299.591,342.685 C291.776,347 294.769,355.009 298.323,355.477 C294.475,352.905 296.02,345.719 300.309,343.208 L299.591,342.685" fill="#DAC08B"/>
    <path d="M309.384,337.223 C309.341,339.653 314.137,343.357 315.711,346.009 C316.365,347.11 316.84,348.306 316.996,349.622 C317.242,351.702 316.663,353.29 315.732,354.403 C314.113,356.337 310.981,357.248 309.015,355.286 C308.376,354.648 307.973,353.759 308.001,352.692 C308.028,351.656 308.742,350.279 309.898,350.279 C310.608,350.279 311.185,350.856 311.185,351.567 C311.185,352.278 310.608,352.854 309.898,352.854 C309.458,352.854 309.071,352.635 308.839,352.3 C308.198,355.482 313.346,357.366 314.753,352.94 C316.893,346.2 308.36,342.607 309.384,337.223" fill="#DAC08B"/>
    <path d="M318.447,331.996 C321.145,335.643 316.41,338.514 314.978,335.957 C314.617,335.313 314.827,334.501 315.467,334.131 C316.106,333.763 316.923,333.982 317.292,334.621 C317.481,334.949 317.516,335.323 317.418,335.66 C318.583,334.992 318.307,333.536 317.618,332.604 C314.989,329.049 307.506,334.004 313.372,340.077 C314.165,340.898 315.071,341.472 315.926,341.576 C316.798,341.682 317.592,341.193 317.457,340.241 C318.773,341.006 317.991,342.853 316.452,342.923 C317.846,343.623 319.472,343.739 320.877,342.802 C320.655,342.749 320.44,342.651 320.245,342.508 C319.468,341.935 319.303,340.84 319.876,340.064 C320.449,339.287 321.543,339.121 322.32,339.695 C322.621,339.917 322.831,340.218 322.941,340.549 C324.005,343.752 318.804,346.207 314.891,343.208 C314.034,342.551 313.1,341.656 312.284,340.627 C305.884,332.568 315.299,327.741 318.447,331.996" fill="#DAC08B"/>
    <path d="M315.61,342.685 C323.425,347 320.432,355.009 316.878,355.477 C320.726,352.905 319.181,345.719 314.891,343.208 L315.61,342.685" fill="#DAC08B"/>
    <text transform="matrix(1, 0, 0, 1, 307.601, 315.427)">
      <tspan x="-29.256" y="2.375" font-family="Luminari-Regular" font-size="12" fill="#DAC08B">Commerce</tspan>
    </text>
  </g>
</svg>
