<?xml version="1.0" encoding="UTF-8"?>
<!DOCTYPE svg PUBLIC "-//W3C//DTD SVG 1.1//EN" "http://www.w3.org/Graphics/SVG/1.1/DTD/svg11.dtd">
<svg version="1.1" xmlns="http://www.w3.org/2000/svg" xmlns:xlink="http://www.w3.org/1999/xlink" x="0" y="0" width="92.182" height="120" viewBox="0, 0, 92.182, 120">
  <defs>
    <linearGradient id="Gradient_1" gradientUnits="userSpaceOnUse" x1="219.5" y1="56.604" x2="228.189" y2="81.162">
      <stop offset="0" stop-color="#2252B1"/>
      <stop offset="1" stop-color="#1A3E85"/>
    </linearGradient>
    <linearGradient id="Gradient_2" gradientUnits="userSpaceOnUse" x1="219.643" y1="57.95" x2="227.23" y2="80.33">
      <stop offset="0" stop-color="#FFFFFF"/>
      <stop offset="1" stop-color="#DCD8D5"/>
    </linearGradient>
    <linearGradient id="Gradient_3" gradientUnits="userSpaceOnUse" x1="280.502" y1="56.604" x2="271.813" y2="81.161">
      <stop offset="0" stop-color="#2252B1"/>
      <stop offset="1" stop-color="#1A3E85"/>
    </linearGradient>
    <linearGradient id="Gradient_4" gradientUnits="userSpaceOnUse" x1="280.359" y1="57.952" x2="272.773" y2="80.333">
      <stop offset="0" stop-color="#FFFFFF"/>
      <stop offset="1" stop-color="#DCD8D5"/>
    </linearGradient>
    <linearGradient id="Gradient_5" gradientUnits="userSpaceOnUse" x1="222.894" y1="89.245" x2="276.953" y2="143.304">
      <stop offset="0" stop-color="#E2E3E4"/>
      <stop offset="0.607" stop-color="#9D9FA2"/>
      <stop offset="1" stop-color="#E2E3E4"/>
    </linearGradient>
    <linearGradient id="Gradient_6" gradientUnits="userSpaceOnUse" x1="269.157" y1="135.508" x2="230.692" y2="97.043">
      <stop offset="0" stop-color="#C5C6C8"/>
      <stop offset="0.006" stop-color="#C5C6C8"/>
      <stop offset="0.281" stop-color="#EBEBEC"/>
      <stop offset="0.522" stop-color="#B2B4B6"/>
      <stop offset="0.775" stop-color="#828487"/>
      <stop offset="1" stop-color="#C5C6C8"/>
    </linearGradient>
    <linearGradient id="Gradient_7" gradientUnits="userSpaceOnUse" x1="214.309" y1="116.262" x2="284.772" y2="116.262">
      <stop offset="0" stop-color="#C5C6C8"/>
      <stop offset="0.006" stop-color="#C5C6C8"/>
      <stop offset="0.281" stop-color="#EDEDEE"/>
      <stop offset="0.522" stop-color="#B2B4B6"/>
      <stop offset="0.775" stop-color="#828487"/>
      <stop offset="1" stop-color="#C5C6C8"/>
    </linearGradient>
  </defs>
  <g id="Layer_1" transform="translate(-203.909, -34.5)">
    <path d="M276.454,66.037 L223.304,66.037 L223.555,34.594 L276.541,34.5 z" fill="#215297"/>
    <path d="M276.454,55.83 L223.466,55.83 L223.466,45.365 L276.454,45.365 z" fill="#D6D8E1"/>
    <path d="M220.91,94.189 L203.909,57.922 L223.555,34.5 L244.712,82.479 z" fill="url(#Gradient_1)"/>
    <path d="M209.346,51.018 L227.153,91.117 L237.163,86.193 L216.796,42.131 z" fill="url(#Gradient_2)"/>
    <path d="M279.092,94.189 L296.091,57.922 L276.445,34.5 L255.29,82.479 z" fill="url(#Gradient_3)"/>
    <path d="M290.656,51.018 L272.849,91.117 L262.839,86.193 L283.206,42.131 z" fill="url(#Gradient_4)"/>
    <path d="M211.697,116.275 C211.697,137.385 228.811,154.5 249.924,154.5 L249.924,154.5 C271.034,154.5 288.148,137.385 288.148,116.275 L288.148,116.275 C288.148,95.162 271.034,78.049 249.924,78.049 L249.924,78.049 C228.811,78.049 211.697,95.162 211.697,116.275 z" fill="url(#Gradient_5)"/>
    <path d="M222.711,116.275 C222.711,131.279 234.918,143.487 249.924,143.487 L249.924,143.487 C264.928,143.487 277.135,131.279 277.135,116.275 L277.135,116.275 C277.135,101.27 264.928,89.063 249.924,89.063 L249.924,89.063 C234.918,89.063 222.711,101.27 222.711,116.275 z M225.953,116.275 C225.953,103.057 236.706,92.305 249.924,92.305 L249.924,92.305 C263.14,92.305 273.894,103.057 273.894,116.275 L273.894,116.275 C273.894,129.493 263.14,140.246 249.924,140.246 L249.924,140.246 C236.706,140.246 225.953,129.493 225.953,116.275 z" fill="url(#Gradient_6)"/>
    <path d="M214.309,116.265 C214.309,135.687 230.115,151.494 249.542,151.494 L249.542,151.494 C268.969,151.494 284.773,135.687 284.773,116.265 L284.773,116.265 C284.773,96.836 268.969,81.029 249.542,81.029 L249.542,81.029 C230.115,81.029 214.309,96.836 214.309,116.265 z M215.164,116.265 C215.164,97.309 230.588,81.889 249.542,81.889 L249.542,81.889 C268.495,81.889 283.917,97.309 283.917,116.265 L283.917,116.265 C283.917,135.217 268.495,150.639 249.542,150.639 L249.542,150.639 C230.588,150.639 215.164,135.217 215.164,116.265 z M216.515,116.265 C216.515,134.477 231.331,149.287 249.542,149.287 L249.542,149.287 C267.75,149.287 282.567,134.477 282.567,116.265 L282.567,116.265 C282.567,98.051 267.75,83.236 249.542,83.236 L249.542,83.236 C231.331,83.236 216.515,98.051 216.515,116.265 z M217.373,116.265 C217.373,98.524 231.802,84.098 249.542,84.098 L249.542,84.098 C267.278,84.098 281.708,98.524 281.708,116.265 L281.708,116.265 C281.708,134.002 267.278,148.431 249.542,148.431 L249.542,148.431 C231.802,148.431 217.373,134.002 217.373,116.265 z M218.808,116.265 C218.808,133.209 232.591,146.994 249.542,146.994 L249.542,146.994 C266.489,146.994 280.273,133.209 280.273,116.265 L280.273,116.265 C280.273,99.316 266.489,85.529 249.542,85.529 L249.542,85.529 C232.591,85.529 218.808,99.316 218.808,116.265 z M219.668,116.265 C219.668,99.787 233.066,86.389 249.542,86.389 L249.542,86.389 C266.016,86.389 279.415,99.787 279.415,116.265 L279.415,116.265 C279.415,132.736 266.016,146.139 249.542,146.139 L249.542,146.139 C233.066,146.139 219.668,132.736 219.668,116.265 z" fill="url(#Gradient_7)"/>
  </g>
</svg>
