<?xml version="1.0" encoding="UTF-8"?>
<!DOCTYPE svg PUBLIC "-//W3C//DTD SVG 1.1//EN" "http://www.w3.org/Graphics/SVG/1.1/DTD/svg11.dtd">
<svg version="1.1" xmlns="http://www.w3.org/2000/svg" xmlns:xlink="http://www.w3.org/1999/xlink" x="0" y="0" width="126.75" height="126" viewBox="0, 0, 126.75, 126">
  <g id="Image" transform="translate(-1.25, -2)">
    <g>
      <path d="M13.25,2 L116,2 C122.627,2 128,7.373 128,14 L128,116 C128,122.627 122.627,128 116,128 L13.25,128 C6.623,128 1.25,122.627 1.25,116 L1.25,14 C1.25,7.373 6.623,2 13.25,2 z" fill="#977D6D"/>
      <path d="M86,128 L86,79.875 L102.375,79.875 L106.125,59 L86,59 L86,42.25 C87.125,38.125 89,36.375 94,35.25 L106.125,35.25 L106.125,17.5 C91.75,13.5 78.875,17.086 78.875,17.5 C68.25,21.25 65.25,27.625 63.625,37 L63.625,59 L44.5,59 L44.5,79.875 L62.5,79.875 L62.5,128" fill="#FFFFFF"/>
    </g>
  </g>
</svg>
